<?xml version="1.0" encoding="utf-8"?>
<!-- Generator: Adobe Illustrator 23.0.2, SVG Export Plug-In . SVG Version: 6.00 Build 0)  -->
<svg version="1.1" id="Capa_1" xmlns="http://www.w3.org/2000/svg" xmlns:xlink="http://www.w3.org/1999/xlink" x="0px" y="0px"
	 viewBox="0 0 66 66" style="enable-background:new 0 0 66 66;" xml:space="preserve">
<style type="text/css">
	.st0{fill:#102EBA;}
	.st1{fill:#FFFFFF;}
	.st2{fill:#FFAF1E;}
</style>
<circle class="st0" cx="33" cy="33" r="33"/>
<path class="st1" d="M45.03,19.1h-2.22v-1.99c0-0.45-0.37-0.82-0.82-0.82s-0.82,0.37-0.82,0.82v1.99H24.25v-1.99
	c0-0.45-0.37-0.82-0.82-0.82s-0.82,0.37-0.82,0.82v1.99h-2.22c-2.26,0-4.11,1.87-4.11,4.13v21.35c0,2.26,1.84,4.09,4.1,4.09h24.65
	c2.26,0.01,4.1-1.82,4.11-4.08V23.23C49.14,20.97,47.3,19.1,45.03,19.1z M47.5,44.58c0,1.35-1.1,2.45-2.46,2.44H20.39
	c-1.35,0.01-2.46-1.08-2.46-2.43V23.23c0-1.36,1.11-2.49,2.46-2.49h2.22v2.88c0,0.45,0.37,0.82,0.82,0.82s0.82-0.37,0.82-0.82v-2.88
	h16.92v2.88c0,0.45,0.37,0.82,0.82,0.82s0.82-0.37,0.82-0.82v-2.88h2.22c1.36,0,2.46,1.13,2.46,2.49V44.58z"/>
<path class="st2" d="M41.54,34.71H23.89c-0.45,0-0.82,0.37-0.82,0.82c0,0.45,0.37,0.82,0.82,0.82h17.66c0.45,0,0.82-0.37,0.82-0.82
	C42.36,35.07,41.99,34.71,41.54,34.71z"/>
<path class="st2" d="M41.54,40.62H23.89c-0.45,0-0.82,0.37-0.82,0.82c0,0.45,0.37,0.82,0.82,0.82h17.66c0.45,0,0.82-0.37,0.82-0.82
	C42.36,40.99,41.99,40.62,41.54,40.62z"/>
<path class="st2" d="M23.89,30.52h9.56c0.45,0,0.82-0.37,0.82-0.82c0-0.45-0.37-0.82-0.82-0.82h-9.56c-0.45,0-0.82,0.37-0.82,0.82
	C23.06,30.15,23.43,30.52,23.89,30.52z"/>
</svg>
