<?xml version="1.0" encoding="utf-8"?>
<!-- Generator: Adobe Illustrator 23.0.2, SVG Export Plug-In . SVG Version: 6.00 Build 0)  -->
<svg version="1.1" id="Capa_1" xmlns="http://www.w3.org/2000/svg" xmlns:xlink="http://www.w3.org/1999/xlink" x="0px" y="0px"
	 viewBox="0 0 66 66" style="enable-background:new 0 0 66 66;" xml:space="preserve">
<style type="text/css">
	.st0{fill:#102EBA;}
	.st1{fill:#FFAF1E;}
	.st2{fill:#FFFFFF;}
</style>
<circle class="st0" cx="33" cy="33" r="33"/>
<path class="st1" d="M21.34,24.26c-0.73,0.71-0.88,2.16-0.45,4.19c0.02,0.09,0.04,0.24,0.06,0.45c1.47-0.34,3.58-0.61,6.55-0.61
	l0.12,0l0.12,0c0.1,0,0.2,0,0.29,0l0.08-0.24l-4.22,0.04l-0.38-1.98l5.08,0.28l-0.08,1.07c0.61-0.44,2.98-1.76,9.5-1.76l0.12,0
	l0.12,0c3.52,0,5.83,0.38,7.31,0.81c0.01-1.02-0.22-1.78-0.69-2.24l0.23-0.43l2.34-0.23v-2.15c-0.01,0-0.02,0-0.03,0h-2.2l-1.3,1.34
	l-1.48-4.42l-0.01-0.03c0,0-1.86-1.7-9.19-1.7c-0.04,0-0.08,0-0.12,0c-0.04,0-0.08,0-0.12,0c-7.33,0-9.19,1.7-9.19,1.7l-0.01,0.03
	l-1.48,4.42l-1.29-1.34h-2.2c-0.01,0-0.02,0-0.03,0v2.15l2.34,0.23L21.34,24.26z M25.1,19.03c0.2-0.12,0.7-0.35,1.85-0.56
	c1.48-0.26,3.51-0.4,6.04-0.4c0.04,0,0.08,0,0.12,0c0.04,0,0.08,0,0.12,0c2.53,0,4.56,0.13,6.04,0.4c1.15,0.21,1.65,0.43,1.85,0.56
	l1.57,4.68h-9.59h-9.59L25.1,19.03z"/>
<path class="st2" d="M39.62,36.18l2.34-0.23v-2.15c-0.01,0-0.02,0-0.03,0h-2.2l-1.3,1.34l-1.48-4.42l-0.01-0.03
	c0,0-1.86-1.7-9.19-1.7c-0.04,0-0.08,0-0.12,0c-0.04,0-0.08,0-0.12,0c-7.33,0-9.19,1.7-9.19,1.7l-0.01,0.03l-1.48,4.42l-1.29-1.34
	h-2.2c-0.01,0-0.02,0-0.03,0v2.15l2.34,0.23l0.23,0.43c-0.73,0.71-0.88,2.16-0.45,4.19c0.03,0.16,0.09,0.55,0.09,1.05v4.65
	c0,0.06,0.05,0.11,0.11,0.11h3.64c0.06,0,0.11-0.05,0.11-0.11l0-3.72h8.26h8.26l0,3.72c0,0.06,0.05,0.11,0.11,0.11h3.64
	c0.06,0,0.11-0.05,0.11-0.11v-4.65c0.01-0.49,0.06-0.89,0.09-1.05c0.43-2.03,0.27-3.47-0.45-4.19L39.62,36.18z M22.98,40.39
	l-4.58,0.04l-0.38-1.98l5.08,0.28L22.98,40.39z M18.03,36.06l1.57-4.68c0.2-0.12,0.7-0.35,1.85-0.56c1.48-0.26,3.51-0.4,6.04-0.4
	c0.04,0,0.08,0,0.12,0c0.04,0,0.08,0,0.12,0c2.53,0,4.56,0.13,6.04,0.4c1.15,0.21,1.65,0.43,1.85,0.56l1.57,4.68h-9.59H18.03z
	 M36.83,40.43l-4.58-0.04l-0.13-1.66l5.08-0.28L36.83,40.43z"/>
<path class="st1" d="M52.48,33.35V31.2c-0.01,0-0.02,0-0.03,0h-2.2l-1.29,1.34l-1.48-4.42l-0.01-0.03c0,0-1.86-1.7-9.19-1.7
	c-0.04,0-0.08,0-0.12,0c-0.04,0-0.08,0-0.12,0c-7.33,0-9.19,1.7-9.19,1.7l-0.01,0.03l-0.06,0.18c0.86,0.02,1.65,0.06,2.36,0.12
	c0.24-0.06,0.52-0.12,0.86-0.19c1.48-0.26,3.51-0.4,6.04-0.4c0.04,0,0.08,0,0.12,0c0.04,0,0.08,0,0.12,0c2.53,0,4.56,0.13,6.04,0.4
	c1.15,0.21,1.65,0.43,1.85,0.56l1.57,4.68h-5.08l0,0.32l-0.01,2.35l5.1-0.28l-0.38,1.98l-4.58-0.04l-0.09-1.24l-2.32,0.24
	c0.41,0.81,0.51,1.94,0.29,3.38h5.75l0,3.72c0,0.06,0.05,0.11,0.11,0.11h3.64c0.06,0,0.11-0.05,0.11-0.11v-4.65
	c0.01-0.49,0.06-0.89,0.09-1.05c0.43-2.03,0.27-3.47-0.45-4.19l0.23-0.43L52.48,33.35z"/>
</svg>
