<?xml version="1.0" encoding="utf-8"?>
<!-- Generator: Adobe Illustrator 23.0.2, SVG Export Plug-In . SVG Version: 6.00 Build 0)  -->
<svg version="1.1" id="Capa_1" xmlns="http://www.w3.org/2000/svg" xmlns:xlink="http://www.w3.org/1999/xlink" x="0px" y="0px"
	 viewBox="0 0 66 66" style="enable-background:new 0 0 66 66;" xml:space="preserve">
<style type="text/css">
	.st0{fill:#102EBA;}
	.st1{fill:#FFFFFF;}
	.st2{fill:#FFAF1E;}
</style>
<circle class="st0" cx="33" cy="33" r="33"/>
<path class="st1" d="M31.68,32.85l-0.09-0.09c-0.2-0.2-0.2-0.53,0-0.74l14.28-14.28c0.2-0.2,0.53-0.2,0.74,0l0.09,0.09
	c0.2,0.2,0.2,0.53,0,0.74L32.42,32.85C32.21,33.05,31.88,33.05,31.68,32.85z"/>
<circle class="st1" cx="44.55" cy="19.89" r="2.87"/>
<path class="st1" d="M33.3,32.64l-0.07,0.11c-0.16,0.24-0.48,0.31-0.72,0.16L15.52,21.98c-0.24-0.16-0.31-0.48-0.16-0.72l0.07-0.11
	c0.16-0.24,0.48-0.31,0.72-0.16l16.99,10.92C33.39,32.08,33.46,32.4,33.3,32.64z"/>
<circle class="st1" cx="17.15" cy="22.58" r="2.87"/>
<path class="st1" d="M34.45,30.57l0.07,0.11c0.15,0.24,0.08,0.57-0.16,0.72L17.26,42.16c-0.24,0.15-0.57,0.08-0.72-0.16l-0.07-0.11
	c-0.15-0.24-0.08-0.57,0.16-0.72l17.09-10.76C33.97,30.26,34.29,30.33,34.45,30.57z"/>
<circle class="st1" cx="16.88" cy="41.92" r="2.87"/>
<path class="st1" d="M33.29,35.2l0.05-0.12c0.1-0.27,0.4-0.41,0.67-0.31l18.92,7.07c0.27,0.1,0.41,0.4,0.31,0.67l-0.05,0.12
	c-0.1,0.27-0.4,0.41-0.67,0.31L33.6,35.87C33.33,35.77,33.19,35.47,33.29,35.2z"/>
<circle class="st1" cx="52.96" cy="42.29" r="2.87"/>
<circle class="st2" cx="31.44" cy="33" r="4.56"/>
</svg>
