<?xml version="1.0" encoding="utf-8"?>
<!-- Generator: Adobe Illustrator 23.0.2, SVG Export Plug-In . SVG Version: 6.00 Build 0)  -->
<svg version="1.1" id="Capa_1" xmlns="http://www.w3.org/2000/svg" xmlns:xlink="http://www.w3.org/1999/xlink" x="0px" y="0px"
	 viewBox="0 0 38 38" style="enable-background:new 0 0 38 38;" xml:space="preserve">
<style type="text/css">
	.st0{fill:#730586;}
	.st1{fill:#FFAF1E;}
</style>
<path class="st0" d="M11.51,23.36c0.32,0.51,0.12,1.07,0.15,1.61C11.33,24.46,11.55,23.9,11.51,23.36z"/>
<circle class="st1" cx="19" cy="19" r="19"/>
<g>
	<g>
		<g>
			<path d="M27.54,10.77c-2.31-2.26-6-2.26-8.3,0l-9.68,9.68c-1.75,1.79-1.72,4.66,0.07,6.41c1.76,1.72,4.57,1.72,6.34,0l8.76-8.76
				c1.14-1.14,1.14-2.99,0-4.13s-2.99-1.14-4.13,0l-8.38,8.38c-0.29,0.3-0.28,0.79,0.02,1.08c0.3,0.29,0.76,0.29,1.06,0l8.38-8.38
				c0.56-0.53,1.44-0.51,1.97,0.04c0.52,0.54,0.52,1.39,0,1.93l-8.76,8.76c-1.18,1.17-3.09,1.15-4.26-0.03
				c-1.16-1.17-1.16-3.05,0-4.23l9.68-9.68c1.72-1.72,4.52-1.72,6.24,0s1.72,4.52,0,6.24l-9.68,9.68c-0.32,0.27-0.36,0.75-0.08,1.07
				c0.27,0.32,0.75,0.36,1.07,0.08c0.03-0.03,0.06-0.05,0.08-0.08l9.68-9.68C29.93,16.82,29.89,13.06,27.54,10.77z"/>
		</g>
	</g>
</g>
</svg>
