<?xml version="1.0" encoding="utf-8"?>
<!-- Generator: Adobe Illustrator 23.0.2, SVG Export Plug-In . SVG Version: 6.00 Build 0)  -->
<svg version="1.1" id="Capa_1" xmlns="http://www.w3.org/2000/svg" xmlns:xlink="http://www.w3.org/1999/xlink" x="0px" y="0px"
	 viewBox="0 0 252 257" style="enable-background:new 0 0 252 257;" xml:space="preserve">
<style type="text/css">
	.st0{fill:#FFFFFF;}
</style>
<path class="st0" d="M125.6,0C56.23,0,0,56.09,0,125.29s56.23,125.29,125.6,125.29s125.6-56.09,125.6-125.29S194.96,0,125.6,0z
	 M125.41,248.17c-68.13,0-123.36-55.1-123.36-123.06S57.28,2.05,125.41,2.05s123.36,55.1,123.36,123.06S193.55,248.17,125.41,248.17
	z"/>
<path class="st0" d="M126.4,6.42c-69.37,0-125.6,56.09-125.6,125.29S57.04,257,126.4,257S252,200.91,252,131.71
	S195.77,6.42,126.4,6.42z M126.22,254.59c-68.13,0-123.36-55.1-123.36-123.06S58.09,8.46,126.22,8.46s123.36,55.1,123.36,123.06
	S194.35,254.59,126.22,254.59z"/>
</svg>
