<?xml version="1.0" encoding="utf-8"?>
<!-- Generator: Adobe Illustrator 23.0.2, SVG Export Plug-In . SVG Version: 6.00 Build 0)  -->
<svg version="1.1" id="Capa_1" xmlns="http://www.w3.org/2000/svg" xmlns:xlink="http://www.w3.org/1999/xlink" x="0px" y="0px"
	 viewBox="0 0 70 50" style="enable-background:new 0 0 70 50;" xml:space="preserve">
<style type="text/css">
	.st0{fill:#FFDFBA;}
	.st1{fill:#F4B545;}
	.st2{fill:#FFEBD2;}
	.st3{fill:#42434D;}
	.st4{fill:#FFD6A6;}
	.st5{fill:#4D4E59;}
	.st6{fill:#FFF3E4;}
	.st7{fill:#CC8F23;}
	.st8{opacity:0.25;}
	.st9{fill:#FFAF1E;}
	.st10{fill:#102EBA;}
	.st11{fill:#FFFFFF;}
</style>
<path class="st0" d="M18.8,40.03c-0.07,0.08-0.13,0.16-0.2,0.24c0.01-0.01,0.02-0.03,0.03-0.04C18.69,40.16,18.75,40.1,18.8,40.03z"
	/>
<path class="st0" d="M16.69,28.8c0-0.11,0.01-0.23,0.02-0.34C16.7,28.57,16.69,28.69,16.69,28.8z"/>
<path class="st0" d="M51.98,26.37c0.01,0.08,0.02,0.16,0.03,0.25C52,26.54,51.99,26.45,51.98,26.37z"/>
<path class="st0" d="M49.61,33.25c-0.05,0.08-0.1,0.15-0.15,0.23C49.52,33.4,49.56,33.32,49.61,33.25z"/>
<path class="st0" d="M26.41,35.91c0.01,0,0.03-0.01,0.04-0.01c0.02-0.01,0.03-0.01,0.05-0.02C26.47,35.89,26.44,35.9,26.41,35.91z"
	/>
<path class="st0" d="M29.52,32.27c0.01-0.04,0.01-0.07,0.02-0.1C29.53,32.2,29.53,32.23,29.52,32.27z"/>
<path class="st0" d="M49.91,32.75c-0.06,0.1-0.12,0.2-0.18,0.3C49.8,32.95,49.86,32.85,49.91,32.75z"/>
<path class="st0" d="M18.57,40.32c-0.07,0.09-0.15,0.19-0.22,0.29c0.06-0.08,0.12-0.16,0.18-0.24
	C18.54,40.35,18.56,40.33,18.57,40.32z"/>
<path class="st0" d="M51.9,25.89c0.01,0.07,0.02,0.13,0.04,0.2C51.92,26.03,51.91,25.96,51.9,25.89z"/>
<path class="st0" d="M30.29,32.26c-0.97-0.41-1.87-0.95-2.69-1.62c-0.03-0.02-0.06-0.04-0.08-0.07c-0.04-0.04-0.09-0.07-0.13-0.11
	c-0.13-0.11-0.26-0.23-0.39-0.35c0.93,0.88,2.01,1.59,3.19,2.1l0,0C30.22,32.23,30.26,32.25,30.29,32.26z"/>
<path class="st0" d="M30.16,32.26v0.79c0,0.01,0,0.01,0,0.02C30.17,32.83,30.16,32.58,30.16,32.26z"/>
<path class="st0" d="M16.92,26.78c0,0.02-0.01,0.04-0.01,0.06C16.91,26.83,16.92,26.81,16.92,26.78
	C16.92,26.79,16.92,26.79,16.92,26.78z"/>
<path class="st0" d="M19.21,35.8c-0.04-0.04-0.08-0.09-0.12-0.14C19.13,35.71,19.17,35.76,19.21,35.8z"/>
<path class="st0" d="M16.99,26.46c0.01-0.03,0.02-0.06,0.02-0.1C17.01,26.39,17,26.42,16.99,26.46z"/>
<path class="st0" d="M19.66,38.15c-0.07,0.06-0.14,0.13-0.21,0.19c0.03-0.03,0.06-0.06,0.09-0.08
	C19.58,38.22,19.62,38.19,19.66,38.15z"/>
<path class="st0" d="M51.82,25.49c0.01,0.03,0.01,0.06,0.02,0.09C51.83,25.55,51.82,25.52,51.82,25.49z"/>
<path class="st0" d="M26.19,35.98c0.03-0.01,0.06-0.02,0.09-0.03C26.25,35.96,26.22,35.97,26.19,35.98z"/>
<path class="st0" d="M51.61,24.67C51.61,24.67,51.61,24.67,51.61,24.67c0,0.01,0,0.02,0.01,0.03
	C51.61,24.69,51.61,24.68,51.61,24.67z"/>
<path class="st0" d="M16.79,27.62c0.01-0.07,0.02-0.15,0.03-0.22C16.81,27.48,16.8,27.55,16.79,27.62z"/>
<path class="st0" d="M26.64,35.83c0.03-0.01,0.06-0.02,0.08-0.03C26.69,35.81,26.67,35.82,26.64,35.83z"/>
<path class="st0" d="M43.57,36.19c0.06,0.01,0.11,0.01,0.17,0.02C43.68,36.21,43.62,36.2,43.57,36.19z"/>
<path class="st0" d="M43.13,36.16c0.05,0,0.1,0.01,0.14,0.01C43.23,36.16,43.18,36.16,43.13,36.16z"/>
<path class="st0" d="M17.92,34.04c-0.06-0.1-0.12-0.2-0.18-0.31C17.8,33.84,17.86,33.94,17.92,34.04z"/>
<path class="st0" d="M44,36.25c0.06,0.01,0.12,0.02,0.17,0.03C44.11,36.27,44.06,36.26,44,36.25z"/>
<path class="st0" d="M17.61,33.49c-0.04-0.07-0.07-0.14-0.11-0.21C17.53,33.35,17.57,33.42,17.61,33.49z"/>
<path class="st0" d="M18.92,35.47c-0.23-0.28-0.45-0.57-0.65-0.87C18.49,34.91,18.7,35.2,18.92,35.47z"/>
<path class="st0" d="M42.1,36.1c0.03,0,0.06,0.01,0.09,0.01C42.17,36.11,42.14,36.11,42.1,36.1z"/>
<path class="st0" d="M44.42,36.33c0.06,0.01,0.12,0.03,0.18,0.04C44.54,36.36,44.48,36.35,44.42,36.33z"/>
<path class="st0" d="M42.36,36.13c0.03,0,0.05,0,0.08,0.01C42.41,36.14,42.39,36.13,42.36,36.13z"/>
<path class="st0" d="M18.26,34.57c-0.09-0.13-0.18-0.27-0.26-0.41C18.08,34.3,18.17,34.44,18.26,34.57z"/>
<path class="st0" d="M50.21,32.19c-0.05,0.1-0.11,0.2-0.16,0.31C50.11,32.39,50.16,32.29,50.21,32.19z"/>
<path class="st0" d="M44.84,36.44c0.06,0.02,0.12,0.03,0.18,0.05C44.95,36.47,44.9,36.45,44.84,36.44z"/>
<path class="st0" d="M29.58,31.82c0-0.02,0-0.04,0-0.07C29.59,31.78,29.58,31.8,29.58,31.82z"/>
<path class="st0" d="M26.85,29.98c-0.02-0.02-0.03-0.03-0.05-0.05C26.82,29.95,26.83,29.97,26.85,29.98z"/>
<path class="st0" d="M17.19,25.68c0,0.01,0,0.01-0.01,0.02C17.19,25.69,17.19,25.68,17.19,25.68L17.19,25.68z"/>
<path class="st0" d="M29.55,32.06c0.01-0.05,0.01-0.09,0.02-0.14C29.57,31.97,29.56,32.02,29.55,32.06z"/>
<path class="st0" d="M45.24,36.56c0.06,0.02,0.12,0.04,0.18,0.06C45.36,36.6,45.3,36.58,45.24,36.56z"/>
<path class="st0" d="M46.25,36.97c-0.04-0.02-0.08-0.04-0.13-0.06c-0.03-0.02-0.07-0.03-0.1-0.04
	C46.09,36.9,46.17,36.94,46.25,36.97z"/>
<path class="st0" d="M18.07,41.01c-0.07,0.1-0.13,0.2-0.19,0.31C17.94,41.21,18.01,41.11,18.07,41.01
	C18.07,41.01,18.07,41.01,18.07,41.01z"/>
<path class="st0" d="M45.64,36.7c0.06,0.02,0.12,0.05,0.19,0.08C45.76,36.75,45.7,36.73,45.64,36.7z"/>
<path class="st0" d="M25.95,36.04c0.01,0,0.02,0,0.03-0.01c0.02,0,0.04-0.01,0.06-0.02C26.01,36.02,25.98,36.03,25.95,36.04z"/>
<path class="st0" d="M22.67,36.49c0.06-0.02,0.11-0.03,0.17-0.05C22.78,36.45,22.72,36.47,22.67,36.49z"/>
<path class="st0" d="M16.71,28.37c0,0.01,0,0.03,0,0.04c0-0.01,0-0.02,0-0.03C16.71,28.37,16.71,28.37,16.71,28.37z"/>
<path class="st0" d="M16.94,32.01c0.01,0.03,0.02,0.06,0.03,0.08c0,0,0,0,0,0C16.96,32.07,16.95,32.04,16.94,32.01z"/>
<path class="st0" d="M22.26,36.62c0.06-0.02,0.11-0.04,0.17-0.06C22.37,36.58,22.32,36.6,22.26,36.62z"/>
<path class="st0" d="M46.32,37.01c0.22,0.11,0.44,0.23,0.65,0.37C46.76,37.24,46.54,37.12,46.32,37.01z"/>
<path class="st0" d="M16.8,31.64c0.01,0.04,0.03,0.08,0.04,0.11C16.83,31.72,16.82,31.68,16.8,31.64
	C16.8,31.64,16.8,31.64,16.8,31.64z"/>
<path class="st0" d="M17.29,32.86c0.01,0.03,0.03,0.06,0.04,0.09c-0.01-0.02-0.02-0.05-0.03-0.07C17.3,32.88,17.3,32.87,17.29,32.86
	z"/>
<path class="st0" d="M30.77,32.45c-0.05-0.02-0.09-0.03-0.14-0.05C30.68,32.41,30.72,32.43,30.77,32.45z"/>
<path class="st0" d="M38.63,33.07c0-0.01,0-0.01,0-0.02v-0.79C38.63,32.58,38.63,32.84,38.63,33.07z"/>
<path class="st0" d="M38.14,32.41c-0.02,0.01-0.04,0.01-0.06,0.02C38.1,32.42,38.12,32.42,38.14,32.41z"/>
<path class="st0" d="M16.75,31.48c0.01,0.02,0.02,0.05,0.02,0.07c0,0,0,0,0,0C16.76,31.52,16.75,31.5,16.75,31.48z"/>
<path class="st0" d="M16.92,31.67c-0.07-0.36-0.12-0.72-0.16-1.08c0-0.01,0-0.02,0-0.03c-0.04-0.36-0.06-0.71-0.07-1.07
	c0-0.01,0-0.01,0-0.02c0.02,1.08,0.18,2.16,0.48,3.22C17.07,32.35,16.99,32.02,16.92,31.67C16.92,31.68,16.92,31.67,16.92,31.67z"/>
<path class="st0" d="M16.69,28.97c0-0.01,0-0.01,0-0.02c0,0.16,0,0.33,0,0.49c0-0.01,0-0.02,0-0.03
	C16.68,29.27,16.68,29.12,16.69,28.97z"/>
<path class="st0" d="M45.29,15.6c-0.06-0.1-0.14-0.18-0.23-0.25C45.15,15.42,45.23,15.5,45.29,15.6z"/>
<path class="st0" d="M25.56,36.11c-0.03,0-0.05,0.01-0.08,0.01C25.51,36.11,25.53,36.11,25.56,36.11z"/>
<path class="st0" d="M21.86,36.78c0.06-0.02,0.12-0.05,0.18-0.07C21.98,36.73,21.92,36.75,21.86,36.78z"/>
<path class="st0" d="M16.69,28.81c0,0.02,0,0.04,0,0.07c0,0,0,0,0,0C16.69,28.85,16.69,28.83,16.69,28.81z"/>
<path class="st0" d="M25.29,36.13c-0.02,0-0.04,0-0.06,0C25.25,36.14,25.27,36.13,25.29,36.13z"/>
<path class="st0" d="M25.81,36.07c-0.03,0.01-0.06,0.01-0.09,0.02C25.75,36.08,25.78,36.07,25.81,36.07z"/>
<path class="st0" d="M24.43,36.17c0.04,0,0.08-0.01,0.12-0.01C24.5,36.16,24.46,36.16,24.43,36.17z"/>
<path class="st0" d="M17.18,32.75c-0.01-0.02-0.01-0.04-0.02-0.06c0.04,0.12,0.07,0.25,0.11,0.37
	C17.24,32.96,17.21,32.86,17.18,32.75C17.18,32.76,17.18,32.75,17.18,32.75z"/>
<path class="st0" d="M20.32,37.63c-0.1,0.07-0.2,0.14-0.29,0.22c0.09-0.07,0.18-0.13,0.27-0.2C20.3,37.65,20.31,37.64,20.32,37.63z"
	/>
<path class="st0" d="M48.66,34.55c-0.09,0.11-0.18,0.21-0.27,0.31C48.48,34.76,48.57,34.66,48.66,34.55z"/>
<path class="st0" d="M23.96,36.21c0.05-0.01,0.1-0.01,0.15-0.02C24.06,36.2,24.01,36.21,23.96,36.21z"/>
<path class="st0" d="M50.77,22.54c0.24,0.48,0.46,0.98,0.63,1.48C51.2,23.43,50.99,22.96,50.77,22.54z"/>
<path class="st0" d="M20.63,37.42c-0.08,0.05-0.16,0.11-0.24,0.16c0.03-0.02,0.07-0.04,0.1-0.07
	C20.54,37.49,20.58,37.46,20.63,37.42z"/>
<path class="st0" d="M16.87,27.05c0,0.02-0.01,0.03-0.01,0.05c0,0,0-0.01,0-0.01C16.87,27.08,16.87,27.06,16.87,27.05z"/>
<path class="st0" d="M49.33,33.68c-0.05,0.08-0.11,0.15-0.16,0.22C49.22,33.83,49.27,33.75,49.33,33.68z"/>
<path class="st0" d="M51.41,24.05c0.05,0.14,0.09,0.28,0.14,0.42C51.5,24.32,51.46,24.18,51.41,24.05z"/>
<path class="st0" d="M49.03,34.09c-0.07,0.09-0.14,0.18-0.22,0.27C48.89,34.28,48.96,34.18,49.03,34.09z"/>
<path class="st0" d="M21.55,36.91L21.55,36.91c-0.04,0.02-0.08,0.04-0.12,0.06c0.07-0.04,0.15-0.07,0.22-0.1
	C21.62,36.88,21.59,36.9,21.55,36.91z"/>
<path class="st0" d="M23.52,36.28c0.01,0,0.01,0,0.02,0c0.05-0.01,0.09-0.02,0.14-0.03C23.62,36.26,23.57,36.27,23.52,36.28z"/>
<path class="st0" d="M16.76,27.88c0,0.04-0.01,0.09-0.01,0.13c0-0.04,0.01-0.08,0.01-0.12C16.76,27.89,16.76,27.89,16.76,27.88z"/>
<path class="st0" d="M48.26,35.01c-0.08,0.08-0.15,0.16-0.23,0.24C48.11,35.17,48.18,35.09,48.26,35.01z"/>
<path class="st0" d="M23.09,36.37c0.02,0,0.03-0.01,0.05-0.01c0.04-0.01,0.08-0.02,0.11-0.03C23.2,36.35,23.14,36.36,23.09,36.37z"
	/>
<path class="st0" d="M48.71,18.28c0,0,0-0.01,0-0.01c0,0.01,0.01,0.02,0.01,0.03C48.71,18.29,48.71,18.29,48.71,18.28z"/>
<path class="st0" d="M47.89,35.39c-0.08,0.08-0.17,0.16-0.25,0.24C47.72,35.55,47.8,35.47,47.89,35.39z"/>
<path class="st0" d="M47.5,35.75c-0.13,0.12-0.26,0.23-0.4,0.34C47.24,35.98,47.38,35.87,47.5,35.75z"/>
<path class="st0" d="M51.6,31.77c-0.1,0.33-0.21,0.66-0.33,0.98C51.4,32.43,51.51,32.1,51.6,31.77z"/>
<path class="st0" d="M23.38,22.06c0,0.01,0,0.02,0,0.03c0-0.01,0-0.01,0-0.02C23.38,22.07,23.38,22.06,23.38,22.06z"/>
<path class="st0" d="M16.73,28.1c-0.01,0.06-0.01,0.12-0.02,0.18c0-0.01,0-0.02,0-0.03C16.73,28.2,16.73,28.15,16.73,28.1z"/>
<path class="st0" d="M32.97,14.39c0.06-0.02,0.12-0.03,0.18-0.05C33.09,14.35,33.03,14.37,32.97,14.39z"/>
<path class="st0" d="M33.93,14.07c0.05-0.02,0.1-0.03,0.15-0.05C34.03,14.04,33.98,14.05,33.93,14.07z"/>
<path class="st0" d="M50.65,31.22c-0.04,0.1-0.08,0.21-0.13,0.31C50.56,31.43,50.61,31.33,50.65,31.22z"/>
<path class="st0" d="M34.91,13.7c0.03-0.01,0.06-0.02,0.09-0.03C34.97,13.67,34.94,13.68,34.91,13.7z"/>
<path class="st0" d="M31.99,14.66c0.07-0.02,0.14-0.03,0.21-0.05C32.13,14.63,32.06,14.64,31.99,14.66z"/>
<path class="st0" d="M50.52,41.88c0.02,0.07,0.05,0.15,0.07,0.22C50.57,42.03,50.54,41.95,50.52,41.88z"/>
<path class="st0" d="M21.54,36.9l-0.97-0.8C20.92,36.4,21.25,36.66,21.54,36.9z"/>
<path class="st0" d="M51.74,31.26c-0.03,0.14-0.07,0.27-0.11,0.41C51.67,31.54,51.71,31.4,51.74,31.26z"/>
<path class="st0" d="M50.44,31.72c-0.04,0.09-0.09,0.19-0.13,0.28C50.35,31.9,50.39,31.81,50.44,31.72z"/>
<path class="st0" d="M43.53,14.98c0.02,0.01,0.05,0.02,0.07,0.03C43.58,14.99,43.55,14.98,43.53,14.98z"/>
<path class="st0" d="M43.83,15.06c0.03,0.01,0.06,0.02,0.09,0.02C43.89,15.08,43.86,15.07,43.83,15.06z"/>
<path class="st0" d="M52.04,29.57c-0.04,0.36-0.09,0.71-0.16,1.06C51.95,30.28,52,29.93,52.04,29.57z"/>
<path class="st0" d="M40.79,12.01c0.02,0.05,0.03,0.11,0.05,0.16C40.82,12.12,40.81,12.06,40.79,12.01z"/>
<path class="st0" d="M51.86,30.72c-0.03,0.14-0.06,0.28-0.09,0.42C51.8,31,51.83,30.86,51.86,30.72z"/>
<path class="st0" d="M43.25,14.88c0.01,0.01,0.03,0.01,0.04,0.02C43.28,14.89,43.27,14.88,43.25,14.88z"/>
<path class="st0" d="M42.99,14.76C42.99,14.76,43,14.76,42.99,14.76C43,14.76,42.99,14.76,42.99,14.76z"/>
<path class="st0" d="M47.68,37.88c0.09,0.07,0.17,0.14,0.25,0.21C47.85,38.01,47.77,37.95,47.68,37.88z"/>
<path class="st0" d="M49.11,39.29c0.07,0.09,0.14,0.18,0.21,0.27C49.25,39.48,49.18,39.38,49.11,39.29z"/>
<path class="st0" d="M49.61,39.99c0.05,0.07,0.09,0.14,0.13,0.21C49.7,40.14,49.65,40.06,49.61,39.99z"/>
<path class="st0" d="M49.39,39.68c0.04,0.06,0.09,0.13,0.13,0.19C49.48,39.8,49.44,39.74,49.39,39.68z"/>
<path class="st0" d="M23.4,22.52c0,0,0-0.01,0-0.01C23.4,22.51,23.4,22.52,23.4,22.52z"/>
<path class="st0" d="M48.23,38.35c-0.07-0.07-0.14-0.13-0.22-0.2c0.06,0.06,0.13,0.11,0.19,0.17
	C48.21,38.33,48.22,38.34,48.23,38.35z"/>
<path class="st0" d="M47.36,37.63c0.1,0.07,0.2,0.14,0.3,0.22C47.56,37.78,47.46,37.7,47.36,37.63z"/>
<path class="st0" d="M47.04,37.42c0.08,0.05,0.17,0.11,0.25,0.16C47.21,37.53,47.12,37.48,47.04,37.42z"/>
<path class="st0" d="M52.08,29.06c-0.01,0.16-0.02,0.32-0.04,0.47C52.06,29.38,52.07,29.22,52.08,29.06z"/>
<path class="st0" d="M48.87,39.01c0.06,0.07,0.12,0.14,0.17,0.21C48.99,39.15,48.93,39.08,48.87,39.01z"/>
<path class="st0" d="M48.54,38.65c-0.08-0.09-0.17-0.17-0.26-0.25c0.05,0.04,0.09,0.09,0.13,0.13
	C48.46,38.57,48.5,38.61,48.54,38.65z"/>
<path class="st0" d="M50.03,40.74c0.03,0.06,0.06,0.13,0.09,0.19C50.1,40.86,50.07,40.8,50.03,40.74z"/>
<path class="st0" d="M50.38,41.5c0.03,0.07,0.06,0.15,0.09,0.22C50.44,41.65,50.41,41.58,50.38,41.5z"/>
<path class="st0" d="M50.2,41.07c0.04,0.09,0.08,0.18,0.12,0.27C50.28,41.26,50.24,41.16,50.2,41.07z"/>
<path class="st0" d="M48.79,38.92c-0.06-0.07-0.13-0.14-0.19-0.21c0.01,0.01,0.02,0.03,0.04,0.04
	C48.69,38.81,48.74,38.86,48.79,38.92z"/>
<path class="st0" d="M31.07,14.87c0.06-0.01,0.11-0.02,0.17-0.03C31.19,14.85,31.13,14.86,31.07,14.87z"/>
<path class="st0" d="M49.83,40.36c0.05,0.08,0.09,0.16,0.13,0.24C49.92,40.52,49.87,40.44,49.83,40.36z"/>
<path class="st0" d="M30.19,15.04c0.03,0,0.05-0.01,0.08-0.01C30.25,15.03,30.22,15.04,30.19,15.04z"/>
<path class="st0" d="M17.53,41.99c0.04-0.08,0.08-0.17,0.12-0.25C17.61,41.82,17.57,41.91,17.53,41.99z"/>
<path class="st0" d="M41.39,35.95c0.03,0.01,0.07,0.02,0.1,0.03C41.46,35.97,41.43,35.96,41.39,35.95z"/>
<path class="st0" d="M52.09,27.36c0.01,0.17,0.02,0.34,0.02,0.51C52.1,27.7,52.1,27.53,52.09,27.36z"/>
<path class="st0" d="M17.34,42.42c0.05-0.11,0.1-0.23,0.15-0.34C17.43,42.2,17.38,42.31,17.34,42.42z"/>
<path class="st0" d="M17.7,41.64c0.06-0.11,0.11-0.21,0.18-0.32C17.82,41.43,17.76,41.54,17.7,41.64z"/>
<path class="st0" d="M17.2,42.78c0.04-0.1,0.07-0.2,0.11-0.3C17.28,42.58,17.24,42.68,17.2,42.78z"/>
<path class="st0" d="M17.07,43.17c0.03-0.09,0.06-0.19,0.09-0.28C17.13,42.98,17.1,43.07,17.07,43.17z"/>
<path class="st0" d="M18.88,39.95c0.06-0.07,0.13-0.14,0.19-0.21C19,39.81,18.94,39.88,18.88,39.95z"/>
<path class="st0" d="M19.74,38.08c0.08-0.07,0.16-0.13,0.24-0.2C19.9,37.95,19.82,38.01,19.74,38.08z"/>
<path class="st0" d="M41.62,36.01c0.03,0.01,0.07,0.02,0.1,0.02C41.69,36.03,41.66,36.02,41.62,36.01z"/>
<path class="st0" d="M20.71,37.37c0.21-0.13,0.42-0.25,0.64-0.36C21.13,37.12,20.92,37.24,20.71,37.37z"/>
<path class="st0" d="M19.13,38.65c0.08-0.09,0.17-0.17,0.26-0.25C19.3,38.48,19.21,38.57,19.13,38.65z"/>
<path class="st0" d="M18.13,40.92c0.05-0.08,0.1-0.15,0.16-0.23C18.24,40.76,18.19,40.84,18.13,40.92z"/>
<path class="st0" d="M50.14,21.43c-0.23-0.38-0.45-0.75-0.67-1.19C49.67,20.65,49.89,21.05,50.14,21.43
	C50.14,21.43,50.14,21.43,50.14,21.43z"/>
<path class="st0" d="M41.86,36.07c0.03,0.01,0.07,0.01,0.1,0.02C41.93,36.08,41.89,36.07,41.86,36.07z"/>
<path class="st0" d="M52.04,26.86c0.01,0.11,0.02,0.22,0.03,0.33C52.06,27.09,52.05,26.98,52.04,26.86z"/>
<path class="st0" d="M52.11,28.53c0,0.14-0.01,0.27-0.02,0.41C52.1,28.81,52.1,28.67,52.11,28.53z"/>
<path class="st0" d="M50.63,42.24c0.03,0.11,0.06,0.23,0.09,0.34C50.7,42.46,50.67,42.35,50.63,42.24z"/>
<path class="st0" d="M52.11,27.98c0,0.14,0,0.28,0,0.43C52.11,28.26,52.11,28.12,52.11,27.98z"/>
<path class="st0" d="M40.95,35.79c0.03,0.01,0.06,0.03,0.09,0.04C41.01,35.82,40.98,35.81,40.95,35.79z"/>
<path class="st0" d="M38.14,32.16c0.01,0.04,0.01,0.07,0.02,0.11C38.15,32.23,38.14,32.2,38.14,32.16z"/>
<path class="st0" d="M38.1,31.92c0.01,0.05,0.01,0.09,0.02,0.14C38.11,32.02,38.11,31.97,38.1,31.92z"/>
<path class="st0" d="M38.09,31.75c0,0.02,0,0.05,0.01,0.07C38.09,31.8,38.09,31.77,38.09,31.75z"/>
<path class="st0" d="M44.17,15.13c0.03,0,0.05,0.01,0.08,0.01C44.22,15.14,44.19,15.13,44.17,15.13z"/>
<path class="st0" d="M51,44.77c0-0.13,0-0.27-0.01-0.4C50.99,44.5,51,44.63,51,44.77L51,44.77z"/>
<path class="st0" d="M48.29,16.21c-0.04-0.43-0.07-0.91-0.08-1.47v0.09C48.21,15.3,48.24,15.76,48.29,16.21z"/>
<path class="st0" d="M41.17,35.88c0.03,0.01,0.06,0.02,0.1,0.03C41.23,35.9,41.2,35.89,41.17,35.88z"/>
<path class="st0" d="M50.75,42.7c0.02,0.08,0.04,0.17,0.06,0.26C50.79,42.87,50.77,42.78,50.75,42.7z"/>
<path class="st0" d="M50.84,43.09c0.02,0.1,0.03,0.19,0.05,0.29C50.87,43.28,50.86,43.19,50.84,43.09z"/>
<path class="st0" d="M50.9,43.47c0.02,0.12,0.03,0.25,0.05,0.38C50.94,43.72,50.92,43.59,50.9,43.47z"/>
<path class="st0" d="M50.96,43.96c0.01,0.1,0.02,0.2,0.02,0.3C50.97,44.15,50.97,44.06,50.96,43.96z"/>
<path class="st1" d="M20.71,37.37L20.71,37.37c-0.03,0.02-0.05,0.03-0.08,0.05l0,0C20.66,37.41,20.68,37.39,20.71,37.37z"/>
<path class="st1" d="M50.96,43.95C50.96,43.95,50.96,43.95,50.96,43.95c0-0.03-0.01-0.06-0.01-0.1c0,0,0,0.01,0,0.01
	C50.95,43.89,50.95,43.92,50.96,43.95z"/>
<path class="st1" d="M50.99,44.37C50.99,44.37,50.99,44.37,50.99,44.37c0-0.04,0-0.07-0.01-0.11c0,0,0,0.01,0,0.01
	C50.98,44.3,50.98,44.33,50.99,44.37z"/>
<path class="st1" d="M50.84,43.08c0,0,0,0.01,0,0.01c-0.01-0.05-0.02-0.09-0.03-0.14c0,0.01,0,0.01,0,0.02
	C50.82,43.01,50.83,43.04,50.84,43.08z"/>
<path class="st1" d="M18.88,39.95L18.88,39.95c-0.02,0.03-0.05,0.06-0.07,0.08l0,0C18.83,40.01,18.85,39.98,18.88,39.95z"/>
<polygon class="st1" points="18.13,40.92 18.13,40.93 18.13,40.92 "/>
<path class="st1" d="M18.35,40.61L18.35,40.61c-0.02,0.03-0.04,0.06-0.06,0.08l0,0C18.31,40.66,18.33,40.63,18.35,40.61z"/>
<path class="st1" d="M17.05,43.23c0,0.01,0,0.02-0.01,0.02v0C17.05,43.24,17.05,43.24,17.05,43.23z"/>
<path class="st1" d="M50.75,42.67c0,0.01,0,0.02,0.01,0.03c-0.01-0.04-0.02-0.08-0.03-0.12c0,0.01,0,0.01,0,0.02
	C50.74,42.62,50.74,42.64,50.75,42.67z"/>
<path class="st1" d="M18.1,40.97c-0.01,0.01-0.02,0.03-0.02,0.04l0,0C18.08,41,18.09,40.98,18.1,40.97z"/>
<path class="st1" d="M50.9,43.46C50.9,43.47,50.9,43.47,50.9,43.46c0-0.02-0.01-0.05-0.01-0.08c0,0.01,0,0.03,0.01,0.04
	C50.9,43.43,50.9,43.45,50.9,43.46z"/>
<path class="st1" d="M48.56,38.67c-0.01-0.01-0.01-0.01-0.02-0.02c0,0,0,0,0,0.01C48.55,38.66,48.56,38.66,48.56,38.67z"/>
<path class="st1" d="M48.87,39.01c-0.01-0.01-0.02-0.02-0.03-0.03C48.85,38.99,48.86,39,48.87,39.01
	C48.87,39.01,48.87,39.01,48.87,39.01z"/>
<path class="st1" d="M50.63,42.22c0,0,0,0.01,0,0.01c-0.01-0.05-0.03-0.09-0.04-0.14c0.01,0.02,0.01,0.04,0.02,0.05
	C50.61,42.18,50.62,42.2,50.63,42.22z"/>
<path class="st1" d="M48.27,38.38c-0.01-0.01-0.03-0.02-0.04-0.03c0,0,0,0,0,0C48.25,38.36,48.26,38.37,48.27,38.38z"/>
<path class="st1" d="M49.74,40.21c0.03,0.05,0.06,0.1,0.09,0.15C49.8,40.31,49.77,40.26,49.74,40.21z"/>
<path class="st1" d="M49.38,39.66c0,0.01,0.01,0.01,0.01,0.02c-0.03-0.04-0.05-0.07-0.08-0.11c0,0.01,0.01,0.01,0.01,0.02
	C49.35,39.61,49.36,39.63,49.38,39.66z"/>
<path class="st1" d="M49.11,39.29C49.11,39.29,49.11,39.29,49.11,39.29c-0.02-0.02-0.04-0.05-0.06-0.07
	c0.01,0.01,0.02,0.02,0.03,0.04C49.08,39.27,49.1,39.28,49.11,39.29z"/>
<path class="st1" d="M50.36,41.45c0.01,0.02,0.01,0.04,0.02,0.06c-0.02-0.05-0.04-0.11-0.06-0.16c0.01,0.02,0.02,0.04,0.02,0.06
	C50.35,41.42,50.35,41.43,50.36,41.45z"/>
<path class="st1" d="M50.51,41.86c0,0.01,0.01,0.02,0.01,0.02c-0.02-0.05-0.03-0.1-0.05-0.15c0,0.01,0.01,0.02,0.01,0.03
	C50.49,41.79,50.5,41.82,50.51,41.86z"/>
<path class="st1" d="M50.02,40.71c0,0.01,0.01,0.02,0.01,0.03c-0.02-0.05-0.05-0.1-0.07-0.14c0,0.01,0.01,0.02,0.01,0.03
	C49.99,40.65,50,40.68,50.02,40.71z"/>
<path class="st1" d="M49.6,39.98c0,0,0.01,0.01,0.01,0.01c-0.03-0.04-0.06-0.08-0.08-0.13c0.01,0.01,0.01,0.02,0.02,0.03
	C49.56,39.92,49.58,39.95,49.6,39.98z"/>
<path class="st1" d="M50.19,41.06c0,0.01,0.01,0.01,0.01,0.02c-0.02-0.05-0.05-0.1-0.07-0.15c0.01,0.02,0.01,0.03,0.02,0.05
	C50.16,41,50.18,41.03,50.19,41.06z"/>
<path class="st1" d="M48.84,38.97c-0.02-0.02-0.03-0.03-0.05-0.05c0,0,0.01,0.01,0.01,0.01C48.81,38.94,48.83,38.96,48.84,38.97z"/>
<path class="st1" d="M20.02,37.85L20.02,37.85c-0.01,0.01-0.03,0.02-0.04,0.03l0,0C20,37.87,20.01,37.86,20.02,37.85z"/>
<path class="st1" d="M19.11,39.7c-0.01,0.02-0.03,0.03-0.04,0.05l0,0C19.08,39.73,19.1,39.71,19.11,39.7z"/>
<path class="st1" d="M19.74,38.08L19.74,38.08c-0.03,0.02-0.05,0.05-0.08,0.07l0,0C19.69,38.13,19.71,38.11,19.74,38.08z"/>
<path class="st1" d="M21.43,36.97L21.43,36.97c-0.03,0.01-0.05,0.03-0.08,0.04l0,0C21.38,37,21.41,36.99,21.43,36.97z"/>
<path class="st1" d="M23.54,36.28c0.05-0.01,0.09-0.02,0.14-0.03l0,0C23.63,36.26,23.58,36.27,23.54,36.28z"/>
<path class="st1" d="M41.27,35.91L41.27,35.91c-0.03-0.01-0.07-0.02-0.1-0.03c0,0,0,0,0,0C41.2,35.89,41.23,35.9,41.27,35.91z"/>
<path class="st1" d="M41.72,36.04C41.72,36.04,41.72,36.04,41.72,36.04c-0.03-0.01-0.07-0.02-0.1-0.02l0,0
	C41.66,36.02,41.69,36.03,41.72,36.04z"/>
<path class="st1" d="M40.77,35.71c0.02,0.01,0.04,0.02,0.05,0.02c0,0,0,0,0,0C40.81,35.73,40.79,35.72,40.77,35.71L40.77,35.71z"/>
<path class="st1" d="M22.67,36.49L22.67,36.49c0.06-0.02,0.11-0.03,0.17-0.05l0,0C22.78,36.45,22.72,36.47,22.67,36.49z"/>
<path class="st1" d="M22.26,36.62L22.26,36.62c0.06-0.02,0.11-0.04,0.17-0.06v0C22.37,36.58,22.32,36.6,22.26,36.62z"/>
<path class="st1" d="M41.96,36.08L41.96,36.08c-0.03-0.01-0.07-0.01-0.1-0.02l0,0C41.89,36.07,41.93,36.08,41.96,36.08z"/>
<path class="st1" d="M21.86,36.78L21.86,36.78c0.06-0.02,0.12-0.05,0.18-0.07l0,0C21.98,36.73,21.92,36.75,21.86,36.78z"/>
<path class="st1" d="M23.09,36.37c0.02,0,0.03-0.01,0.05-0.01C23.12,36.37,23.1,36.37,23.09,36.37L23.09,36.37z"/>
<path class="st1" d="M41.05,35.83C41.04,35.83,41.04,35.83,41.05,35.83c-0.03-0.01-0.06-0.03-0.1-0.04l0,0
	C40.98,35.81,41.01,35.82,41.05,35.83z"/>
<path class="st1" d="M41.49,35.98L41.49,35.98c-0.03-0.01-0.07-0.02-0.1-0.03l0,0C41.43,35.96,41.46,35.97,41.49,35.98z"/>
<path class="st1" d="M25.98,36.03c0.02,0,0.04-0.01,0.06-0.02l0,0C26.02,36.02,26,36.03,25.98,36.03z"/>
<path class="st1" d="M23.96,36.21L23.96,36.21c0.05-0.01,0.1-0.01,0.15-0.02h0C24.06,36.2,24.01,36.21,23.96,36.21z"/>
<path class="st1" d="M26.41,35.91c0.01,0,0.03-0.01,0.04-0.01C26.44,35.9,26.43,35.91,26.41,35.91L26.41,35.91z"/>
<path class="st1" d="M26.64,35.83L26.64,35.83c0.03-0.01,0.06-0.02,0.08-0.03l0,0C26.69,35.81,26.67,35.82,26.64,35.83z"/>
<path class="st1" d="M26.45,35.9c0.02-0.01,0.03-0.01,0.05-0.02l0,0C26.48,35.89,26.47,35.89,26.45,35.9z"/>
<path class="st1" d="M26.19,35.98L26.19,35.98c0.03-0.01,0.06-0.02,0.09-0.03l0,0C26.25,35.96,26.22,35.97,26.19,35.98z"/>
<path class="st1" d="M42.44,36.14L42.44,36.14c-0.03,0-0.05,0-0.08-0.01c0,0,0,0,0,0C42.39,36.13,42.41,36.14,42.44,36.14z"/>
<path class="st1" d="M26.85,35.74L26.85,35.74c0.02-0.01,0.03-0.01,0.05-0.02l0.03,0.06l-0.03-0.06
	C26.89,35.72,26.87,35.73,26.85,35.74z"/>
<path class="st1" d="M42.2,36.12L42.2,36.12c-0.03,0-0.06-0.01-0.09-0.01l0,0C42.14,36.11,42.17,36.11,42.2,36.12z"/>
<polygon class="st1" points="42.69,36.14 42.69,36.14 42.69,36.14 42.69,36.14 "/>
<path class="st1" d="M24.43,36.17L24.43,36.17c0.04,0,0.08-0.01,0.12-0.01l0,0C24.5,36.16,24.46,36.16,24.43,36.17z"/>
<path class="st1" d="M50.47,41.76c0-0.01-0.01-0.02-0.01-0.03c-0.03-0.08-0.06-0.15-0.09-0.22c-0.01-0.02-0.01-0.04-0.02-0.06
	C50.4,41.55,50.44,41.65,50.47,41.76z"/>
<path class="st1" d="M18.29,40.69L18.29,40.69c-0.05,0.08-0.11,0.15-0.16,0.23l0,0C18.19,40.84,18.24,40.76,18.29,40.69z"/>
<polygon class="st1" points="18.07,41.01 18.07,41.01 18.07,41.01 "/>
<path class="st1" d="M18.53,40.37c-0.06,0.08-0.12,0.16-0.18,0.24l0,0C18.41,40.53,18.47,40.45,18.53,40.37z"/>
<path class="st1" d="M18.8,40.03L18.8,40.03c-0.06,0.06-0.11,0.13-0.16,0.2C18.69,40.16,18.75,40.1,18.8,40.03z"/>
<path class="st1" d="M19.99,37.88L19.99,37.88c-0.08,0.07-0.17,0.13-0.25,0.2l0,0C19.82,38.01,19.9,37.95,19.99,37.88z"/>
<path class="st1" d="M21.35,37.01L21.35,37.01c-0.22,0.11-0.44,0.23-0.64,0.36l0,0C20.92,37.24,21.13,37.12,21.35,37.01z"/>
<path class="st1" d="M19.07,39.74L19.07,39.74c-0.07,0.07-0.13,0.14-0.19,0.21l0,0C18.94,39.88,19,39.81,19.07,39.74z"/>
<path class="st1" d="M21.65,36.87L21.65,36.87c-0.07,0.03-0.15,0.07-0.22,0.1l0,0C21.5,36.94,21.58,36.9,21.65,36.87z"/>
<path class="st1" d="M20.63,37.42L20.63,37.42c-0.05,0.03-0.1,0.06-0.14,0.1C20.54,37.49,20.58,37.46,20.63,37.42z"/>
<path class="st1" d="M19.66,38.15L19.66,38.15c-0.04,0.04-0.08,0.07-0.12,0.11C19.58,38.22,19.62,38.19,19.66,38.15z"/>
<path class="st1" d="M20.29,37.65c-0.09,0.06-0.18,0.13-0.27,0.2l0,0C20.11,37.78,20.2,37.72,20.29,37.65z"/>
<path class="st1" d="M48.8,38.93c0,0-0.01-0.01-0.01-0.01c-0.05-0.06-0.1-0.11-0.15-0.17C48.69,38.81,48.75,38.87,48.8,38.93z"/>
<path class="st1" d="M49.33,39.58c0-0.01-0.01-0.01-0.01-0.02c-0.07-0.09-0.14-0.18-0.21-0.27c0,0,0,0,0,0
	C49.18,39.39,49.26,39.48,49.33,39.58z"/>
<path class="st1" d="M49.54,39.9c-0.01-0.01-0.01-0.02-0.02-0.03c-0.04-0.06-0.09-0.13-0.13-0.19c0-0.01-0.01-0.01-0.01-0.02
	C49.44,39.74,49.49,39.82,49.54,39.9z"/>
<path class="st1" d="M50.98,44.26C50.98,44.26,50.98,44.26,50.98,44.26c-0.01-0.11-0.01-0.21-0.02-0.31c0,0,0-0.01,0-0.01
	C50.97,44.05,50.97,44.16,50.98,44.26z"/>
<path class="st1" d="M48.23,38.35C48.23,38.35,48.23,38.35,48.23,38.35c-0.01-0.01-0.02-0.02-0.03-0.03
	C48.21,38.33,48.22,38.34,48.23,38.35z"/>
<path class="st1" d="M49.07,39.25c-0.01-0.01-0.02-0.02-0.03-0.04c-0.06-0.07-0.12-0.14-0.17-0.21c0,0,0,0,0,0
	C48.94,39.09,49.01,39.17,49.07,39.25z"/>
<path class="st1" d="M50.15,40.97c-0.01-0.02-0.01-0.03-0.02-0.05c-0.03-0.06-0.06-0.13-0.09-0.19c0-0.01-0.01-0.02-0.01-0.03
	C50.06,40.8,50.11,40.89,50.15,40.97z"/>
<path class="st1" d="M48.55,38.66C48.55,38.65,48.55,38.65,48.55,38.66c-0.04-0.05-0.09-0.08-0.13-0.12
	C48.47,38.57,48.51,38.61,48.55,38.66z"/>
<path class="st1" d="M49.97,40.62c0-0.01-0.01-0.02-0.01-0.03c-0.04-0.08-0.09-0.16-0.13-0.24c-0.03-0.05-0.06-0.1-0.09-0.15
	c-0.04-0.07-0.09-0.14-0.13-0.21c0,0-0.01-0.01-0.01-0.01C49.73,40.19,49.86,40.4,49.97,40.62z"/>
<path class="st1" d="M50.82,42.98c0-0.01,0-0.01,0-0.02c-0.02-0.09-0.04-0.17-0.06-0.26c0-0.01,0-0.02-0.01-0.03
	C50.77,42.77,50.79,42.87,50.82,42.98z"/>
<path class="st1" d="M50.89,43.42c0-0.01,0-0.03-0.01-0.04c-0.02-0.1-0.03-0.19-0.05-0.29c0,0,0-0.01,0-0.01
	C50.86,43.19,50.88,43.31,50.89,43.42z"/>
<path class="st1" d="M50.95,43.86C50.95,43.85,50.95,43.85,50.95,43.86c-0.01-0.14-0.03-0.26-0.05-0.39c0,0,0,0,0-0.01
	C50.92,43.59,50.94,43.72,50.95,43.86z"/>
<path class="st1" d="M50.34,41.4c-0.01-0.02-0.02-0.04-0.02-0.06c-0.04-0.09-0.08-0.18-0.12-0.27c0-0.01-0.01-0.01-0.01-0.02
	C50.24,41.17,50.29,41.29,50.34,41.4z"/>
<path class="st1" d="M50.61,42.15c-0.01-0.02-0.01-0.04-0.02-0.05c-0.02-0.07-0.05-0.15-0.07-0.22c0-0.01-0.01-0.02-0.01-0.02
	C50.54,41.95,50.58,42.05,50.61,42.15z"/>
<path class="st1" d="M50.73,42.59c0-0.01,0-0.01,0-0.02c-0.03-0.11-0.06-0.23-0.09-0.34c0,0,0-0.01,0-0.01
	C50.66,42.35,50.7,42.47,50.73,42.59z"/>
<path class="st2" d="M23.37,21.63L23.37,21.63c0,0.14,0,0.28,0.01,0.42c0,0.01,0,0.01,0,0.02C23.37,21.93,23.37,21.78,23.37,21.63z"
	/>
<path class="st2" d="M24.15,15.26c-0.22,0.03-0.42,0.15-0.56,0.32l0,0C23.72,15.41,23.92,15.29,24.15,15.26z"/>
<path class="st2" d="M24.35,15.26c0.3,0.03,0.62,0.05,0.95,0.07C24.98,15.31,24.66,15.29,24.35,15.26z"/>
<path class="st2" d="M27.52,30.58c-0.04-0.04-0.09-0.07-0.13-0.11C27.43,30.5,27.47,30.54,27.52,30.58z"/>
<path class="st2" d="M23.51,15.69c0,0.01-0.01,0.01-0.01,0.02C23.5,15.7,23.5,15.7,23.51,15.69L23.51,15.69z"/>
<path class="st3" d="M52.11,27.87c0,0.03,0,0.07,0,0.1C52.11,27.94,52.11,27.91,52.11,27.87z"/>
<path class="st3" d="M48.21,14.74V9.82C48.21,12.12,48.19,13.61,48.21,14.74z"/>
<path class="st3" d="M52.01,26.62c0.01,0.08,0.02,0.16,0.03,0.25C52.03,26.78,52.02,26.7,52.01,26.62z"/>
<path class="st3" d="M19.09,35.67c-0.06-0.07-0.11-0.13-0.17-0.2C18.98,35.53,19.04,35.6,19.09,35.67z"/>
<path class="st3" d="M52.11,28.4c0,0.04,0,0.09,0,0.13C52.11,28.49,52.11,28.45,52.11,28.4z"/>
<path class="st3" d="M52.07,27.2c0,0.06,0.01,0.11,0.01,0.17C52.08,27.31,52.08,27.25,52.07,27.2z"/>
<path class="st3" d="M52.09,28.94c0,0.04,0,0.08-0.01,0.12C52.09,29.02,52.09,28.98,52.09,28.94z"/>
<path class="st3" d="M52.04,29.53c0,0.01,0,0.03,0,0.04C52.04,29.56,52.04,29.55,52.04,29.53z"/>
<path class="st3" d="M51.62,24.7c0.08,0.26,0.14,0.53,0.2,0.8C51.76,25.22,51.69,24.96,51.62,24.7z"/>
<path class="st3" d="M18.28,34.6c-0.01-0.01-0.01-0.02-0.02-0.03C18.26,34.58,18.27,34.59,18.28,34.6z"/>
<path class="st3" d="M49.17,33.9c-0.05,0.06-0.09,0.13-0.14,0.19C49.08,34.03,49.12,33.97,49.17,33.9z"/>
<path class="st3" d="M50.31,32c-0.03,0.06-0.06,0.13-0.09,0.19C50.25,32.12,50.28,32.06,50.31,32z"/>
<path class="st3" d="M49.74,33.05c-0.04,0.07-0.08,0.13-0.13,0.2C49.65,33.18,49.7,33.11,49.74,33.05z"/>
<path class="st3" d="M17.24,32.75c-0.03-0.06-0.06-0.13-0.09-0.19C17.19,32.63,17.21,32.69,17.24,32.75z"/>
<path class="st3" d="M19.21,34.78c0.41,0.47,0.86,0.91,1.36,1.32l0,0C20.14,35.73,19.67,35.3,19.21,34.78z"/>
<path class="st3" d="M50.05,32.49c-0.05,0.09-0.09,0.17-0.14,0.25C49.96,32.66,50.01,32.58,50.05,32.49z"/>
<path class="st3" d="M16.97,26.56c-0.02,0.08-0.03,0.15-0.05,0.23c0.01-0.03,0.01-0.05,0.02-0.08
	C16.95,26.65,16.96,26.61,16.97,26.56z"/>
<path class="st3" d="M21.54,36.9l0.02,0.01l0,0C21.55,36.91,21.54,36.9,21.54,36.9z"/>
<path class="st3" d="M16.69,29.47c0-0.01,0-0.01,0-0.02C16.69,29.46,16.69,29.46,16.69,29.47z"/>
<path class="st3" d="M17.27,25.44c-0.02,0.08-0.05,0.16-0.07,0.23c0,0,0,0,0-0.01C17.22,25.59,17.24,25.52,17.27,25.44z"/>
<path class="st3" d="M16.8,31.64c-0.01-0.03-0.02-0.06-0.03-0.09C16.78,31.58,16.79,31.61,16.8,31.64z"/>
<path class="st3" d="M16.97,32.1c0,0.01,0.01,0.02,0.01,0.03c0,0,0,0,0,0C16.97,32.12,16.97,32.11,16.97,32.1z"/>
<path class="st3" d="M17.99,34.16c-0.03-0.04-0.05-0.08-0.08-0.13C17.94,34.08,17.97,34.12,17.99,34.16z"/>
<path class="st3" d="M17.74,33.73c-0.04-0.08-0.09-0.16-0.13-0.24C17.65,33.57,17.69,33.65,17.74,33.73z"/>
<path class="st3" d="M51.88,30.63c-0.01,0.03-0.01,0.06-0.02,0.09C51.87,30.69,51.87,30.66,51.88,30.63z"/>
<path class="st3" d="M17.5,33.28c-0.05-0.11-0.11-0.22-0.16-0.33C17.39,33.06,17.44,33.17,17.5,33.28z"/>
<path class="st3" d="M48.81,34.37c-0.05,0.06-0.1,0.12-0.15,0.19C48.71,34.49,48.76,34.43,48.81,34.37z"/>
<path class="st3" d="M18.07,23.49c0.01-0.03,0.03-0.05,0.04-0.08C18.1,23.43,18.08,23.46,18.07,23.49z"/>
<path class="st3" d="M16.78,27.71c-0.01,0.06-0.01,0.12-0.02,0.18c0-0.04,0.01-0.09,0.02-0.13C16.77,27.74,16.77,27.72,16.78,27.71z
	"/>
<path class="st3" d="M51.84,25.58c0.02,0.1,0.04,0.21,0.06,0.31C51.88,25.79,51.86,25.68,51.84,25.58z"/>
<path class="st3" d="M47.63,35.63c-0.04,0.04-0.08,0.08-0.13,0.12C47.55,35.71,47.59,35.67,47.63,35.63z"/>
<path class="st3" d="M18.32,23.02c0.02-0.04,0.04-0.08,0.07-0.12C18.36,22.94,18.34,22.98,18.32,23.02z"/>
<path class="st3" d="M48.03,35.25c-0.05,0.05-0.09,0.1-0.14,0.14C47.93,35.34,47.98,35.3,48.03,35.25z"/>
<path class="st3" d="M48.71,18.3c0.24,0.81,0.49,1.42,0.76,1.95C49.16,19.62,48.91,18.97,48.71,18.3z"/>
<path class="st3" d="M16.87,27.1c-0.01,0.09-0.03,0.17-0.04,0.26c0.01-0.04,0.01-0.09,0.02-0.13C16.85,27.19,16.86,27.14,16.87,27.1
	z"/>
<path class="st3" d="M16.69,28.96c0-0.03,0-0.05,0-0.08C16.69,28.9,16.69,28.93,16.69,28.96z"/>
<path class="st3" d="M51.4,24.02c0,0.01,0.01,0.02,0.01,0.03C51.41,24.04,51.4,24.03,51.4,24.02z"/>
<path class="st3" d="M50.14,21.43c0.21,0.35,0.42,0.7,0.63,1.1C50.58,22.16,50.37,21.79,50.14,21.43z"/>
<path class="st3" d="M48.39,34.86c-0.04,0.05-0.09,0.1-0.13,0.14C48.3,34.96,48.35,34.91,48.39,34.86z"/>
<path class="st3" d="M51.77,31.14c-0.01,0.04-0.02,0.08-0.03,0.12C51.75,31.22,51.76,31.18,51.77,31.14z"/>
<path class="st3" d="M17.34,25.2c0.02-0.07,0.05-0.15,0.08-0.22C17.39,25.05,17.37,25.13,17.34,25.2z"/>
<path class="st3" d="M48.29,16.21c0.07,0.71,0.19,1.32,0.41,2.06C48.51,17.6,48.37,16.91,48.29,16.21z"/>
<path class="st3" d="M49.47,33.48c-0.05,0.07-0.09,0.14-0.14,0.2C49.37,33.61,49.42,33.54,49.47,33.48z"/>
<path class="st3" d="M16.71,28.37c0-0.03,0-0.06,0.01-0.08C16.72,28.31,16.71,28.34,16.71,28.37z"/>
<path class="st3" d="M17.78,24.09c0.03-0.06,0.05-0.11,0.08-0.17C17.83,23.98,17.8,24.03,17.78,24.09z"/>
<path class="st3" d="M50.52,31.53c-0.03,0.06-0.05,0.13-0.08,0.19C50.46,31.66,50.49,31.59,50.52,31.53z"/>
<path class="st3" d="M51.55,24.47c0.02,0.07,0.04,0.13,0.06,0.2C51.59,24.6,51.57,24.53,51.55,24.47z"/>
<path class="st3" d="M51.93,26.09c0.02,0.09,0.03,0.19,0.04,0.28C51.97,26.28,51.95,26.18,51.93,26.09z"/>
<path class="st3" d="M17.1,26.01c0-0.01,0-0.01,0-0.02c-0.03,0.1-0.05,0.21-0.08,0.32c0.02-0.08,0.04-0.16,0.06-0.24
	C17.09,26.05,17.1,26.03,17.1,26.01z"/>
<path class="st3" d="M51.63,31.67c-0.01,0.03-0.02,0.07-0.03,0.1C51.61,31.74,51.62,31.71,51.63,31.67z"/>
<path class="st3" d="M50.71,31.06c-0.02,0.05-0.04,0.11-0.06,0.16C50.67,31.17,50.69,31.12,50.71,31.06z"/>
<path class="st3" d="M17.57,24.57c0.02-0.06,0.05-0.12,0.07-0.18C17.62,24.45,17.6,24.51,17.57,24.57z"/>
<path class="st3" d="M16.62,31.07C16.62,31.07,16.62,31.07,16.62,31.07C16.62,31.07,16.62,31.07,16.62,31.07z"/>
<path class="st3" d="M23.45,15.79c0.02-0.03,0.04-0.07,0.05-0.1C23.49,15.72,23.47,15.76,23.45,15.79z"/>
<path class="st3" d="M16.76,30.59c0-0.01,0-0.02,0-0.03C16.75,30.57,16.76,30.58,16.76,30.59z"/>
<polygon class="st3" points="17.2,25.67 17.19,25.68 17.19,25.68 "/>
<path class="st3" d="M16.92,31.68C16.92,31.68,16.92,31.67,16.92,31.68C16.92,31.67,16.92,31.68,16.92,31.68z"/>
<path class="st3" d="M17.08,26.07c0.01-0.02,0.01-0.04,0.02-0.06C17.1,26.03,17.09,26.05,17.08,26.07z"/>
<path class="st3" d="M16.77,31.55C16.77,31.55,16.77,31.55,16.77,31.55c0.01,0.03,0.02,0.06,0.03,0.09c0,0,0,0,0,0
	C16.79,31.61,16.78,31.58,16.77,31.55z"/>
<path class="st3" d="M16.97,32.09C16.97,32.09,16.97,32.1,16.97,32.09c0,0.01,0.01,0.02,0.01,0.03
	C16.97,32.11,16.97,32.1,16.97,32.09z"/>
<path class="st3" d="M16.94,26.7c-0.01,0.03-0.01,0.05-0.02,0.08c0,0,0,0,0,0.01C16.93,26.76,16.93,26.73,16.94,26.7z"/>
<path class="st3" d="M16.69,29.42c0,0.01,0,0.02,0,0.03c0,0.01,0,0.01,0,0.02c0,0.01,0,0.01,0,0.02
	C16.69,29.47,16.69,29.44,16.69,29.42z"/>
<path class="st3" d="M16.77,27.75c-0.01,0.04-0.01,0.09-0.02,0.13c0,0,0,0.01,0,0.01C16.76,27.85,16.77,27.8,16.77,27.75z"/>
<path class="st3" d="M16.72,28.25c0,0.01,0,0.02,0,0.03c0,0.03,0,0.06-0.01,0.08c0,0,0,0.01,0,0.01
	C16.71,28.34,16.72,28.3,16.72,28.25z"/>
<path class="st3" d="M16.69,28.87C16.69,28.87,16.69,28.87,16.69,28.87c0,0.03,0,0.06,0,0.08c0,0.01,0,0.01,0,0.02
	C16.69,28.94,16.69,28.9,16.69,28.87z"/>
<path class="st3" d="M16.87,27.09c0,0,0,0.01,0,0.01c-0.01,0.04-0.02,0.09-0.02,0.13C16.85,27.18,16.86,27.14,16.87,27.09z"/>
<path class="st3" d="M23.39,15.98c0-0.02,0.01-0.03,0.02-0.05c0.01-0.04,0.02-0.08,0.04-0.12c-0.05,0.1-0.08,0.22-0.08,0.37
	c0,0.23,0,0.45,0,0.66v-0.66C23.37,16.11,23.37,16.04,23.39,15.98z"/>
<path class="st3" d="M22.84,36.44L22.84,36.44c0.08-0.02,0.17-0.04,0.25-0.06l0,0C23,36.39,22.92,36.41,22.84,36.44z"/>
<path class="st3" d="M42.1,36.1L42.1,36.1c-0.05-0.01-0.1-0.01-0.14-0.02l0,0C42.01,36.09,42.06,36.1,42.1,36.1z"/>
<path class="st3" d="M26.72,35.79L26.72,35.79c0.05-0.02,0.09-0.04,0.13-0.06l0,0C26.81,35.76,26.77,35.78,26.72,35.79z"/>
<path class="st3" d="M21.65,36.87L21.65,36.87c0.07-0.03,0.14-0.06,0.21-0.09l0,0C21.79,36.81,21.72,36.84,21.65,36.87z"/>
<path class="st3" d="M22.43,36.56L22.43,36.56c0.03-0.01,0.06-0.02,0.09-0.03C22.49,36.54,22.46,36.55,22.43,36.56z"/>
<path class="st3" d="M26.5,35.88L26.5,35.88c0.05-0.02,0.09-0.03,0.14-0.05l0,0C26.59,35.85,26.55,35.86,26.5,35.88z"/>
<path class="st3" d="M22.57,36.51c0.03-0.01,0.06-0.02,0.09-0.03l0,0C22.64,36.5,22.61,36.5,22.57,36.51z"/>
<path class="st3" d="M22.03,36.71L22.03,36.71c0.07-0.03,0.15-0.06,0.22-0.08l0,0C22.18,36.65,22.11,36.68,22.03,36.71z"/>
<path class="st3" d="M40.95,35.79L40.95,35.79c-0.04-0.02-0.08-0.03-0.12-0.05c0,0,0,0,0,0C40.87,35.76,40.91,35.77,40.95,35.79z"/>
<path class="st3" d="M26.04,36.02L26.04,36.02c0.05-0.01,0.1-0.02,0.14-0.04l0,0C26.14,35.99,26.09,36.01,26.04,36.02z"/>
<path class="st3" d="M43.11,36.15c-0.14-0.01-0.28-0.01-0.43-0.01c0,0,0,0,0,0C42.83,36.14,42.97,36.15,43.11,36.15z"/>
<path class="st3" d="M42.36,36.13C42.36,36.13,42.36,36.13,42.36,36.13c-0.05,0-0.11-0.01-0.16-0.01l0,0
	C42.25,36.12,42.31,36.13,42.36,36.13z"/>
<path class="st3" d="M23.67,36.25L23.67,36.25c0.09-0.02,0.19-0.03,0.28-0.04l0,0C23.86,36.22,23.77,36.24,23.67,36.25z"/>
<path class="st3" d="M41.39,35.95L41.39,35.95c-0.04-0.01-0.08-0.03-0.13-0.04l0,0C41.31,35.93,41.35,35.94,41.39,35.95z"/>
<path class="st3" d="M41.62,36.01L41.62,36.01c-0.04-0.01-0.09-0.02-0.13-0.03l0,0C41.54,35.99,41.58,36,41.62,36.01z"/>
<path class="st3" d="M41.17,35.88C41.17,35.88,41.17,35.88,41.17,35.88c-0.04-0.01-0.08-0.03-0.12-0.05c0,0,0,0,0,0
	C41.09,35.85,41.13,35.86,41.17,35.88z"/>
<path class="st3" d="M24.11,36.19L24.11,36.19c0.11-0.01,0.21-0.02,0.32-0.03l0,0C24.32,36.17,24.21,36.18,24.11,36.19z"/>
<path class="st3" d="M26.27,35.95L26.27,35.95c0.05-0.01,0.09-0.03,0.14-0.04l0,0C26.37,35.93,26.32,35.94,26.27,35.95z"/>
<path class="st3" d="M41.86,36.07L41.86,36.07c-0.04-0.01-0.09-0.02-0.14-0.03c0,0,0,0,0,0C41.77,36.05,41.81,36.06,41.86,36.07z"/>
<path class="st3" d="M24.54,36.16L24.54,36.16c0.15-0.01,0.3-0.01,0.44-0.01C24.84,36.14,24.69,36.15,24.54,36.16z"/>
<path class="st3" d="M42.69,36.14C42.69,36.14,42.69,36.14,42.69,36.14c-0.08,0-0.16,0-0.24-0.01h0
	C42.52,36.14,42.6,36.14,42.69,36.14z"/>
<path class="st3" d="M33.15,14.33c0.26-0.08,0.52-0.17,0.78-0.26C33.67,14.16,33.41,14.25,33.15,14.33z"/>
<path class="st3" d="M44.25,15.14c0.11,0.01,0.22,0.03,0.34,0.03C44.47,15.17,44.36,15.16,44.25,15.14z"/>
<path class="st3" d="M24.15,15.26c0.06-0.01,0.13-0.01,0.19,0h0c-0.3-0.03-0.57,0.11-0.75,0.32c0,0,0,0,0,0
	C23.72,15.41,23.92,15.29,24.15,15.26z"/>
<path class="st3" d="M32.2,14.61c0.26-0.07,0.51-0.14,0.77-0.22C32.71,14.46,32.46,14.54,32.2,14.61z"/>
<path class="st3" d="M40.72,11.78c0.02,0.08,0.04,0.15,0.07,0.23C40.77,11.93,40.74,11.86,40.72,11.78
	c-0.16-0.61-0.85-0.87-1.35-0.52c-1.38,0.97-2.85,1.77-4.37,2.4c1.52-0.63,2.99-1.43,4.37-2.4C39.87,10.91,40.56,11.17,40.72,11.78z
	"/>
<path class="st3" d="M42.99,14.76c-0.97-0.48-1.74-1.35-2.15-2.59C41.25,13.41,42.03,14.28,42.99,14.76z"/>
<path class="st3" d="M43,14.76c0.08,0.04,0.17,0.08,0.26,0.11C43.17,14.84,43.08,14.8,43,14.76z"/>
<path class="st3" d="M30.19,15.04c-1.59,0.27-3.21,0.37-4.84,0.29c0,0,0,0,0,0C26.99,15.41,28.61,15.31,30.19,15.04z"/>
<path class="st3" d="M43.6,15c0.07,0.02,0.15,0.04,0.23,0.06C43.75,15.04,43.68,15.02,43.6,15z"/>
<path class="st3" d="M43.92,15.08c0.08,0.02,0.16,0.03,0.24,0.04C44.09,15.11,44,15.1,43.92,15.08z"/>
<path class="st3" d="M43.3,14.89c0.08,0.03,0.16,0.06,0.23,0.08C43.45,14.95,43.37,14.92,43.3,14.89z"/>
<path class="st3" d="M25.3,15.32C25.3,15.33,25.3,15.33,25.3,15.32c-0.32-0.02-0.64-0.04-0.96-0.07c0,0,0.01,0,0.01,0
	C24.66,15.29,24.98,15.31,25.3,15.32z"/>
<path class="st3" d="M23.4,22.49c-0.01-0.08-0.01-0.17-0.01-0.25C23.39,22.32,23.39,22.41,23.4,22.49z"/>
<path class="st3" d="M23.44,15.81L23.44,15.81c-0.02,0.04-0.03,0.08-0.04,0.12C23.42,15.89,23.43,15.85,23.44,15.81z"/>
<path class="st3" d="M30.28,15.03c0.27-0.05,0.53-0.1,0.8-0.16C30.81,14.93,30.54,14.98,30.28,15.03z"/>
<path class="st3" d="M23.43,22.86c0-0.05-0.01-0.1-0.01-0.15C23.42,22.76,23.43,22.81,23.43,22.86z"/>
<path class="st3" d="M23.37,21.63v-0.15v0V21.63c0,0.14,0,0.28,0.01,0.42C23.37,21.92,23.37,21.78,23.37,21.63L23.37,21.63z"/>
<path class="st3" d="M34.08,14.02c0.28-0.1,0.56-0.21,0.83-0.32C34.64,13.81,34.36,13.92,34.08,14.02z"/>
<path class="st3" d="M23.37,16.18L23.37,16.18c0-0.07,0.01-0.13,0.02-0.2C23.37,16.04,23.37,16.11,23.37,16.18v0.66
	c0,0.01,0,0.02,0,0.03V16.18z"/>
<path class="st3" d="M23.5,15.71c0-0.01,0.01-0.01,0.01-0.02l0,0c-0.02,0.03-0.04,0.06-0.05,0.1l0,0
	C23.46,15.76,23.48,15.74,23.5,15.71z"/>
<path class="st3" d="M31.24,14.84c0.25-0.06,0.5-0.12,0.75-0.18C31.74,14.72,31.49,14.79,31.24,14.84z"/>
<path class="st4" d="M30.77,32.45c2.27,0.83,4.82,0.9,7.31-0.02C35.72,33.3,33.13,33.3,30.77,32.45z"/>
<path class="st4" d="M38.62,32.22c-0.16,0.07-0.32,0.13-0.48,0.19C38.3,32.35,38.46,32.29,38.62,32.22z"/>
<path class="st4" d="M30.63,32.4c-0.11-0.04-0.23-0.09-0.34-0.14C30.41,32.31,30.52,32.35,30.63,32.4z"/>
<path class="st4" d="M38.09,31.82c0,0.03,0.01,0.07,0.01,0.1C38.1,31.89,38.1,31.85,38.09,31.82z"/>
<path class="st4" d="M29.54,32.16c0.01-0.03,0.01-0.07,0.02-0.1C29.55,32.09,29.54,32.13,29.54,32.16z"/>
<path class="st4" d="M29.48,32.47L29.48,32.47c0.02-0.07,0.03-0.13,0.04-0.2C29.51,32.33,29.49,32.4,29.48,32.47z"/>
<path class="st4" d="M29.57,31.92c0-0.03,0.01-0.07,0.01-0.1C29.58,31.85,29.58,31.89,29.57,31.92z"/>
<polygon class="st4" points="30.18,32.22 30.18,32.22 30.16,32.26 30.16,32.26 30.16,32.26 "/>
<path class="st4" d="M38.07,31.38c0,0.12,0.01,0.25,0.02,0.37C38.08,31.63,38.07,31.51,38.07,31.38z"/>
<path class="st4" d="M38.12,32.06c0,0.03,0.01,0.07,0.02,0.1C38.13,32.13,38.13,32.09,38.12,32.06z"/>
<path class="st4" d="M38.16,32.27c0.01,0.07,0.03,0.13,0.04,0.2C38.18,32.4,38.17,32.33,38.16,32.27z"/>
<path class="st4" d="M29.59,31.75c0.01-0.12,0.02-0.25,0.02-0.37C29.6,31.51,29.6,31.63,29.59,31.75z"/>
<path class="st5" d="M16.75,31.48c-0.01-0.03-0.02-0.07-0.03-0.1C16.72,31.41,16.74,31.45,16.75,31.48z"/>
<path class="st5" d="M17.16,32.69C17.16,32.69,17.16,32.69,17.16,32.69C17.16,32.69,17.16,32.69,17.16,32.69z"/>
<path class="st5" d="M16.71,28.46c0-0.02,0-0.03,0-0.05C16.71,28.42,16.71,28.44,16.71,28.46z"/>
<path class="st5" d="M16.94,32.01c-0.03-0.09-0.07-0.17-0.1-0.26C16.87,31.84,16.9,31.93,16.94,32.01z"/>
<path class="st5" d="M16.69,28.81C16.69,28.81,16.69,28.8,16.69,28.81C16.69,28.8,16.69,28.81,16.69,28.81z"/>
<path class="st5" d="M16.87,27.05c0.01-0.07,0.02-0.14,0.04-0.21C16.9,26.91,16.89,26.98,16.87,27.05z"/>
<path class="st5" d="M16.73,28.1c0-0.03,0-0.06,0.01-0.09C16.74,28.04,16.74,28.07,16.73,28.1z"/>
<path class="st5" d="M17.25,32.76C17.24,32.76,17.24,32.75,17.25,32.76c0.01,0.03,0.03,0.07,0.05,0.1l0,0l0,0
	C17.28,32.83,17.26,32.79,17.25,32.76z"/>
<path class="st5" d="M17.57,24.57L17.57,24.57c-0.05,0.13-0.11,0.27-0.15,0.41c0,0,0-0.01,0-0.01
	C17.47,24.83,17.52,24.7,17.57,24.57z"/>
<path class="st5" d="M18.32,23.02C18.32,23.02,18.32,23.02,18.32,23.02c-0.07,0.12-0.14,0.25-0.21,0.38c0,0,0,0,0-0.01
	C18.18,23.27,18.25,23.15,18.32,23.02z"/>
<path class="st5" d="M16.99,32.15c0-0.01,0-0.01-0.01-0.02c0.06,0.15,0.12,0.29,0.18,0.43c0,0,0,0,0,0
	C17.1,32.42,17.04,32.28,16.99,32.15z"/>
<path class="st5" d="M18.07,23.49C18.07,23.49,18.07,23.49,18.07,23.49c-0.07,0.14-0.14,0.29-0.21,0.43c0,0,0-0.01,0-0.01
	C17.93,23.77,17.99,23.63,18.07,23.49z"/>
<path class="st5" d="M17.34,25.21C17.34,25.2,17.34,25.2,17.34,25.21c-0.02,0.07-0.05,0.15-0.08,0.23c0-0.01,0-0.01,0.01-0.02
	C17.29,25.35,17.32,25.28,17.34,25.21z"/>
<path class="st5" d="M17.77,24.1C17.78,24.1,17.78,24.09,17.77,24.1c-0.04,0.09-0.08,0.19-0.13,0.29c0-0.01,0-0.01,0.01-0.02
	C17.69,24.28,17.73,24.19,17.77,24.1z"/>
<path class="st5" d="M16.79,27.62c0,0.03-0.01,0.06-0.01,0.08c0,0,0,0,0,0C16.78,27.68,16.78,27.65,16.79,27.62z"/>
<path class="st5" d="M16.99,26.46c-0.01,0.03-0.01,0.07-0.02,0.1c0,0,0-0.01,0-0.01C16.98,26.51,16.98,26.49,16.99,26.46z"/>
<path class="st5" d="M17.03,26.31c0,0.02-0.01,0.04-0.01,0.05C17.02,26.35,17.02,26.33,17.03,26.31
	C17.03,26.31,17.03,26.31,17.03,26.31z"/>
<path class="st5" d="M17.19,25.69c-0.03,0.1-0.06,0.2-0.08,0.3c0,0,0-0.01,0-0.01C17.13,25.88,17.16,25.79,17.19,25.69z"/>
<path class="st5" d="M16.82,27.36c0,0.01,0,0.03-0.01,0.04C16.82,27.39,16.82,27.38,16.82,27.36
	C16.82,27.37,16.82,27.36,16.82,27.36z"/>
<path class="st5" d="M18.66,21.43c1.25-1.95,1.92-4.25,1.92-6.6V9.82c0-2.2,0.59-4.25,1.61-6c-1.02,1.75-1.61,3.8-1.61,6v5.01
	C20.58,17.18,19.91,19.48,18.66,21.43c-0.09,0.15-0.18,0.3-0.27,0.45c0,0,0,0,0,0C18.48,21.73,18.57,21.58,18.66,21.43z"/>
<path class="st5" d="M17.03,26.31c0,0.02-0.01,0.03-0.01,0.05c-0.01,0.03-0.02,0.06-0.02,0.1c-0.01,0.03-0.01,0.06-0.02,0.09
	C16.99,26.47,17.01,26.39,17.03,26.31z"/>
<path class="st5" d="M16.92,26.79c0,0.02-0.01,0.04-0.01,0.05c-0.01,0.07-0.02,0.14-0.04,0.21c0,0.01,0,0.02-0.01,0.04
	C16.88,26.99,16.9,26.89,16.92,26.79z"/>
<path class="st5" d="M17.42,24.97c0.05-0.13,0.1-0.26,0.15-0.4C17.52,24.7,17.47,24.83,17.42,24.97z"/>
<path class="st5" d="M17.19,25.68c0,0.01,0,0.01,0,0.02c-0.03,0.09-0.05,0.19-0.08,0.29C17.14,25.88,17.16,25.78,17.19,25.68z"/>
<path class="st5" d="M18.11,23.4c0.07-0.13,0.13-0.25,0.2-0.37C18.25,23.15,18.18,23.27,18.11,23.4z"/>
<path class="st5" d="M20.58,14.83L20.58,14.83c0,2.35-0.67,4.64-1.92,6.6c-0.09,0.15-0.18,0.29-0.27,0.44
	c0.09-0.15,0.18-0.3,0.27-0.44C19.91,19.48,20.58,17.18,20.58,14.83z"/>
<path class="st5" d="M17.16,32.56c-0.06-0.14-0.12-0.27-0.17-0.41C17.04,32.28,17.1,32.42,17.16,32.56z"/>
<path class="st5" d="M16.62,31.07c0.03,0.1,0.06,0.21,0.09,0.31c0.01,0.03,0.02,0.07,0.03,0.1c0.01,0.02,0.02,0.05,0.02,0.07
	C16.72,31.39,16.67,31.23,16.62,31.07z"/>
<path class="st5" d="M16.8,31.64c0.01,0.04,0.02,0.07,0.04,0.11c0.03,0.09,0.06,0.17,0.1,0.26c0.01,0.03,0.02,0.05,0.03,0.08
	C16.91,31.94,16.85,31.79,16.8,31.64z"/>
<path class="st5" d="M16.92,31.67c-0.07-0.36-0.12-0.72-0.16-1.08C16.8,30.95,16.85,31.31,16.92,31.67z"/>
<path class="st5" d="M17.66,24.37c0.04-0.09,0.08-0.18,0.12-0.28C17.73,24.19,17.69,24.28,17.66,24.37z"/>
<path class="st5" d="M17.27,25.42c0.02-0.07,0.05-0.14,0.07-0.22C17.32,25.28,17.29,25.35,17.27,25.42z"/>
<path class="st5" d="M16.69,29.42c0-0.15,0-0.3,0-0.45C16.68,29.12,16.68,29.27,16.69,29.42z"/>
<path class="st5" d="M17.86,23.91c0.07-0.14,0.13-0.28,0.21-0.42C17.99,23.63,17.93,23.77,17.86,23.91z"/>
<path class="st5" d="M16.75,30.56c-0.04-0.36-0.06-0.71-0.07-1.07C16.69,29.85,16.72,30.2,16.75,30.56z"/>
<path class="st5" d="M17.25,32.76c0.02,0.03,0.03,0.07,0.05,0.1l0,0c0,0.01,0.01,0.01,0.01,0.02C17.29,32.84,17.26,32.8,17.25,32.76
	z"/>
<path class="st5" d="M16.76,27.89c0,0.04-0.01,0.08-0.01,0.12c0,0.03,0,0.06-0.01,0.09c0,0.05-0.01,0.1-0.01,0.15
	C16.73,28.13,16.74,28.01,16.76,27.89z"/>
<path class="st5" d="M16.92,31.68c0.07,0.34,0.15,0.68,0.24,1.01c0,0,0,0,0,0.01c0.01,0.02,0.01,0.04,0.02,0.06
	C17.08,32.4,16.99,32.04,16.92,31.68z"/>
<path class="st5" d="M16.82,27.37c0,0.01,0,0.02,0,0.03c-0.01,0.07-0.02,0.15-0.03,0.22c0,0.03-0.01,0.05-0.01,0.08
	C16.79,27.59,16.81,27.48,16.82,27.37z"/>
<path class="st5" d="M16.71,28.38c0,0.01,0,0.02,0,0.03c0,0.02,0,0.03,0,0.05c-0.01,0.11-0.01,0.23-0.02,0.34c0,0,0,0,0,0.01
	c0,0.02,0,0.04,0,0.06C16.69,28.71,16.7,28.54,16.71,28.38z"/>
<path class="st5" d="M23.58,15.58L23.58,15.58c-0.03,0.03-0.05,0.07-0.08,0.11l0,0C23.53,15.65,23.55,15.62,23.58,15.58z"/>
<path class="st5" d="M17.11,25.98c0,0,0,0.01,0,0.01c0,0.01,0,0.01,0,0.02C17.1,26,17.11,25.99,17.11,25.98z"/>
<path class="st5" d="M16.84,27.23c-0.01,0.04-0.01,0.09-0.02,0.13c0,0,0,0.01,0,0.01C16.83,27.32,16.83,27.28,16.84,27.23z"/>
<path class="st5" d="M17.66,24.37c0,0.01,0,0.01-0.01,0.02c-0.02,0.06-0.05,0.12-0.07,0.18l0,0C17.6,24.5,17.63,24.44,17.66,24.37z"
	/>
<path class="st5" d="M16.78,27.7C16.78,27.7,16.78,27.71,16.78,27.7c0,0.02,0,0.03-0.01,0.05C16.77,27.73,16.77,27.72,16.78,27.7z"
	/>
<path class="st5" d="M17.08,26.07c-0.02,0.08-0.04,0.16-0.06,0.24c0,0,0,0,0,0.01C17.04,26.23,17.06,26.15,17.08,26.07z"/>
<path class="st5" d="M18.11,23.4C18.11,23.4,18.11,23.4,18.11,23.4c-0.02,0.03-0.03,0.06-0.05,0.09c0,0,0,0,0,0
	C18.08,23.46,18.1,23.43,18.11,23.4z"/>
<path class="st5" d="M16.98,32.13C16.98,32.13,16.98,32.13,16.98,32.13c0,0.01,0.01,0.01,0.01,0.02
	C16.98,32.14,16.98,32.13,16.98,32.13z"/>
<path class="st5" d="M17.42,24.97c0,0,0,0.01,0,0.01c-0.03,0.07-0.05,0.15-0.08,0.22c0,0,0,0.01,0,0.01
	C17.37,25.13,17.4,25.05,17.42,24.97z"/>
<path class="st5" d="M17.86,23.91C17.86,23.92,17.86,23.92,17.86,23.91c-0.03,0.07-0.06,0.12-0.08,0.18c0,0,0,0,0,0.01
	C17.8,24.04,17.83,23.97,17.86,23.91z"/>
<path class="st5" d="M17.16,32.56C17.16,32.56,17.16,32.56,17.16,32.56c0.03,0.07,0.06,0.13,0.09,0.2c0,0,0,0,0,0.01
	C17.21,32.69,17.18,32.62,17.16,32.56z"/>
<path class="st5" d="M17.27,25.42c0,0.01,0,0.01-0.01,0.02c-0.02,0.08-0.05,0.15-0.07,0.23C17.22,25.59,17.25,25.51,17.27,25.42z"/>
<path class="st5" d="M16.97,26.54c0,0,0,0.01,0,0.01c-0.01,0.05-0.02,0.1-0.03,0.15C16.95,26.65,16.96,26.6,16.97,26.54z"/>
<path class="st5" d="M18.39,22.9C18.39,22.9,18.39,22.9,18.39,22.9c-0.03,0.04-0.05,0.08-0.07,0.12c0,0,0,0,0,0
	C18.34,22.98,18.37,22.94,18.39,22.9z"/>
<path class="st5" d="M23.37,16.87c0-0.01,0-0.02,0-0.03v4.65v0V16.87z"/>
<path class="st5" d="M23.45,15.79L23.45,15.79c0,0.01-0.01,0.01-0.01,0.02l0,0C23.45,15.8,23.45,15.8,23.45,15.79z"/>
<path class="st5" d="M23.58,15.58C23.58,15.58,23.58,15.58,23.58,15.58c-0.03,0.03-0.05,0.07-0.08,0.11l0,0
	C23.53,15.65,23.55,15.62,23.58,15.58z"/>
<path class="st6" d="M23.4,22.49c0,0,0,0.01,0,0.01c0,0,0,0.01,0,0.01c0,0.01,0,0.03,0,0.04C23.4,22.54,23.4,22.52,23.4,22.49z"/>
<path class="st6" d="M23.38,22.07c0,0.01,0,0.01,0,0.02c0,0.02,0,0.04,0,0.06C23.38,22.12,23.38,22.1,23.38,22.07z"/>
<path class="st6" d="M26.28,29.38c-0.01-0.02-0.03-0.03-0.04-0.05C26.25,29.35,26.26,29.37,26.28,29.38z"/>
<path class="st6" d="M27.6,30.64c-0.03-0.02-0.06-0.04-0.08-0.07C27.54,30.6,27.57,30.62,27.6,30.64z"/>
<path class="st6" d="M26.39,29.5c0.13,0.15,0.27,0.29,0.42,0.43c0.02,0.02,0.03,0.03,0.05,0.05c0.05,0.05,0.1,0.09,0.14,0.14
	c0.13,0.12,0.26,0.24,0.39,0.35C27.04,30.17,26.7,29.85,26.39,29.5z"/>
<path class="st6" d="M26.39,29.5c-0.04-0.04-0.07-0.08-0.11-0.12c-0.01-0.02-0.03-0.03-0.04-0.05c-1.52-1.72-2.55-3.95-2.8-6.47
	c0.28,2.86,1.55,5.3,3.37,7.07C26.66,29.8,26.52,29.65,26.39,29.5z"/>
<path class="st6" d="M23.4,22.52c0,0.06,0.01,0.13,0.02,0.19c0-0.05-0.01-0.1-0.01-0.15C23.4,22.55,23.4,22.54,23.4,22.52z"/>
<path class="st6" d="M23.4,22.49c0,0.01,0,0.01,0,0.02C23.4,22.5,23.4,22.5,23.4,22.49L23.4,22.49z"/>
<path class="st6" d="M23.38,22.09c0,0.05,0,0.1,0.01,0.15c0-0.03,0-0.06,0-0.09C23.38,22.13,23.38,22.11,23.38,22.09z"/>
<path class="st6" d="M23.39,15.98c0-0.02,0.01-0.03,0.02-0.05C23.4,15.95,23.39,15.96,23.39,15.98z"/>
<path class="st6" d="M25.3,15.33c0.02,0,0.04,0,0.05,0C25.34,15.33,25.32,15.33,25.3,15.33z"/>
<path class="st6" d="M26.99,30.12c-0.05-0.05-0.1-0.09-0.14-0.14C26.9,30.03,26.95,30.07,26.99,30.12z"/>
<polygon class="st6" points="24.34,15.26 24.34,15.26 24.34,15.26 "/>
<path class="st6" d="M23.4,22.56c0,0.05,0.01,0.1,0.01,0.15c0,0.05,0.01,0.1,0.01,0.15c0.25,2.52,1.29,4.75,2.8,6.47
	C24.64,27.51,23.6,25.16,23.4,22.56z"/>
<path class="st6" d="M23.44,15.81c-0.02,0.04-0.03,0.08-0.04,0.12c0,0.02-0.01,0.03-0.02,0.05c-0.01,0.06-0.02,0.13-0.02,0.2v0
	C23.37,16.05,23.4,15.92,23.44,15.81L23.44,15.81z"/>
<path class="st6" d="M23.5,15.71c-0.02,0.03-0.03,0.05-0.04,0.08c0,0,0,0,0,0C23.46,15.76,23.48,15.74,23.5,15.71z"/>
<path class="st6" d="M23.38,22.15c0,0.03,0,0.06,0,0.09c0,0.08,0.01,0.17,0.01,0.25l0,0C23.39,22.38,23.38,22.26,23.38,22.15z"/>
<path class="st6" d="M26.39,29.5c-0.04-0.04-0.07-0.08-0.11-0.12C26.31,29.42,26.35,29.46,26.39,29.5z"/>
<path class="st6" d="M24.34,15.26c0,0,0.01,0,0.01,0C24.34,15.26,24.34,15.26,24.34,15.26C24.34,15.26,24.34,15.26,24.34,15.26
	c-0.06-0.01-0.13,0-0.19,0C24.21,15.25,24.27,15.25,24.34,15.26z"/>
<path class="st6" d="M25.36,15.33C25.36,15.33,25.36,15.33,25.36,15.33c-0.02,0-0.04,0-0.06,0c0,0,0,0-0.01,0
	C25.32,15.33,25.34,15.33,25.36,15.33z"/>
<path class="st6" d="M23.58,15.58c-0.03,0.03-0.05,0.07-0.08,0.11C23.53,15.65,23.56,15.62,23.58,15.58z"/>
<path class="st6" d="M23.45,15.79c0,0.01,0,0.01-0.01,0.02C23.45,15.8,23.45,15.8,23.45,15.79z"/>
<path class="st6" d="M23.37,16.87v4.61C23.37,20.88,23.37,19.62,23.37,16.87z"/>
<path class="st6" d="M23.45,15.79C23.45,15.79,23.45,15.79,23.45,15.79c0,0.01,0,0.01-0.01,0.02l0,0
	C23.45,15.8,23.45,15.8,23.45,15.79z"/>
<path class="st1" d="M19.45,38.34L19.45,38.34c-0.02,0.02-0.04,0.04-0.06,0.06l0,0C19.4,38.38,19.43,38.36,19.45,38.34z"/>
<path class="st1" d="M17.7,41.64L17.7,41.64c-0.02,0.03-0.03,0.07-0.05,0.1l0,0C17.67,41.71,17.69,41.68,17.7,41.64z"/>
<path class="st1" d="M19.13,39.68c-0.01,0.01-0.01,0.01-0.02,0.02C19.12,39.69,19.12,39.68,19.13,39.68L19.13,39.68z"/>
<path class="st1" d="M18.61,40.27L18.61,40.27c-0.01,0.02-0.03,0.03-0.04,0.05v0C18.58,40.3,18.59,40.29,18.61,40.27z"/>
<polygon class="st1" points="17.88,41.32 17.88,41.32 17.88,41.33 17.88,41.33 "/>
<path class="st1" d="M18.1,40.97c0.01-0.02,0.02-0.03,0.03-0.04C18.12,40.94,18.11,40.96,18.1,40.97z"/>
<path class="st1" d="M17.34,42.43L17.34,42.43c-0.01,0.02-0.01,0.04-0.02,0.06l0,0C17.32,42.46,17.33,42.44,17.34,42.43z"/>
<path class="st1" d="M17.53,41.99L17.53,41.99c-0.01,0.03-0.03,0.06-0.04,0.09l0,0C17.5,42.05,17.51,42.02,17.53,41.99z"/>
<path class="st1" d="M17.2,42.78L17.2,42.78c-0.01,0.04-0.03,0.07-0.04,0.11v0C17.18,42.85,17.19,42.81,17.2,42.78z"/>
<path class="st1" d="M20.39,37.58L20.39,37.58c-0.02,0.02-0.05,0.03-0.07,0.05v0C20.34,37.62,20.37,37.6,20.39,37.58z"/>
<path class="st1" d="M17.07,43.17c-0.01,0.02-0.01,0.04-0.02,0.06C17.06,43.21,17.07,43.19,17.07,43.17L17.07,43.17z"/>
<path class="st1" d="M17.31,42.48L17.31,42.48c-0.04,0.1-0.08,0.2-0.11,0.3l0,0C17.24,42.68,17.28,42.58,17.31,42.48z"/>
<path class="st1" d="M18.07,41.01c-0.06,0.1-0.13,0.2-0.19,0.3l0,0C17.94,41.22,18.01,41.11,18.07,41.01z"/>
<path class="st1" d="M17.16,42.89L17.16,42.89c-0.03,0.09-0.06,0.19-0.09,0.28v0C17.1,43.07,17.13,42.98,17.16,42.89z"/>
<path class="st1" d="M23.14,36.36c0.04-0.01,0.08-0.02,0.11-0.03l0,0C23.21,36.34,23.17,36.35,23.14,36.36z"/>
<path class="st1" d="M17.88,41.33L17.88,41.33c-0.06,0.1-0.12,0.21-0.18,0.32l0,0C17.76,41.54,17.82,41.43,17.88,41.33z"/>
<path class="st1" d="M17.48,42.09L17.48,42.09c-0.05,0.11-0.1,0.22-0.15,0.34l0,0C17.38,42.31,17.43,42.2,17.48,42.09z"/>
<path class="st1" d="M23.52,36.28c0.01,0,0.01,0,0.02,0C23.53,36.28,23.52,36.28,23.52,36.28L23.52,36.28z"/>
<path class="st1" d="M17.65,41.74L17.65,41.74c-0.04,0.08-0.08,0.17-0.12,0.25l0,0C17.57,41.91,17.61,41.82,17.65,41.74z"/>
<path class="st1" d="M19.38,38.4L19.38,38.4c-0.09,0.08-0.17,0.17-0.26,0.25v0C19.21,38.57,19.3,38.48,19.38,38.4z"/>
<path class="st1" d="M19.54,38.26c-0.03,0.03-0.06,0.06-0.09,0.08l0,0C19.48,38.32,19.51,38.29,19.54,38.26z"/>
<path class="st1" d="M20.49,37.52c-0.03,0.02-0.07,0.04-0.1,0.07l0,0C20.42,37.56,20.46,37.54,20.49,37.52z"/>
<path class="st1" d="M20.32,37.63L20.32,37.63c-0.01,0.01-0.02,0.01-0.03,0.02C20.3,37.65,20.31,37.64,20.32,37.63z"/>
<path class="st1" d="M18.64,40.23c-0.01,0.01-0.02,0.03-0.03,0.04l0,0C18.62,40.26,18.63,40.24,18.64,40.23z"/>
<path class="st1" d="M18.57,40.32L18.57,40.32c-0.01,0.02-0.02,0.03-0.04,0.05C18.54,40.35,18.56,40.33,18.57,40.32z"/>
<path class="st1" d="M17.88,41.32C17.88,41.32,17.88,41.32,17.88,41.32C17.88,41.32,17.88,41.32,17.88,41.32z"/>
<path class="st1" d="M17.53,41.99c-0.01,0.03-0.03,0.06-0.04,0.09C17.5,42.05,17.51,42.02,17.53,41.99z"/>
<path class="st1" d="M21.43,36.97c-0.03,0.01-0.05,0.03-0.08,0.04C21.38,37,21.41,36.99,21.43,36.97z"/>
<path class="st1" d="M19.13,39.68c-0.01,0.01-0.01,0.01-0.02,0.02c-0.01,0.01-0.03,0.03-0.04,0.05
	C19.09,39.72,19.11,39.7,19.13,39.68z"/>
<path class="st1" d="M20.39,37.58c-0.02,0.02-0.05,0.03-0.07,0.05C20.34,37.62,20.37,37.6,20.39,37.58z"/>
<path class="st1" d="M20.71,37.37c-0.03,0.02-0.05,0.03-0.08,0.05C20.66,37.41,20.68,37.39,20.71,37.37z"/>
<path class="st1" d="M18.35,40.61c-0.02,0.03-0.04,0.06-0.06,0.08C18.31,40.66,18.33,40.63,18.35,40.61z"/>
<path class="st1" d="M18.61,40.27c-0.01,0.02-0.03,0.03-0.04,0.05C18.58,40.3,18.59,40.29,18.61,40.27z"/>
<path class="st1" d="M20.02,37.85c-0.01,0.01-0.02,0.02-0.04,0.03C20,37.87,20.01,37.86,20.02,37.85z"/>
<path class="st1" d="M17.7,41.64c-0.02,0.03-0.03,0.07-0.05,0.1C17.67,41.71,17.69,41.68,17.7,41.64z"/>
<path class="st1" d="M18.13,40.92C18.13,40.92,18.13,40.92,18.13,40.92c-0.02,0.02-0.03,0.04-0.04,0.05
	c-0.01,0.01-0.02,0.03-0.02,0.04C18.09,40.98,18.11,40.95,18.13,40.92z"/>
<path class="st1" d="M19.74,38.08c-0.03,0.02-0.05,0.05-0.08,0.07C19.69,38.13,19.71,38.11,19.74,38.08z"/>
<path class="st1" d="M19.45,38.34c-0.02,0.02-0.04,0.04-0.06,0.06C19.4,38.38,19.43,38.36,19.45,38.34z"/>
<path class="st1" d="M18.88,39.95c-0.02,0.03-0.05,0.06-0.07,0.08C18.83,40.01,18.85,39.98,18.88,39.95z"/>
<path class="st1" d="M17.34,42.43c-0.01,0.02-0.01,0.04-0.02,0.06C17.32,42.46,17.33,42.44,17.34,42.43z"/>
<path class="st1" d="M17.07,43.17c-0.01,0.02-0.01,0.04-0.02,0.06c0,0.01,0,0.01-0.01,0.02C17.05,43.22,17.06,43.2,17.07,43.17z"/>
<path class="st1" d="M17.2,42.78c-0.01,0.04-0.03,0.07-0.04,0.11C17.18,42.85,17.19,42.81,17.2,42.78z"/>
<path class="st1" d="M23.25,36.33L23.25,36.33c0.09-0.02,0.18-0.04,0.26-0.05l0,0C23.43,36.3,23.34,36.31,23.25,36.33z"/>
<path class="st1" d="M22.52,36.53c0.02-0.01,0.04-0.01,0.06-0.02C22.56,36.52,22.54,36.53,22.52,36.53z"/>
<path class="st1" d="M23.52,36.28c-0.09,0.02-0.18,0.03-0.26,0.05C23.34,36.31,23.43,36.3,23.52,36.28z"/>
<path class="st1" d="M23.96,36.21c-0.09,0.01-0.19,0.02-0.28,0.04C23.77,36.24,23.86,36.22,23.96,36.21z"/>
<path class="st1" d="M25.72,36.08c-0.05,0.01-0.11,0.02-0.16,0.02C25.61,36.1,25.67,36.09,25.72,36.08z"/>
<path class="st1" d="M24.43,36.17c-0.11,0.01-0.21,0.02-0.32,0.03C24.21,36.18,24.32,36.17,24.43,36.17z"/>
<path class="st1" d="M25.48,36.12c-0.06,0.01-0.13,0.01-0.19,0.02C25.35,36.13,25.42,36.12,25.48,36.12z"/>
<path class="st1" d="M25.95,36.04c-0.05,0.01-0.1,0.02-0.15,0.03C25.86,36.06,25.91,36.05,25.95,36.04z"/>
<path class="st1" d="M23.09,36.37c-0.08,0.02-0.17,0.04-0.25,0.06C22.92,36.41,23,36.39,23.09,36.37z"/>
<path class="st1" d="M26.41,35.91c-0.05,0.02-0.09,0.03-0.14,0.04C26.32,35.94,26.37,35.93,26.41,35.91z"/>
<path class="st1" d="M24.54,36.16c0.15-0.01,0.3-0.01,0.44-0.01c0.08,0,0.17,0,0.25-0.01c-0.08,0-0.17,0.01-0.25,0.01
	C24.84,36.14,24.69,36.15,24.54,36.16z"/>
<path class="st1" d="M22.52,36.53c-0.03,0.01-0.06,0.02-0.09,0.03c0.08-0.03,0.16-0.05,0.24-0.08c-0.03,0.01-0.06,0.02-0.09,0.03
	C22.56,36.52,22.54,36.53,22.52,36.53z"/>
<path class="st1" d="M26.19,35.98c-0.05,0.01-0.1,0.03-0.14,0.04C26.09,36.01,26.14,35.99,26.19,35.98z"/>
<path class="st1" d="M26.85,35.74c-0.04,0.02-0.09,0.04-0.13,0.06C26.77,35.78,26.81,35.76,26.85,35.74z"/>
<path class="st1" d="M22.26,36.62c-0.08,0.03-0.15,0.05-0.22,0.08C22.11,36.68,22.18,36.65,22.26,36.62z"/>
<path class="st1" d="M26.64,35.83c-0.04,0.02-0.09,0.03-0.14,0.05C26.55,35.86,26.59,35.85,26.64,35.83z"/>
<path class="st1" d="M21.86,36.78c-0.07,0.03-0.14,0.06-0.21,0.09C21.72,36.84,21.79,36.81,21.86,36.78z"/>
<path class="st7" d="M47.65,37.85c0.01,0.01,0.02,0.02,0.03,0.02C47.67,37.87,47.66,37.86,47.65,37.85z"/>
<path class="st7" d="M47.34,37.62c0.01,0,0.01,0.01,0.02,0.01c-0.02-0.02-0.05-0.03-0.07-0.05c0,0,0.01,0.01,0.01,0.01
	C47.31,37.61,47.33,37.61,47.34,37.62z"/>
<path class="st7" d="M46.98,37.38c0.01,0.01,0.02,0.01,0.03,0.02c0.01,0.01,0.02,0.01,0.03,0.02
	C47.02,37.41,46.99,37.39,46.98,37.38C46.97,37.38,46.97,37.38,46.98,37.38z"/>
<path class="st7" d="M48.6,38.71c-0.01-0.01-0.03-0.03-0.04-0.04C48.57,38.68,48.58,38.69,48.6,38.71
	C48.6,38.71,48.6,38.71,48.6,38.71z"/>
<path class="st7" d="M48.84,38.97C48.84,38.97,48.84,38.98,48.84,38.97C48.84,38.98,48.84,38.97,48.84,38.97z"/>
<path class="st7" d="M48,38.14c0,0,0.01,0.01,0.01,0.01c-0.03-0.02-0.05-0.04-0.08-0.07c0,0,0,0,0,0
	C47.96,38.1,47.98,38.12,48,38.14z"/>
<path class="st7" d="M48.29,38.4c-0.01-0.01-0.01-0.01-0.02-0.02C48.27,38.38,48.28,38.39,48.29,38.4
	C48.28,38.4,48.29,38.4,48.29,38.4z"/>
<path class="st7" d="M46.3,37c0.01,0,0.02,0.01,0.02,0.01c-0.02-0.01-0.05-0.02-0.07-0.04c0.01,0,0.01,0.01,0.02,0.01
	C46.28,36.99,46.29,36.99,46.3,37z"/>
<path class="st7" d="M44.19,36.29c-0.01,0-0.01,0-0.02,0c-0.06-0.01-0.11-0.02-0.17-0.03c0,0,0,0-0.01,0
	C44.06,36.26,44.12,36.27,44.19,36.29z"/>
<path class="st7" d="M43.28,36.17C43.28,36.17,43.28,36.17,43.28,36.17c-0.06,0-0.1-0.01-0.15-0.01c0,0,0,0,0,0
	C43.18,36.16,43.23,36.16,43.28,36.17z"/>
<path class="st7" d="M44.62,36.38c-0.01,0-0.01,0-0.02-0.01c-0.06-0.01-0.12-0.03-0.18-0.04c0,0-0.01,0-0.01,0
	C44.48,36.35,44.55,36.36,44.62,36.38z"/>
<path class="st7" d="M48.2,38.32c-0.06-0.06-0.13-0.11-0.19-0.17c0,0-0.01-0.01-0.01-0.01C48.07,38.2,48.14,38.26,48.2,38.32z"/>
<path class="st7" d="M45.03,36.5c-0.01,0-0.01,0-0.02-0.01c-0.06-0.02-0.12-0.04-0.18-0.05c0,0-0.01,0-0.01,0
	C44.89,36.45,44.96,36.47,45.03,36.5z"/>
<path class="st7" d="M43.75,36.22c0,0-0.01,0-0.01,0c-0.06-0.01-0.11-0.02-0.17-0.02c0,0,0,0,0,0
	C43.63,36.2,43.69,36.21,43.75,36.22z"/>
<path class="st7" d="M48.42,38.53c-0.04-0.04-0.09-0.09-0.13-0.13c0,0,0,0-0.01-0.01C48.33,38.44,48.38,38.49,48.42,38.53z"/>
<path class="st7" d="M48.64,38.75c-0.01-0.01-0.02-0.03-0.04-0.04c0,0,0,0,0-0.01C48.61,38.72,48.62,38.74,48.64,38.75z"/>
<path class="st7" d="M46.98,37.38C46.97,37.38,46.97,37.38,46.98,37.38c-0.22-0.14-0.44-0.26-0.66-0.37c-0.01,0-0.02-0.01-0.02-0.01
	C46.53,37.11,46.76,37.24,46.98,37.38z"/>
<path class="st7" d="M45.84,36.79c-0.01,0-0.01-0.01-0.02-0.01c-0.06-0.03-0.12-0.05-0.19-0.08c-0.01,0-0.01-0.01-0.02-0.01
	C45.69,36.73,45.76,36.76,45.84,36.79z"/>
<path class="st7" d="M45.99,36.86c0.09,0.04,0.18,0.08,0.27,0.13c-0.01,0-0.01-0.01-0.02-0.01c-0.08-0.04-0.15-0.07-0.23-0.11
	C46.01,36.86,46,36.86,45.99,36.86z"/>
<path class="st7" d="M45.44,36.63c-0.01,0-0.01,0-0.02-0.01c-0.06-0.02-0.12-0.04-0.18-0.06c-0.01,0-0.01,0-0.02-0.01
	C45.3,36.58,45.37,36.61,45.44,36.63z"/>
<path class="st7" d="M47.3,37.6c0,0-0.01-0.01-0.01-0.01c-0.08-0.06-0.16-0.11-0.25-0.16c-0.01-0.01-0.02-0.01-0.03-0.02
	C47.11,37.46,47.21,37.53,47.3,37.6z"/>
<polygon class="st7" points="40.75,35.78 38.91,37.25 38.91,37.25 40.75,35.78 40.77,35.71 40.77,35.71 "/>
<path class="st7" d="M47.94,38.09C47.94,38.09,47.94,38.08,47.94,38.09c-0.08-0.07-0.17-0.14-0.25-0.21
	c-0.01-0.01-0.02-0.02-0.03-0.02c-0.1-0.08-0.2-0.15-0.3-0.22c-0.01,0-0.01-0.01-0.02-0.01C47.55,37.77,47.75,37.92,47.94,38.09z"/>
<path class="st7" d="M49.97,40.62c0.02,0.03,0.03,0.06,0.05,0.09C50,40.68,49.99,40.65,49.97,40.62z"/>
<path class="st7" d="M49.33,39.58c0.02,0.03,0.04,0.05,0.05,0.08C49.36,39.63,49.35,39.61,49.33,39.58z"/>
<path class="st7" d="M49.54,39.9c0.02,0.03,0.04,0.06,0.06,0.08C49.58,39.95,49.56,39.92,49.54,39.9z"/>
<path class="st7" d="M47.3,37.6c0.01,0.01,0.02,0.02,0.04,0.02C47.33,37.61,47.31,37.61,47.3,37.6z"/>
<path class="st7" d="M46.98,37.38c0.01,0.01,0.02,0.01,0.03,0.02C47,37.4,46.99,37.39,46.98,37.38z"/>
<path class="st7" d="M50.15,40.97c0.01,0.03,0.03,0.06,0.04,0.08C50.18,41.03,50.16,41,50.15,40.97z"/>
<path class="st7" d="M47.94,38.09c0.02,0.02,0.04,0.03,0.06,0.05C47.98,38.12,47.96,38.1,47.94,38.09z"/>
<path class="st7" d="M49.07,39.25c0.01,0.01,0.02,0.03,0.03,0.04C49.1,39.28,49.08,39.27,49.07,39.25z"/>
<path class="st7" d="M48.28,38.39c0,0-0.01-0.01-0.01-0.01c-0.01-0.01-0.02-0.02-0.04-0.03C48.25,38.36,48.27,38.38,48.28,38.39z"/>
<path class="st7" d="M50.89,43.42c0,0.01,0,0.03,0.01,0.04C50.9,43.45,50.9,43.43,50.89,43.42z"/>
<path class="st7" d="M50.82,42.98c0.01,0.03,0.01,0.07,0.02,0.1C50.83,43.04,50.82,43.01,50.82,42.98z"/>
<path class="st7" d="M50.95,43.86c0,0.03,0.01,0.06,0.01,0.09C50.95,43.92,50.95,43.89,50.95,43.86z"/>
<path class="st7" d="M50.73,42.59c0.01,0.02,0.01,0.05,0.02,0.07C50.74,42.64,50.74,42.62,50.73,42.59z"/>
<path class="st7" d="M50.98,44.26c0,0.03,0,0.07,0.01,0.1C50.98,44.33,50.98,44.3,50.98,44.26z"/>
<path class="st7" d="M50.34,41.4c0.01,0.01,0.01,0.03,0.02,0.04C50.35,41.43,50.35,41.42,50.34,41.4z"/>
<path class="st7" d="M48.87,39.01c-0.01-0.01-0.02-0.02-0.02-0.03c0,0,0-0.01-0.01-0.01c-0.01-0.01-0.03-0.03-0.04-0.04
	C48.82,38.96,48.85,38.98,48.87,39.01z"/>
<path class="st7" d="M50.47,41.76c0.01,0.03,0.02,0.07,0.03,0.1C50.5,41.82,50.49,41.79,50.47,41.76z"/>
<path class="st7" d="M46.27,36.98c0.01,0,0.02,0.01,0.03,0.01C46.29,36.99,46.28,36.99,46.27,36.98z"/>
<path class="st7" d="M48.6,38.71c-0.01-0.01-0.02-0.03-0.04-0.04c0,0-0.01-0.01-0.01-0.01C48.56,38.67,48.58,38.69,48.6,38.71z"/>
<path class="st7" d="M50.61,42.15c0.01,0.02,0.02,0.05,0.02,0.07C50.62,42.2,50.61,42.18,50.61,42.15z"/>
<path class="st7" d="M44.41,36.33c0,0,0.01,0,0.01,0c-0.08-0.02-0.17-0.03-0.25-0.05c0.01,0,0.01,0,0.02,0
	C44.26,36.3,44.34,36.31,44.41,36.33z"/>
<path class="st7" d="M43.13,36.16c-0.01,0-0.01,0-0.02,0C43.12,36.16,43.12,36.16,43.13,36.16C43.13,36.16,43.13,36.16,43.13,36.16z
	"/>
<path class="st7" d="M44.82,36.43c0,0,0.01,0,0.01,0c-0.08-0.02-0.16-0.04-0.24-0.06c0.01,0,0.01,0,0.02,0.01
	C44.69,36.4,44.75,36.41,44.82,36.43z"/>
<path class="st7" d="M43.56,36.19C43.56,36.19,43.57,36.19,43.56,36.19c-0.09-0.01-0.19-0.02-0.29-0.02c0,0,0.01,0,0.01,0
	C43.38,36.18,43.47,36.18,43.56,36.19z"/>
<path class="st7" d="M43.99,36.25C43.99,36.25,44,36.25,43.99,36.25c-0.08-0.01-0.17-0.02-0.26-0.04c0,0,0.01,0,0.01,0
	C43.83,36.23,43.91,36.24,43.99,36.25z"/>
<path class="st7" d="M45.99,36.86c0.01,0,0.02,0.01,0.03,0.01c-0.07-0.03-0.13-0.06-0.2-0.09c0.01,0,0.01,0.01,0.02,0.01
	C45.89,36.81,45.94,36.83,45.99,36.86z"/>
<path class="st7" d="M45.61,36.7c0.01,0,0.01,0.01,0.02,0.01c-0.07-0.03-0.14-0.05-0.21-0.08c0.01,0,0.01,0,0.02,0.01
	C45.5,36.65,45.56,36.67,45.61,36.7z"/>
<path class="st7" d="M45.22,36.55c0.01,0,0.01,0,0.02,0.01c-0.08-0.03-0.15-0.05-0.23-0.07c0.01,0,0.01,0,0.02,0.01
	C45.1,36.51,45.16,36.53,45.22,36.55z"/>
<path class="st7" d="M45.99,36.86c-0.05-0.02-0.1-0.05-0.15-0.07C45.89,36.81,45.94,36.83,45.99,36.86z"/>
<path class="st7" d="M44.41,36.33c-0.07-0.02-0.15-0.03-0.22-0.04C44.26,36.3,44.34,36.31,44.41,36.33z"/>
<path class="st7" d="M43.56,36.19c-0.09-0.01-0.19-0.02-0.28-0.02C43.38,36.18,43.47,36.18,43.56,36.19z"/>
<path class="st7" d="M45.22,36.55c-0.06-0.02-0.13-0.04-0.19-0.06C45.1,36.51,45.16,36.53,45.22,36.55z"/>
<path class="st7" d="M44.82,36.43c-0.07-0.02-0.14-0.04-0.2-0.05C44.69,36.4,44.75,36.41,44.82,36.43z"/>
<path class="st7" d="M45.61,36.7c-0.06-0.02-0.11-0.04-0.17-0.06C45.5,36.65,45.56,36.67,45.61,36.7z"/>
<path class="st7" d="M43.99,36.25c-0.08-0.01-0.16-0.02-0.24-0.03C43.83,36.23,43.91,36.24,43.99,36.25z"/>
<path class="st7" d="M41.62,36.01c-0.04-0.01-0.09-0.02-0.13-0.03C41.54,35.99,41.58,36,41.62,36.01z"/>
<path class="st7" d="M41.86,36.07c-0.05-0.01-0.09-0.02-0.14-0.03C41.77,36.05,41.81,36.06,41.86,36.07z"/>
<path class="st7" d="M42.1,36.1c-0.05-0.01-0.1-0.01-0.14-0.02C42.01,36.09,42.06,36.1,42.1,36.1z"/>
<path class="st7" d="M41.39,35.95c-0.04-0.01-0.08-0.03-0.13-0.04C41.31,35.93,41.35,35.94,41.39,35.95z"/>
<path class="st7" d="M40.95,35.79c-0.04-0.02-0.08-0.03-0.12-0.05C40.87,35.76,40.91,35.77,40.95,35.79z"/>
<path class="st7" d="M41.17,35.88c-0.04-0.01-0.08-0.03-0.12-0.05C41.09,35.85,41.13,35.86,41.17,35.88z"/>
<path class="st7" d="M43.13,36.16c0,0-0.01,0-0.01,0c-0.14-0.01-0.28-0.01-0.42-0.01C42.84,36.14,42.98,36.15,43.13,36.16z"/>
<path class="st7" d="M42.36,36.13c-0.05,0-0.11-0.01-0.16-0.01C42.25,36.12,42.31,36.13,42.36,36.13z"/>
<path class="st7" d="M42.69,36.14c-0.08,0-0.16,0-0.24-0.01C42.52,36.14,42.6,36.14,42.69,36.14z"/>
<g class="st8">
	<image style="overflow:visible;" width="296" height="255" xlink:href="12A92604.png"  transform="matrix(0.48 0 0 0.48 -36 -36)">
	</image>
</g>
<path class="st9" d="M52.21,41.09c-0.15-0.75,0.2-1.51,0.86-1.85c5.83-3.06,9.68-8.36,9.68-14.38c0-7.5-5.97-13.87-14.29-16.2
	C37.82,9.17,29.38,16.3,29.38,25.02c0,9.05,9.09,16.39,20.31,16.39c0.03,0,0.06,0,0.08,0c0.55,0,1.07,0.3,1.34,0.8
	c0.24,0.44,0.48,0.8,0.78,1.18l0.73-0.71C52.44,42.04,52.29,41.46,52.21,41.09z"/>
<path class="st9" d="M60.74,38.77C66.32,35.85,70,30.78,70,25.02c0-9.05-9.09-16.39-20.31-16.39c-1.52,0-3.01,0.14-4.44,0.39
	c9.08,1.63,15.88,8.17,15.88,16c0,5.76-3.68,10.83-9.26,13.75c-0.63,0.33-0.97,1.06-0.82,1.77c0.2,0.99,0.5,1.95,0.84,2.84
	c2.93,3.77,8.32,4.8,10.56,5.07c0.4,0.05,0.68-0.41,0.46-0.76c-0.83-1.34-2.37-4.12-2.99-7.15C59.78,39.83,60.11,39.1,60.74,38.77
	L60.74,38.77z"/>
<path class="st10" d="M22.25,0.3C9.61,1.99,0,10.85,0,21.53c0,5.07,2.17,9.73,5.81,13.41c0.43,0.43,0.59,1.08,0.43,1.67
	c-1.13,4.3-3.57,8.18-5.05,10.26c0.49,0.51,1.22,0.68,1.87,0.44c3.69-1.37,5.37-2.84,8.11-5.87c0.7-0.78,1.8-1,2.74-0.55
	c0.62,0.3,1.26,0.57,1.92,0.83c0.8,0.31,1.66,0.46,2.51,0.37c0.18-0.02,0.37-0.01,0.56,0.04c1.12,0.27,2.19,0.48,3.37,0.63
	l5.08-0.17c10.7-3.07,18.36-11.31,18.36-21c0-9.99-8.15-18.44-19.37-21.28L22.25,0.3z"/>
<g>
	<path class="st10" d="M10.39,40.63c-3,3.31-4.72,4.76-9.19,6.25C1,47.15,0.82,47.39,0.67,47.6c-0.26,0.35-0.01,0.87,0.42,0.86
		c2.95-0.08,11.24-0.76,16.25-5.88c0.41-0.42,0.99-0.58,1.55-0.44c0,0,0,0,0-0.01c-2.04-0.5-3.97-1.19-5.77-2.05
		C12.19,39.63,11.09,39.85,10.39,40.63z"/>
	<path class="st10" d="M26.68,0c-1.51,0-2.99,0.1-4.44,0.3C34.88,2,44.5,10.86,44.5,21.53c0,10.67-9.62,19.53-22.24,21.23
		c1.44,0.19,2.92,0.3,4.43,0.3c14.74,0,26.68-9.64,26.68-21.53S41.42,0,26.68,0L26.68,0z"/>
</g>
<g>
	<ellipse class="st11" cx="10.25" cy="21.41" rx="2.6" ry="2.7"/>
	<ellipse class="st11" cx="20.69" cy="21.41" rx="2.6" ry="2.7"/>
	<ellipse class="st11" cx="31.14" cy="21.41" rx="2.6" ry="2.7"/>
	<ellipse class="st11" cx="41.58" cy="21.41" rx="2.6" ry="2.7"/>
</g>
</svg>
