<?xml version="1.0" encoding="utf-8"?>
<!-- Generator: Adobe Illustrator 23.0.2, SVG Export Plug-In . SVG Version: 6.00 Build 0)  -->
<svg version="1.1" id="Capa_1" xmlns="http://www.w3.org/2000/svg" xmlns:xlink="http://www.w3.org/1999/xlink" x="0px" y="0px"
	 viewBox="0 0 70 50" style="enable-background:new 0 0 70 50;" xml:space="preserve">
<style type="text/css">
	.st0{fill:#FFDFBA;}
	.st1{fill:#F4B545;}
	.st2{fill:#FFEBD2;}
	.st3{fill:#42434D;}
	.st4{fill:#FFD6A6;}
	.st5{fill:#4D4E59;}
	.st6{fill:#FFF3E4;}
	.st7{fill:#CC8F23;}
	.st8{opacity:0.25;}
	.st9{fill:#FFAF1E;}
	.st10{fill:#FFFFFF;}
	.st11{fill:#102EBA;}
</style>
<path class="st0" d="M19.36,41.11c-0.07,0.07-0.13,0.15-0.2,0.23c0.01-0.01,0.02-0.03,0.03-0.04
	C19.26,41.23,19.31,41.17,19.36,41.11z"/>
<path class="st0" d="M16.69,28.66c0-0.11,0.01-0.22,0.02-0.33C16.7,28.44,16.69,28.55,16.69,28.66z"/>
<path class="st0" d="M51.98,26.32c0.01,0.08,0.02,0.16,0.03,0.24C52,26.48,51.99,26.4,51.98,26.32z"/>
<path class="st0" d="M50.17,34.57c-0.05,0.07-0.1,0.15-0.15,0.22C50.08,34.72,50.12,34.65,50.17,34.57z"/>
<path class="st0" d="M26.97,37.14c0.01,0,0.03-0.01,0.04-0.01c0.02-0.01,0.03-0.01,0.05-0.02C27.03,37.12,27,37.13,26.97,37.14z"/>
<path class="st0" d="M30.08,33.63c0.01-0.03,0.01-0.07,0.02-0.1C30.09,33.56,30.09,33.59,30.08,33.63z"/>
<path class="st0" d="M50.47,34.09c-0.06,0.1-0.12,0.19-0.18,0.29C50.36,34.28,50.42,34.19,50.47,34.09z"/>
<path class="st0" d="M19.13,41.38c-0.07,0.09-0.15,0.18-0.22,0.28c0.06-0.08,0.12-0.15,0.18-0.23C19.1,41.41,19.12,41.4,19.13,41.38
	z"/>
<path class="st0" d="M51.9,25.86c0.01,0.06,0.02,0.13,0.04,0.19C51.92,25.99,51.91,25.92,51.9,25.86z"/>
<path class="st0" d="M30.29,32c-0.97-0.39-1.87-0.92-2.69-1.56c-0.03-0.02-0.06-0.04-0.08-0.06c-0.04-0.03-0.09-0.07-0.13-0.1
	c-0.13-0.11-0.26-0.22-0.39-0.34c0.93,0.84,2.01,1.53,3.19,2.02l0,0C30.22,31.97,30.26,31.98,30.29,32z"/>
<path class="st0" d="M30.16,32v0.76c0,0.01,0,0.01,0,0.02C30.17,32.55,30.16,32.3,30.16,32z"/>
<path class="st0" d="M16.92,26.72c0,0.02-0.01,0.04-0.01,0.06C16.91,26.76,16.92,26.74,16.92,26.72
	C16.92,26.72,16.92,26.72,16.92,26.72z"/>
<path class="st0" d="M19.77,37.03c-0.04-0.04-0.08-0.09-0.12-0.13C19.69,36.94,19.73,36.99,19.77,37.03z"/>
<path class="st0" d="M16.99,26.4c0.01-0.03,0.02-0.06,0.02-0.09C17.01,26.34,17,26.37,16.99,26.4z"/>
<path class="st0" d="M20.22,39.3c-0.07,0.06-0.14,0.12-0.21,0.19c0.03-0.03,0.06-0.05,0.09-0.08C20.14,39.36,20.18,39.33,20.22,39.3
	z"/>
<path class="st0" d="M51.82,25.47c0.01,0.03,0.01,0.06,0.02,0.09C51.83,25.53,51.82,25.5,51.82,25.47z"/>
<path class="st0" d="M26.75,37.2c0.03-0.01,0.06-0.02,0.09-0.02C26.81,37.19,26.78,37.2,26.75,37.2z"/>
<path class="st0" d="M51.61,24.68C51.61,24.68,51.61,24.68,51.61,24.68c0,0.01,0,0.02,0.01,0.03C51.61,24.7,51.61,24.69,51.61,24.68
	z"/>
<path class="st0" d="M16.79,27.53c0.01-0.07,0.02-0.14,0.03-0.21C16.81,27.38,16.8,27.46,16.79,27.53z"/>
<path class="st0" d="M27.2,37.06c0.03-0.01,0.06-0.02,0.08-0.03C27.25,37.04,27.23,37.05,27.2,37.06z"/>
<path class="st0" d="M44.13,37.41c0.06,0.01,0.11,0.01,0.17,0.02C44.24,37.42,44.18,37.41,44.13,37.41z"/>
<path class="st0" d="M43.69,37.37c0.05,0,0.1,0.01,0.14,0.01C43.79,37.38,43.74,37.38,43.69,37.37z"/>
<path class="st0" d="M18.48,35.33c-0.06-0.1-0.12-0.2-0.18-0.3C18.36,35.14,18.42,35.24,18.48,35.33z"/>
<path class="st0" d="M44.56,37.46c0.06,0.01,0.12,0.02,0.17,0.03C44.67,37.49,44.62,37.47,44.56,37.46z"/>
<path class="st0" d="M18.17,34.81c-0.04-0.07-0.07-0.13-0.11-0.2C18.1,34.67,18.13,34.74,18.17,34.81z"/>
<path class="st0" d="M19.48,36.71c-0.23-0.27-0.45-0.55-0.65-0.83C19.05,36.18,19.27,36.45,19.48,36.71z"/>
<path class="st0" d="M42.67,37.32c0.03,0,0.06,0.01,0.09,0.01C42.73,37.33,42.7,37.33,42.67,37.32z"/>
<path class="st0" d="M44.98,37.54c0.06,0.01,0.12,0.03,0.18,0.04C45.1,37.57,45.04,37.56,44.98,37.54z"/>
<path class="st0" d="M42.92,37.35c0.03,0,0.05,0,0.08,0.01C42.98,37.35,42.95,37.35,42.92,37.35z"/>
<path class="st0" d="M18.82,35.85c-0.09-0.13-0.18-0.26-0.26-0.39C18.64,35.59,18.73,35.72,18.82,35.85z"/>
<path class="st0" d="M50.78,33.55c-0.05,0.1-0.11,0.2-0.16,0.29C50.67,33.75,50.72,33.65,50.78,33.55z"/>
<path class="st0" d="M45.4,37.64c0.06,0.02,0.12,0.03,0.18,0.05C45.52,37.68,45.46,37.66,45.4,37.64z"/>
<path class="st0" d="M30.14,33.2c0-0.02,0-0.04,0-0.06C30.15,33.15,30.15,33.17,30.14,33.2z"/>
<path class="st0" d="M26.85,29.8c-0.02-0.02-0.03-0.03-0.05-0.05C26.82,29.77,26.83,29.79,26.85,29.8z"/>
<path class="st0" d="M17.19,25.65c0,0.01,0,0.01-0.01,0.02C17.19,25.66,17.19,25.66,17.19,25.65L17.19,25.65z"/>
<path class="st0" d="M30.12,33.43c0.01-0.04,0.01-0.09,0.02-0.13C30.13,33.34,30.12,33.38,30.12,33.43z"/>
<path class="st0" d="M45.8,37.76c0.06,0.02,0.12,0.04,0.18,0.06C45.92,37.8,45.86,37.78,45.8,37.76z"/>
<path class="st0" d="M46.81,38.16c-0.04-0.02-0.08-0.04-0.13-0.06c-0.03-0.02-0.07-0.03-0.1-0.04
	C46.66,38.09,46.73,38.13,46.81,38.16z"/>
<path class="st0" d="M18.64,42.05c-0.07,0.1-0.13,0.2-0.19,0.3C18.51,42.25,18.57,42.15,18.64,42.05
	C18.63,42.05,18.63,42.05,18.64,42.05z"/>
<path class="st0" d="M46.2,37.9c0.06,0.02,0.12,0.05,0.19,0.07C46.32,37.95,46.26,37.92,46.2,37.9z"/>
<path class="st0" d="M26.52,37.26c0.01,0,0.02,0,0.03-0.01c0.02,0,0.04-0.01,0.06-0.02C26.57,37.25,26.55,37.25,26.52,37.26z"/>
<path class="st0" d="M23.23,37.69c0.06-0.02,0.11-0.03,0.17-0.05C23.34,37.66,23.28,37.68,23.23,37.69z"/>
<path class="st0" d="M16.71,28.24c0,0.01,0,0.03,0,0.04c0-0.01,0-0.02,0-0.03C16.71,28.25,16.71,28.25,16.71,28.24z"/>
<path class="st0" d="M17.5,33.38c0.01,0.03,0.02,0.05,0.03,0.08c0,0,0,0,0,0C17.52,33.43,17.51,33.41,17.5,33.38z"/>
<path class="st0" d="M22.82,37.82c0.06-0.02,0.11-0.04,0.17-0.06C22.93,37.78,22.88,37.8,22.82,37.82z"/>
<path class="st0" d="M46.88,38.2c0.22,0.11,0.44,0.23,0.65,0.35C47.32,38.42,47.1,38.3,46.88,38.2z"/>
<path class="st0" d="M17.36,33.02c0.01,0.04,0.03,0.07,0.04,0.11C17.39,33.1,17.38,33.06,17.36,33.02
	C17.36,33.02,17.36,33.02,17.36,33.02z"/>
<path class="st0" d="M17.85,34.2c0.01,0.03,0.03,0.06,0.04,0.09c-0.01-0.02-0.02-0.04-0.03-0.07C17.86,34.22,17.86,34.21,17.85,34.2
	z"/>
<path class="st0" d="M30.77,32.18c-0.05-0.02-0.09-0.03-0.14-0.05C30.68,32.14,30.72,32.16,30.77,32.18z"/>
<path class="st0" d="M38.63,32.78c0-0.01,0-0.01,0-0.02v-0.76C38.63,32.3,38.63,32.55,38.63,32.78z"/>
<path class="st0" d="M38.14,32.14c-0.02,0.01-0.04,0.01-0.06,0.02C38.1,32.15,38.12,32.14,38.14,32.14z"/>
<path class="st0" d="M17.31,32.87c0.01,0.02,0.02,0.05,0.02,0.07c0,0,0,0,0,0C17.32,32.91,17.32,32.89,17.31,32.87z"/>
<path class="st0" d="M16.92,31.43c-0.07-0.35-0.12-0.69-0.16-1.04c0-0.01,0-0.02,0-0.03c-0.04-0.34-0.06-0.69-0.07-1.03
	c0-0.01,0-0.01,0-0.02c0.02,1.04,0.18,2.08,0.48,3.1C17.07,32.09,16.99,31.76,16.92,31.43C16.92,31.43,16.92,31.43,16.92,31.43z"/>
<path class="st0" d="M16.69,28.83c0-0.01,0-0.01,0-0.02c0,0.16,0,0.32,0,0.48c0-0.01,0-0.02,0-0.03
	C16.68,29.11,16.68,28.97,16.69,28.83z"/>
<path class="st0" d="M45.29,15.94c-0.06-0.09-0.14-0.17-0.23-0.24C45.15,15.77,45.23,15.85,45.29,15.94z"/>
<path class="st0" d="M26.12,37.32c-0.03,0-0.05,0.01-0.08,0.01C26.07,37.33,26.09,37.33,26.12,37.32z"/>
<path class="st0" d="M22.42,37.97c0.06-0.02,0.12-0.05,0.18-0.07C22.54,37.93,22.48,37.95,22.42,37.97z"/>
<path class="st0" d="M16.69,28.67c0,0.02,0,0.04,0,0.06c0,0,0,0,0,0C16.69,28.71,16.69,28.69,16.69,28.67z"/>
<path class="st0" d="M25.85,37.35c-0.02,0-0.04,0-0.06,0C25.82,37.35,25.83,37.35,25.85,37.35z"/>
<path class="st0" d="M26.37,37.29c-0.03,0.01-0.06,0.01-0.09,0.02C26.31,37.3,26.34,37.29,26.37,37.29z"/>
<path class="st0" d="M24.99,37.38c0.04,0,0.08-0.01,0.12-0.01C25.06,37.38,25.03,37.38,24.99,37.38z"/>
<path class="st0" d="M17.18,32.47c-0.01-0.02-0.01-0.04-0.02-0.06c0.04,0.12,0.07,0.24,0.11,0.36
	C17.24,32.67,17.21,32.57,17.18,32.47C17.18,32.47,17.18,32.47,17.18,32.47z"/>
<path class="st0" d="M20.88,38.8c-0.1,0.07-0.2,0.14-0.29,0.21c0.09-0.07,0.18-0.13,0.27-0.19C20.86,38.81,20.87,38.8,20.88,38.8z"
	/>
<path class="st0" d="M49.22,35.83c-0.09,0.1-0.18,0.2-0.27,0.3C49.04,36.03,49.13,35.93,49.22,35.83z"/>
<path class="st0" d="M24.52,37.43c0.05-0.01,0.1-0.01,0.15-0.02C24.62,37.41,24.57,37.42,24.52,37.43z"/>
<path class="st0" d="M50.77,22.63c0.24,0.47,0.46,0.94,0.63,1.43C51.2,23.49,50.99,23.03,50.77,22.63z"/>
<path class="st0" d="M21.19,38.59c-0.08,0.05-0.16,0.1-0.24,0.15c0.03-0.02,0.07-0.04,0.1-0.06C21.1,38.66,21.14,38.62,21.19,38.59z
	"/>
<path class="st0" d="M16.87,26.98c0,0.02-0.01,0.03-0.01,0.05c0,0,0-0.01,0-0.01C16.87,27,16.87,26.99,16.87,26.98z"/>
<path class="st0" d="M49.89,34.99c-0.05,0.07-0.11,0.14-0.16,0.22C49.78,35.13,49.84,35.06,49.89,34.99z"/>
<path class="st0" d="M51.41,24.08c0.05,0.13,0.09,0.27,0.14,0.4C51.5,24.34,51.46,24.21,51.41,24.08z"/>
<path class="st0" d="M49.59,35.38c-0.07,0.09-0.14,0.18-0.22,0.26C49.45,35.56,49.52,35.47,49.59,35.38z"/>
<path class="st0" d="M22.12,38.1L22.12,38.1c-0.04,0.02-0.08,0.04-0.12,0.06c0.07-0.03,0.15-0.07,0.22-0.1
	C22.18,38.07,22.15,38.09,22.12,38.1z"/>
<path class="st0" d="M24.08,37.49c0.01,0,0.01,0,0.02,0c0.05-0.01,0.09-0.02,0.14-0.02C24.18,37.47,24.13,37.48,24.08,37.49z"/>
<path class="st0" d="M16.76,27.78c0,0.04-0.01,0.08-0.01,0.13c0-0.04,0.01-0.08,0.01-0.12C16.76,27.79,16.76,27.78,16.76,27.78z"/>
<path class="st0" d="M48.82,36.27c-0.08,0.08-0.15,0.16-0.23,0.23C48.67,36.42,48.74,36.35,48.82,36.27z"/>
<path class="st0" d="M23.65,37.58c0.02,0,0.03-0.01,0.05-0.01c0.04-0.01,0.08-0.02,0.11-0.03C23.76,37.56,23.7,37.57,23.65,37.58z"
	/>
<path class="st0" d="M48.71,18.53c0,0,0-0.01,0-0.01c0,0.01,0.01,0.02,0.01,0.03C48.71,18.54,48.71,18.53,48.71,18.53z"/>
<path class="st0" d="M48.45,36.64c-0.08,0.08-0.17,0.16-0.25,0.23C48.28,36.79,48.36,36.71,48.45,36.64z"/>
<path class="st0" d="M48.07,36.98c-0.13,0.11-0.26,0.22-0.4,0.33C47.8,37.21,47.94,37.1,48.07,36.98z"/>
<path class="st0" d="M51.6,31.52c-0.1,0.32-0.21,0.63-0.33,0.94C51.4,32.16,51.51,31.84,51.6,31.52z"/>
<path class="st0" d="M23.38,22.17c0,0.01,0,0.02,0,0.03c0-0.01,0-0.01,0-0.02C23.38,22.18,23.38,22.17,23.38,22.17z"/>
<path class="st0" d="M16.73,27.99c-0.01,0.06-0.01,0.12-0.02,0.18c0-0.01,0-0.02,0-0.03C16.73,28.09,16.73,28.04,16.73,27.99z"/>
<path class="st0" d="M32.97,14.77c0.06-0.02,0.12-0.03,0.18-0.05C33.09,14.74,33.03,14.76,32.97,14.77z"/>
<path class="st0" d="M33.93,14.47c0.05-0.02,0.1-0.03,0.15-0.05C34.03,14.44,33.98,14.45,33.93,14.47z"/>
<path class="st0" d="M51.21,32.62c-0.04,0.1-0.08,0.2-0.13,0.3C51.12,32.82,51.17,32.72,51.21,32.62z"/>
<path class="st0" d="M34.91,14.11c0.03-0.01,0.06-0.02,0.09-0.03C34.97,14.09,34.94,14.1,34.91,14.11z"/>
<path class="st0" d="M31.99,15.04c0.07-0.02,0.14-0.03,0.21-0.05C32.13,15.01,32.06,15.02,31.99,15.04z"/>
<path class="st0" d="M51.08,42.89c0.02,0.07,0.05,0.14,0.07,0.21C51.13,43.03,51.1,42.96,51.08,42.89z"/>
<path class="st0" d="M22.1,38.09l-0.97-0.77C21.48,37.61,21.81,37.86,22.1,38.09z"/>
<path class="st0" d="M51.74,31.03c-0.03,0.13-0.07,0.26-0.11,0.39C51.67,31.3,51.71,31.17,51.74,31.03z"/>
<path class="st0" d="M51,33.1c-0.04,0.09-0.09,0.18-0.13,0.27C50.91,33.28,50.96,33.19,51,33.1z"/>
<path class="st0" d="M43.53,15.34c0.02,0.01,0.05,0.02,0.07,0.02C43.58,15.36,43.55,15.35,43.53,15.34z"/>
<path class="st0" d="M43.83,15.42c0.03,0.01,0.06,0.02,0.09,0.02C43.89,15.44,43.86,15.43,43.83,15.42z"/>
<path class="st0" d="M52.04,29.41c-0.04,0.34-0.09,0.68-0.16,1.02C51.95,30.09,52,29.75,52.04,29.41z"/>
<path class="st0" d="M40.79,12.48c0.02,0.05,0.03,0.1,0.05,0.15C40.82,12.59,40.81,12.53,40.79,12.48z"/>
<path class="st0" d="M51.86,30.51c-0.03,0.14-0.06,0.27-0.09,0.41C51.8,30.79,51.83,30.65,51.86,30.51z"/>
<path class="st0" d="M43.25,15.25c0.01,0.01,0.03,0.01,0.04,0.02C43.28,15.26,43.27,15.25,43.25,15.25z"/>
<path class="st0" d="M42.99,15.13C42.99,15.14,43,15.14,42.99,15.13C43,15.14,42.99,15.14,42.99,15.13z"/>
<path class="st0" d="M48.24,39.03c0.09,0.06,0.17,0.13,0.25,0.2C48.41,39.16,48.33,39.1,48.24,39.03z"/>
<path class="st0" d="M49.67,40.4c0.07,0.09,0.14,0.18,0.21,0.26C49.81,40.57,49.74,40.48,49.67,40.4z"/>
<path class="st0" d="M50.17,41.07c0.05,0.07,0.09,0.14,0.13,0.21C50.26,41.21,50.21,41.14,50.17,41.07z"/>
<path class="st0" d="M49.95,40.77c0.04,0.06,0.09,0.12,0.13,0.18C50.04,40.89,50,40.83,49.95,40.77z"/>
<path class="st0" d="M23.4,22.61c0,0,0-0.01,0-0.01C23.4,22.6,23.4,22.61,23.4,22.61z"/>
<path class="st0" d="M48.79,39.48c-0.07-0.06-0.14-0.13-0.22-0.19c0.06,0.05,0.13,0.11,0.19,0.16
	C48.77,39.47,48.78,39.47,48.79,39.48z"/>
<path class="st0" d="M47.92,38.8c0.1,0.07,0.2,0.14,0.3,0.21C48.12,38.94,48.02,38.86,47.92,38.8z"/>
<path class="st0" d="M47.6,38.59c0.08,0.05,0.17,0.1,0.25,0.16C47.77,38.7,47.69,38.64,47.6,38.59z"/>
<path class="st0" d="M52.08,28.91c-0.01,0.15-0.02,0.31-0.04,0.46C52.06,29.22,52.07,29.06,52.08,28.91z"/>
<path class="st0" d="M49.43,40.12c0.06,0.07,0.12,0.13,0.17,0.2C49.55,40.25,49.49,40.19,49.43,40.12z"/>
<path class="st0" d="M49.1,39.78c-0.08-0.08-0.17-0.16-0.26-0.24c0.05,0.04,0.09,0.09,0.13,0.13C49.02,39.7,49.07,39.74,49.1,39.78z
	"/>
<path class="st0" d="M50.6,41.79c0.03,0.06,0.06,0.12,0.09,0.18C50.66,41.91,50.63,41.85,50.6,41.79z"/>
<path class="st0" d="M50.94,42.53c0.03,0.07,0.06,0.14,0.09,0.22C51,42.67,50.97,42.6,50.94,42.53z"/>
<path class="st0" d="M50.76,42.11c0.04,0.09,0.08,0.17,0.12,0.26C50.84,42.29,50.8,42.2,50.76,42.11z"/>
<path class="st0" d="M49.35,40.03c-0.06-0.07-0.13-0.13-0.19-0.2c0.01,0.01,0.02,0.03,0.04,0.04C49.25,39.93,49.3,39.98,49.35,40.03
	z"/>
<path class="st0" d="M31.07,15.24c0.06-0.01,0.11-0.02,0.17-0.03C31.19,15.22,31.13,15.23,31.07,15.24z"/>
<path class="st0" d="M50.39,41.42c0.05,0.08,0.09,0.15,0.13,0.23C50.48,41.57,50.43,41.5,50.39,41.42z"/>
<path class="st0" d="M30.19,15.41c0.03,0,0.05-0.01,0.08-0.01C30.25,15.4,30.22,15.4,30.19,15.41z"/>
<path class="st0" d="M18.09,43c0.04-0.08,0.08-0.16,0.12-0.24C18.17,42.83,18.13,42.91,18.09,43z"/>
<path class="st0" d="M41.95,37.18c0.03,0.01,0.07,0.02,0.1,0.03C42.02,37.2,41.99,37.19,41.95,37.18z"/>
<path class="st0" d="M52.09,27.28c0.01,0.16,0.02,0.33,0.02,0.49C52.1,27.61,52.1,27.44,52.09,27.28z"/>
<path class="st0" d="M17.9,43.41c0.05-0.11,0.1-0.22,0.15-0.33C17.99,43.19,17.94,43.3,17.9,43.41z"/>
<path class="st0" d="M18.26,42.66c0.06-0.1,0.11-0.21,0.18-0.31C18.38,42.45,18.32,42.56,18.26,42.66z"/>
<path class="st0" d="M17.76,43.75c0.04-0.1,0.07-0.19,0.11-0.28C17.84,43.56,17.8,43.66,17.76,43.75z"/>
<path class="st0" d="M17.63,44.13c0.03-0.09,0.06-0.18,0.09-0.27C17.69,43.95,17.66,44.04,17.63,44.13z"/>
<path class="st0" d="M19.44,41.03c0.06-0.07,0.13-0.14,0.19-0.2C19.57,40.89,19.5,40.96,19.44,41.03z"/>
<path class="st0" d="M20.3,39.23c0.08-0.07,0.16-0.13,0.24-0.19C20.46,39.1,20.38,39.16,20.3,39.23z"/>
<path class="st0" d="M42.19,37.24c0.03,0.01,0.07,0.02,0.1,0.02C42.25,37.25,42.22,37.24,42.19,37.24z"/>
<path class="st0" d="M21.27,38.55c0.21-0.13,0.42-0.24,0.64-0.35C21.69,38.3,21.48,38.42,21.27,38.55z"/>
<path class="st0" d="M19.69,39.78c0.08-0.08,0.17-0.16,0.26-0.24C19.86,39.62,19.77,39.7,19.69,39.78z"/>
<path class="st0" d="M18.7,41.96c0.05-0.07,0.1-0.15,0.16-0.22C18.8,41.81,18.75,41.89,18.7,41.96z"/>
<path class="st0" d="M50.14,21.57c-0.23-0.36-0.45-0.72-0.67-1.14C49.67,20.81,49.89,21.19,50.14,21.57
	C50.14,21.56,50.14,21.56,50.14,21.57z"/>
<path class="st0" d="M42.42,37.29c0.03,0.01,0.07,0.01,0.1,0.02C42.49,37.3,42.45,37.29,42.42,37.29z"/>
<path class="st0" d="M52.04,26.8c0.01,0.11,0.02,0.21,0.03,0.32C52.06,27.01,52.05,26.9,52.04,26.8z"/>
<path class="st0" d="M52.11,28.4c0,0.13-0.01,0.26-0.02,0.4C52.1,28.67,52.1,28.54,52.11,28.4z"/>
<path class="st0" d="M51.19,43.23c0.03,0.11,0.06,0.22,0.09,0.33C51.26,43.45,51.23,43.34,51.19,43.23z"/>
<path class="st0" d="M52.11,27.87c0,0.14,0,0.27,0,0.41C52.11,28.14,52.11,28,52.11,27.87z"/>
<path class="st0" d="M41.51,37.02c0.03,0.01,0.06,0.02,0.09,0.04C41.57,37.05,41.54,37.03,41.51,37.02z"/>
<path class="st0" d="M38.7,33.52c0.01,0.03,0.01,0.07,0.02,0.1C38.71,33.59,38.7,33.56,38.7,33.52z"/>
<path class="st0" d="M38.66,33.29c0.01,0.04,0.01,0.09,0.02,0.14C38.68,33.38,38.67,33.34,38.66,33.29z"/>
<path class="st0" d="M38.65,33.13c0,0.02,0,0.04,0.01,0.07C38.65,33.17,38.65,33.15,38.65,33.13z"/>
<path class="st0" d="M44.17,15.49c0.03,0,0.05,0.01,0.08,0.01C44.22,15.5,44.19,15.49,44.17,15.49z"/>
<path class="st0" d="M51.56,45.67c0-0.13,0-0.26-0.01-0.38C51.55,45.41,51.56,45.54,51.56,45.67L51.56,45.67z"/>
<path class="st0" d="M48.29,16.53c-0.04-0.42-0.07-0.87-0.08-1.42v0.09C48.21,15.65,48.24,16.1,48.29,16.53z"/>
<path class="st0" d="M41.73,37.1c0.03,0.01,0.06,0.02,0.1,0.03C41.79,37.13,41.76,37.12,41.73,37.1z"/>
<path class="st0" d="M51.31,43.67c0.02,0.08,0.04,0.16,0.06,0.25C51.35,43.84,51.33,43.76,51.31,43.67z"/>
<path class="st0" d="M51.4,44.05c0.02,0.09,0.03,0.19,0.05,0.28C51.43,44.24,51.42,44.15,51.4,44.05z"/>
<path class="st0" d="M51.46,44.42c0.02,0.12,0.03,0.24,0.05,0.36C51.5,44.66,51.48,44.54,51.46,44.42z"/>
<path class="st0" d="M51.52,44.89c0.01,0.09,0.02,0.19,0.02,0.29C51.54,45.08,51.53,44.98,51.52,44.89z"/>
<path class="st1" d="M21.27,38.55L21.27,38.55c-0.03,0.02-0.05,0.03-0.08,0.05l0,0C21.22,38.58,21.24,38.56,21.27,38.55z"/>
<path class="st1" d="M51.52,44.88C51.52,44.88,51.52,44.89,51.52,44.88c0-0.03-0.01-0.06-0.01-0.1c0,0,0,0.01,0,0.01
	C51.51,44.82,51.52,44.85,51.52,44.88z"/>
<path class="st1" d="M51.55,45.28C51.55,45.28,51.55,45.28,51.55,45.28c0-0.03,0-0.07-0.01-0.11c0,0,0,0.01,0,0.01
	C51.54,45.22,51.55,45.25,51.55,45.28z"/>
<path class="st1" d="M51.4,44.04c0,0,0,0.01,0,0.01c-0.01-0.04-0.02-0.09-0.03-0.13c0,0.01,0,0.01,0,0.02
	C51.38,43.98,51.39,44.01,51.4,44.04z"/>
<path class="st1" d="M19.44,41.03C19.44,41.03,19.44,41.03,19.44,41.03c-0.02,0.03-0.05,0.05-0.07,0.08l0,0
	C19.39,41.08,19.41,41.06,19.44,41.03z"/>
<polygon class="st1" points="18.7,41.96 18.69,41.97 18.7,41.96 "/>
<path class="st1" d="M18.91,41.66L18.91,41.66c-0.02,0.03-0.04,0.05-0.06,0.08l0,0C18.87,41.71,18.89,41.69,18.91,41.66z"/>
<path class="st1" d="M17.61,44.19c0,0.01,0,0.01-0.01,0.02v0C17.61,44.2,17.61,44.19,17.61,44.19z"/>
<path class="st1" d="M51.31,43.65c0,0.01,0,0.02,0.01,0.03c-0.01-0.04-0.02-0.08-0.03-0.12c0,0.01,0,0.01,0,0.02
	C51.3,43.6,51.3,43.62,51.31,43.65z"/>
<path class="st1" d="M18.66,42.01c-0.01,0.01-0.02,0.02-0.02,0.04l0,0C18.64,42.04,18.65,42.02,18.66,42.01z"/>
<path class="st1" d="M51.46,44.41C51.46,44.41,51.46,44.42,51.46,44.41c0-0.02-0.01-0.05-0.01-0.08c0,0.01,0,0.03,0.01,0.04
	C51.46,44.39,51.46,44.4,51.46,44.41z"/>
<path class="st1" d="M49.12,39.79c-0.01-0.01-0.01-0.01-0.02-0.02c0,0,0,0,0,0.01C49.11,39.79,49.12,39.79,49.12,39.79z"/>
<path class="st1" d="M49.43,40.12c-0.01-0.01-0.02-0.02-0.03-0.03C49.41,40.1,49.42,40.11,49.43,40.12
	C49.43,40.12,49.43,40.12,49.43,40.12z"/>
<path class="st1" d="M51.19,43.22c0,0,0,0.01,0,0.01c-0.01-0.04-0.03-0.09-0.04-0.13c0.01,0.02,0.01,0.03,0.02,0.05
	C51.17,43.17,51.18,43.2,51.19,43.22z"/>
<path class="st1" d="M48.83,39.52c-0.01-0.01-0.03-0.02-0.04-0.03c0,0,0,0,0,0C48.81,39.5,48.82,39.51,48.83,39.52z"/>
<path class="st1" d="M50.3,41.28c0.03,0.05,0.06,0.1,0.09,0.15C50.36,41.37,50.33,41.32,50.3,41.28z"/>
<path class="st1" d="M49.94,40.75c0,0.01,0.01,0.01,0.01,0.02c-0.03-0.04-0.05-0.07-0.08-0.11c0,0.01,0.01,0.01,0.01,0.02
	C49.91,40.7,49.92,40.72,49.94,40.75z"/>
<path class="st1" d="M49.67,40.39C49.67,40.39,49.67,40.39,49.67,40.39c-0.02-0.02-0.04-0.05-0.06-0.07
	c0.01,0.01,0.02,0.02,0.03,0.03C49.65,40.37,49.66,40.38,49.67,40.39z"/>
<path class="st1" d="M50.92,42.47c0.01,0.02,0.01,0.04,0.02,0.06c-0.02-0.05-0.04-0.1-0.06-0.15c0.01,0.02,0.02,0.04,0.02,0.05
	C50.91,42.44,50.91,42.46,50.92,42.47z"/>
<path class="st1" d="M51.07,42.86c0,0.01,0.01,0.01,0.01,0.02c-0.02-0.05-0.03-0.1-0.05-0.15c0,0.01,0.01,0.02,0.01,0.03
	C51.05,42.8,51.06,42.83,51.07,42.86z"/>
<path class="st1" d="M50.58,41.76c0,0.01,0.01,0.02,0.01,0.03c-0.02-0.05-0.05-0.09-0.07-0.14c0,0.01,0.01,0.02,0.01,0.02
	C50.55,41.7,50.57,41.73,50.58,41.76z"/>
<path class="st1" d="M50.16,41.06c0,0,0.01,0.01,0.01,0.01c-0.03-0.04-0.06-0.08-0.08-0.12c0.01,0.01,0.01,0.02,0.02,0.03
	C50.12,41,50.14,41.03,50.16,41.06z"/>
<path class="st1" d="M50.75,42.1c0,0.01,0.01,0.01,0.01,0.02c-0.02-0.05-0.05-0.09-0.07-0.14c0.01,0.01,0.01,0.03,0.02,0.04
	C50.72,42.04,50.74,42.07,50.75,42.1z"/>
<path class="st1" d="M49.4,40.08c-0.02-0.02-0.03-0.03-0.05-0.05c0,0,0.01,0.01,0.01,0.01C49.37,40.06,49.39,40.07,49.4,40.08z"/>
<path class="st1" d="M20.58,39.01L20.58,39.01c-0.01,0.01-0.03,0.02-0.04,0.03l0,0C20.56,39.03,20.57,39.02,20.58,39.01z"/>
<path class="st1" d="M19.67,40.78c-0.01,0.01-0.03,0.03-0.04,0.04l0,0C19.64,40.81,19.66,40.8,19.67,40.78z"/>
<path class="st1" d="M20.3,39.23L20.3,39.23c-0.03,0.02-0.05,0.04-0.08,0.07l0,0C20.25,39.27,20.27,39.25,20.3,39.23z"/>
<path class="st1" d="M21.99,38.16L21.99,38.16c-0.03,0.01-0.05,0.02-0.08,0.04l0,0C21.94,38.18,21.97,38.17,21.99,38.16z"/>
<path class="st1" d="M24.1,37.49c0.05-0.01,0.09-0.02,0.14-0.02l0,0C24.19,37.47,24.14,37.48,24.1,37.49z"/>
<path class="st1" d="M41.83,37.14L41.83,37.14c-0.03-0.01-0.07-0.02-0.1-0.03c0,0,0,0,0,0C41.76,37.12,41.79,37.13,41.83,37.14z"/>
<path class="st1" d="M42.29,37.26C42.28,37.26,42.28,37.26,42.29,37.26c-0.03-0.01-0.07-0.02-0.1-0.02l0,0
	C42.22,37.24,42.25,37.25,42.29,37.26z"/>
<path class="st1" d="M41.33,36.95c0.02,0.01,0.04,0.02,0.05,0.02c0,0,0,0,0,0C41.37,36.96,41.35,36.96,41.33,36.95L41.33,36.95z"/>
<path class="st1" d="M23.23,37.69L23.23,37.69c0.06-0.02,0.11-0.03,0.17-0.05l0,0C23.34,37.66,23.28,37.68,23.23,37.69z"/>
<path class="st1" d="M22.82,37.82L22.82,37.82c0.06-0.02,0.11-0.04,0.17-0.06v0C22.93,37.78,22.88,37.8,22.82,37.82z"/>
<path class="st1" d="M42.52,37.3L42.52,37.3c-0.03-0.01-0.07-0.01-0.1-0.02l0,0C42.45,37.29,42.49,37.3,42.52,37.3z"/>
<path class="st1" d="M22.42,37.97L22.42,37.97c0.06-0.02,0.12-0.05,0.18-0.07l0,0C22.54,37.93,22.48,37.95,22.42,37.97z"/>
<path class="st1" d="M23.65,37.58c0.02,0,0.03-0.01,0.05-0.01C23.68,37.57,23.66,37.58,23.65,37.58L23.65,37.58z"/>
<path class="st1" d="M41.61,37.06C41.61,37.06,41.6,37.06,41.61,37.06c-0.03-0.01-0.06-0.02-0.1-0.04l0,0
	C41.54,37.03,41.57,37.05,41.61,37.06z"/>
<path class="st1" d="M42.05,37.2L42.05,37.2c-0.03-0.01-0.07-0.02-0.1-0.03l0,0C41.99,37.19,42.02,37.2,42.05,37.2z"/>
<path class="st1" d="M26.54,37.25c0.02,0,0.04-0.01,0.06-0.02l0,0C26.58,37.24,26.56,37.25,26.54,37.25z"/>
<path class="st1" d="M24.52,37.43L24.52,37.43c0.05-0.01,0.1-0.01,0.15-0.02h0C24.62,37.41,24.57,37.42,24.52,37.43z"/>
<path class="st1" d="M26.97,37.14c0.01,0,0.03-0.01,0.04-0.01C27,37.13,26.99,37.13,26.97,37.14L26.97,37.14z"/>
<path class="st1" d="M27.2,37.06L27.2,37.06c0.03-0.01,0.06-0.02,0.08-0.03l0,0C27.25,37.04,27.23,37.05,27.2,37.06z"/>
<path class="st1" d="M27.01,37.12c0.02-0.01,0.03-0.01,0.05-0.02l0,0C27.05,37.11,27.03,37.12,27.01,37.12z"/>
<path class="st1" d="M26.75,37.2L26.75,37.2c0.03-0.01,0.06-0.02,0.09-0.02l0,0C26.81,37.19,26.78,37.2,26.75,37.2z"/>
<path class="st1" d="M43,37.35L43,37.35c-0.03,0-0.05,0-0.08-0.01c0,0,0,0,0,0C42.95,37.35,42.98,37.35,43,37.35z"/>
<path class="st1" d="M27.42,36.97L27.42,36.97c0.02-0.01,0.03-0.01,0.05-0.02l0.03,0.06l-0.03-0.06
	C27.45,36.95,27.43,36.96,27.42,36.97z"/>
<path class="st1" d="M42.76,37.34L42.76,37.34c-0.03,0-0.06-0.01-0.09-0.01l0,0C42.7,37.33,42.73,37.33,42.76,37.34z"/>
<polygon class="st1" points="43.25,37.36 43.25,37.36 43.25,37.36 43.25,37.36 "/>
<path class="st1" d="M24.99,37.38L24.99,37.38c0.04,0,0.08-0.01,0.12-0.01l0,0C25.06,37.38,25.03,37.38,24.99,37.38z"/>
<path class="st1" d="M51.04,42.77c0-0.01-0.01-0.02-0.01-0.03c-0.03-0.07-0.06-0.14-0.09-0.22c-0.01-0.02-0.01-0.04-0.02-0.06
	C50.96,42.57,51,42.67,51.04,42.77z"/>
<path class="st1" d="M18.85,41.74L18.85,41.74c-0.05,0.07-0.11,0.15-0.16,0.22l0,0C18.75,41.89,18.8,41.81,18.85,41.74z"/>
<polygon class="st1" points="18.64,42.05 18.64,42.05 18.63,42.05 "/>
<path class="st1" d="M19.09,41.43c-0.06,0.08-0.12,0.15-0.18,0.23l0,0C18.97,41.58,19.03,41.51,19.09,41.43z"/>
<path class="st1" d="M19.36,41.11L19.36,41.11c-0.06,0.06-0.11,0.13-0.16,0.19C19.26,41.23,19.31,41.17,19.36,41.11z"/>
<path class="st1" d="M20.55,39.04L20.55,39.04c-0.08,0.06-0.17,0.13-0.25,0.19l0,0C20.38,39.16,20.46,39.1,20.55,39.04z"/>
<path class="st1" d="M21.91,38.2L21.91,38.2c-0.22,0.11-0.44,0.22-0.64,0.35l0,0C21.48,38.42,21.69,38.3,21.91,38.2z"/>
<path class="st1" d="M19.63,40.83L19.63,40.83c-0.07,0.07-0.13,0.13-0.19,0.2c0,0,0,0,0,0C19.5,40.96,19.57,40.89,19.63,40.83z"/>
<path class="st1" d="M22.21,38.06L22.21,38.06c-0.07,0.03-0.15,0.07-0.22,0.1l0,0C22.06,38.13,22.14,38.09,22.21,38.06z"/>
<path class="st1" d="M21.19,38.59L21.19,38.59c-0.05,0.03-0.1,0.06-0.14,0.09C21.1,38.66,21.14,38.62,21.19,38.59z"/>
<path class="st1" d="M20.22,39.3L20.22,39.3c-0.04,0.03-0.08,0.07-0.12,0.1C20.14,39.36,20.18,39.33,20.22,39.3z"/>
<path class="st1" d="M20.85,38.82c-0.09,0.06-0.18,0.12-0.27,0.19l0,0C20.67,38.94,20.76,38.88,20.85,38.82z"/>
<path class="st1" d="M49.36,40.04c0,0-0.01-0.01-0.01-0.01c-0.05-0.05-0.1-0.11-0.15-0.16C49.25,39.93,49.31,39.99,49.36,40.04z"/>
<path class="st1" d="M49.89,40.68c0-0.01-0.01-0.01-0.01-0.02c-0.07-0.09-0.14-0.18-0.21-0.26c0,0,0,0,0,0
	C49.74,40.49,49.82,40.58,49.89,40.68z"/>
<path class="st1" d="M50.1,40.98c-0.01-0.01-0.01-0.02-0.02-0.03c-0.04-0.06-0.09-0.12-0.13-0.18c0-0.01-0.01-0.01-0.01-0.02
	C50,40.82,50.05,40.9,50.1,40.98z"/>
<path class="st1" d="M51.54,45.18C51.54,45.18,51.54,45.18,51.54,45.18c-0.01-0.1-0.01-0.2-0.02-0.29c0,0,0-0.01,0-0.01
	C51.53,44.98,51.54,45.08,51.54,45.18z"/>
<path class="st1" d="M48.8,39.49C48.79,39.48,48.79,39.48,48.8,39.49c-0.01-0.01-0.02-0.02-0.03-0.03
	C48.77,39.47,48.78,39.48,48.8,39.49z"/>
<path class="st1" d="M49.63,40.36c-0.01-0.01-0.02-0.02-0.03-0.03c-0.06-0.07-0.12-0.13-0.17-0.2c0,0,0,0,0,0
	C49.5,40.2,49.57,40.28,49.63,40.36z"/>
<path class="st1" d="M50.71,42.01c-0.01-0.01-0.01-0.03-0.02-0.04c-0.03-0.06-0.06-0.12-0.09-0.18c0-0.01-0.01-0.02-0.01-0.03
	C50.63,41.85,50.67,41.93,50.71,42.01z"/>
<path class="st1" d="M49.11,39.78C49.11,39.78,49.11,39.78,49.11,39.78c-0.04-0.04-0.09-0.08-0.13-0.12
	C49.03,39.7,49.07,39.74,49.11,39.78z"/>
<path class="st1" d="M50.53,41.68c0-0.01-0.01-0.02-0.01-0.02c-0.04-0.08-0.09-0.15-0.13-0.23c-0.03-0.05-0.06-0.1-0.09-0.15
	c-0.04-0.07-0.09-0.14-0.13-0.21c0,0-0.01-0.01-0.01-0.01C50.29,41.26,50.42,41.46,50.53,41.68z"/>
<path class="st1" d="M51.38,43.94c0-0.01,0-0.01,0-0.02c-0.02-0.08-0.04-0.16-0.06-0.25c0-0.01,0-0.02-0.01-0.03
	C51.33,43.74,51.35,43.84,51.38,43.94z"/>
<path class="st1" d="M51.46,44.37c0-0.01,0-0.03-0.01-0.04c-0.02-0.09-0.03-0.19-0.05-0.28c0,0,0-0.01,0-0.01
	C51.42,44.15,51.44,44.26,51.46,44.37z"/>
<path class="st1" d="M51.51,44.79C51.51,44.79,51.51,44.79,51.51,44.79c-0.01-0.13-0.03-0.25-0.05-0.37c0,0,0,0,0-0.01
	C51.48,44.54,51.5,44.66,51.51,44.79z"/>
<path class="st1" d="M50.9,42.43c-0.01-0.02-0.02-0.04-0.02-0.05c-0.04-0.09-0.08-0.18-0.12-0.26c0-0.01-0.01-0.01-0.01-0.02
	C50.8,42.21,50.85,42.32,50.9,42.43z"/>
<path class="st1" d="M51.17,43.15c-0.01-0.02-0.01-0.03-0.02-0.05c-0.02-0.07-0.05-0.14-0.07-0.21c0-0.01-0.01-0.01-0.01-0.02
	C51.1,42.96,51.14,43.05,51.17,43.15z"/>
<path class="st1" d="M51.29,43.58c0-0.01,0-0.01,0-0.02c-0.03-0.11-0.06-0.22-0.09-0.33c0,0,0-0.01,0-0.01
	C51.23,43.34,51.26,43.46,51.29,43.58z"/>
<path class="st2" d="M23.37,21.76L23.37,21.76c0,0.14,0,0.27,0.01,0.41c0,0,0,0.01,0,0.01C23.37,22.04,23.37,21.9,23.37,21.76z"/>
<path class="st2" d="M24.15,15.62c-0.22,0.03-0.42,0.14-0.56,0.31l0,0C23.72,15.76,23.92,15.64,24.15,15.62z"/>
<path class="st2" d="M24.35,15.61c0.3,0.03,0.62,0.05,0.95,0.07C24.98,15.66,24.66,15.64,24.35,15.61z"/>
<path class="st2" d="M27.52,30.37c-0.04-0.03-0.09-0.07-0.13-0.1C27.43,30.3,27.47,30.34,27.52,30.37z"/>
<path class="st2" d="M23.51,16.03c0,0.01-0.01,0.01-0.01,0.02C23.5,16.04,23.5,16.04,23.51,16.03L23.51,16.03z"/>
<path class="st3" d="M52.11,27.77c0,0.03,0,0.07,0,0.1C52.11,27.83,52.11,27.8,52.11,27.77z"/>
<path class="st3" d="M48.21,15.12v-4.74C48.21,12.59,48.19,14.03,48.21,15.12z"/>
<path class="st3" d="M52.01,26.56c0.01,0.08,0.02,0.16,0.03,0.24C52.03,26.72,52.02,26.64,52.01,26.56z"/>
<path class="st3" d="M19.65,36.9c-0.06-0.06-0.11-0.13-0.17-0.19C19.54,36.77,19.6,36.84,19.65,36.9z"/>
<path class="st3" d="M52.11,28.28c0,0.04,0,0.08,0,0.13C52.11,28.36,52.11,28.32,52.11,28.28z"/>
<path class="st3" d="M52.07,27.12c0,0.05,0.01,0.11,0.01,0.16C52.08,27.22,52.08,27.17,52.07,27.12z"/>
<path class="st3" d="M52.09,28.8c0,0.04,0,0.07-0.01,0.11C52.09,28.87,52.09,28.84,52.09,28.8z"/>
<path class="st3" d="M52.04,29.37c0,0.01,0,0.03,0,0.04C52.04,29.39,52.04,29.38,52.04,29.37z"/>
<path class="st3" d="M51.62,24.71c0.08,0.25,0.14,0.51,0.2,0.77C51.76,25.22,51.69,24.96,51.62,24.71z"/>
<path class="st3" d="M18.84,35.87c-0.01-0.01-0.01-0.02-0.02-0.03C18.82,35.86,18.83,35.87,18.84,35.87z"/>
<path class="st3" d="M49.73,35.2c-0.05,0.06-0.09,0.12-0.14,0.18C49.64,35.32,49.68,35.26,49.73,35.2z"/>
<path class="st3" d="M50.87,33.37c-0.03,0.06-0.06,0.12-0.09,0.18C50.81,33.49,50.84,33.43,50.87,33.37z"/>
<path class="st3" d="M50.3,34.38c-0.04,0.07-0.08,0.13-0.13,0.19C50.22,34.51,50.26,34.44,50.3,34.38z"/>
<path class="st3" d="M17.8,34.09c-0.03-0.06-0.06-0.12-0.09-0.18C17.75,33.97,17.77,34.03,17.8,34.09z"/>
<path class="st3" d="M19.77,36.04c0.41,0.45,0.86,0.88,1.36,1.27l0,0C20.7,36.96,20.24,36.55,19.77,36.04z"/>
<path class="st3" d="M50.61,33.84c-0.05,0.08-0.09,0.16-0.14,0.24C50.52,34.01,50.57,33.93,50.61,33.84z"/>
<path class="st3" d="M16.97,26.5c-0.02,0.07-0.03,0.15-0.05,0.22c0.01-0.03,0.01-0.05,0.02-0.08C16.95,26.59,16.96,26.55,16.97,26.5
	z"/>
<path class="st3" d="M22.1,38.09l0.02,0.01l0,0C22.11,38.1,22.11,38.09,22.1,38.09z"/>
<path class="st3" d="M16.69,29.31c0-0.01,0-0.01,0-0.02C16.69,29.29,16.69,29.3,16.69,29.31z"/>
<path class="st3" d="M17.27,25.43c-0.02,0.08-0.05,0.15-0.07,0.23c0,0,0,0,0-0.01C17.22,25.57,17.24,25.5,17.27,25.43z"/>
<path class="st3" d="M17.36,33.02c-0.01-0.03-0.02-0.06-0.03-0.09C17.34,32.96,17.35,32.99,17.36,33.02z"/>
<path class="st3" d="M17.53,33.46c0,0.01,0.01,0.02,0.01,0.03c0,0,0,0,0,0C17.53,33.48,17.53,33.47,17.53,33.46z"/>
<path class="st3" d="M18.55,35.45c-0.03-0.04-0.05-0.08-0.08-0.12C18.5,35.37,18.53,35.41,18.55,35.45z"/>
<path class="st3" d="M18.3,35.04c-0.04-0.08-0.09-0.15-0.13-0.23C18.21,34.88,18.25,34.96,18.3,35.04z"/>
<path class="st3" d="M51.88,30.43c-0.01,0.03-0.01,0.06-0.02,0.08C51.87,30.49,51.87,30.46,51.88,30.43z"/>
<path class="st3" d="M18.06,34.61c-0.05-0.1-0.11-0.21-0.16-0.32C17.95,34.39,18,34.5,18.06,34.61z"/>
<path class="st3" d="M49.37,35.65c-0.05,0.06-0.1,0.12-0.15,0.18C49.27,35.77,49.32,35.71,49.37,35.65z"/>
<path class="st3" d="M18.07,23.54c0.01-0.03,0.03-0.05,0.04-0.08C18.1,23.49,18.08,23.51,18.07,23.54z"/>
<path class="st3" d="M16.78,27.61c-0.01,0.06-0.01,0.11-0.02,0.17c0-0.04,0.01-0.09,0.02-0.13C16.77,27.64,16.77,27.62,16.78,27.61z
	"/>
<path class="st3" d="M51.84,25.56c0.02,0.1,0.04,0.2,0.06,0.3C51.88,25.76,51.86,25.66,51.84,25.56z"/>
<path class="st3" d="M48.19,36.87c-0.04,0.04-0.08,0.08-0.13,0.11C48.11,36.95,48.15,36.91,48.19,36.87z"/>
<path class="st3" d="M18.32,23.09c0.02-0.04,0.04-0.08,0.07-0.11C18.36,23.02,18.34,23.06,18.32,23.09z"/>
<path class="st3" d="M48.59,36.5c-0.05,0.05-0.09,0.09-0.14,0.14C48.49,36.59,48.54,36.54,48.59,36.5z"/>
<path class="st3" d="M48.71,18.54c0.24,0.78,0.49,1.37,0.76,1.88C49.16,19.82,48.91,19.19,48.71,18.54z"/>
<path class="st3" d="M16.87,27.02c-0.01,0.08-0.03,0.17-0.04,0.25c0.01-0.04,0.01-0.08,0.02-0.12
	C16.85,27.11,16.86,27.07,16.87,27.02z"/>
<path class="st3" d="M16.69,28.81c0-0.03,0-0.05,0-0.08C16.69,28.76,16.69,28.79,16.69,28.81z"/>
<path class="st3" d="M51.4,24.05c0,0.01,0.01,0.02,0.01,0.03C51.41,24.07,51.4,24.06,51.4,24.05z"/>
<path class="st3" d="M50.14,21.57c0.21,0.34,0.42,0.68,0.63,1.06C50.58,22.27,50.37,21.91,50.14,21.57z"/>
<path class="st3" d="M48.95,36.13c-0.04,0.05-0.09,0.09-0.13,0.14C48.86,36.22,48.91,36.17,48.95,36.13z"/>
<path class="st3" d="M51.77,30.92c-0.01,0.04-0.02,0.08-0.03,0.11C51.75,31,51.76,30.96,51.77,30.92z"/>
<path class="st3" d="M17.34,25.19c0.02-0.07,0.05-0.14,0.08-0.21C17.39,25.05,17.37,25.12,17.34,25.19z"/>
<path class="st3" d="M48.29,16.53c0.07,0.68,0.19,1.27,0.41,1.98C48.51,17.87,48.37,17.21,48.29,16.53z"/>
<path class="st3" d="M50.03,34.79c-0.05,0.07-0.09,0.13-0.14,0.2C49.93,34.92,49.98,34.86,50.03,34.79z"/>
<path class="st3" d="M16.71,28.24c0-0.03,0-0.05,0.01-0.08C16.72,28.19,16.71,28.22,16.71,28.24z"/>
<path class="st3" d="M17.78,24.12c0.03-0.05,0.05-0.11,0.08-0.16C17.83,24.01,17.8,24.07,17.78,24.12z"/>
<path class="st3" d="M51.08,32.92c-0.03,0.06-0.05,0.12-0.08,0.18C51.03,33.04,51.05,32.98,51.08,32.92z"/>
<path class="st3" d="M51.55,24.49c0.02,0.06,0.04,0.13,0.06,0.19C51.59,24.61,51.57,24.55,51.55,24.49z"/>
<path class="st3" d="M51.93,26.05c0.02,0.09,0.03,0.18,0.04,0.27C51.97,26.23,51.95,26.14,51.93,26.05z"/>
<path class="st3" d="M17.1,25.97c0-0.01,0-0.01,0-0.02c-0.03,0.1-0.05,0.2-0.08,0.3c0.02-0.08,0.04-0.15,0.06-0.23
	C17.09,26.01,17.1,25.99,17.1,25.97z"/>
<path class="st3" d="M51.63,31.43c-0.01,0.03-0.02,0.06-0.03,0.1C51.61,31.49,51.62,31.46,51.63,31.43z"/>
<path class="st3" d="M51.27,32.47c-0.02,0.05-0.04,0.1-0.06,0.15C51.23,32.57,51.25,32.52,51.27,32.47z"/>
<path class="st3" d="M17.57,24.58c0.02-0.06,0.05-0.12,0.07-0.17C17.62,24.47,17.6,24.53,17.57,24.58z"/>
<path class="st3" d="M17.18,32.47C17.18,32.47,17.18,32.47,17.18,32.47C17.18,32.47,17.18,32.47,17.18,32.47z"/>
<path class="st3" d="M23.45,16.13c0.02-0.03,0.04-0.06,0.05-0.09C23.49,16.06,23.47,16.09,23.45,16.13z"/>
<path class="st3" d="M16.76,30.38c0-0.01,0-0.02,0-0.03C16.75,30.37,16.76,30.38,16.76,30.38z"/>
<polygon class="st3" points="17.2,25.64 17.19,25.65 17.19,25.65 "/>
<path class="st3" d="M16.92,31.43C16.92,31.43,16.92,31.43,16.92,31.43C16.92,31.43,16.92,31.43,16.92,31.43z"/>
<path class="st3" d="M17.08,26.03c0.01-0.02,0.01-0.04,0.02-0.06C17.1,25.99,17.09,26.01,17.08,26.03z"/>
<path class="st3" d="M17.33,32.93C17.33,32.93,17.33,32.93,17.33,32.93c0.01,0.03,0.02,0.06,0.03,0.09c0,0,0,0,0,0
	C17.35,32.99,17.34,32.96,17.33,32.93z"/>
<path class="st3" d="M17.53,33.46C17.53,33.46,17.53,33.46,17.53,33.46c0,0.01,0.01,0.02,0.01,0.03
	C17.53,33.48,17.53,33.47,17.53,33.46z"/>
<path class="st3" d="M16.94,26.64c-0.01,0.03-0.01,0.05-0.02,0.08c0,0,0,0,0,0.01C16.93,26.7,16.93,26.67,16.94,26.64z"/>
<path class="st3" d="M16.69,29.26c0,0.01,0,0.02,0,0.03c0,0.01,0,0.01,0,0.02c0,0.01,0,0.01,0,0.02
	C16.69,29.3,16.69,29.28,16.69,29.26z"/>
<path class="st3" d="M16.77,27.65c-0.01,0.04-0.01,0.09-0.02,0.13c0,0,0,0.01,0,0.01C16.76,27.74,16.77,27.7,16.77,27.65z"/>
<path class="st3" d="M16.72,28.14c0,0.01,0,0.02,0,0.03c0,0.03,0,0.05-0.01,0.08c0,0,0,0.01,0,0.01
	C16.71,28.22,16.72,28.18,16.72,28.14z"/>
<path class="st3" d="M16.69,28.73C16.69,28.73,16.69,28.73,16.69,28.73c0,0.03,0,0.06,0,0.08c0,0.01,0,0.01,0,0.02
	C16.69,28.79,16.69,28.76,16.69,28.73z"/>
<path class="st3" d="M16.87,27.01c0,0,0,0.01,0,0.01c-0.01,0.04-0.02,0.08-0.02,0.13C16.85,27.1,16.86,27.06,16.87,27.01z"/>
<path class="st3" d="M23.39,16.31c0-0.02,0.01-0.03,0.02-0.05c0.01-0.04,0.02-0.08,0.04-0.12c-0.05,0.1-0.08,0.21-0.08,0.36
	c0,0.22,0,0.43,0,0.63V16.5C23.37,16.43,23.37,16.37,23.39,16.31z"/>
<path class="st3" d="M23.4,37.64L23.4,37.64c0.08-0.02,0.17-0.04,0.25-0.06l0,0C23.56,37.6,23.48,37.62,23.4,37.64z"/>
<path class="st3" d="M42.66,37.32L42.66,37.32c-0.05-0.01-0.1-0.01-0.14-0.02l0,0C42.57,37.31,42.62,37.32,42.66,37.32z"/>
<path class="st3" d="M27.28,37.02L27.28,37.02c0.05-0.02,0.09-0.04,0.13-0.06l0,0C27.37,36.99,27.33,37.01,27.28,37.02z"/>
<path class="st3" d="M22.21,38.06L22.21,38.06c0.07-0.03,0.14-0.06,0.21-0.09l0,0C22.35,38,22.28,38.03,22.21,38.06z"/>
<path class="st3" d="M22.99,37.76L22.99,37.76c0.03-0.01,0.06-0.02,0.09-0.03C23.05,37.74,23.02,37.75,22.99,37.76z"/>
<path class="st3" d="M27.06,37.11L27.06,37.11c0.05-0.02,0.09-0.03,0.14-0.05l0,0C27.15,37.07,27.11,37.09,27.06,37.11z"/>
<path class="st3" d="M23.14,37.72c0.03-0.01,0.06-0.02,0.09-0.03l0,0C23.2,37.7,23.17,37.71,23.14,37.72z"/>
<path class="st3" d="M22.6,37.9L22.6,37.9c0.07-0.03,0.15-0.06,0.22-0.08l0,0C22.74,37.85,22.67,37.87,22.6,37.9z"/>
<path class="st3" d="M41.51,37.02L41.51,37.02c-0.04-0.02-0.08-0.03-0.12-0.05c0,0,0,0,0,0C41.43,36.99,41.47,37.01,41.51,37.02z"/>
<path class="st3" d="M26.6,37.24L26.6,37.24c0.05-0.01,0.1-0.02,0.14-0.04l0,0C26.7,37.22,26.65,37.23,26.6,37.24z"/>
<path class="st3" d="M43.67,37.37c-0.14-0.01-0.28-0.01-0.43-0.01c0,0,0,0,0,0C43.39,37.36,43.53,37.36,43.67,37.37z"/>
<path class="st3" d="M42.92,37.35C42.92,37.35,42.92,37.35,42.92,37.35c-0.05,0-0.11-0.01-0.16-0.01l0,0
	C42.81,37.34,42.87,37.34,42.92,37.35z"/>
<path class="st3" d="M24.24,37.47L24.24,37.47c0.09-0.01,0.19-0.03,0.28-0.04l0,0C24.42,37.44,24.33,37.45,24.24,37.47z"/>
<path class="st3" d="M41.95,37.18L41.95,37.18c-0.04-0.01-0.08-0.02-0.13-0.04l0,0C41.87,37.15,41.91,37.16,41.95,37.18z"/>
<path class="st3" d="M42.18,37.24L42.18,37.24c-0.04-0.01-0.09-0.02-0.13-0.03l0,0C42.1,37.22,42.14,37.23,42.18,37.24z"/>
<path class="st3" d="M41.73,37.1C41.73,37.1,41.73,37.1,41.73,37.1c-0.04-0.01-0.08-0.03-0.12-0.05c0,0,0,0,0,0
	C41.65,37.08,41.69,37.09,41.73,37.1z"/>
<path class="st3" d="M24.67,37.41L24.67,37.41c0.11-0.01,0.21-0.02,0.32-0.03l0,0C24.88,37.39,24.77,37.4,24.67,37.41z"/>
<path class="st3" d="M26.84,37.18L26.84,37.18c0.05-0.01,0.09-0.03,0.14-0.04l0,0C26.93,37.15,26.88,37.16,26.84,37.18z"/>
<path class="st3" d="M42.42,37.29L42.42,37.29c-0.04-0.01-0.09-0.02-0.14-0.03c0,0,0,0,0,0C42.33,37.27,42.38,37.28,42.42,37.29z"/>
<path class="st3" d="M25.1,37.37L25.1,37.37c0.15-0.01,0.3-0.01,0.44-0.01C25.4,37.36,25.25,37.37,25.1,37.37z"/>
<path class="st3" d="M43.25,37.36C43.25,37.36,43.25,37.36,43.25,37.36c-0.08,0-0.16,0-0.24-0.01h0
	C43.08,37.36,43.16,37.36,43.25,37.36z"/>
<path class="st3" d="M33.15,14.72c0.26-0.08,0.52-0.17,0.78-0.26C33.67,14.56,33.41,14.65,33.15,14.72z"/>
<path class="st3" d="M44.25,15.5c0.11,0.01,0.22,0.02,0.34,0.03C44.47,15.53,44.36,15.52,44.25,15.5z"/>
<path class="st3" d="M24.15,15.62c0.06-0.01,0.13-0.01,0.19,0h0c-0.3-0.03-0.57,0.1-0.75,0.31c0,0,0,0,0,0
	C23.72,15.76,23.92,15.64,24.15,15.62z"/>
<path class="st3" d="M32.2,14.99c0.26-0.07,0.51-0.14,0.77-0.21C32.71,14.85,32.46,14.92,32.2,14.99z"/>
<path class="st3" d="M40.72,12.27c0.02,0.07,0.04,0.15,0.07,0.22C40.77,12.41,40.74,12.34,40.72,12.27
	c-0.16-0.59-0.85-0.84-1.35-0.5c-1.38,0.93-2.85,1.7-4.37,2.31c1.52-0.61,2.99-1.38,4.37-2.31C39.87,11.43,40.56,11.68,40.72,12.27z
	"/>
<path class="st3" d="M42.99,15.13c-0.97-0.46-1.74-1.3-2.15-2.5C41.25,13.84,42.03,14.68,42.99,15.13z"/>
<path class="st3" d="M43,15.14c0.08,0.04,0.17,0.07,0.26,0.11C43.17,15.21,43.08,15.18,43,15.14z"/>
<path class="st3" d="M30.19,15.41c-1.59,0.26-3.21,0.35-4.84,0.28c0,0,0,0,0,0C26.99,15.76,28.61,15.66,30.19,15.41z"/>
<path class="st3" d="M43.6,15.37c0.07,0.02,0.15,0.04,0.23,0.06C43.75,15.41,43.68,15.39,43.6,15.37z"/>
<path class="st3" d="M43.92,15.45c0.08,0.02,0.16,0.03,0.24,0.04C44.09,15.48,44,15.46,43.92,15.45z"/>
<path class="st3" d="M43.3,15.26c0.08,0.03,0.16,0.05,0.23,0.08C43.45,15.32,43.37,15.29,43.3,15.26z"/>
<path class="st3" d="M25.3,15.68C25.3,15.68,25.3,15.68,25.3,15.68c-0.32-0.02-0.64-0.04-0.96-0.07c0,0,0.01,0,0.01,0
	C24.66,15.64,24.98,15.66,25.3,15.68z"/>
<path class="st3" d="M23.4,22.58c-0.01-0.08-0.01-0.16-0.01-0.24C23.39,22.42,23.39,22.5,23.4,22.58z"/>
<path class="st3" d="M23.44,16.14L23.44,16.14c-0.02,0.04-0.03,0.08-0.04,0.12C23.42,16.22,23.43,16.18,23.44,16.14z"/>
<path class="st3" d="M30.28,15.39c0.27-0.04,0.53-0.1,0.8-0.15C30.81,15.3,30.54,15.35,30.28,15.39z"/>
<path class="st3" d="M23.43,22.94c0-0.05-0.01-0.1-0.01-0.14C23.42,22.85,23.43,22.89,23.43,22.94z"/>
<path class="st3" d="M23.37,21.76v-0.15v0V21.76c0,0.14,0,0.27,0.01,0.41C23.37,22.03,23.37,21.89,23.37,21.76L23.37,21.76z"/>
<path class="st3" d="M34.08,14.42c0.28-0.1,0.56-0.2,0.83-0.31C34.64,14.22,34.36,14.32,34.08,14.42z"/>
<path class="st3" d="M23.37,16.5L23.37,16.5c0-0.07,0.01-0.13,0.02-0.19C23.37,16.37,23.37,16.43,23.37,16.5v0.63
	c0,0.01,0,0.02,0,0.03V16.5z"/>
<path class="st3" d="M23.5,16.05c0-0.01,0.01-0.01,0.01-0.02l0,0c-0.02,0.03-0.04,0.06-0.05,0.09l0,0
	C23.46,16.1,23.48,16.07,23.5,16.05z"/>
<path class="st3" d="M31.24,15.21c0.25-0.05,0.5-0.11,0.75-0.18C31.74,15.1,31.49,15.16,31.24,15.21z"/>
<path class="st4" d="M30.77,32.18c2.27,0.8,4.82,0.87,7.31-0.02C35.72,32.99,33.13,33,30.77,32.18z"/>
<path class="st4" d="M38.62,31.95c-0.16,0.07-0.32,0.13-0.48,0.18C38.3,32.08,38.46,32.02,38.62,31.95z"/>
<path class="st4" d="M30.63,32.13c-0.11-0.04-0.23-0.09-0.34-0.13C30.41,32.04,30.52,32.08,30.63,32.13z"/>
<path class="st4" d="M38.65,33.2c0,0.03,0.01,0.06,0.01,0.1C38.66,33.26,38.66,33.23,38.65,33.2z"/>
<path class="st4" d="M30.1,33.53c0.01-0.03,0.01-0.07,0.02-0.1C30.11,33.46,30.1,33.49,30.1,33.53z"/>
<path class="st4" d="M30.04,33.82L30.04,33.82c0.02-0.06,0.03-0.13,0.04-0.2C30.07,33.69,30.05,33.76,30.04,33.82z"/>
<path class="st4" d="M30.13,33.29c0-0.03,0.01-0.07,0.01-0.1C30.14,33.23,30.14,33.26,30.13,33.29z"/>
<polygon class="st4" points="30.18,31.95 30.18,31.95 30.16,31.99 30.16,32 30.16,31.99 "/>
<path class="st4" d="M38.63,32.78c0,0.12,0.01,0.24,0.02,0.35C38.64,33.02,38.64,32.9,38.63,32.78z"/>
<path class="st4" d="M38.68,33.43c0,0.03,0.01,0.06,0.02,0.1C38.69,33.49,38.69,33.46,38.68,33.43z"/>
<path class="st4" d="M38.72,33.63c0.01,0.06,0.03,0.13,0.04,0.19C38.74,33.75,38.73,33.69,38.72,33.63z"/>
<path class="st4" d="M30.15,33.13c0.01-0.12,0.02-0.24,0.02-0.36C30.16,32.9,30.16,33.01,30.15,33.13z"/>
<path class="st5" d="M17.31,32.87c-0.01-0.03-0.02-0.06-0.03-0.1C17.29,32.8,17.3,32.83,17.31,32.87z"/>
<path class="st5" d="M17.16,32.41C17.16,32.41,17.16,32.41,17.16,32.41C17.16,32.41,17.16,32.41,17.16,32.41z"/>
<path class="st5" d="M16.71,28.33c0-0.02,0-0.03,0-0.05C16.71,28.3,16.71,28.32,16.71,28.33z"/>
<path class="st5" d="M17.5,33.38c-0.03-0.08-0.07-0.17-0.1-0.25C17.43,33.22,17.46,33.3,17.5,33.38z"/>
<path class="st5" d="M16.69,28.67C16.69,28.67,16.69,28.66,16.69,28.67C16.69,28.66,16.69,28.67,16.69,28.67z"/>
<path class="st5" d="M16.87,26.98c0.01-0.07,0.02-0.13,0.04-0.2C16.9,26.84,16.89,26.91,16.87,26.98z"/>
<path class="st5" d="M16.73,27.99c0-0.03,0-0.06,0.01-0.08C16.74,27.93,16.74,27.96,16.73,27.99z"/>
<path class="st5" d="M17.81,34.1C17.81,34.1,17.8,34.1,17.81,34.1c0.01,0.03,0.03,0.07,0.05,0.1l0,0l0,0
	C17.84,34.17,17.82,34.13,17.81,34.1z"/>
<path class="st5" d="M17.57,24.59L17.57,24.59c-0.05,0.13-0.11,0.26-0.15,0.39c0,0,0-0.01,0-0.01
	C17.47,24.84,17.52,24.71,17.57,24.59z"/>
<path class="st5" d="M18.32,23.1C18.32,23.09,18.32,23.09,18.32,23.1c-0.07,0.12-0.14,0.24-0.21,0.37c0,0,0,0,0-0.01
	C18.18,23.33,18.25,23.21,18.32,23.1z"/>
<path class="st5" d="M17.55,33.51c0-0.01,0-0.01-0.01-0.02c0.06,0.14,0.12,0.28,0.18,0.42c0,0,0,0,0,0
	C17.66,33.77,17.6,33.64,17.55,33.51z"/>
<path class="st5" d="M18.07,23.54C18.07,23.54,18.07,23.54,18.07,23.54c-0.07,0.14-0.14,0.28-0.21,0.42c0,0,0-0.01,0-0.01
	C17.93,23.81,17.99,23.68,18.07,23.54z"/>
<path class="st5" d="M17.34,25.2C17.34,25.2,17.34,25.19,17.34,25.2c-0.02,0.07-0.05,0.15-0.08,0.23c0-0.01,0-0.01,0.01-0.02
	C17.29,25.34,17.32,25.27,17.34,25.2z"/>
<path class="st5" d="M17.77,24.13C17.78,24.13,17.78,24.13,17.77,24.13c-0.04,0.09-0.08,0.18-0.13,0.28c0,0,0-0.01,0.01-0.01
	C17.69,24.31,17.73,24.22,17.77,24.13z"/>
<path class="st5" d="M16.79,27.53c0,0.03-0.01,0.05-0.01,0.08c0,0,0,0,0,0C16.78,27.58,16.78,27.55,16.79,27.53z"/>
<path class="st5" d="M16.99,26.4c-0.01,0.03-0.01,0.06-0.02,0.1c0,0,0-0.01,0-0.01C16.98,26.46,16.98,26.43,16.99,26.4z"/>
<path class="st5" d="M17.03,26.26c0,0.02-0.01,0.03-0.01,0.05C17.02,26.3,17.02,26.28,17.03,26.26
	C17.03,26.26,17.03,26.26,17.03,26.26z"/>
<path class="st5" d="M17.19,25.67c-0.03,0.1-0.06,0.19-0.08,0.29c0,0,0-0.01,0-0.01C17.13,25.85,17.16,25.76,17.19,25.67z"/>
<path class="st5" d="M16.82,27.27c0,0.01,0,0.03-0.01,0.04C16.82,27.3,16.82,27.29,16.82,27.27C16.82,27.28,16.82,27.28,16.82,27.27
	z"/>
<path class="st5" d="M18.66,21.56c1.25-1.88,1.92-4.09,1.92-6.36v-4.83c0-2.12,0.59-4.09,1.61-5.78c-1.02,1.68-1.61,3.66-1.61,5.78
	v4.83C20.58,17.47,19.91,19.68,18.66,21.56c-0.09,0.14-0.18,0.29-0.27,0.43c0,0,0,0,0,0C18.48,21.85,18.57,21.7,18.66,21.56z"/>
<path class="st5" d="M17.03,26.27c0,0.01-0.01,0.03-0.01,0.04c-0.01,0.03-0.02,0.06-0.02,0.09c-0.01,0.03-0.01,0.06-0.02,0.08
	C16.99,26.41,17.01,26.34,17.03,26.27z"/>
<path class="st5" d="M16.92,26.72c0,0.02-0.01,0.03-0.01,0.05c-0.01,0.07-0.02,0.13-0.04,0.2c0,0.01,0,0.02-0.01,0.04
	C16.88,26.92,16.9,26.82,16.92,26.72z"/>
<path class="st5" d="M17.42,24.97c0.05-0.13,0.1-0.26,0.15-0.38C17.52,24.71,17.47,24.84,17.42,24.97z"/>
<path class="st5" d="M17.19,25.65c0,0.01,0,0.01,0,0.02c-0.03,0.09-0.05,0.18-0.08,0.28C17.14,25.85,17.16,25.75,17.19,25.65z"/>
<path class="st5" d="M18.11,23.46c0.07-0.12,0.13-0.24,0.2-0.36C18.25,23.21,18.18,23.33,18.11,23.46z"/>
<path class="st5" d="M20.58,15.21L20.58,15.21c0,2.26-0.67,4.47-1.92,6.36c-0.09,0.14-0.18,0.28-0.27,0.43
	c0.09-0.14,0.18-0.29,0.27-0.43C19.91,19.68,20.58,17.47,20.58,15.21z"/>
<path class="st5" d="M17.72,33.91c-0.06-0.13-0.12-0.26-0.17-0.4C17.6,33.64,17.66,33.77,17.72,33.91z"/>
<path class="st5" d="M17.18,32.47c0.03,0.1,0.06,0.2,0.09,0.3c0.01,0.03,0.02,0.06,0.03,0.1c0.01,0.02,0.02,0.04,0.02,0.07
	C17.28,32.78,17.23,32.63,17.18,32.47z"/>
<path class="st5" d="M17.36,33.02c0.01,0.04,0.02,0.07,0.04,0.11c0.03,0.08,0.06,0.17,0.1,0.25c0.01,0.03,0.02,0.05,0.03,0.08
	C17.47,33.31,17.41,33.17,17.36,33.02z"/>
<path class="st5" d="M16.92,31.43c-0.07-0.35-0.12-0.69-0.16-1.04C16.8,30.73,16.85,31.08,16.92,31.43z"/>
<path class="st5" d="M17.66,24.4c0.04-0.09,0.08-0.18,0.12-0.27C17.73,24.22,17.69,24.31,17.66,24.4z"/>
<path class="st5" d="M17.27,25.41c0.02-0.07,0.05-0.14,0.07-0.21C17.32,25.27,17.29,25.34,17.27,25.41z"/>
<path class="st5" d="M16.69,29.26c0-0.14,0-0.29,0-0.43C16.68,28.97,16.68,29.11,16.69,29.26z"/>
<path class="st5" d="M17.86,23.95c0.07-0.14,0.13-0.27,0.21-0.41C17.99,23.68,17.93,23.81,17.86,23.95z"/>
<path class="st5" d="M16.75,30.36c-0.04-0.34-0.06-0.69-0.07-1.03C16.69,29.67,16.72,30.01,16.75,30.36z"/>
<path class="st5" d="M17.81,34.1c0.02,0.03,0.03,0.07,0.05,0.1l0,0c0,0.01,0.01,0.01,0.01,0.02C17.85,34.18,17.83,34.14,17.81,34.1z
	"/>
<path class="st5" d="M16.76,27.79c0,0.04-0.01,0.08-0.01,0.12c0,0.03,0,0.06-0.01,0.08c0,0.05-0.01,0.1-0.01,0.15
	C16.73,28.02,16.74,27.9,16.76,27.79z"/>
<path class="st5" d="M16.92,31.43c0.07,0.33,0.15,0.65,0.24,0.97c0,0,0,0,0,0.01c0.01,0.02,0.01,0.04,0.02,0.06
	C17.08,32.13,16.99,31.78,16.92,31.43z"/>
<path class="st5" d="M16.82,27.28c0,0.01,0,0.02,0,0.03c-0.01,0.07-0.02,0.14-0.03,0.21c0,0.03-0.01,0.05-0.01,0.08
	C16.79,27.5,16.81,27.39,16.82,27.28z"/>
<path class="st5" d="M16.71,28.26c0,0.01,0,0.02,0,0.03c0,0.02,0,0.03,0,0.05c-0.01,0.11-0.01,0.22-0.02,0.33c0,0,0,0,0,0.01
	c0,0.02,0,0.04,0,0.06C16.69,28.57,16.7,28.41,16.71,28.26z"/>
<path class="st5" d="M23.58,15.93L23.58,15.93c-0.03,0.03-0.05,0.07-0.08,0.11l0,0C23.53,15.99,23.55,15.96,23.58,15.93z"/>
<path class="st5" d="M17.11,25.94c0,0,0,0.01,0,0.01c0,0.01,0,0.01,0,0.02C17.1,25.96,17.11,25.95,17.11,25.94z"/>
<path class="st5" d="M16.84,27.15c-0.01,0.04-0.01,0.08-0.02,0.12c0,0,0,0.01,0,0.01C16.83,27.24,16.83,27.19,16.84,27.15z"/>
<path class="st5" d="M17.66,24.4c0,0,0,0.01-0.01,0.01c-0.02,0.06-0.05,0.12-0.07,0.17l0,0C17.6,24.52,17.63,24.46,17.66,24.4z"/>
<path class="st5" d="M16.78,27.6C16.78,27.6,16.78,27.61,16.78,27.6c0,0.02,0,0.03-0.01,0.05C16.77,27.63,16.77,27.62,16.78,27.6z"
	/>
<path class="st5" d="M17.08,26.03c-0.02,0.08-0.04,0.15-0.06,0.23c0,0,0,0,0,0.01C17.04,26.19,17.06,26.11,17.08,26.03z"/>
<path class="st5" d="M18.11,23.46C18.11,23.46,18.11,23.46,18.11,23.46c-0.02,0.03-0.03,0.06-0.05,0.09c0,0,0,0,0,0
	C18.08,23.51,18.1,23.48,18.11,23.46z"/>
<path class="st5" d="M17.54,33.49C17.54,33.49,17.54,33.49,17.54,33.49c0,0.01,0.01,0.01,0.01,0.02
	C17.54,33.5,17.54,33.5,17.54,33.49z"/>
<path class="st5" d="M17.42,24.97c0,0,0,0.01,0,0.01c-0.03,0.07-0.05,0.14-0.08,0.21c0,0,0,0.01,0,0.01
	C17.37,25.12,17.4,25.04,17.42,24.97z"/>
<path class="st5" d="M17.86,23.95C17.86,23.95,17.86,23.96,17.86,23.95c-0.03,0.06-0.06,0.12-0.08,0.17c0,0,0,0,0,0.01
	C17.8,24.07,17.83,24.01,17.86,23.95z"/>
<path class="st5" d="M17.72,33.91C17.72,33.91,17.72,33.91,17.72,33.91c0.03,0.07,0.06,0.13,0.09,0.19c0,0,0,0,0,0.01
	C17.78,34.03,17.75,33.97,17.72,33.91z"/>
<path class="st5" d="M17.27,25.41c0,0.01,0,0.01-0.01,0.02c-0.02,0.07-0.05,0.15-0.07,0.22C17.22,25.57,17.25,25.49,17.27,25.41z"/>
<path class="st5" d="M16.97,26.49c0,0,0,0.01,0,0.01c-0.01,0.05-0.02,0.1-0.03,0.14C16.95,26.59,16.96,26.54,16.97,26.49z"/>
<path class="st5" d="M18.39,22.98C18.39,22.98,18.39,22.98,18.39,22.98c-0.03,0.04-0.05,0.08-0.07,0.12c0,0,0,0,0,0
	C18.34,23.06,18.37,23.02,18.39,22.98z"/>
<path class="st5" d="M23.37,17.17c0-0.01,0-0.02,0-0.03v4.48v0V17.17z"/>
<path class="st5" d="M23.45,16.13L23.45,16.13c0,0.01-0.01,0.01-0.01,0.02l0,0C23.45,16.14,23.45,16.13,23.45,16.13z"/>
<path class="st5" d="M23.58,15.93C23.58,15.93,23.58,15.93,23.58,15.93c-0.03,0.03-0.05,0.07-0.08,0.11l0,0
	C23.53,15.99,23.55,15.96,23.58,15.93z"/>
<path class="st6" d="M23.4,22.59c0,0,0,0.01,0,0.01c0,0,0,0.01,0,0.01c0,0.01,0,0.02,0,0.04C23.4,22.63,23.4,22.61,23.4,22.59z"/>
<path class="st6" d="M23.38,22.18c0,0.01,0,0.01,0,0.02c0,0.02,0,0.04,0,0.05C23.38,22.23,23.38,22.2,23.38,22.18z"/>
<path class="st6" d="M26.28,29.22c-0.01-0.02-0.03-0.03-0.04-0.05C26.25,29.19,26.26,29.21,26.28,29.22z"/>
<path class="st6" d="M27.6,30.44c-0.03-0.02-0.06-0.04-0.08-0.06C27.54,30.39,27.57,30.42,27.6,30.44z"/>
<path class="st6" d="M26.39,29.34c0.13,0.14,0.27,0.28,0.42,0.42c0.02,0.02,0.03,0.03,0.05,0.05c0.05,0.04,0.1,0.09,0.14,0.13
	c0.13,0.11,0.26,0.23,0.39,0.34C27.04,29.98,26.7,29.67,26.39,29.34z"/>
<path class="st6" d="M26.39,29.34c-0.04-0.04-0.07-0.08-0.11-0.11c-0.01-0.02-0.03-0.03-0.04-0.05c-1.52-1.66-2.55-3.8-2.8-6.23
	c0.28,2.76,1.55,5.1,3.37,6.81C26.66,29.62,26.52,29.48,26.39,29.34z"/>
<path class="st6" d="M23.4,22.61c0,0.06,0.01,0.12,0.02,0.18c0-0.05-0.01-0.1-0.01-0.15C23.4,22.64,23.4,22.63,23.4,22.61z"/>
<path class="st6" d="M23.4,22.58c0,0.01,0,0.01,0,0.02C23.4,22.59,23.4,22.59,23.4,22.58L23.4,22.58z"/>
<path class="st6" d="M23.38,22.2c0,0.05,0,0.09,0.01,0.14c0-0.03,0-0.06,0-0.09C23.38,22.24,23.38,22.22,23.38,22.2z"/>
<path class="st6" d="M23.39,16.31c0-0.02,0.01-0.03,0.02-0.05C23.4,16.28,23.39,16.29,23.39,16.31z"/>
<path class="st6" d="M25.3,15.68c0.02,0,0.04,0,0.05,0C25.34,15.68,25.32,15.68,25.3,15.68z"/>
<path class="st6" d="M26.99,29.93c-0.05-0.04-0.1-0.09-0.14-0.13C26.9,29.85,26.95,29.89,26.99,29.93z"/>
<polygon class="st6" points="24.34,15.61 24.34,15.61 24.34,15.61 "/>
<path class="st6" d="M23.4,22.65c0,0.05,0.01,0.1,0.01,0.15c0,0.05,0.01,0.1,0.01,0.14c0.25,2.43,1.29,4.57,2.8,6.23
	C24.64,27.42,23.6,25.15,23.4,22.65z"/>
<path class="st6" d="M23.44,16.14c-0.02,0.04-0.03,0.08-0.04,0.12c0,0.02-0.01,0.03-0.02,0.05c-0.01,0.06-0.02,0.12-0.02,0.19v0
	C23.37,16.37,23.4,16.25,23.44,16.14L23.44,16.14z"/>
<path class="st6" d="M23.5,16.05c-0.02,0.03-0.03,0.05-0.04,0.08c0,0,0,0,0,0C23.46,16.1,23.48,16.07,23.5,16.05z"/>
<path class="st6" d="M23.38,22.25c0,0.03,0,0.06,0,0.09c0,0.08,0.01,0.16,0.01,0.24l0,0C23.39,22.48,23.38,22.36,23.38,22.25z"/>
<path class="st6" d="M26.39,29.34c-0.04-0.04-0.07-0.08-0.11-0.11C26.31,29.26,26.35,29.3,26.39,29.34z"/>
<path class="st6" d="M24.34,15.61c0,0,0.01,0,0.01,0C24.34,15.61,24.34,15.61,24.34,15.61C24.34,15.61,24.34,15.61,24.34,15.61
	c-0.06-0.01-0.13,0-0.19,0C24.21,15.61,24.27,15.61,24.34,15.61z"/>
<path class="st6" d="M25.36,15.68C25.36,15.68,25.36,15.68,25.36,15.68c-0.02,0-0.04,0-0.06,0c0,0,0,0-0.01,0
	C25.32,15.68,25.34,15.68,25.36,15.68z"/>
<path class="st6" d="M23.58,15.93c-0.03,0.03-0.05,0.07-0.08,0.11C23.53,16,23.56,15.96,23.58,15.93z"/>
<path class="st6" d="M23.45,16.13c0,0.01,0,0.01-0.01,0.02C23.45,16.14,23.45,16.13,23.45,16.13z"/>
<path class="st6" d="M23.37,17.17v4.44C23.37,21.03,23.37,19.82,23.37,17.17z"/>
<path class="st6" d="M23.45,16.13C23.45,16.13,23.45,16.13,23.45,16.13c0,0.01,0,0.01-0.01,0.02l0,0
	C23.45,16.14,23.45,16.13,23.45,16.13z"/>
<path class="st1" d="M20.01,39.48L20.01,39.48c-0.02,0.02-0.04,0.04-0.06,0.05l0,0C19.97,39.52,19.99,39.5,20.01,39.48z"/>
<path class="st1" d="M18.26,42.66L18.26,42.66c-0.02,0.03-0.03,0.06-0.05,0.09l0,0C18.23,42.72,18.25,42.69,18.26,42.66z"/>
<path class="st1" d="M19.69,40.77c-0.01,0.01-0.01,0.01-0.02,0.02C19.68,40.78,19.68,40.77,19.69,40.77L19.69,40.77z"/>
<path class="st1" d="M19.17,41.34L19.17,41.34c-0.01,0.01-0.03,0.03-0.04,0.04v0C19.14,41.37,19.15,41.35,19.17,41.34z"/>
<polygon class="st1" points="18.44,42.35 18.44,42.35 18.44,42.35 18.44,42.35 "/>
<path class="st1" d="M18.66,42.01c0.01-0.01,0.02-0.03,0.03-0.04C18.68,41.98,18.67,42,18.66,42.01z"/>
<path class="st1" d="M17.9,43.41L17.9,43.41c-0.01,0.02-0.01,0.04-0.02,0.06c0,0,0,0,0,0C17.88,43.45,17.89,43.43,17.9,43.41z"/>
<path class="st1" d="M18.09,43L18.09,43c-0.01,0.03-0.03,0.06-0.04,0.09l0,0C18.06,43.06,18.07,43.03,18.09,43z"/>
<path class="st1" d="M17.76,43.75L17.76,43.75c-0.01,0.03-0.03,0.07-0.04,0.1v0C17.74,43.82,17.75,43.79,17.76,43.75z"/>
<path class="st1" d="M20.95,38.75L20.95,38.75c-0.02,0.02-0.05,0.03-0.07,0.05v0C20.9,38.78,20.93,38.77,20.95,38.75z"/>
<path class="st1" d="M17.63,44.13c-0.01,0.02-0.01,0.04-0.02,0.06C17.62,44.17,17.63,44.15,17.63,44.13L17.63,44.13z"/>
<path class="st1" d="M17.88,43.47C17.88,43.47,17.88,43.47,17.88,43.47c-0.04,0.09-0.08,0.19-0.11,0.28l0,0
	C17.8,43.66,17.84,43.56,17.88,43.47z"/>
<path class="st1" d="M18.63,42.05c-0.06,0.1-0.13,0.19-0.19,0.29l0,0C18.5,42.25,18.57,42.15,18.63,42.05z"/>
<path class="st1" d="M17.73,43.86L17.73,43.86c-0.03,0.09-0.06,0.18-0.09,0.27v0C17.66,44.04,17.69,43.95,17.73,43.86z"/>
<path class="st1" d="M23.7,37.57c0.04-0.01,0.08-0.02,0.11-0.03l0,0C23.77,37.55,23.74,37.56,23.7,37.57z"/>
<path class="st1" d="M18.44,42.35L18.44,42.35c-0.06,0.1-0.12,0.2-0.18,0.31l0,0C18.32,42.56,18.38,42.45,18.44,42.35z"/>
<path class="st1" d="M18.05,43.09L18.05,43.09c-0.05,0.11-0.1,0.22-0.15,0.33l0,0C17.94,43.3,17.99,43.19,18.05,43.09z"/>
<path class="st1" d="M24.08,37.49c0.01,0,0.01,0,0.02,0C24.09,37.49,24.08,37.49,24.08,37.49L24.08,37.49z"/>
<path class="st1" d="M18.21,42.75L18.21,42.75c-0.04,0.08-0.08,0.16-0.12,0.24l0,0C18.13,42.92,18.17,42.83,18.21,42.75z"/>
<path class="st1" d="M19.95,39.54L19.95,39.54c-0.09,0.08-0.17,0.16-0.26,0.24v0C19.77,39.7,19.86,39.62,19.95,39.54z"/>
<path class="st1" d="M20.1,39.4c-0.03,0.03-0.06,0.05-0.09,0.08l0,0C20.04,39.45,20.07,39.43,20.1,39.4z"/>
<path class="st1" d="M21.05,38.69c-0.03,0.02-0.07,0.04-0.1,0.06l0,0C20.98,38.73,21.02,38.71,21.05,38.69z"/>
<path class="st1" d="M20.88,38.8L20.88,38.8c-0.01,0.01-0.02,0.01-0.03,0.02C20.86,38.81,20.87,38.8,20.88,38.8z"/>
<path class="st1" d="M19.2,41.3c-0.01,0.01-0.02,0.03-0.03,0.04l0,0C19.18,41.32,19.19,41.31,19.2,41.3z"/>
<path class="st1" d="M19.13,41.38L19.13,41.38c-0.01,0.02-0.02,0.03-0.04,0.05C19.1,41.41,19.12,41.4,19.13,41.38z"/>
<path class="st1" d="M18.44,42.35C18.44,42.35,18.44,42.35,18.44,42.35C18.44,42.35,18.44,42.35,18.44,42.35z"/>
<path class="st1" d="M18.09,43c-0.01,0.03-0.03,0.06-0.04,0.09C18.06,43.06,18.07,43.03,18.09,43z"/>
<path class="st1" d="M21.99,38.16c-0.03,0.01-0.05,0.02-0.08,0.04C21.94,38.18,21.97,38.17,21.99,38.16z"/>
<path class="st1" d="M19.69,40.77c-0.01,0.01-0.01,0.01-0.02,0.02c-0.01,0.01-0.03,0.03-0.04,0.04
	C19.65,40.81,19.67,40.79,19.69,40.77z"/>
<path class="st1" d="M20.95,38.75c-0.02,0.02-0.05,0.03-0.07,0.05C20.9,38.78,20.93,38.77,20.95,38.75z"/>
<path class="st1" d="M21.27,38.55c-0.03,0.02-0.05,0.03-0.08,0.05C21.22,38.58,21.24,38.56,21.27,38.55z"/>
<path class="st1" d="M18.91,41.66c-0.02,0.03-0.04,0.05-0.06,0.08C18.87,41.71,18.89,41.69,18.91,41.66z"/>
<path class="st1" d="M19.17,41.34c-0.01,0.02-0.03,0.03-0.04,0.04C19.14,41.37,19.15,41.35,19.17,41.34z"/>
<path class="st1" d="M20.58,39.01c-0.01,0.01-0.02,0.02-0.04,0.03C20.56,39.03,20.57,39.02,20.58,39.01z"/>
<path class="st1" d="M18.26,42.66c-0.02,0.03-0.03,0.06-0.05,0.09C18.23,42.72,18.25,42.69,18.26,42.66z"/>
<path class="st1" d="M18.7,41.96C18.69,41.96,18.69,41.97,18.7,41.96c-0.02,0.02-0.03,0.04-0.04,0.05
	c-0.01,0.01-0.02,0.02-0.02,0.04C18.66,42.02,18.68,41.99,18.7,41.96z"/>
<path class="st1" d="M20.3,39.23c-0.03,0.02-0.05,0.04-0.08,0.07C20.25,39.27,20.27,39.25,20.3,39.23z"/>
<path class="st1" d="M20.01,39.48c-0.02,0.02-0.04,0.04-0.06,0.05C19.97,39.52,19.99,39.5,20.01,39.48z"/>
<path class="st1" d="M19.44,41.03c-0.02,0.03-0.05,0.05-0.07,0.08C19.39,41.08,19.41,41.06,19.44,41.03z"/>
<path class="st1" d="M17.9,43.41c-0.01,0.02-0.01,0.04-0.02,0.06C17.88,43.45,17.89,43.43,17.9,43.41z"/>
<path class="st1" d="M17.63,44.13c-0.01,0.02-0.01,0.04-0.02,0.06c0,0.01,0,0.01-0.01,0.02C17.62,44.18,17.62,44.15,17.63,44.13z"/>
<path class="st1" d="M17.76,43.75c-0.01,0.03-0.03,0.07-0.04,0.1C17.74,43.82,17.75,43.79,17.76,43.75z"/>
<path class="st1" d="M23.81,37.54L23.81,37.54c0.09-0.02,0.18-0.03,0.26-0.05l0,0C23.99,37.51,23.9,37.53,23.81,37.54z"/>
<path class="st1" d="M23.08,37.73c0.02-0.01,0.04-0.01,0.06-0.02C23.12,37.72,23.1,37.73,23.08,37.73z"/>
<path class="st1" d="M24.08,37.49c-0.09,0.02-0.18,0.03-0.26,0.05C23.9,37.53,23.99,37.51,24.08,37.49z"/>
<path class="st1" d="M24.52,37.43c-0.09,0.01-0.19,0.02-0.28,0.04C24.33,37.45,24.42,37.44,24.52,37.43z"/>
<path class="st1" d="M26.28,37.3c-0.05,0.01-0.11,0.02-0.16,0.02C26.17,37.32,26.23,37.31,26.28,37.3z"/>
<path class="st1" d="M24.99,37.38c-0.11,0.01-0.21,0.01-0.32,0.03C24.77,37.4,24.88,37.39,24.99,37.38z"/>
<path class="st1" d="M26.04,37.33c-0.06,0.01-0.13,0.01-0.19,0.02C25.92,37.35,25.98,37.34,26.04,37.33z"/>
<path class="st1" d="M26.52,37.26c-0.05,0.01-0.1,0.02-0.15,0.03C26.42,37.28,26.47,37.27,26.52,37.26z"/>
<path class="st1" d="M23.65,37.58c-0.08,0.02-0.17,0.04-0.25,0.06C23.48,37.62,23.56,37.6,23.65,37.58z"/>
<path class="st1" d="M26.97,37.14c-0.05,0.01-0.09,0.03-0.14,0.04C26.88,37.16,26.93,37.15,26.97,37.14z"/>
<path class="st1" d="M25.1,37.37c0.15-0.01,0.3-0.01,0.44-0.01c0.08,0,0.17,0,0.25-0.01c-0.08,0-0.17,0.01-0.25,0.01
	C25.4,37.36,25.25,37.37,25.1,37.37z"/>
<path class="st1" d="M23.08,37.73c-0.03,0.01-0.06,0.02-0.09,0.03c0.08-0.03,0.16-0.05,0.24-0.07c-0.03,0.01-0.06,0.02-0.09,0.03
	C23.12,37.72,23.1,37.73,23.08,37.73z"/>
<path class="st1" d="M26.75,37.2c-0.05,0.01-0.1,0.02-0.14,0.04C26.65,37.23,26.7,37.22,26.75,37.2z"/>
<path class="st1" d="M27.42,36.97c-0.04,0.02-0.09,0.04-0.13,0.06C27.33,37.01,27.37,36.99,27.42,36.97z"/>
<path class="st1" d="M22.82,37.82c-0.08,0.03-0.15,0.05-0.22,0.08C22.67,37.87,22.74,37.85,22.82,37.82z"/>
<path class="st1" d="M27.2,37.06c-0.04,0.02-0.09,0.03-0.14,0.05C27.11,37.09,27.15,37.07,27.2,37.06z"/>
<path class="st1" d="M22.42,37.97c-0.07,0.03-0.14,0.06-0.21,0.09C22.28,38.03,22.35,38,22.42,37.97z"/>
<path class="st7" d="M48.21,39.01c0.01,0.01,0.02,0.02,0.03,0.02C48.23,39.02,48.22,39.02,48.21,39.01z"/>
<path class="st7" d="M47.9,38.79c0.01,0,0.01,0.01,0.02,0.01c-0.02-0.02-0.05-0.03-0.07-0.04c0,0,0.01,0.01,0.01,0.01
	C47.88,38.77,47.89,38.78,47.9,38.79z"/>
<path class="st7" d="M47.54,38.55c0.01,0.01,0.02,0.01,0.03,0.02c0.01,0.01,0.02,0.01,0.03,0.02
	C47.58,38.58,47.55,38.56,47.54,38.55C47.53,38.55,47.53,38.55,47.54,38.55z"/>
<path class="st7" d="M49.16,39.83c-0.01-0.01-0.03-0.03-0.04-0.04C49.13,39.81,49.14,39.82,49.16,39.83
	C49.16,39.83,49.16,39.83,49.16,39.83z"/>
<path class="st7" d="M49.4,40.08C49.4,40.09,49.4,40.09,49.4,40.08C49.4,40.09,49.4,40.09,49.4,40.08z"/>
<path class="st7" d="M48.56,39.28c0,0,0.01,0.01,0.01,0.01c-0.03-0.02-0.05-0.04-0.08-0.06c0,0,0,0,0,0
	C48.52,39.25,48.54,39.27,48.56,39.28z"/>
<path class="st7" d="M48.85,39.53c-0.01-0.01-0.01-0.01-0.02-0.02C48.83,39.52,48.84,39.52,48.85,39.53
	C48.85,39.53,48.85,39.53,48.85,39.53z"/>
<path class="st7" d="M46.86,38.18c0.01,0,0.02,0.01,0.02,0.01c-0.02-0.01-0.05-0.02-0.07-0.03c0.01,0,0.01,0.01,0.02,0.01
	C46.84,38.17,46.85,38.18,46.86,38.18z"/>
<path class="st7" d="M44.75,37.5c-0.01,0-0.01,0-0.02,0c-0.06-0.01-0.11-0.02-0.17-0.03c0,0,0,0-0.01,0
	C44.62,37.47,44.68,37.49,44.75,37.5z"/>
<path class="st7" d="M43.84,37.38C43.84,37.38,43.84,37.38,43.84,37.38c-0.06,0-0.1-0.01-0.15-0.01c0,0,0,0,0,0
	C43.74,37.38,43.79,37.38,43.84,37.38z"/>
<path class="st7" d="M45.18,37.59c-0.01,0-0.01,0-0.02,0c-0.06-0.01-0.12-0.03-0.18-0.04c0,0-0.01,0-0.01,0
	C45.04,37.56,45.11,37.57,45.18,37.59z"/>
<path class="st7" d="M48.76,39.46c-0.06-0.06-0.13-0.11-0.19-0.16c0,0-0.01-0.01-0.01-0.01C48.63,39.34,48.7,39.4,48.76,39.46z"/>
<path class="st7" d="M45.59,37.7c-0.01,0-0.01,0-0.02-0.01c-0.06-0.02-0.12-0.03-0.18-0.05c0,0-0.01,0-0.01,0
	C45.45,37.66,45.52,37.68,45.59,37.7z"/>
<path class="st7" d="M44.31,37.43c0,0-0.01,0-0.01,0c-0.06-0.01-0.11-0.02-0.17-0.02c0,0,0,0,0,0
	C44.19,37.41,44.25,37.42,44.31,37.43z"/>
<path class="st7" d="M48.98,39.66c-0.04-0.04-0.09-0.09-0.13-0.13c0,0,0,0-0.01-0.01C48.89,39.57,48.94,39.62,48.98,39.66z"/>
<path class="st7" d="M49.2,39.87c-0.01-0.01-0.02-0.03-0.04-0.04c0,0,0,0,0,0C49.17,39.84,49.18,39.86,49.2,39.87z"/>
<path class="st7" d="M47.54,38.55C47.53,38.55,47.53,38.55,47.54,38.55c-0.22-0.13-0.44-0.25-0.66-0.36c-0.01,0-0.02-0.01-0.02-0.01
	C47.09,38.3,47.32,38.42,47.54,38.55z"/>
<path class="st7" d="M46.4,37.98c-0.01,0-0.01,0-0.02-0.01c-0.06-0.03-0.12-0.05-0.19-0.07c-0.01,0-0.01-0.01-0.02-0.01
	C46.25,37.92,46.33,37.95,46.4,37.98z"/>
<path class="st7" d="M46.55,38.05c0.09,0.04,0.18,0.08,0.27,0.12c-0.01,0-0.01-0.01-0.02-0.01c-0.08-0.04-0.15-0.07-0.23-0.1
	C46.57,38.05,46.56,38.05,46.55,38.05z"/>
<path class="st7" d="M46,37.83c-0.01,0-0.01,0-0.02-0.01c-0.06-0.02-0.12-0.04-0.18-0.06c-0.01,0-0.01,0-0.02-0.01
	C45.86,37.78,45.93,37.81,46,37.83z"/>
<path class="st7" d="M47.86,38.76c0,0-0.01-0.01-0.01-0.01c-0.08-0.05-0.16-0.11-0.25-0.16c-0.01-0.01-0.02-0.01-0.03-0.02
	C47.67,38.63,47.77,38.7,47.86,38.76z"/>
<polygon class="st7" points="41.31,37.01 39.47,38.43 39.47,38.43 41.31,37.01 41.33,36.95 41.33,36.95 "/>
<path class="st7" d="M48.5,39.23C48.5,39.23,48.5,39.23,48.5,39.23c-0.08-0.07-0.17-0.14-0.25-0.2c-0.01-0.01-0.02-0.02-0.03-0.02
	c-0.1-0.07-0.2-0.14-0.3-0.21c-0.01,0-0.01-0.01-0.02-0.01C48.11,38.93,48.31,39.07,48.5,39.23z"/>
<path class="st7" d="M50.53,41.68c0.02,0.03,0.03,0.06,0.05,0.09C50.57,41.73,50.55,41.7,50.53,41.68z"/>
<path class="st7" d="M49.89,40.68c0.02,0.02,0.04,0.05,0.05,0.07C49.92,40.72,49.91,40.7,49.89,40.68z"/>
<path class="st7" d="M50.1,40.98c0.02,0.03,0.04,0.05,0.06,0.08C50.14,41.03,50.12,41,50.1,40.98z"/>
<path class="st7" d="M47.86,38.76c0.01,0.01,0.02,0.02,0.04,0.02C47.89,38.78,47.88,38.77,47.86,38.76z"/>
<path class="st7" d="M47.54,38.55c0.01,0.01,0.02,0.01,0.03,0.02C47.56,38.57,47.55,38.56,47.54,38.55z"/>
<path class="st7" d="M50.71,42.01c0.01,0.03,0.03,0.05,0.04,0.08C50.74,42.07,50.72,42.04,50.71,42.01z"/>
<path class="st7" d="M48.5,39.23c0.02,0.02,0.04,0.03,0.06,0.05C48.54,39.27,48.52,39.25,48.5,39.23z"/>
<path class="st7" d="M49.63,40.36c0.01,0.01,0.02,0.02,0.03,0.04C49.66,40.38,49.65,40.37,49.63,40.36z"/>
<path class="st7" d="M48.84,39.53c0,0-0.01-0.01-0.01-0.01c-0.01-0.01-0.02-0.02-0.04-0.03C48.81,39.5,48.83,39.51,48.84,39.53z"/>
<path class="st7" d="M51.46,44.37c0,0.01,0,0.03,0.01,0.04C51.46,44.4,51.46,44.39,51.46,44.37z"/>
<path class="st7" d="M51.38,43.94c0.01,0.03,0.01,0.07,0.02,0.1C51.39,44.01,51.38,43.98,51.38,43.94z"/>
<path class="st7" d="M51.51,44.79c0,0.03,0.01,0.06,0.01,0.09C51.52,44.85,51.51,44.82,51.51,44.79z"/>
<path class="st7" d="M51.29,43.58c0.01,0.02,0.01,0.05,0.02,0.07C51.3,43.62,51.3,43.6,51.29,43.58z"/>
<path class="st7" d="M51.54,45.18c0,0.03,0,0.07,0.01,0.1C51.55,45.25,51.54,45.22,51.54,45.18z"/>
<path class="st7" d="M50.9,42.43c0.01,0.01,0.01,0.03,0.02,0.04C50.91,42.46,50.91,42.44,50.9,42.43z"/>
<path class="st7" d="M49.43,40.12c-0.01-0.01-0.02-0.02-0.02-0.03c0,0,0-0.01-0.01-0.01c-0.01-0.01-0.03-0.03-0.04-0.04
	C49.38,40.07,49.41,40.09,49.43,40.12z"/>
<path class="st7" d="M51.04,42.77c0.01,0.03,0.02,0.06,0.03,0.1C51.06,42.83,51.05,42.8,51.04,42.77z"/>
<path class="st7" d="M46.83,38.17c0.01,0,0.02,0.01,0.03,0.01C46.85,38.18,46.84,38.17,46.83,38.17z"/>
<path class="st7" d="M49.16,39.83c-0.01-0.01-0.02-0.02-0.04-0.04c0,0-0.01-0.01-0.01-0.01C49.13,39.8,49.14,39.81,49.16,39.83z"/>
<path class="st7" d="M51.17,43.15c0.01,0.02,0.02,0.05,0.02,0.07C51.18,43.2,51.17,43.17,51.17,43.15z"/>
<path class="st7" d="M44.97,37.54c0,0,0.01,0,0.01,0c-0.08-0.02-0.17-0.03-0.25-0.05c0.01,0,0.01,0,0.02,0
	C44.82,37.51,44.9,37.53,44.97,37.54z"/>
<path class="st7" d="M43.69,37.37c-0.01,0-0.01,0-0.02,0C43.68,37.37,43.68,37.37,43.69,37.37C43.69,37.37,43.69,37.37,43.69,37.37z
	"/>
<path class="st7" d="M45.38,37.64c0,0,0.01,0,0.01,0c-0.08-0.02-0.16-0.04-0.24-0.06c0.01,0,0.01,0,0.02,0
	C45.25,37.61,45.31,37.62,45.38,37.64z"/>
<path class="st7" d="M44.12,37.41C44.13,37.41,44.13,37.41,44.12,37.41c-0.09-0.01-0.19-0.02-0.29-0.02c0,0,0.01,0,0.01,0
	C43.94,37.39,44.03,37.4,44.12,37.41z"/>
<path class="st7" d="M44.55,37.46C44.55,37.46,44.56,37.46,44.55,37.46c-0.08-0.01-0.17-0.02-0.26-0.04c0,0,0.01,0,0.01,0
	C44.39,37.44,44.47,37.45,44.55,37.46z"/>
<path class="st7" d="M46.55,38.05c0.01,0,0.02,0.01,0.03,0.01c-0.07-0.03-0.13-0.06-0.2-0.08c0.01,0,0.01,0,0.02,0.01
	C46.45,38,46.5,38.02,46.55,38.05z"/>
<path class="st7" d="M46.17,37.89c0.01,0,0.01,0.01,0.02,0.01c-0.07-0.03-0.14-0.05-0.21-0.08c0.01,0,0.01,0,0.02,0.01
	C46.06,37.85,46.12,37.87,46.17,37.89z"/>
<path class="st7" d="M45.78,37.76c0.01,0,0.01,0,0.02,0.01c-0.08-0.02-0.15-0.05-0.23-0.07c0.01,0,0.01,0,0.02,0.01
	C45.66,37.72,45.72,37.74,45.78,37.76z"/>
<path class="st7" d="M46.55,38.05c-0.05-0.02-0.1-0.04-0.15-0.06C46.45,38,46.5,38.02,46.55,38.05z"/>
<path class="st7" d="M44.97,37.54c-0.07-0.02-0.15-0.03-0.22-0.04C44.82,37.51,44.9,37.53,44.97,37.54z"/>
<path class="st7" d="M44.12,37.41c-0.09-0.01-0.19-0.02-0.28-0.02C43.94,37.39,44.03,37.4,44.12,37.41z"/>
<path class="st7" d="M45.78,37.76c-0.06-0.02-0.13-0.04-0.19-0.06C45.66,37.72,45.72,37.74,45.78,37.76z"/>
<path class="st7" d="M45.38,37.64c-0.07-0.02-0.14-0.03-0.2-0.05C45.25,37.61,45.31,37.62,45.38,37.64z"/>
<path class="st7" d="M46.17,37.89c-0.06-0.02-0.11-0.04-0.17-0.06C46.06,37.85,46.12,37.87,46.17,37.89z"/>
<path class="st7" d="M44.55,37.46c-0.08-0.01-0.16-0.02-0.24-0.03C44.39,37.44,44.47,37.45,44.55,37.46z"/>
<path class="st7" d="M42.18,37.24c-0.04-0.01-0.09-0.02-0.13-0.03C42.1,37.22,42.14,37.23,42.18,37.24z"/>
<path class="st7" d="M42.42,37.29c-0.05-0.01-0.09-0.02-0.14-0.03C42.33,37.27,42.38,37.28,42.42,37.29z"/>
<path class="st7" d="M42.66,37.32c-0.05-0.01-0.1-0.01-0.14-0.02C42.57,37.31,42.62,37.32,42.66,37.32z"/>
<path class="st7" d="M41.95,37.18c-0.04-0.01-0.08-0.02-0.13-0.04C41.87,37.15,41.91,37.16,41.95,37.18z"/>
<path class="st7" d="M41.51,37.02c-0.04-0.02-0.08-0.03-0.12-0.05C41.43,36.99,41.47,37.01,41.51,37.02z"/>
<path class="st7" d="M41.73,37.1c-0.04-0.01-0.08-0.03-0.12-0.04C41.65,37.08,41.69,37.09,41.73,37.1z"/>
<path class="st7" d="M43.69,37.37c0,0-0.01,0-0.01,0c-0.14-0.01-0.28-0.01-0.42-0.01C43.4,37.36,43.54,37.37,43.69,37.37z"/>
<path class="st7" d="M42.92,37.35c-0.05,0-0.11-0.01-0.16-0.01C42.81,37.34,42.87,37.34,42.92,37.35z"/>
<path class="st7" d="M43.25,37.36c-0.08,0-0.16,0-0.24-0.01C43.08,37.36,43.16,37.36,43.25,37.36z"/>
<g class="st8">
	
		<image style="overflow:visible;" width="296" height="248" xlink:href="BB0CF688.png"  transform="matrix(0.48 0 0 0.48 -36 -33.6)">
	</image>
</g>
<path class="st9" d="M52.21,40.51c-0.15-0.72,0.2-1.45,0.86-1.79c5.83-2.94,9.68-8.05,9.68-13.85c0-7.23-5.97-13.37-14.29-15.61
	c-10.65,0.49-19.09,7.36-19.09,15.76c0,8.72,9.09,15.79,20.31,15.79c0.03,0,0.06,0,0.08,0c0.55,0,1.07,0.29,1.34,0.77
	c0.24,0.42,0.48,0.77,0.78,1.13l0.73-0.68C52.44,41.42,52.29,40.86,52.21,40.51z"/>
<path class="st9" d="M60.74,38.27c5.57-2.82,9.26-7.7,9.26-13.25c0-8.72-9.09-15.79-20.31-15.79c-1.52,0-3.01,0.13-4.44,0.38
	c9.08,1.57,15.88,7.88,15.88,15.41c0,5.55-3.68,10.43-9.26,13.25c-0.63,0.32-0.97,1.02-0.82,1.71c0.2,0.95,0.5,1.88,0.84,2.74
	c2.93,3.63,8.32,4.62,10.56,4.88c0.4,0.05,0.68-0.39,0.46-0.73c-0.83-1.29-2.37-3.97-2.99-6.89C59.78,39.29,60.11,38.59,60.74,38.27
	L60.74,38.27z"/>
<path class="st10" d="M22.25,1.2C9.61,2.83,0,11.37,0,21.66c0,4.89,2.17,9.38,5.81,12.92C6.23,35,6.4,35.62,6.24,36.19
	c-1.13,4.14-3.57,7.89-5.05,9.88c0.49,0.49,1.22,0.65,1.87,0.42c3.69-1.32,5.37-2.73,8.11-5.65c0.7-0.75,1.8-0.96,2.74-0.53
	c0.62,0.29,1.26,0.55,1.92,0.8c0.8,0.3,1.66,0.45,2.51,0.36c0.18-0.02,0.37-0.01,0.56,0.04c1.12,0.26,2.19,0.46,3.37,0.61l5.08-0.16
	c10.7-2.96,18.36-10.9,18.36-20.23c0-9.63-8.15-17.77-19.37-20.5L22.25,1.2z"/>
<g>
	<path class="st10" d="M10.39,40.06c-3,3.19-4.72,4.58-9.19,6.02c-0.19,0.26-0.37,0.5-0.53,0.7c-0.26,0.34-0.01,0.84,0.42,0.83
		c2.95-0.07,11.24-0.73,16.25-5.67c0.41-0.4,0.99-0.56,1.55-0.43c0,0,0,0,0-0.01c-2.04-0.48-3.97-1.15-5.77-1.97
		C12.19,39.1,11.09,39.31,10.39,40.06z"/>
	<path class="st10" d="M26.68,0.91c-1.51,0-2.99,0.1-4.44,0.29C34.88,2.84,44.5,11.38,44.5,21.66c0,10.28-9.62,18.81-22.24,20.46
		c1.44,0.19,2.92,0.29,4.43,0.29c14.74,0,26.68-9.29,26.68-20.75S41.42,0.91,26.68,0.91L26.68,0.91z"/>
</g>
<g>
	<g>
		<circle class="st11" cx="10.25" cy="21.54" r="2.6"/>
		<circle class="st11" cx="20.69" cy="21.54" r="2.6"/>
		<circle class="st11" cx="31.14" cy="21.54" r="2.6"/>
		<circle class="st11" cx="41.58" cy="21.54" r="2.6"/>
	</g>
</g>
</svg>
