<?xml version="1.0" encoding="utf-8"?>
<!-- Generator: Adobe Illustrator 23.0.2, SVG Export Plug-In . SVG Version: 6.00 Build 0)  -->
<svg version="1.1" id="Capa_1" xmlns="http://www.w3.org/2000/svg" xmlns:xlink="http://www.w3.org/1999/xlink" x="0px" y="0px"
	 viewBox="0 0 103 81" style="enable-background:new 0 0 103 81;" xml:space="preserve">
<style type="text/css">
	.st0{fill:#6DAC3B;}
</style>
<path class="st0" d="M98.75,48.09c1.77-0.01,3.25-1.44,3.25-3.2c0-1.01-0.41-1.7-0.89-2.18l0.29-0.3l-0.29,0.3l-9.56-9.56l0.76-0.16
	c5.14-1.07,8.59-4.31,8.61-10.56c-0.01-7.28-6.09-11.3-12.17-11.32H75.74v32.74l6.19-0.89V17.34H89c3.04,0,5.66,2.17,5.67,5.05
	c0.02,2.85-2.12,4.33-5.14,5.05c-3.07,0.8-4.45,2.95-4.47,5.27c0,1.46,0.57,3.01,1.72,4.3c1.12,1.38,1.76,1.95,1.77,1.98l8.44,8.59
	C97.48,47.88,98.07,48.09,98.75,48.09 M67.12,9.86c-2.63,0-4.14,1.87-5.3,4.32L54.43,29.9L46.2,15.85l-9.3,1.31v27.71
	c0,1.73,1.46,3.14,3.2,3.15c1.72,0,3.18-1.42,3.18-3.15v-21.3l11.3,18.92l10.97-22.33v25.11l6.38-0.9V14.7
	C71.93,12.06,69.73,9.87,67.12,9.86 M0.79,26.97c0.03,10.2,8.31,18.49,18.5,18.51c6.85,0,11.33-3.62,13.4-5.79l0.15-0.15
	c0.1-0.12,0.18-0.26,0.28-0.43c0.02-0.03,0.05-0.09,0.09-0.15l0.01-0.03l0.02-0.01l0.16,0.07l-0.14-0.11c0.22-0.4,0.35-0.8,0.42-1.2
	c0.02-0.12,0.03-0.23,0.03-0.34c0-0.07,0.01-0.14,0.01-0.19c-0.04-1.09-0.6-2.1-1.49-2.69c-0.55-0.35-1.17-0.52-1.78-0.52
	c-0.76,0-1.51,0.26-2.09,0.77l-0.02,0.02c-0.06,0.07-0.11,0.12-0.18,0.2c-0.21,0.21-0.62,0.61-0.76,0.77
	c-2.22,2.06-5.09,3.19-8.1,3.19C12.7,38.86,7.34,33.5,7.34,26.89c0-6.59,5.37-11.96,11.95-11.96c2.21,0.02,5.31,0.42,7.96,3.06
	l6.45-1.09c0,0-3.85-8.6-14.99-8.47C8.52,8.44,0.82,16.76,0.79,26.97 M33.24,38.92c0.01-0.02,0.02-0.01,0.02-0.01L33.24,38.92z"/>
<path class="st0" d="M27.19,62.93H24.8c-0.3,0-0.59,0.01-0.91,0.04c-0.34,0.03-0.64,0.13-0.93,0.27c-0.29,0.17-0.53,0.37-0.73,0.66
	c-0.18,0.28-0.29,0.68-0.29,1.17c0,0.72,0.25,1.21,0.72,1.49C23.16,66.85,23.81,67,24.6,67c0.11,0,0.29-0.01,0.48-0.02
	c0.21-0.01,0.42-0.02,0.66-0.06c0.24-0.03,0.48-0.07,0.73-0.13c0.27-0.04,0.51-0.11,0.72-0.2V62.93z M30.13,67.65
	c0,0.4-0.16,0.67-0.48,0.83c-0.36,0.16-0.76,0.3-1.17,0.42c-0.44,0.11-0.87,0.21-1.32,0.27c-0.45,0.06-0.9,0.11-1.33,0.14
	c-0.45,0.03-0.87,0.04-1.26,0.04c-1.11,0-2.01-0.11-2.74-0.33c-0.72-0.23-1.29-0.52-1.71-0.9c-0.43-0.38-0.72-0.82-0.89-1.33
	c-0.16-0.51-0.26-1.04-0.26-1.6c0-0.6,0.11-1.15,0.3-1.69c0.19-0.54,0.5-1.02,0.94-1.43c0.45-0.41,0.99-0.74,1.68-0.98
	c0.7-0.26,1.54-0.38,2.53-0.38h2.79v-0.42c0-0.31-0.03-0.61-0.09-0.87c-0.07-0.27-0.19-0.5-0.38-0.7c-0.2-0.19-0.47-0.35-0.78-0.45
	c-0.35-0.11-0.77-0.18-1.31-0.18c-0.56,0-1.18,0.05-1.85,0.16c-0.67,0.09-1.19,0.21-1.62,0.34c-0.19,0.04-0.33,0.05-0.4,0.04
	c-0.08-0.04-0.12-0.13-0.17-0.29l-0.35-1.42c-0.07-0.26,0-0.44,0.22-0.52c0.69-0.25,1.45-0.44,2.28-0.56
	c0.84-0.11,1.61-0.16,2.35-0.16c1.73,0,2.99,0.38,3.8,1.14c0.8,0.76,1.2,1.88,1.2,3.35V67.65z"/>
<path class="st0" d="M45.78,62.93h-2.39c-0.29,0-0.59,0.01-0.91,0.04c-0.32,0.03-0.63,0.13-0.92,0.27
	c-0.29,0.17-0.52,0.37-0.72,0.66c-0.18,0.28-0.28,0.68-0.28,1.17c0,0.72,0.23,1.21,0.72,1.49C41.75,66.85,42.4,67,43.19,67
	c0.12,0,0.28-0.01,0.48-0.02c0.21-0.01,0.44-0.02,0.65-0.06c0.24-0.03,0.49-0.07,0.74-0.13c0.27-0.04,0.49-0.11,0.71-0.2V62.93z
	 M48.72,67.65c0,0.4-0.16,0.67-0.47,0.83c-0.36,0.16-0.77,0.3-1.17,0.42c-0.44,0.11-0.86,0.21-1.31,0.27
	c-0.46,0.06-0.9,0.11-1.35,0.14c-0.42,0.03-0.85,0.04-1.23,0.04c-1.12,0-2.01-0.11-2.74-0.33c-0.72-0.23-1.3-0.52-1.72-0.9
	c-0.42-0.38-0.72-0.82-0.88-1.33c-0.17-0.51-0.27-1.04-0.27-1.6c0-0.6,0.11-1.15,0.31-1.69c0.19-0.54,0.49-1.02,0.92-1.43
	c0.44-0.41,0.99-0.74,1.68-0.98c0.69-0.26,1.54-0.38,2.53-0.38h2.79v-0.42c0-0.31-0.03-0.61-0.1-0.87c-0.06-0.27-0.19-0.5-0.38-0.7
	c-0.2-0.19-0.46-0.35-0.78-0.45c-0.34-0.11-0.76-0.18-1.3-0.18c-0.57,0-1.18,0.05-1.84,0.16c-0.67,0.09-1.2,0.21-1.61,0.34
	c-0.19,0.04-0.32,0.05-0.4,0.04c-0.09-0.04-0.14-0.13-0.18-0.29l-0.34-1.42c-0.08-0.26,0-0.44,0.21-0.52
	c0.72-0.25,1.47-0.44,2.3-0.56c0.83-0.11,1.61-0.16,2.34-0.16c1.73,0,3,0.38,3.8,1.14c0.82,0.76,1.21,1.88,1.21,3.35V67.65z"/>
<path class="st0" d="M69.07,58.08c-0.44,0-0.84,0.09-1.18,0.26c-0.36,0.18-0.66,0.42-0.9,0.72c-0.24,0.3-0.45,0.64-0.61,1.02
	c-0.15,0.38-0.23,0.78-0.24,1.2h5.73c0-0.45-0.05-0.86-0.13-1.25c-0.09-0.38-0.22-0.71-0.44-1c-0.21-0.29-0.48-0.53-0.84-0.7
	C70.1,58.17,69.63,58.08,69.07,58.08 M69.03,55.67c1.91,0,3.33,0.49,4.26,1.47c0.92,0.98,1.37,2.32,1.37,4.05
	c0,0.43-0.04,0.78-0.14,1.07c-0.11,0.28-0.24,0.5-0.42,0.68c-0.18,0.16-0.39,0.28-0.62,0.33c-0.26,0.07-0.51,0.11-0.8,0.11h-6.62
	c0.01,0.66,0.1,1.19,0.29,1.64c0.18,0.44,0.43,0.79,0.74,1.07c0.32,0.27,0.68,0.47,1.09,0.59c0.42,0.12,0.88,0.17,1.35,0.17
	c0.54,0,1.07-0.06,1.57-0.19c0.52-0.13,0.97-0.29,1.35-0.48c0.26-0.12,0.45-0.06,0.55,0.15l0.68,1.42c0.11,0.27,0.05,0.46-0.17,0.58
	c-0.64,0.39-1.32,0.65-2.08,0.8c-0.74,0.15-1.46,0.22-2.15,0.22c-2,0-3.55-0.54-4.59-1.62c-1.05-1.07-1.6-2.78-1.6-5.14
	c0-1.1,0.16-2.08,0.45-2.93c0.29-0.86,0.71-1.58,1.22-2.16c0.54-0.6,1.17-1.05,1.89-1.35C67.36,55.83,68.17,55.67,69.03,55.67"/>
<path class="st0" d="M96.07,62.93h-2.39c-0.29,0-0.59,0.01-0.91,0.04c-0.33,0.03-0.63,0.13-0.93,0.27
	c-0.29,0.17-0.52,0.37-0.72,0.66c-0.18,0.28-0.27,0.68-0.27,1.17c0,0.72,0.24,1.21,0.71,1.49c0.48,0.29,1.14,0.44,1.92,0.44
	c0.12,0,0.28-0.01,0.49-0.02c0.2-0.01,0.43-0.02,0.66-0.06c0.24-0.03,0.48-0.07,0.74-0.13c0.25-0.04,0.49-0.11,0.71-0.2V62.93z
	 M99,67.65c0,0.4-0.15,0.67-0.47,0.83c-0.36,0.16-0.74,0.3-1.17,0.42c-0.43,0.11-0.86,0.21-1.31,0.27c-0.45,0.06-0.9,0.11-1.34,0.14
	c-0.44,0.03-0.86,0.04-1.25,0.04c-1.09,0-2.01-0.11-2.73-0.33c-0.73-0.23-1.29-0.52-1.72-0.9c-0.41-0.38-0.71-0.82-0.88-1.33
	c-0.17-0.51-0.26-1.04-0.26-1.6c0-0.6,0.09-1.15,0.29-1.69c0.19-0.54,0.51-1.02,0.94-1.43c0.42-0.41,0.98-0.74,1.68-0.98
	c0.69-0.26,1.53-0.38,2.53-0.38h2.79v-0.42c0-0.31-0.02-0.61-0.11-0.87c-0.06-0.27-0.19-0.5-0.37-0.7c-0.2-0.19-0.46-0.35-0.79-0.45
	c-0.34-0.11-0.77-0.18-1.29-0.18c-0.56,0-1.19,0.05-1.86,0.16c-0.65,0.09-1.19,0.21-1.61,0.34c-0.19,0.04-0.31,0.05-0.4,0.04
	c-0.09-0.04-0.15-0.13-0.17-0.29l-0.35-1.42c-0.06-0.26,0-0.44,0.22-0.52c0.7-0.25,1.46-0.44,2.28-0.56
	c0.84-0.11,1.63-0.16,2.35-0.16c1.72,0,2.99,0.38,3.81,1.14c0.79,0.76,1.2,1.88,1.2,3.35V67.65z"/>
<path class="st0" d="M19.49,51.71c-0.04-0.1-0.19-0.13-0.42-0.13h-7.02c-0.82,0-1.54,0.12-2.1,0.37c-0.57,0.24-1.02,0.58-1.36,1
	c-0.36,0.41-0.6,0.89-0.74,1.43c-0.14,0.53-0.21,1.09-0.21,1.7v12.45c0,0.22,0.04,0.37,0.14,0.44c0.1,0.06,0.25,0.09,0.43,0.09H9
	c0.54-0.04,1.67-0.31,1.67-1.93v-5.75h7.48c0.22,0,0.35-0.05,0.41-0.15c0.06-0.1,0.1-0.23,0.1-0.42v-1.42c0-0.24-0.04-0.38-0.1-0.45
	c-0.06-0.08-0.19-0.13-0.41-0.13h-7.48V55.9c0-0.53,0.13-0.94,0.4-1.21c0.24-0.27,0.7-0.41,1.32-0.41h6.69
	c0.21,0,0.35-0.05,0.41-0.13c0.08-0.08,0.11-0.23,0.11-0.45v-1.55C19.6,51.96,19.56,51.8,19.49,51.71"/>
<path class="st0" d="M58.83,64.52c-0.17,0.55-0.4,1-0.7,1.36c-0.31,0.34-0.67,0.6-1.1,0.75c-0.43,0.17-0.9,0.23-1.43,0.23
	c-0.33,0-0.71-0.01-1.15-0.06c-0.43-0.04-0.83-0.12-1.25-0.26v-7.99c0.54-0.16,1.04-0.26,1.52-0.31c0.51-0.05,0.87-0.08,1.14-0.08
	c1,0,1.78,0.36,2.36,1.08c0.55,0.71,0.84,1.81,0.84,3.26C59.07,63.3,58.98,63.97,58.83,64.52 M61.72,59.7
	c-0.22-0.83-0.57-1.54-1.02-2.14c-0.46-0.6-1.04-1.07-1.76-1.4c-0.73-0.34-1.58-0.5-2.58-0.5c-0.45,0-0.96,0.03-1.53,0.11
	c-0.57,0.08-1.11,0.18-1.58,0.33l-0.03-4.83c0-0.2-0.02-0.33-0.09-0.37c-0.07-0.06-0.19-0.08-0.38-0.08h-0.78
	c-0.55,0.04-1.61,0.32-1.63,1.88v15.13c0,0.14,0.01,0.26,0.07,0.36c0.05,0.09,0.15,0.17,0.3,0.22c0.74,0.34,1.56,0.58,2.45,0.7
	c0.89,0.15,1.75,0.21,2.61,0.21c1.09,0,2.03-0.17,2.85-0.51c0.78-0.35,1.44-0.84,1.96-1.47c0.52-0.62,0.89-1.35,1.13-2.21
	c0.24-0.85,0.36-1.77,0.36-2.77C62.06,61.42,61.94,60.52,61.72,59.7"/>
<path class="st0" d="M81.07,68.48l-0.18-1.41c-0.02-0.14-0.05-0.21-0.11-0.25c-0.06-0.05-0.15-0.06-0.3-0.04
	c-0.11,0.02-0.25,0.03-0.44,0.06c-0.16,0.02-0.32,0.02-0.45,0.02c-0.34,0-0.56-0.08-0.67-0.24c-0.11-0.15-0.18-0.45-0.18-0.88V51.25
	c0-0.18-0.04-0.29-0.11-0.34c-0.08-0.06-0.2-0.08-0.38-0.08h-0.81c-0.54,0.05-1.57,0.32-1.64,1.81v13.78c0,1.08,0.22,1.84,0.65,2.27
	c0.44,0.44,1.11,0.65,2.05,0.65c0.33,0,0.7-0.03,1.12-0.06c0.42-0.05,0.81-0.13,1.14-0.27c0.17-0.09,0.26-0.15,0.3-0.22
	C81.1,68.75,81.1,68.63,81.07,68.48"/>
<path class="st0" d="M87.45,68.48l-0.17-1.41c-0.02-0.14-0.04-0.21-0.1-0.25c-0.06-0.05-0.16-0.06-0.29-0.04
	c-0.13,0.02-0.26,0.03-0.44,0.06c-0.16,0.02-0.32,0.02-0.45,0.02c-0.34,0-0.56-0.08-0.68-0.24c-0.12-0.15-0.16-0.45-0.16-0.88V51.25
	c0-0.18-0.05-0.29-0.13-0.34c-0.07-0.06-0.2-0.08-0.39-0.08h-0.79c-0.57,0.05-1.64,0.34-1.66,1.9v13.68c0,1.08,0.22,1.84,0.65,2.27
	c0.44,0.44,1.11,0.65,2.05,0.65c0.33,0,0.7-0.03,1.14-0.06c0.41-0.05,0.79-0.13,1.14-0.27c0.16-0.09,0.26-0.15,0.28-0.22
	C87.49,68.75,87.49,68.63,87.45,68.48"/>
<path class="st0" d="M37.21,68.48l-0.17-1.41c-0.02-0.14-0.05-0.21-0.11-0.25c-0.06-0.05-0.15-0.06-0.29-0.04
	c-0.11,0.02-0.27,0.03-0.44,0.06c-0.19,0.02-0.33,0.02-0.46,0.02c-0.33,0-0.55-0.08-0.66-0.24c-0.13-0.15-0.19-0.45-0.19-0.88V51.25
	c0-0.18-0.02-0.29-0.11-0.34c-0.08-0.06-0.19-0.08-0.38-0.08H33.6c-0.55,0.05-1.63,0.34-1.64,1.93v13.65c0,1.08,0.22,1.84,0.64,2.27
	c0.44,0.44,1.12,0.65,2.06,0.65c0.33,0,0.7-0.03,1.14-0.06c0.41-0.05,0.8-0.13,1.13-0.27c0.16-0.09,0.26-0.15,0.29-0.22
	C37.24,68.75,37.24,68.63,37.21,68.48"/>
</svg>
