<?xml version="1.0" encoding="utf-8"?>
<!-- Generator: Adobe Illustrator 23.0.2, SVG Export Plug-In . SVG Version: 6.00 Build 0)  -->
<svg version="1.1" id="Capa_1" xmlns="http://www.w3.org/2000/svg" xmlns:xlink="http://www.w3.org/1999/xlink" x="0px" y="0px"
	 viewBox="0 0 148 81" style="enable-background:new 0 0 148 81;" xml:space="preserve">
<style type="text/css">
	.st0{fill:#006095;}
	.st1{fill:#FFFFFF;}
	.st2{fill:#1A1918;}
</style>
<g>
	<path class="st0" d="M28.89,60.54c10.52,0.05,20.13-8.56,20.13-19.05c0-11.46-9.61-19.38-20.13-19.38h-9.06
		c-10.65,0-19.42,7.92-19.42,19.38c0,10.48,8.77,19.1,19.42,19.05H28.89"/>
	<path class="st1" d="M23.88,51.7V30.89c4.19,1.6,7.17,5.66,7.18,10.41C31.04,46.04,28.07,50.09,23.88,51.7 M8.71,41.29
		c0.01-4.75,2.98-8.8,7.17-10.41V51.7C11.69,50.09,8.72,46.04,8.71,41.29 M19.88,23.7c-9.73,0-17.62,7.88-17.62,17.59
		c0,9.71,7.89,17.59,17.62,17.59c9.74,0,17.62-7.87,17.62-17.59C37.5,31.58,29.61,23.71,19.88,23.7"/>
	<path class="st2" d="M55.2,30.38c0-1.82-0.95-1.7-1.86-1.72v-0.53c0.79,0.04,1.6,0.04,2.39,0.04c0.85,0,2-0.04,3.5-0.04
		c5.24,0,8.1,3.49,8.1,7.07c0,2-1.17,7.03-8.34,7.03c-1.03,0-1.99-0.04-2.94-0.04c-0.91,0-1.8,0.02-2.71,0.04v-0.53
		c1.21-0.12,1.8-0.16,1.86-1.54V30.38z M57.18,39.86c0,1.56,1.12,1.74,2.11,1.74c4.37,0,5.81-3.29,5.81-6.31
		c0-3.78-2.43-6.51-6.34-6.51c-0.83,0-1.21,0.06-1.58,0.08V39.86z M68.04,41.72h0.38c0.57,0,0.97,0,0.97-0.67v-5.48
		c0-0.89-0.3-1.01-1.05-1.41v-0.32c0.95-0.28,2.09-0.67,2.17-0.73c0.14-0.08,0.26-0.1,0.36-0.1c0.1,0,0.14,0.12,0.14,0.28v7.76
		c0,0.67,0.45,0.67,1.01,0.67h0.34v0.53c-0.69,0-1.4-0.04-2.13-0.04c-0.73,0-1.46,0.02-2.21,0.04V41.72z M70.2,29.9
		c-0.53,0-0.99-0.48-0.99-1.01c0-0.51,0.49-0.97,0.99-0.97c0.52,0,0.99,0.43,0.99,0.97C71.2,29.43,70.75,29.9,70.2,29.9z
		 M74.29,35.7c0-0.75-0.22-0.95-1.17-1.33v-0.38c0.87-0.28,1.7-0.55,2.67-0.97c0.06,0,0.12,0.04,0.12,0.2v1.31
		c1.16-0.83,2.15-1.52,3.51-1.52c1.72,0,2.33,1.25,2.33,2.83v5.21c0,0.67,0.44,0.67,1.01,0.67h0.36v0.53
		c-0.71,0-1.42-0.04-2.15-0.04c-0.73,0-1.46,0.02-2.19,0.04v-0.53h0.36c0.57,0,0.97,0,0.97-0.67v-5.23c0-1.15-0.71-1.72-1.86-1.72
		c-0.65,0-1.68,0.52-2.35,0.97v5.98c0,0.67,0.45,0.67,1.02,0.67h0.36v0.53c-0.71,0-1.42-0.04-2.15-0.04c-0.73,0-1.46,0.02-2.19,0.04
		v-0.53h0.37c0.57,0,0.97,0,0.97-0.67V35.7z M84.66,36.67c-0.04,0.18-0.04,0.48,0,1.17c0.12,1.92,1.36,3.49,2.98,3.49
		c1.12,0,1.99-0.61,2.73-1.35l0.28,0.28c-0.93,1.23-2.09,2.28-3.74,2.28c-3.22,0-3.87-3.11-3.87-4.41c0-3.96,2.67-5.13,4.09-5.13
		c1.64,0,3.4,1.03,3.42,3.17c0,0.12,0,0.24-0.02,0.37l-0.18,0.12H84.66z M88.25,36.02c0.51,0,0.56-0.26,0.56-0.51
		c0-1.03-0.63-1.86-1.76-1.86c-1.23,0-2.08,0.91-2.33,2.36H88.25z M91.02,41.72h0.55c0.56,0,0.97,0,0.97-0.67v-5.68
		c0-0.63-0.75-0.75-1.05-0.91v-0.3c1.48-0.63,2.29-1.15,2.47-1.15c0.12,0,0.18,0.06,0.18,0.26v1.82h0.04
		c0.5-0.79,1.36-2.08,2.59-2.08c0.51,0,1.15,0.34,1.15,1.07c0,0.55-0.38,1.03-0.95,1.03c-0.63,0-0.63-0.49-1.34-0.49
		c-0.34,0-1.48,0.47-1.48,1.68v4.75c0,0.67,0.4,0.67,0.97,0.67h1.13v0.53c-1.11-0.02-1.96-0.04-2.83-0.04
		c-0.83,0-1.68,0.02-2.41,0.04V41.72z M98.82,39.43c0.26,1.33,1.07,2.47,2.55,2.47c1.19,0,1.64-0.73,1.64-1.43
		c0-2.39-4.41-1.62-4.41-4.87c0-1.13,0.91-2.59,3.14-2.59c0.65,0,1.52,0.18,2.31,0.59l0.14,2.06h-0.47c-0.2-1.27-0.91-2-2.21-2
		c-0.81,0-1.58,0.46-1.58,1.33c0,2.37,4.7,1.64,4.7,4.81c0,1.33-1.07,2.75-3.48,2.75c-0.81,0-1.76-0.28-2.47-0.69l-0.22-2.32
		L98.82,39.43z M122.91,31.8h-0.51c-0.39-2.36-2.07-3.31-4.33-3.31c-2.33,0-5.71,1.56-5.71,6.41c0,4.08,2.92,7.01,6.04,7.01
		c2,0,3.67-1.37,4.07-3.5l0.46,0.12l-0.46,2.95c-0.85,0.53-3.14,1.07-4.48,1.07c-4.74,0-7.73-3.05-7.73-7.6
		c0-4.14,3.7-7.11,7.67-7.11c1.64,0,3.22,0.53,4.78,1.07L122.91,31.8z M123.64,41.72h0.38c0.57,0,0.97,0,0.97-0.67V29.8
		c0-1.31-0.3-1.36-1.07-1.58V27.9c0.81-0.26,1.66-0.63,2.09-0.87c0.22-0.12,0.38-0.22,0.44-0.22c0.12,0,0.16,0.12,0.16,0.28v13.96
		c0,0.67,0.44,0.67,1.01,0.67h0.34v0.53c-0.69,0-1.4-0.04-2.12-0.04c-0.73,0-1.46,0.02-2.21,0.04V41.72z M136.64,41.13
		c0,0.37,0.22,0.38,0.57,0.38c0.24,0,0.55-0.02,0.81-0.02v0.43c-0.87,0.08-2.53,0.5-2.92,0.63l-0.1-0.06v-1.64
		c-1.21,0.99-2.15,1.7-3.59,1.7c-1.09,0-2.23-0.71-2.23-2.4v-5.17c0-0.53-0.08-1.03-1.21-1.13v-0.38c0.73-0.02,2.35-0.14,2.61-0.14
		c0.22,0,0.22,0.14,0.22,0.59v5.21c0,0.61,0,2.34,1.76,2.34c0.69,0,1.6-0.53,2.45-1.23v-5.44c0-0.4-0.97-0.62-1.7-0.83V33.6
		c1.82-0.12,2.96-0.28,3.16-0.28c0.16,0,0.16,0.14,0.16,0.36V41.13z M140.67,34.46c0.81-0.69,1.9-1.46,3.02-1.46
		c2.35,0,3.76,2.04,3.76,4.24c0,2.65-1.94,5.3-4.84,5.3c-1.5,0-2.29-0.49-2.81-0.71l-0.61,0.46l-0.42-0.22
		c0.18-1.19,0.28-2.36,0.28-3.6V29.8c0-1.31-0.31-1.36-1.07-1.58V27.9c0.81-0.26,1.66-0.63,2.09-0.87c0.22-0.12,0.38-0.22,0.45-0.22
		c0.12,0,0.16,0.12,0.16,0.28V34.46z M140.67,39.96c0,0.77,0.73,2.06,2.09,2.06c2.17,0,3.08-2.12,3.08-3.92c0-2.18-1.66-4-3.24-4
		c-0.75,0-1.38,0.49-1.92,0.95V39.96z M53.31,53.99h0.16c0.4,0,0.81-0.05,0.81-0.63v-5.76c0-0.57-0.42-0.63-0.81-0.63h-0.16v-0.33
		c0.43,0,1.09,0.04,1.63,0.04c0.55,0,1.21-0.04,1.73-0.04v0.33h-0.15c-0.4,0-0.81,0.05-0.81,0.63v5.76c0,0.57,0.42,0.63,0.81,0.63
		h0.15v0.33c-0.53,0-1.19-0.04-1.74-0.04c-0.54,0-1.19,0.04-1.62,0.04V53.99z M64.24,52.16l0.02-0.02v-4.12
		c0-0.9-0.63-1.03-0.96-1.03h-0.24v-0.33c0.52,0,1.03,0.04,1.54,0.04c0.45,0,0.9-0.04,1.36-0.04v0.33H65.8
		c-0.46,0-0.98,0.09-0.98,1.4v5c0,0.38,0.01,0.77,0.07,1.11h-0.42l-5.67-6.31v4.53c0,0.96,0.19,1.29,1.04,1.29h0.19v0.33
		c-0.47,0-0.95-0.04-1.42-0.04c-0.49,0-1,0.04-1.5,0.04v-0.33h0.15c0.76,0,0.99-0.52,0.99-1.39v-4.63c0-0.61-0.51-0.99-1-0.99h-0.14
		v-0.33c0.42,0,0.85,0.04,1.27,0.04c0.33,0,0.65-0.04,0.98-0.04L64.24,52.16z M67.61,47.2c-0.83,0-0.86,0.2-1.02,1h-0.33
		c0.04-0.31,0.1-0.61,0.13-0.93c0.04-0.31,0.07-0.61,0.07-0.93h0.26c0.09,0.33,0.36,0.32,0.66,0.32h5.68c0.3,0,0.57-0.01,0.6-0.34
		l0.26,0.04c-0.04,0.3-0.09,0.59-0.12,0.89c-0.02,0.3-0.02,0.59-0.02,0.89l-0.33,0.12c-0.02-0.41-0.08-1.06-0.82-1.06h-1.81v5.85
		c0,0.85,0.39,0.94,0.91,0.94h0.21v0.33c-0.43,0-1.2-0.04-1.8-0.04c-0.66,0-1.43,0.04-1.86,0.04v-0.33h0.21
		c0.61,0,0.91-0.05,0.91-0.92V47.2H67.61z M74.28,53.99h0.15c0.4,0,0.82-0.05,0.82-0.63v-5.76c0-0.57-0.42-0.63-0.82-0.63h-0.15
		v-0.33c0.67,0,1.82,0.04,2.74,0.04c0.93,0,2.07-0.04,2.82-0.04c-0.02,0.47-0.01,1.2,0.02,1.68l-0.33,0.09
		c-0.05-0.71-0.18-1.29-1.34-1.29h-1.53v2.88h1.31c0.66,0,0.81-0.37,0.87-0.97h0.33c-0.02,0.43-0.03,0.86-0.03,1.29
		c0,0.42,0.01,0.84,0.03,1.25l-0.33,0.07c-0.07-0.66-0.1-1.09-0.86-1.09h-1.32v2.56c0,0.71,0.64,0.71,1.34,0.71
		c1.32,0,1.91-0.09,2.24-1.34l0.31,0.08c-0.14,0.58-0.28,1.17-0.37,1.75c-0.71,0-1.97-0.04-2.96-0.04c-0.99,0-2.3,0.04-2.93,0.04
		V53.99z M82.03,47.82c0-0.8-0.44-0.84-0.78-0.84h-0.2v-0.33c0.35,0,1.04,0.04,1.71,0.04c0.66,0,1.19-0.04,1.77-0.04
		c1.39,0,2.62,0.37,2.62,1.94c0,0.99-0.66,1.59-1.53,1.94l1.88,2.81c0.31,0.47,0.53,0.6,1.07,0.66v0.33c-0.36,0-0.72-0.04-1.08-0.04
		c-0.34,0-0.7,0.04-1.04,0.04c-0.85-1.11-1.58-2.3-2.29-3.56h-0.73v2.35c0,0.85,0.4,0.88,0.9,0.88h0.2v0.33
		c-0.63,0-1.27-0.04-1.89-0.04c-0.53,0-1.05,0.04-1.6,0.04v-0.33h0.2c0.41,0,0.78-0.18,0.78-0.59V47.82z M83.45,50.37h0.54
		c1.1,0,1.7-0.42,1.7-1.72c0-0.98-0.63-1.6-1.61-1.6c-0.33,0-0.47,0.03-0.63,0.04V50.37z M96.06,52.16l0.02-0.02v-4.12
		c0-0.9-0.63-1.03-0.96-1.03h-0.24v-0.33c0.52,0,1.02,0.04,1.54,0.04c0.45,0,0.9-0.04,1.36-0.04v0.33h-0.17
		c-0.46,0-0.98,0.09-0.98,1.4v5c0,0.38,0.01,0.77,0.06,1.11h-0.42l-5.67-6.31v4.53c0,0.96,0.19,1.29,1.04,1.29h0.19v0.33
		c-0.47,0-0.95-0.04-1.42-0.04c-0.5,0-1,0.04-1.5,0.04v-0.33h0.15c0.76,0,0.99-0.52,0.99-1.39v-4.63c0-0.61-0.51-0.99-1-0.99h-0.14
		v-0.33c0.42,0,0.85,0.04,1.27,0.04c0.33,0,0.65-0.04,0.98-0.04L96.06,52.16z M99.55,52.75c-0.11,0.37-0.24,0.66-0.24,0.86
		c0,0.33,0.46,0.38,0.83,0.38h0.12v0.33c-0.44-0.02-0.89-0.04-1.34-0.04c-0.4,0-0.79,0.02-1.19,0.04v-0.33h0.07
		c0.43,0,0.79-0.25,0.96-0.72l1.76-5.05c0.14-0.41,0.34-0.96,0.41-1.37c0.35-0.12,0.79-0.34,1-0.47c0.03-0.01,0.05-0.02,0.09-0.02
		c0.03,0,0.05,0,0.08,0.03c0.03,0.09,0.06,0.19,0.1,0.27l2.03,5.75c0.13,0.38,0.26,0.79,0.41,1.12c0.13,0.31,0.36,0.44,0.73,0.44
		h0.07v0.33c-0.5-0.02-0.99-0.04-1.52-0.04c-0.54,0-1.09,0.02-1.65,0.04v-0.33h0.12c0.25,0,0.68-0.04,0.68-0.32
		c0-0.14-0.1-0.44-0.22-0.79l-0.43-1.28h-2.5L99.55,52.75z M101.16,47.88h-0.02l-1.02,3.11h2.06L101.16,47.88z M105.91,47.2
		c-0.83,0-0.86,0.2-1.03,1h-0.33c0.04-0.31,0.1-0.61,0.13-0.93c0.04-0.31,0.06-0.61,0.06-0.93h0.27c0.09,0.33,0.36,0.32,0.66,0.32
		h5.69c0.3,0,0.57-0.01,0.59-0.34l0.26,0.04c-0.04,0.3-0.09,0.59-0.12,0.89c-0.02,0.3-0.02,0.59-0.02,0.89l-0.33,0.12
		c-0.02-0.41-0.08-1.06-0.81-1.06h-1.81v5.85c0,0.85,0.39,0.94,0.91,0.94h0.21v0.33c-0.43,0-1.2-0.04-1.8-0.04
		c-0.66,0-1.43,0.04-1.86,0.04v-0.33h0.21c0.61,0,0.92-0.05,0.92-0.92V47.2H105.91z M112.63,53.99h0.15c0.4,0,0.81-0.05,0.81-0.63
		v-5.76c0-0.57-0.42-0.63-0.81-0.63h-0.15v-0.33c0.43,0,1.09,0.04,1.63,0.04c0.55,0,1.21-0.04,1.73-0.04v0.33h-0.15
		c-0.4,0-0.82,0.05-0.82,0.63v5.76c0,0.57,0.42,0.63,0.82,0.63h0.15v0.33c-0.53,0-1.19-0.04-1.74-0.04c-0.54,0-1.19,0.04-1.62,0.04
		V53.99z M120.38,46.49c2.35,0,4.22,1.45,4.22,3.79c0,2.53-1.82,4.21-4.16,4.21c-2.34,0-4.12-1.58-4.12-3.95
		C116.32,48.26,118.09,46.49,120.38,46.49z M120.55,54.01c2.14,0,2.51-1.88,2.51-3.48c0-1.61-0.87-3.55-2.7-3.55
		c-1.93,0-2.5,1.72-2.5,3.19C117.86,52.13,118.76,54.01,120.55,54.01z M132.03,52.16l0.02-0.02v-4.12c0-0.9-0.63-1.03-0.96-1.03
		h-0.24v-0.33c0.52,0,1.02,0.04,1.54,0.04c0.45,0,0.91-0.04,1.36-0.04v0.33h-0.17c-0.46,0-0.98,0.09-0.98,1.4v5
		c0,0.38,0.01,0.77,0.07,1.11h-0.42l-5.68-6.31v4.53c0,0.96,0.19,1.29,1.04,1.29h0.19v0.33c-0.47,0-0.95-0.04-1.42-0.04
		c-0.5,0-1,0.04-1.5,0.04v-0.33h0.16c0.76,0,0.99-0.52,0.99-1.39v-4.63c0-0.61-0.5-0.99-1-0.99h-0.14v-0.33
		c0.42,0,0.85,0.04,1.27,0.04c0.33,0,0.65-0.04,0.98-0.04L132.03,52.16z M135.52,52.75c-0.11,0.37-0.24,0.66-0.24,0.86
		c0,0.33,0.46,0.38,0.83,0.38h0.12v0.33c-0.44-0.02-0.89-0.04-1.33-0.04c-0.4,0-0.79,0.02-1.19,0.04v-0.33h0.06
		c0.43,0,0.8-0.25,0.96-0.72l1.77-5.05c0.14-0.41,0.34-0.96,0.41-1.37c0.35-0.12,0.79-0.34,1-0.47c0.03-0.01,0.05-0.02,0.09-0.02
		c0.03,0,0.05,0,0.08,0.03c0.03,0.09,0.07,0.19,0.1,0.27l2.03,5.75c0.13,0.38,0.26,0.79,0.41,1.12c0.13,0.31,0.36,0.44,0.73,0.44
		h0.07v0.33c-0.5-0.02-0.99-0.04-1.52-0.04c-0.54,0-1.09,0.02-1.65,0.04v-0.33h0.12c0.25,0,0.68-0.04,0.68-0.32
		c0-0.14-0.1-0.44-0.22-0.79l-0.43-1.28h-2.5L135.52,52.75z M137.13,47.88h-0.02l-1.03,3.11h2.06L137.13,47.88z M144.17,53.25
		c0,0.44,0.31,0.57,0.66,0.62c0.45,0.03,0.95,0.03,1.46-0.02c0.46-0.06,0.86-0.32,1.06-0.59c0.18-0.24,0.27-0.55,0.34-0.79H148
		c-0.12,0.63-0.28,1.24-0.41,1.87c-0.97,0-1.94-0.04-2.91-0.04c-0.97,0-1.94,0.04-2.91,0.04v-0.33h0.15c0.4,0,0.83-0.05,0.83-0.74
		v-5.65c0-0.57-0.43-0.63-0.83-0.63h-0.15v-0.33c0.58,0,1.16,0.04,1.74,0.04c0.56,0,1.11-0.04,1.68-0.04v0.33h-0.28
		c-0.42,0-0.75,0.01-0.75,0.59V53.25z"/>
</g>
</svg>
