<?xml version="1.0" encoding="utf-8"?>
<!-- Generator: Adobe Illustrator 23.0.2, SVG Export Plug-In . SVG Version: 6.00 Build 0)  -->
<svg version="1.1" id="Capa_1" xmlns="http://www.w3.org/2000/svg" xmlns:xlink="http://www.w3.org/1999/xlink" x="0px" y="0px"
	 viewBox="0 0 32 32" style="enable-background:new 0 0 32 32;" xml:space="preserve">
<style type="text/css">
	.st0{fill:#FFAF1E;}
</style>
<path class="st0" d="M31.9,16c0-8.78-7.12-15.9-15.9-15.9S0.1,7.22,0.1,16S7.22,31.9,16,31.9c0.09,0,0.19,0,0.28-0.01V19.52h-3.42
	v-3.98h3.42v-2.93c0-3.4,2.07-5.25,5.11-5.25c1.45,0,2.7,0.11,3.06,0.16v3.55h-2.09c-1.65,0-1.97,0.78-1.97,1.93v2.53h3.94
	l-0.52,3.98h-3.43v11.77C27.04,29.38,31.9,23.26,31.9,16z"/>
</svg>
