<?xml version="1.0" encoding="utf-8"?>
<!-- Generator: Adobe Illustrator 23.0.2, SVG Export Plug-In . SVG Version: 6.00 Build 0)  -->
<svg version="1.1" id="Capa_1" xmlns="http://www.w3.org/2000/svg" xmlns:xlink="http://www.w3.org/1999/xlink" x="0px" y="0px"
	 viewBox="0 0 42 42" style="enable-background:new 0 0 42 42;" xml:space="preserve">
<style type="text/css">
	.st0{fill:#102EBA;}
	.st1{fill:#FFFFFF;}
	.st2{fill:#3A556A;}
	.st3{fill:#C6C6C6;}
	.st4{fill:#FFAF1E;}
</style>
<circle class="st0" cx="21" cy="21" r="21"/>
<path class="st1" d="M11.08,15.54c-0.24-0.14-0.51-0.24-0.78-0.28c-0.11-0.02-0.21-0.06-0.3-0.11l-0.07,0.02
	c-0.09,0.03-0.18,0.07-0.27,0.12c-0.07,0.04-0.14,0.09-0.21,0.14c-0.85,0.71-1.48,1.65-1.83,2.7c-0.14,0.44-0.1,0.91,0.12,1.31
	c1.66,3.01,3.68,5.79,6.03,8.29c2.43,2.58,5.19,4.83,8.2,6.69c0.39,0.24,0.85,0.3,1.29,0.19c1.07-0.29,2.04-0.88,2.79-1.69
	c0.12-0.13,0.22-0.28,0.28-0.45l0.12-0.33c-0.13-0.32-0.28-0.63-0.46-0.93c-0.33-0.47-0.74-0.89-1.2-1.23
	c-1.05-0.74-2.27-1.21-3.55-1.34c-0.09-0.01-0.18-0.04-0.26-0.08c-0.11,0.1-0.22,0.19-0.33,0.28c-0.25,0.21-0.53,0.4-0.83,0.54
	c-0.62,0.26-1.31-0.41-1.31-0.41l-2.65-2.73l-2.87-3.09c0,0-0.63-0.72-0.33-1.33c0.17-0.31,0.39-0.6,0.64-0.85
	c0.12-0.13,0.24-0.27,0.36-0.4l-0.03-0.06c-0.38-1.05-0.77-2.77-1.56-3.96L11.08,15.54z"/>
<path class="st2" d="M26.36,32.46l0.38-0.98c0.13-0.34,0.04-0.72-0.23-0.96c-1.75-1.64-4.1-2.95-4.62-2.63
	c-0.33,0.22-0.78,0.63-1.22,0.98c2.05,0.94,3.96,2.15,5.68,3.61L26.36,32.46z"/>
<path class="st2" d="M13.71,18.17l-3.21-3.2l-0.58,0.19c-0.09,0.03-0.18,0.07-0.27,0.12c1.48,1.72,2.71,3.63,3.66,5.68
	c0.36-0.4,0.76-0.8,0.98-1.11c0.17-0.25-0.03-0.95-0.46-1.81L13.71,18.17z"/>
<path class="st3" d="M8.7,15.33l1.37-1.37c0.17-0.17,0.45-0.17,0.63,0l4.74,4.74c0.17,0.17,0.17,0.45,0,0.63l-1.37,1.37
	c-0.17,0.17-0.45,0.17-0.63,0L8.7,15.96C8.52,15.79,8.52,15.51,8.7,15.33z"/>
<path class="st3" d="M23.08,26.36l4.74,4.74c0.17,0.17,0.17,0.45,0,0.63c0,0,0,0,0,0l-1.36,1.37c-0.17,0.17-0.45,0.17-0.63,0
	l-4.74-4.74c-0.17-0.17-0.17-0.45,0-0.63c0,0,0,0,0,0l1.36-1.37C22.63,26.19,22.91,26.19,23.08,26.36L23.08,26.36z"/>
<path class="st4" d="M26.8,7.33c-4.22,0-7.65,3.42-7.65,7.64c0,1.52,0.45,3.01,1.31,4.28l-2.58,5.1l4.53-3.12
	c3.45,2.43,8.22,1.6,10.65-1.86s1.6-8.22-1.86-10.65C29.92,7.82,28.38,7.33,26.8,7.33L26.8,7.33z"/>
<g>
	<path d="M24.61,16.02v0.4h-2.26c0-0.1,0.01-0.2,0.05-0.29c0.06-0.16,0.14-0.32,0.25-0.46c0.17-0.19,0.35-0.36,0.55-0.52
		c0.28-0.21,0.53-0.45,0.76-0.72c0.12-0.14,0.19-0.32,0.2-0.51c0-0.16-0.06-0.31-0.18-0.42c-0.13-0.12-0.29-0.18-0.47-0.17
		c-0.18-0.01-0.36,0.06-0.49,0.18c-0.13,0.14-0.19,0.32-0.18,0.51l-0.43-0.04c0.01-0.28,0.13-0.54,0.33-0.74
		c0.22-0.18,0.5-0.27,0.78-0.25c0.29-0.02,0.57,0.08,0.78,0.27c0.19,0.17,0.29,0.42,0.29,0.68c0,0.14-0.03,0.28-0.09,0.4
		c-0.06,0.15-0.15,0.3-0.27,0.42c-0.21,0.22-0.42,0.42-0.66,0.6c-0.25,0.21-0.41,0.36-0.49,0.43c-0.07,0.07-0.13,0.14-0.18,0.23
		L24.61,16.02z"/>
	<path d="M26.39,16.42V15.6h-1.49v-0.38L26.47,13h0.33v2.22h0.46v0.38h-0.45v0.82H26.39z M26.39,15.22v-1.55l-1.07,1.55H26.39z"/>
	<path d="M27.51,16.48l0.99-3.54h0.34l-0.99,3.54H27.51z"/>
	<path d="M29.07,13.45v-0.41h2.22v0.33c-0.25,0.28-0.47,0.59-0.66,0.93c-0.21,0.38-0.37,0.77-0.5,1.19
		c-0.09,0.31-0.14,0.62-0.16,0.94h-0.44c0.01-0.33,0.07-0.66,0.16-0.98c0.1-0.38,0.25-0.75,0.44-1.11c0.17-0.32,0.38-0.61,0.62-0.88
		H29.07z"/>
</g>
</svg>
