<?xml version="1.0" encoding="utf-8"?>
<!-- Generator: Adobe Illustrator 23.0.2, SVG Export Plug-In . SVG Version: 6.00 Build 0)  -->
<svg version="1.1" id="Capa_1" xmlns="http://www.w3.org/2000/svg" xmlns:xlink="http://www.w3.org/1999/xlink" x="0px" y="0px"
	 viewBox="0 0 29 32" style="enable-background:new 0 0 29 32;" xml:space="preserve">
<style type="text/css">
	.st0{fill:#D1865A;}
	.st1{fill:#3A3A3A;}
</style>
<ellipse class="st0" cx="14.5" cy="14.53" rx="14.5" ry="14.53"/>
<path class="st1" d="M25.53,18.95c0.05-0.07,0.09-0.15,0.16-0.25c0.01-0.01,0.02-0.03,0.02-0.04c0.12-0.23,0.31-0.56,0.32-0.57
	c0.74-1.45,1.12-3.01,1.12-4.65c0-0.18,0-0.35-0.01-0.52c0-0.08-0.01-0.15-0.01-0.22l-0.01-0.15c0-0.05-0.01-0.09-0.01-0.14
	c-0.01-0.06-0.01-0.12-0.02-0.18l-0.01-0.13c-0.01-0.06-0.01-0.13-0.02-0.19c-0.01-0.05-0.01-0.1-0.02-0.15l-0.02-0.13
	c-0.01-0.07-0.02-0.14-0.03-0.21c-0.01-0.06-0.02-0.11-0.03-0.17l-0.03-0.15c-0.01-0.05-0.02-0.11-0.03-0.16
	c-0.02-0.08-0.04-0.15-0.06-0.22l-0.03-0.13c-0.01-0.04-0.02-0.08-0.03-0.12c-0.02-0.08-0.05-0.16-0.07-0.24l-0.03-0.1
	c-0.01-0.04-0.02-0.08-0.04-0.11c-0.03-0.08-0.05-0.16-0.08-0.23l-0.04-0.1c-0.01-0.04-0.03-0.07-0.04-0.11
	c-0.03-0.09-0.07-0.17-0.11-0.26l-0.04-0.09c-0.01-0.03-0.02-0.05-0.03-0.08c-0.05-0.11-0.11-0.22-0.16-0.34l-0.04-0.08
	c-0.06-0.11-0.12-0.22-0.19-0.35l-0.03-0.05c-0.07-0.11-0.14-0.23-0.22-0.35c0,0-0.02-0.03-0.02-0.03
	c-0.07-0.11-0.15-0.22-0.23-0.34c0,0-0.02-0.03-0.02-0.03c-0.08-0.11-0.17-0.23-0.25-0.33c0-0.01-0.02-0.02-0.02-0.03
	C25,7.1,24.91,6.99,24.8,6.88c-0.1-0.11-0.2-0.22-0.31-0.32c0,0,0,0,0,0c-1.74-1.74-4.14-2.66-6.94-2.66
	c-5.65,0-9.59,3.92-9.59,9.54c0,1.74,0.45,3.45,1.29,4.96l0.14,0.26c0.01,0.01,0.01,0.02,0.02,0.03l0.24,0.37
	c0.03,0.04,0.05,0.08,0.07,0.1l6.14,10.26h0l1.42,2.38C17.36,31.92,17.5,32,17.65,32h0c0.15,0,0.29-0.08,0.37-0.21l1.39-2.37h0
	l5.99-10.24C25.44,19.09,25.48,19.02,25.53,18.95z M22.93,13.54c-0.01,0.05-0.01,0.1-0.02,0.15l-0.02,0.13
	c-0.01,0.09-0.02,0.17-0.04,0.26c-0.01,0.06-0.03,0.13-0.05,0.19l-0.03,0.14c-0.02,0.06-0.03,0.12-0.05,0.18
	c-0.03,0.08-0.05,0.16-0.09,0.24l-0.05,0.13c-0.02,0.04-0.03,0.09-0.05,0.13c-0.04,0.1-0.09,0.19-0.14,0.29l-0.04,0.09
	c-0.02,0.03-0.03,0.06-0.05,0.1c-0.06,0.12-0.14,0.23-0.21,0.35c-0.03,0.05-0.04,0.07-0.06,0.09c-0.08,0.12-0.17,0.24-0.27,0.36
	c-0.02,0.02-0.03,0.04-0.04,0.05c-0.1,0.12-0.21,0.24-0.33,0.37c-1.03,1.03-2.38,1.6-3.81,1.61c-0.02,0-0.04,0-0.05,0
	c-2.99,0-5.42-2.42-5.42-5.39c0-2.97,2.43-5.39,5.42-5.39l0.06,0c1.44,0.01,2.78,0.58,3.8,1.6l0.02,0.02
	c0.12,0.12,0.23,0.24,0.32,0.36c0.01,0.02,0.02,0.03,0.04,0.05c0.1,0.12,0.19,0.24,0.27,0.37c0.01,0.02,0.03,0.04,0.04,0.07
	c0.09,0.14,0.16,0.25,0.23,0.37c0.02,0.03,0.03,0.07,0.05,0.1l0.02,0.04c0.06,0.12,0.11,0.22,0.16,0.33
	c0.02,0.04,0.04,0.09,0.05,0.13l0.04,0.12c0.03,0.08,0.06,0.16,0.09,0.24c0.02,0.06,0.03,0.12,0.05,0.18l0.03,0.13
	c0.02,0.07,0.04,0.13,0.05,0.2c0.02,0.08,0.03,0.17,0.04,0.26l0.02,0.13c0.01,0.05,0.02,0.1,0.02,0.15
	c0.02,0.18,0.03,0.37,0.03,0.55C22.96,13.18,22.95,13.36,22.93,13.54z"/>
</svg>
