<?xml version="1.0" encoding="utf-8"?>
<!-- Generator: Adobe Illustrator 23.0.2, SVG Export Plug-In . SVG Version: 6.00 Build 0)  -->
<svg version="1.1" id="Capa_1" xmlns="http://www.w3.org/2000/svg" xmlns:xlink="http://www.w3.org/1999/xlink" x="0px" y="0px"
	 viewBox="0 0 70 50" style="enable-background:new 0 0 70 50;" xml:space="preserve">
<style type="text/css">
	.st0{fill:#FFFFFF;stroke:#102EBA;stroke-width:0.75;stroke-miterlimit:10;}
</style>
<g id="surface1">
	<path class="st0" d="M57.4,21.92L57.4,21.92c-0.07-0.68-0.43-1.31-0.97-1.73l-2.49-1.94l0.94-3.09c0.2-0.66,0.12-1.38-0.23-1.98
		c-0.35-0.6-0.93-1.03-1.6-1.19l-3.14-0.73l-0.4-3.2c-0.09-0.68-0.46-1.31-1.01-1.71c-0.56-0.41-1.27-0.56-1.94-0.43l-3.17,0.61
		l-1.67-2.76c-0.66-1.1-2.06-1.51-3.24-0.97c-0.08,0.04-0.16,0.08-0.23,0.13L35.5,4.84L32.85,3C32.29,2.6,31.58,2.46,30.9,2.6
		c-0.67,0.14-1.27,0.56-1.62,1.16l-1.67,2.76l-3.17-0.61c-0.68-0.13-1.39,0.03-1.94,0.43c-0.56,0.41-0.93,1.03-1.01,1.72l-0.4,3.2
		l-3.32,0.77l-0.16,0.05l-0.06,0.03c-1.21,0.53-1.81,1.81-1.43,3.05l0.94,3.09l-2.6,2.02L14.3,20.4l-0.04,0.05
		c-0.87,0.95-0.91,2.4-0.08,3.36l2.04,2.44l-1.65,3l-0.07,0.15l-0.02,0.06c-0.41,1.23,0.15,2.57,1.3,3.11l2.92,1.37l-0.27,3.21
		c-0.06,0.69,0.17,1.38,0.63,1.89c0.46,0.51,1.12,0.81,1.81,0.83l3.22,0.06l1.06,3.04c0.23,0.65,0.72,1.19,1.35,1.47
		c0.63,0.28,1.36,0.29,1.99,0.02l2.97-1.25l2.33,2.49l0.12,0.11l0.05,0.04c0.46,0.34,1,0.51,1.53,0.51c0.67,0,1.34-0.27,1.83-0.79
		l2.2-2.35l2.97,1.25c0.64,0.27,1.36,0.26,1.99-0.02c0.63-0.28,1.12-0.82,1.35-1.47l1.06-3.04l3.41-0.07l0.16-0.02l0.06-0.01
		c1.27-0.26,2.15-1.41,2.04-2.68l-0.27-3.21l2.92-1.37c0.62-0.29,1.1-0.84,1.32-1.49c0.21-0.66,0.14-1.38-0.19-1.98l-1.56-2.83
		l2.04-2.44C57.26,23.29,57.47,22.6,57.4,21.92z M52.35,25.14c-0.4,0.48-0.47,1.16-0.17,1.71l1.88,3.41l-3.52,1.65
		c-0.57,0.27-0.92,0.87-0.87,1.5L50,37.29l-3.89,0.08c-0.63,0.01-1.19,0.42-1.4,1.02l-1.28,3.67l-3.58-1.51
		c-0.58-0.24-1.26-0.1-1.69,0.36l-2.66,2.84l-2.66-2.84c-0.29-0.31-0.7-0.48-1.11-0.48c-0.2,0-0.4,0.04-0.58,0.12l-3.58,1.51
		l-1.28-3.67c-0.21-0.6-0.77-1.01-1.4-1.02L21,37.29l0.33-3.88c0.05-0.63-0.29-1.23-0.87-1.5l-3.52-1.65l1.88-3.41
		c0.3-0.55,0.23-1.23-0.17-1.71l-2.47-2.95l3.03-2.35c0.5-0.38,0.71-1.04,0.52-1.64l-1.13-3.72l3.79-0.88
		c0.61-0.14,1.08-0.66,1.16-1.29l0.48-3.86l3.82,0.73c0.62,0.12,1.25-0.16,1.58-0.7l2.01-3.33l3.19,2.22c0.52,0.36,1.21,0.36,1.73,0
		l3.19-2.22l2.01,3.33c0.33,0.54,0.96,0.82,1.58,0.7l3.82-0.73l0.48,3.86c0.08,0.63,0.54,1.14,1.16,1.29l3.79,0.88l-1.13,3.72
		c-0.18,0.6,0.03,1.26,0.53,1.64l3.03,2.36L52.35,25.14z"/>
	<path class="st0" d="M35.63,13.53c-6.02,0-10.91,4.9-10.91,10.91c0,6.02,4.9,10.91,10.91,10.91c6.02,0,10.92-4.9,10.92-10.91
		C46.55,18.43,41.65,13.53,35.63,13.53z M35.63,32.79c-4.6,0-8.34-3.74-8.34-8.34c0-4.6,3.74-8.34,8.34-8.34
		c4.6,0,8.34,3.74,8.34,8.34C43.98,29.05,40.24,32.79,35.63,32.79z"/>
	<path class="st0" d="M38.77,21.05l-5.07,5.07l-1.38-1.38c-0.5-0.5-1.32-0.5-1.82,0c-0.5,0.5-0.5,1.32,0,1.82l2.28,2.28
		c0.25,0.25,0.58,0.38,0.91,0.38c0.33,0,0.66-0.13,0.91-0.38l5.98-5.98c0.5-0.5,0.5-1.32,0-1.82
		C40.09,20.55,39.27,20.55,38.77,21.05z"/>
</g>
</svg>
