<?xml version="1.0" encoding="utf-8"?>
<!-- Generator: Adobe Illustrator 23.0.2, SVG Export Plug-In . SVG Version: 6.00 Build 0)  -->
<svg version="1.1" id="Capa_1" xmlns="http://www.w3.org/2000/svg" xmlns:xlink="http://www.w3.org/1999/xlink" x="0px" y="0px"
	 viewBox="0 0 45 45" style="enable-background:new 0 0 45 45;" xml:space="preserve">
<style type="text/css">
	.st0{fill:#102EBA;}
	.st1{fill:#FFAF1E;}
	.st2{fill:#FFFFFF;}
</style>
<path class="st0" d="M22.5,44.92c-12.38,0-22.42-10.04-22.42-22.42S10.12,0.08,22.5,0.08S44.92,10.12,44.92,22.5
	S34.88,44.92,22.5,44.92"/>
<path class="st1" d="M22.37,23.44c1.36,0,2.47-1.11,2.47-2.47c0-1.36-1.11-2.47-2.47-2.47c-1.36,0-2.47,1.11-2.47,2.47
	S21.01,23.44,22.37,23.44z M22.37,19.21c0.97,0,1.76,0.79,1.76,1.76s-0.79,1.76-1.76,1.76c-0.97,0-1.76-0.79-1.76-1.76
	S21.4,19.21,22.37,19.21z"/>
<path class="st2" d="M22.31,33.59l5.41-7.82c2.03-2.71,1.74-7.15-0.63-9.52c-1.28-1.28-2.98-1.98-4.78-1.98
	c-1.81,0-3.51,0.7-4.78,1.98c-2.36,2.36-2.66,6.81-0.64,9.51L22.31,33.59z M18.02,16.75c1.14-1.14,2.67-1.77,4.28-1.77
	s3.14,0.63,4.28,1.77c2.13,2.13,2.4,6.15,0.55,8.61l-4.84,6.99l-4.85-7C15.63,22.9,15.89,18.89,18.02,16.75z"/>
</svg>
