<?xml version="1.0" encoding="utf-8"?>
<!-- Generator: Adobe Illustrator 24.0.1, SVG Export Plug-In . SVG Version: 6.00 Build 0)  -->
<svg version="1.1" id="Capa_1" xmlns="http://www.w3.org/2000/svg" xmlns:xlink="http://www.w3.org/1999/xlink" x="0px" y="0px"
	 viewBox="0 0 29 32" style="enable-background:new 0 0 29 32;" xml:space="preserve">
<style type="text/css">
	.st0{fill:#F27E00;}
	.st1{fill:#3A3A3A;}
</style>
<ellipse class="st0" cx="14.5" cy="14.5" rx="14.5" ry="14.5"/>
<path class="st1" d="M25.5,19c0-0.1,0.1-0.1,0.2-0.3c0,0,0,0,0,0c0.1-0.2,0.3-0.6,0.3-0.6c0.7-1.5,1.1-3,1.1-4.6c0-0.2,0-0.4,0-0.5
	c0-0.1,0-0.1,0-0.2l0-0.1c0-0.1,0-0.1,0-0.1c0-0.1,0-0.1,0-0.2l0-0.1c0-0.1,0-0.1,0-0.2c0-0.1,0-0.1,0-0.1l0-0.1c0-0.1,0-0.1,0-0.2
	c0-0.1,0-0.1,0-0.2l0-0.1c0-0.1,0-0.1,0-0.2c0-0.1,0-0.1-0.1-0.2l0-0.1c0,0,0-0.1,0-0.1c0-0.1,0-0.2-0.1-0.2l0-0.1c0,0,0-0.1,0-0.1
	c0-0.1,0-0.2-0.1-0.2l0-0.1c0,0,0-0.1,0-0.1c0-0.1-0.1-0.2-0.1-0.3l0-0.1c0,0,0-0.1,0-0.1c0-0.1-0.1-0.2-0.2-0.3l0-0.1
	C26,8.6,26,8.5,25.9,8.4l0-0.1c-0.1-0.1-0.1-0.2-0.2-0.3l0,0c-0.1-0.1-0.1-0.2-0.2-0.3l0,0c-0.1-0.1-0.2-0.2-0.3-0.3c0,0,0,0,0,0
	C25,7.1,24.9,7,24.8,6.9c-0.1-0.1-0.2-0.2-0.3-0.3l0,0c-1.7-1.7-4.1-2.7-6.9-2.7C11.9,3.9,8,7.8,8,13.4c0,1.7,0.4,3.4,1.3,5l0.1,0.3
	c0,0,0,0,0,0l0.2,0.4c0,0,0.1,0.1,0.1,0.1l6.1,10.3l0,0l1.4,2.4c0.1,0.1,0.2,0.2,0.4,0.2l0,0c0.1,0,0.3-0.1,0.4-0.2l1.4-2.4l0,0
	l6-10.2C25.4,19.1,25.5,19,25.5,19z M22.9,13.5c0,0.1,0,0.1,0,0.1l0,0.1c0,0.1,0,0.2,0,0.3c0,0.1,0,0.1,0,0.2l0,0.1
	c0,0.1,0,0.1,0,0.2c0,0.1,0,0.2-0.1,0.2l0,0.1c0,0,0,0.1,0,0.1c0,0.1-0.1,0.2-0.1,0.3l0,0.1c0,0,0,0.1,0,0.1
	c-0.1,0.1-0.1,0.2-0.2,0.4c0,0.1,0,0.1-0.1,0.1c-0.1,0.1-0.2,0.2-0.3,0.4c0,0,0,0,0,0c-0.1,0.1-0.2,0.2-0.3,0.4
	c-1,1-2.4,1.6-3.8,1.6c0,0,0,0,0,0c-3,0-5.4-2.4-5.4-5.4s2.4-5.4,5.4-5.4h0.1c1.4,0,2.8,0.6,3.8,1.6l0,0c0.1,0.1,0.2,0.2,0.3,0.4
	c0,0,0,0,0,0.1C21.9,9.8,22,9.9,22,10c0,0,0,0,0,0.1c0.1,0.1,0.2,0.3,0.2,0.4c0,0,0,0.1,0,0.1l0,0c0.1,0.1,0.1,0.2,0.2,0.3
	c0,0,0,0.1,0,0.1l0,0.1c0,0.1,0.1,0.2,0.1,0.2c0,0.1,0,0.1,0,0.2l0,0.1c0,0.1,0,0.1,0,0.2c0,0.1,0,0.2,0,0.3l0,0.1
	c0,0.1,0,0.1,0,0.1c0,0.2,0,0.4,0,0.6C23,13.2,23,13.4,22.9,13.5z"/>
</svg>
