<?xml version="1.0" encoding="utf-8"?>
<!-- Generator: Adobe Illustrator 23.0.2, SVG Export Plug-In . SVG Version: 6.00 Build 0)  -->
<svg version="1.1" id="Capa_1" xmlns="http://www.w3.org/2000/svg" xmlns:xlink="http://www.w3.org/1999/xlink" x="0px" y="0px"
	 viewBox="0 0 27 31" style="enable-background:new 0 0 27 31;" xml:space="preserve">
<style type="text/css">
	.st0{fill:#D1865A;}
	.st1{fill:#3A3A3A;}
</style>
<ellipse class="st0" cx="13.5" cy="13.49" rx="13.5" ry="13.49"/>
<g>
	<g>
		<g>
			<path class="st1" d="M22.03,2.13H11.59c-1.78,0-3.29,1.35-3.29,3.01v22.85c0,1.66,1.48,3.01,3.25,3.01l10.46-0.01
				c1.78,0,3.23-1.35,3.23-3.01l0.02-22.84C25.26,3.48,23.82,2.13,22.03,2.13z M15.3,3.94h3.03c0.27,0,0.48,0.2,0.48,0.45
				s-0.22,0.45-0.48,0.45H15.3c-0.27,0-0.48-0.2-0.48-0.45C14.82,4.14,15.03,3.94,15.3,3.94z M13.48,4.08
				c0.18-0.17,0.51-0.17,0.68,0c0.09,0.08,0.14,0.2,0.14,0.32c0,0.12-0.05,0.23-0.14,0.32c-0.09,0.08-0.22,0.13-0.34,0.13
				c-0.13,0-0.25-0.05-0.34-0.13c-0.09-0.08-0.14-0.2-0.14-0.32C13.34,4.28,13.39,4.17,13.48,4.08z M16.72,30.11
				c-0.8,0-1.45-0.61-1.45-1.35c0-0.74,0.65-1.35,1.45-1.35c0.8,0,1.45,0.61,1.45,1.35C18.16,29.5,17.52,30.11,16.72,30.11z
				 M23.76,26.49H9.99V6.42h13.77L23.76,26.49L23.76,26.49z"/>
		</g>
	</g>
</g>
</svg>
