<?xml version="1.0" encoding="utf-8"?>
<!-- Generator: Adobe Illustrator 23.0.2, SVG Export Plug-In . SVG Version: 6.00 Build 0)  -->
<svg version="1.1" id="Capa_1" xmlns="http://www.w3.org/2000/svg" xmlns:xlink="http://www.w3.org/1999/xlink" x="0px" y="0px"
	 viewBox="0 0 70 50" style="enable-background:new 0 0 70 50;" xml:space="preserve">
<style type="text/css">
	.st0{fill:#FFFFFF;}
</style>
<g>
	<g>
		<path class="st0" d="M49.07,14.61h7.47v-1.41h-7.47c-0.79,0-1.55,0.27-2.17,0.75l-7.48,5.88c-0.61,0.48-0.72,1.36-0.24,1.98
			c0.27,0.34,0.67,0.54,1.11,0.54h16.25v-1.41H40.28l7.48-5.88C48.13,14.77,48.59,14.61,49.07,14.61z"/>
	</g>
</g>
<g>
	<g>
		<path class="st0" d="M18.7,23.47L32,21.42c0.12-0.02,0.22-0.06,0.32-0.13l13.39-9.71c0.63-0.46,1.4-0.7,2.18-0.7h8.74V9.47H47.9
			c-1.1,0-2.17,0.35-3.06,0.98L34.43,18L21.95,8.68c-2.37-1.76-5.28-2.72-8.27-2.73c-0.4,0-0.73,0.31-0.73,0.7v2.81
			c0,0.39,0.33,0.7,0.73,0.7c0.99,0,1.97,0.15,2.91,0.44v12.05c-2.24,1.06-3.65,3.26-3.64,5.67v4.35c0,1.94,1.63,3.51,3.64,3.52
			h6.68c0.8,4.59,5.3,7.69,10.05,6.92c3.67-0.6,6.54-3.37,7.16-6.92h16.15v-1.41H40.62c0-0.96-0.17-1.91-0.51-2.81h16.52v-1.41
			h-17.2c-2.4-4.03-7.73-5.41-11.9-3.1c-1.08,0.6-2.01,1.42-2.73,2.39h-3.11v-2.11c0-1.17-0.98-2.11-2.18-2.11h-4.27
			C16.02,24.48,17.28,23.69,18.7,23.47z M18.47,22.09c-0.15,0.02-0.28,0.05-0.42,0.08V11.18c0.59,0.28,1.15,0.63,1.67,1.02
			c5.03,3.85,8.7,6.67,10.47,8.07L18.47,22.09z M14.41,8.79V7.39c2.42,0.15,4.73,0.99,6.65,2.41l12.16,9.08l-1.3,0.95
			c-1.63-1.32-6.87-5.34-11.28-8.72C18.85,9.74,16.68,8.94,14.41,8.79z M24.67,33.88c0.01-0.08,0.02-0.15,0.04-0.22
			c0.04-0.27,0.1-0.53,0.18-0.79c0.01-0.03,0.02-0.07,0.03-0.1c0.09-0.29,0.21-0.58,0.34-0.86c0.02-0.05,0.05-0.1,0.07-0.14
			c1.73-3.5,6.07-4.99,9.7-3.32c2.53,1.17,4.14,3.64,4.14,6.35c0,0.22-0.01,0.43-0.03,0.64c-0.36,3.87-3.9,6.72-7.9,6.36
			c-3.5-0.31-6.27-2.98-6.59-6.36c-0.02-0.21-0.03-0.42-0.03-0.64C24.6,34.49,24.63,34.18,24.67,33.88z M23.94,31.27
			c-0.01,0.03-0.02,0.06-0.04,0.09c-0.09,0.19-0.16,0.38-0.23,0.57c-0.03,0.08-0.07,0.16-0.09,0.25c-0.07,0.2-0.12,0.4-0.18,0.61
			c-0.02,0.08-0.05,0.16-0.06,0.24c-0.05,0.22-0.08,0.44-0.11,0.67c-0.01,0.07-0.03,0.14-0.03,0.21c-0.03,0.3-0.05,0.59-0.05,0.89
			h-6.55c-1.21,0-2.18-0.94-2.18-2.11v-1.41H23.94z M19.5,27.05c0.4,0,0.73,0.31,0.73,0.7v2.11h-5.82v-1.53
			c0-0.43,0.06-0.86,0.17-1.28H19.5z"/>
	</g>
</g>
<g>
	<g>
		<path class="st0" d="M53.94,24.22h-3.52c-1.17,0-2.11,0.94-2.11,2.11s0.94,2.11,2.11,2.11h3.52c1.17,0,2.11-0.94,2.11-2.11
			S55.1,24.22,53.94,24.22z M53.94,27.03h-3.52c-0.39,0-0.7-0.31-0.7-0.7s0.31-0.7,0.7-0.7h3.52c0.39,0,0.7,0.31,0.7,0.7
			S54.32,27.03,53.94,27.03z"/>
	</g>
</g>
</svg>
