<?xml version="1.0" encoding="utf-8"?>
<!-- Generator: Adobe Illustrator 24.0.1, SVG Export Plug-In . SVG Version: 6.00 Build 0)  -->
<svg version="1.1" id="Capa_1" xmlns="http://www.w3.org/2000/svg" xmlns:xlink="http://www.w3.org/1999/xlink" x="0px" y="0px"
	 viewBox="0 0 27 31" style="enable-background:new 0 0 27 31;" xml:space="preserve">
<style type="text/css">
	.st0{fill:#F27E00;}
	.st1{fill:#3A3A3A;}
</style>
<ellipse class="st0" cx="13.5" cy="13.5" rx="13.5" ry="13.5"/>
<g>
	<g>
		<g>
			<path class="st1" d="M22,2.1H11.6c-1.8,0-3.3,1.3-3.3,3V28c0,1.7,1.5,3,3.3,3L22,31c1.8,0,3.2-1.4,3.2-3l0-22.8
				C25.3,3.5,23.8,2.1,22,2.1z M15.3,3.9h3c0.3,0,0.5,0.2,0.5,0.4s-0.2,0.4-0.5,0.4h-3c-0.3,0-0.5-0.2-0.5-0.4
				C14.8,4.1,15,3.9,15.3,3.9z M13.5,4.1c0.2-0.2,0.5-0.2,0.7,0c0.1,0.1,0.1,0.2,0.1,0.3c0,0.1-0.1,0.2-0.1,0.3
				c-0.1,0.1-0.2,0.1-0.3,0.1c-0.1,0-0.3-0.1-0.3-0.1s-0.1-0.2-0.1-0.3C13.3,4.3,13.4,4.2,13.5,4.1z M16.7,30.1
				c-0.8,0-1.4-0.6-1.4-1.4s0.6-1.4,1.4-1.4c0.8,0,1.5,0.6,1.5,1.4C18.2,29.5,17.5,30.1,16.7,30.1z M23.8,26.5H10V6.4h13.8V26.5
				L23.8,26.5z"/>
		</g>
	</g>
</g>
</svg>
