<?xml version="1.0" encoding="utf-8"?>
<!-- Generator: Adobe Illustrator 24.0.1, SVG Export Plug-In . SVG Version: 6.00 Build 0)  -->
<svg version="1.1" id="Capa_1" xmlns="http://www.w3.org/2000/svg" xmlns:xlink="http://www.w3.org/1999/xlink" x="0px" y="0px"
	 viewBox="0 0 30 31" style="enable-background:new 0 0 30 31;" xml:space="preserve">
<style type="text/css">
	.st0{fill:#F27E00;}
	.st1{fill:#3A3A3A;}
	.st2{fill:none;}
	.st3{fill:#D1865A;}
	.st4{font-family:'Kanit-Bold';}
	.st5{font-size:9.4561px;}
</style>
<ellipse class="st0" cx="15" cy="14.5" rx="15" ry="14.5"/>
<g>
	<g>
		<g>
			<path class="st1" d="M7.4,16.9c2.9,2.4,8,6.6,9.5,7.9c0.2,0.2,0.4,0.3,0.6,0.3s0.4-0.1,0.6-0.3c1.5-1.3,6.6-5.5,9.5-7.9
				c0.2-0.1,0.2-0.4,0.1-0.6c-0.3-0.4-0.8-0.7-1.4-0.7H8.7c-0.5,0-1,0.2-1.4,0.7C7.2,16.5,7.2,16.7,7.4,16.9z"/>
			<path class="st1" d="M27.8,18.2c-0.2-0.1-0.3,0-0.5,0.1c-3.2,2.6-7.3,6-8.6,7.2C18,26,17,26,16.3,25.4c-1.4-1.2-6-5-8.6-7.2
				c-0.1-0.1-0.3-0.1-0.5-0.1c-0.2,0.1-0.3,0.2-0.3,0.4v10.7c0,0.9,0.8,1.7,1.8,1.7h17.6c1,0,1.8-0.8,1.8-1.7V18.6
				C28.1,18.4,28,18.2,27.8,18.2z"/>
		</g>
	</g>
</g>
<rect x="14.8" y="9.4" class="st2" width="10" height="0.8"/>
<rect x="14.8" y="12.1" class="st2" width="10" height="0.8"/>
<rect x="14.8" y="6.6" class="st2" width="10" height="0.8"/>
<ellipse class="st1" cx="22.7" cy="9" rx="5.8" ry="5.6"/>
<text transform="matrix(1.0324 0 0 1 21.1094 12.1206)" class="st3 st4 st5">1</text>
</svg>
