<?xml version="1.0" encoding="utf-8"?>
<!-- Generator: Adobe Illustrator 23.0.2, SVG Export Plug-In . SVG Version: 6.00 Build 0)  -->
<svg version="1.1" id="Capa_1" xmlns="http://www.w3.org/2000/svg" xmlns:xlink="http://www.w3.org/1999/xlink" x="0px" y="0px"
	 viewBox="0 0 30 31" style="enable-background:new 0 0 30 31;" xml:space="preserve">
<style type="text/css">
	.st0{fill:#D1865A;}
	.st1{fill:#3A3A3A;}
	.st2{fill:none;}
	.st3{font-family:'Kanit-Bold';}
	.st4{font-size:9.4561px;}
</style>
<ellipse class="st0" cx="15" cy="14.53" rx="15" ry="14.53"/>
<g>
	<g>
		<g>
			<path class="st1" d="M7.36,16.88c2.9,2.38,8,6.57,9.49,7.88c0.2,0.18,0.42,0.27,0.64,0.27c0.22,0,0.44-0.09,0.64-0.26
				c1.5-1.31,6.59-5.5,9.5-7.88c0.18-0.15,0.21-0.41,0.06-0.59c-0.34-0.42-0.84-0.66-1.38-0.66H8.68c-0.54,0-1.04,0.24-1.38,0.66
				C7.15,16.47,7.18,16.73,7.36,16.88z"/>
			<path class="st1" d="M27.81,18.17c-0.16-0.07-0.34-0.05-0.47,0.06c-3.22,2.64-7.33,6.03-8.62,7.16c-0.73,0.63-1.73,0.63-2.46,0
				c-1.38-1.2-5.99-5-8.62-7.16c-0.13-0.11-0.32-0.13-0.47-0.06c-0.16,0.07-0.26,0.22-0.26,0.39v10.74c0,0.94,0.79,1.71,1.76,1.71
				h17.63c0.97,0,1.76-0.77,1.76-1.71V18.56C28.07,18.39,27.97,18.24,27.81,18.17z"/>
		</g>
	</g>
</g>
<rect x="14.79" y="9.36" class="st2" width="10.03" height="0.79"/>
<rect x="14.79" y="12.12" class="st2" width="10.03" height="0.79"/>
<rect x="14.79" y="6.59" class="st2" width="10.03" height="0.79"/>
<ellipse class="st1" cx="22.69" cy="8.96" rx="5.75" ry="5.57"/>
<text transform="matrix(1.0324 0 0 1 21.1096 12.1208)" class="st0 st3 st4">1</text>
</svg>
