<?xml version="1.0" encoding="utf-8"?>
<!-- Generator: Adobe Illustrator 23.0.2, SVG Export Plug-In . SVG Version: 6.00 Build 0)  -->
<svg version="1.1" id="Capa_1" xmlns="http://www.w3.org/2000/svg" xmlns:xlink="http://www.w3.org/1999/xlink" x="0px" y="0px"
	 viewBox="0 0 34 34" style="enable-background:new 0 0 34 34;" xml:space="preserve">
<style type="text/css">
	.st0{fill:#FFAF1E;}
	.st1{fill:#FFFFFF;}
</style>
<g>
	<g>
		<g>
			<path class="st0" d="M33.03,4.65c-0.5-0.5-1.31-0.5-1.81,0L15.84,19.98l-5.55-6.02c-0.48-0.52-1.29-0.55-1.81-0.07
				c-0.52,0.48-0.55,1.29-0.07,1.81l6.45,7c0.24,0.26,0.57,0.41,0.92,0.41c0.01,0,0.02,0,0.03,0c0.34,0,0.66-0.13,0.9-0.37
				L33.03,6.46C33.53,5.96,33.53,5.15,33.03,4.65z"/>
		</g>
	</g>
	<g>
		<g>
			<path class="st1" d="M32.72,15.72c-0.71,0-1.28,0.57-1.28,1.28c0,7.96-6.48,14.44-14.44,14.44C9.04,31.44,2.56,24.96,2.56,17
				C2.56,9.04,9.04,2.56,17,2.56c0.71,0,1.28-0.57,1.28-1.28C18.28,0.57,17.71,0,17,0C7.63,0,0,7.63,0,17c0,9.37,7.63,17,17,17
				c9.37,0,17-7.63,17-17C34,16.29,33.43,15.72,32.72,15.72z"/>
		</g>
	</g>
</g>
</svg>
