<?xml version="1.0" encoding="utf-8"?>
<!-- Generator: Adobe Illustrator 23.0.2, SVG Export Plug-In . SVG Version: 6.00 Build 0)  -->
<svg version="1.1" id="Capa_1" xmlns="http://www.w3.org/2000/svg" xmlns:xlink="http://www.w3.org/1999/xlink" x="0px" y="0px"
	 viewBox="0 0 32 32" style="enable-background:new 0 0 32 32;" xml:space="preserve">
<style type="text/css">
	.st0{fill:#FFAF1E;}
</style>
<path class="st0" d="M19.06,16c0,1.69-1.37,3.06-3.06,3.06s-3.06-1.37-3.06-3.06s1.37-3.06,3.06-3.06S19.06,14.31,19.06,16z"/>
<path class="st0" d="M23.16,10.58c-0.15-0.4-0.38-0.76-0.69-1.06c-0.3-0.31-0.66-0.54-1.06-0.69c-0.32-0.13-0.81-0.28-1.71-0.32
	C18.74,8.48,18.45,8.47,16,8.47c-2.45,0-2.74,0.01-3.71,0.05c-0.9,0.04-1.38,0.19-1.71,0.32c-0.4,0.15-0.76,0.38-1.06,0.69
	c-0.31,0.3-0.54,0.66-0.69,1.06c-0.13,0.32-0.28,0.81-0.32,1.71C8.48,13.26,8.47,13.55,8.47,16c0,2.45,0.01,2.74,0.05,3.71
	c0.04,0.9,0.19,1.38,0.32,1.71c0.15,0.4,0.38,0.76,0.69,1.06c0.3,0.31,0.66,0.54,1.06,0.69c0.32,0.13,0.81,0.28,1.71,0.32
	c0.97,0.04,1.26,0.05,3.71,0.05c2.45,0,2.74-0.01,3.71-0.05c0.9-0.04,1.38-0.19,1.71-0.32c0.8-0.31,1.43-0.94,1.74-1.74
	c0.13-0.32,0.28-0.81,0.32-1.71c0.04-0.97,0.05-1.26,0.05-3.71c0-2.45-0.01-2.74-0.05-3.71C23.44,11.39,23.29,10.91,23.16,10.58z
	 M16,20.72c-2.61,0-4.72-2.11-4.72-4.72s2.11-4.72,4.72-4.72c2.61,0,4.72,2.11,4.72,4.72S18.61,20.72,16,20.72z M20.9,12.2
	c-0.61,0-1.1-0.49-1.1-1.1s0.49-1.1,1.1-1.1s1.1,0.49,1.1,1.1C22.01,11.7,21.51,12.2,20.9,12.2z"/>
<path class="st0" d="M16,0C7.16,0,0,7.16,0,16s7.16,16,16,16s16-7.16,16-16S24.84,0,16,0z M25.13,19.79
	c-0.04,0.98-0.2,1.65-0.43,2.23c-0.48,1.23-1.45,2.21-2.69,2.69c-0.58,0.23-1.25,0.38-2.23,0.43c-0.98,0.04-1.29,0.06-3.79,0.06
	c-2.5,0-2.81-0.01-3.79-0.06c-0.98-0.04-1.65-0.2-2.23-0.43c-0.61-0.23-1.17-0.59-1.63-1.06c-0.47-0.46-0.83-1.01-1.06-1.63
	c-0.23-0.58-0.38-1.25-0.43-2.23C6.82,18.81,6.81,18.5,6.81,16s0.01-2.81,0.06-3.79c0.04-0.98,0.2-1.65,0.43-2.23
	c0.23-0.61,0.59-1.17,1.06-1.63c0.46-0.47,1.01-0.83,1.63-1.06c0.58-0.23,1.25-0.38,2.23-0.43C13.19,6.82,13.5,6.81,16,6.81
	s2.81,0.01,3.79,0.06c0.98,0.04,1.65,0.2,2.23,0.43c0.61,0.23,1.17,0.59,1.63,1.06c0.47,0.46,0.83,1.01,1.06,1.63
	c0.23,0.58,0.38,1.25,0.43,2.23c0.04,0.98,0.06,1.29,0.06,3.79S25.18,18.81,25.13,19.79z"/>
</svg>
