<?xml version="1.0" encoding="utf-8"?>
<!-- Generator: Adobe Illustrator 23.0.2, SVG Export Plug-In . SVG Version: 6.00 Build 0)  -->
<svg version="1.1" id="Capa_1" xmlns="http://www.w3.org/2000/svg" xmlns:xlink="http://www.w3.org/1999/xlink" x="0px" y="0px"
	 viewBox="0 0 73 72" style="enable-background:new 0 0 73 72;" xml:space="preserve">
<style type="text/css">
	.st0{fill:#FFFFFF;}
</style>
<path class="st0" d="M62.67,59.55c5.52-6.29,8.9-14.5,8.9-23.53c0-19.71-15.98-35.7-35.7-35.7c-19.71,0-35.7,15.98-35.7,35.7
	s15.98,35.7,35.7,35.7c0.74,0,1.47-0.07,2.21-0.11l14.82-0.12l19.94-0.13L62.67,59.55z M55.11,37.01H17.52
	c-0.52,0-0.95-0.43-0.95-0.95c0-0.52,0.43-0.95,0.95-0.95h37.59c0.52,0,0.95,0.43,0.95,0.95C56.06,36.59,55.64,37.01,55.11,37.01z
	 M55.11,31.06H17.52c-0.52,0-0.95-0.43-0.95-0.95c0-0.52,0.43-0.95,0.95-0.95h37.59c0.52,0,0.95,0.43,0.95,0.95
	C56.06,30.64,55.64,31.06,55.11,31.06z M55.11,24.57H17.52c-0.52,0-0.95-0.43-0.95-0.95c0-0.52,0.43-0.95,0.95-0.95h37.59
	c0.52,0,0.95,0.43,0.95,0.95C56.06,24.15,55.64,24.57,55.11,24.57z"/>
</svg>
