<?xml version="1.0" encoding="utf-8"?>
<!-- Generator: Adobe Illustrator 23.0.2, SVG Export Plug-In . SVG Version: 6.00 Build 0)  -->
<svg version="1.1" id="Capa_1" xmlns="http://www.w3.org/2000/svg" xmlns:xlink="http://www.w3.org/1999/xlink" x="0px" y="0px"
	 viewBox="0 0 178 81" style="enable-background:new 0 0 178 81;" xml:space="preserve">
<style type="text/css">
	.st0{fill:none;}
	.st1{fill:#231F20;}
	.st2{fill:#FF5F00;}
	.st3{fill:#EB001B;}
	.st4{fill:#F79E1B;}
</style>
<g id="Layer_2">
	<g id="Layer_1-2">
		<rect x="-8" y="21" class="st0" width="193" height="44.31"/>
		<path class="st1" d="M79.19,48.04V42c0-2.28-1.45-3.82-3.8-3.84c-1.36-0.09-2.66,0.57-3.39,1.72c-0.67-1.11-1.89-1.77-3.19-1.72
			c-1.13-0.05-2.2,0.49-2.82,1.43v-1.21h-2.1v9.65h2.12v-5.35c0-1.68,0.93-2.56,2.36-2.56c1.43,0,2.1,0.91,2.1,2.54v5.37h2.11v-5.35
			c0-1.68,0.97-2.56,2.36-2.56c1.39,0,2.12,0.91,2.12,2.54v5.37H79.19z M110.55,38.39h-3.43v-2.93H105v2.93h-1.96v1.92H105v4.4
			c0,2.24,0.87,3.57,3.35,3.57c0.93,0,1.84-0.26,2.62-0.75l-0.6-1.8c-0.56,0.34-1.2,0.52-1.86,0.54c-1.05,0-1.39-0.64-1.39-1.61
			v-4.36h3.43L110.55,38.39z M128.45,38.15c-1.04-0.03-2.02,0.51-2.54,1.41v-1.17h-2.08v9.65h2.1v-5.41c0-1.61,0.68-2.48,2.06-2.48
			c0.45-0.01,0.9,0.08,1.31,0.24l0.64-1.98C129.47,38.24,128.96,38.15,128.45,38.15z M101.39,39.16c-1.19-0.71-2.56-1.06-3.94-1.01
			c-2.44,0-4.03,1.17-4.03,3.09c0,1.58,1.17,2.54,3.33,2.84l0.99,0.14c1.15,0.16,1.7,0.46,1.7,1.01c0,0.75-0.77,1.17-2.2,1.17
			c-1.16,0.04-2.29-0.32-3.22-1.01l-0.95,1.63c1.22,0.85,2.69,1.29,4.18,1.25c2.78,0,4.4-1.31,4.4-3.15c0-1.7-1.27-2.58-3.37-2.88
			l-0.99-0.14c-0.91-0.12-1.64-0.3-1.64-0.95c0-0.71,0.68-1.13,1.84-1.13c1.06,0.02,2.09,0.3,3.01,0.83L101.39,39.16z M157.6,38.15
			c-1.04-0.03-2.02,0.51-2.54,1.41v-1.17h-2.08v9.65h2.1v-5.41c0-1.61,0.68-2.48,2.06-2.48c0.45-0.01,0.9,0.08,1.31,0.24l0.64-1.98
			C158.62,38.24,158.11,38.15,157.6,38.15z M130.57,43.22c0,2.93,2.04,5.06,5.15,5.06c1.26,0.06,2.5-0.35,3.47-1.15l-1.01-1.7
			c-0.73,0.55-1.61,0.86-2.52,0.87c-1.68,0-2.91-1.23-2.91-3.09s1.23-3.07,2.91-3.09c0.91,0.01,1.8,0.31,2.52,0.87l1.01-1.7
			c-0.97-0.8-2.21-1.21-3.47-1.15C132.61,38.14,130.57,40.28,130.57,43.22L130.57,43.22z M150.23,43.22v-4.84h-2.1v1.17
			c-0.73-0.94-1.86-1.46-3.05-1.41c-2.7,0-4.84,2.12-4.84,5.06c0,2.95,2.12,5.06,4.84,5.06c1.18,0.05,2.32-0.48,3.05-1.41v1.17h2.1
			V43.22z M142.42,43.22c0-1.7,1.11-3.09,2.93-3.09c1.74,0,2.91,1.33,2.91,3.09s-1.17,3.09-2.91,3.09
			C143.53,46.3,142.42,44.91,142.42,43.22z M117.09,38.15c-2.82,0-4.8,2.06-4.8,5.06c0,3.07,2.06,5.06,4.94,5.06
			c1.44,0.05,2.85-0.43,3.96-1.35l-1.03-1.56c-0.8,0.64-1.79,1-2.82,1.01c-1.35,0-2.58-0.62-2.88-2.36h7.16
			c0.02-0.26,0.04-0.52,0.04-0.81c0-3.01-1.88-5.06-4.58-5.06L117.09,38.15z M117.05,40.03c1.35,0,2.22,0.85,2.44,2.34h-5
			C114.71,40.98,115.56,40.03,117.05,40.03L117.05,40.03z M169.69,43.22v-8.7h-2.1v5.04c-0.73-0.94-1.86-1.46-3.05-1.41
			c-2.7,0-4.84,2.12-4.84,5.06s2.12,5.06,4.84,5.06c1.18,0.05,2.32-0.48,3.05-1.41v1.17h2.1V43.22z M172.15,47.15
			c0.08,0,0.17,0.02,0.24,0.05c0.07,0.03,0.14,0.08,0.2,0.13c0.06,0.06,0.1,0.12,0.13,0.19c0.07,0.15,0.07,0.32,0,0.48
			c-0.03,0.07-0.08,0.14-0.13,0.19c-0.06,0.06-0.12,0.1-0.2,0.13c-0.08,0.03-0.16,0.05-0.24,0.05c-0.25,0-0.48-0.14-0.58-0.37
			c-0.06-0.15-0.06-0.32,0-0.48c0.06-0.15,0.18-0.27,0.33-0.33C171.98,47.16,172.07,47.15,172.15,47.15L172.15,47.15z M172.15,48.24
			c0.06,0,0.13-0.01,0.19-0.04c0.06-0.02,0.11-0.06,0.15-0.1c0.19-0.19,0.19-0.49,0-0.68c-0.04-0.04-0.09-0.08-0.15-0.1
			c-0.06-0.02-0.12-0.04-0.19-0.04c-0.06,0-0.13,0.01-0.19,0.04c-0.24,0.1-0.36,0.39-0.25,0.63c0.02,0.06,0.06,0.11,0.1,0.15
			c0.04,0.04,0.1,0.08,0.15,0.1C172.02,48.23,172.09,48.24,172.15,48.24L172.15,48.24z M172.18,47.47c0.06,0,0.12,0.01,0.17,0.05
			c0.04,0.03,0.06,0.08,0.06,0.13c0,0.04-0.02,0.09-0.05,0.12c-0.04,0.03-0.08,0.05-0.13,0.06l0.19,0.21h-0.15l-0.17-0.21h-0.06
			v0.21h-0.12v-0.56L172.18,47.47z M172.04,47.58v0.15h0.14c0.03,0.01,0.05,0.01,0.08,0c0.02-0.01,0.03-0.03,0.03-0.06
			c0-0.02-0.01-0.04-0.03-0.06c-0.03-0.01-0.05-0.01-0.08,0L172.04,47.58z M161.89,43.22c0-1.7,1.11-3.09,2.93-3.09
			c1.74,0,2.91,1.33,2.91,3.09s-1.17,3.09-2.91,3.09C163,46.3,161.89,44.91,161.89,43.22z M91.02,43.22v-4.84h-2.1v1.17
			c-0.73-0.93-1.86-1.45-3.03-1.4c-2.7,0-4.84,2.12-4.84,5.06s2.12,5.06,4.84,5.06c1.18,0.05,2.32-0.48,3.05-1.41v1.17h2.1
			L91.02,43.22z M83.21,43.22c0-1.7,1.11-3.09,2.93-3.09c1.74,0,2.91,1.33,2.91,3.09s-1.17,3.09-2.91,3.09
			C84.32,46.3,83.21,44.91,83.21,43.22L83.21,43.22z"/>
		<g id="_Group_">
			<rect x="24.42" y="31.75" class="st2" width="12.69" height="22.81"/>
			<path id="_Path_" class="st3" d="M25.23,43.16c0-4.45,2.04-8.66,5.54-11.4c-6.3-4.95-15.42-3.86-20.37,2.44
				s-3.86,15.42,2.44,20.37c5.26,4.13,12.67,4.13,17.93,0C27.26,51.82,25.22,47.61,25.23,43.16z"/>
			<path class="st4" d="M54.24,43.16c0,8.01-6.49,14.51-14.51,14.51c-3.25,0-6.41-1.09-8.96-3.1c6.3-4.95,7.39-14.07,2.44-20.37
				c-0.71-0.91-1.53-1.73-2.44-2.44c6.3-4.95,15.42-3.86,20.37,2.44C53.14,36.75,54.24,39.91,54.24,43.16z"/>
			<path class="st4" d="M52.84,52.14v-0.47h0.19v-0.09h-0.47v0.1h0.19v0.47L52.84,52.14z M53.77,52.14v-0.56h-0.12l-0.17,0.4
				l-0.17-0.4h-0.15v0.56h0.08v-0.42l0.16,0.37h0.11l0.16-0.37v0.43L53.77,52.14z"/>
		</g>
	</g>
</g>
</svg>
