<?xml version="1.0" encoding="utf-8"?>
<!-- Generator: Adobe Illustrator 23.0.2, SVG Export Plug-In . SVG Version: 6.00 Build 0)  -->
<svg version="1.1" id="Capa_1" xmlns="http://www.w3.org/2000/svg" xmlns:xlink="http://www.w3.org/1999/xlink" x="0px" y="0px"
	 viewBox="0 0 67 101" style="enable-background:new 0 0 67 101;" xml:space="preserve">
<style type="text/css">
	.st0{fill:#FFFFFF;}
	.st1{fill:#102EBA;}
</style>
<g>
	<path class="st0" d="M59.67,100.73H7.33c-3.84,0-6.99-3.15-6.99-6.99V7.25c0-3.84,3.15-6.99,6.99-6.99h52.33
		c3.84,0,6.99,3.15,6.99,6.99v86.49C66.65,97.59,63.51,100.73,59.67,100.73z"/>
	<g>
		<path class="st1" d="M54.14,81.65H12.36c-3.84,0-6.99-3.15-6.99-6.99V12.78c0-3.84,3.15-6.99,6.99-6.99h41.78
			c3.84,0,6.99,3.15,6.99,6.99v61.88C61.13,78.5,57.98,81.65,54.14,81.65z"/>
	</g>
	<circle class="st1" cx="33" cy="91.69" r="6.03"/>
</g>
</svg>
