<?xml version="1.0" encoding="utf-8"?>
<!-- Generator: Adobe Illustrator 23.0.2, SVG Export Plug-In . SVG Version: 6.00 Build 0)  -->
<svg version="1.1" id="Capa_1" xmlns="http://www.w3.org/2000/svg" xmlns:xlink="http://www.w3.org/1999/xlink" x="0px" y="0px"
	 viewBox="0 0 82 37" style="enable-background:new 0 0 82 37;" xml:space="preserve">
<style type="text/css">
	.st0{fill:#FD9A25;}
</style>
<path class="st0" d="M19.84,37L19.84,37c-2.89,0-5.23-2.34-5.23-5.23V5.2c0-2.89,2.34-5.23,5.23-5.23h0c2.89,0,5.23,2.34,5.23,5.23
	v26.57C25.07,34.66,22.73,37,19.84,37z"/>
<path class="st0" d="M1.32,18.48L1.32,18.48c0-2.89,2.34-5.23,5.23-5.23h26.57c2.89,0,5.23,2.34,5.23,5.23v0
	c0,2.89-2.34,5.23-5.23,5.23H6.56C3.67,23.71,1.32,21.37,1.32,18.48z"/>
<path class="st0" d="M43.96,18.48L43.96,18.48c0-2.89,2.34-5.23,5.23-5.23h26.57c2.89,0,5.23,2.34,5.23,5.23v0
	c0,2.89-2.34,5.23-5.23,5.23H49.2C46.3,23.71,43.96,21.37,43.96,18.48z"/>
</svg>
