<?xml version="1.0" encoding="utf-8"?>
<!-- Generator: Adobe Illustrator 23.0.2, SVG Export Plug-In . SVG Version: 6.00 Build 0)  -->
<svg version="1.1" id="Capa_1" xmlns="http://www.w3.org/2000/svg" xmlns:xlink="http://www.w3.org/1999/xlink" x="0px" y="0px"
	 viewBox="0 0 136 81" style="enable-background:new 0 0 136 81;" xml:space="preserve">
<style type="text/css">
	.st0{fill:#D8D9DA;}
	.st1{fill:#691B67;}
	.st2{fill:#AB112B;}
	.st3{fill:#B1281F;}
	.st4{fill:#F2D231;}
	.st5{fill:#CA5254;}
	.st6{fill:#FFFFFF;}
	.st7{fill:#222221;}
</style>
<rect x="108.02" y="52.6" class="st0" width="4.21" height="12.5"/>
<rect x="32.29" y="52.6" class="st1" width="10.53" height="12.5"/>
<rect x="0.64" y="52.6" class="st2" width="6.32" height="12.5"/>
<rect x="0.64" y="52.6" class="st3" width="6.32" height="12.5"/>
<rect x="6.94" y="52.6" class="st1" width="2.11" height="12.5"/>
<rect x="9.05" y="52.6" class="st4" width="6.32" height="12.5"/>
<rect x="21.79" y="52.6" class="st5" width="6.32" height="12.5"/>
<rect x="17.47" y="52.6" class="st0" width="4.33" height="12.5"/>
<rect x="42.77" y="52.6" class="st2" width="4.21" height="12.5"/>
<rect x="124.88" y="52.6" class="st1" width="6.32" height="12.5"/>
<rect x="46.97" y="52.6" class="st0" width="6.32" height="12.5"/>
<rect x="53.28" y="52.6" class="st2" width="6.32" height="12.5"/>
<rect x="59.6" y="52.6" class="st1" width="2.11" height="12.5"/>
<rect x="28.09" y="52.6" class="st4" width="4.21" height="12.5"/>
<rect x="112.23" y="52.6" class="st6" width="2.11" height="12.5"/>
<rect x="63.82" y="52.6" class="st4" width="6.32" height="12.5"/>
<rect x="89.07" y="52.6" class="st0" width="2.11" height="12.5"/>
<rect x="70.12" y="52.6" class="st1" width="6.32" height="12.5"/>
<rect x="76.44" y="52.6" class="st5" width="4.21" height="12.5"/>
<rect x="80.65" y="52.6" class="st2" width="2.11" height="12.5"/>
<rect x="82.76" y="52.6" class="st4" width="6.32" height="12.5"/>
<rect x="91.16" y="52.6" class="st6" width="2.1" height="12.5"/>
<rect x="61.71" y="52.6" class="st6" width="2.1" height="12.5"/>
<rect x="15.35" y="52.6" class="st6" width="2.1" height="12.5"/>
<rect x="97.48" y="52.6" class="st2" width="10.53" height="12.5"/>
<rect x="93.27" y="52.6" class="st1" width="4.21" height="12.5"/>
<rect x="114.33" y="52.6" class="st5" width="6.32" height="12.5"/>
<rect x="120.65" y="52.6" class="st4" width="4.21" height="12.5"/>
<rect x="131.19" y="52.6" class="st2" width="4.18" height="12.5"/>
<rect x="0.63" y="15" class="st7" width="134.73" height="37.63"/>
<path class="st6" d="M36.58,29.14c-0.02-1.27-1.4-0.92-1.4-1.3c0-0.16,0.03-0.19,0.17-0.19c0.64,0,1.27,0.07,1.91,0.07
	c0.54,0,1.08-0.07,1.61-0.07c0.28,0,0.33,0.03,0.33,0.17c0,0.42-1.25,0.02-1.25,1.32v9.32c0,1.18,1.54,0.78,1.54,1.3
	c0,0.12-0.05,0.17-0.35,0.17c-0.4,0-1.14-0.07-1.89-0.07c-1.06,0-1.42,0.07-1.67,0.07c-0.31,0-0.36-0.09-0.36-0.26
	c0-0.5,1.35,0.07,1.35-1.65V29.14z"/>
<path class="st6" d="M54.43,37.54c0,2.5,1.82,1.6,1.82,2.19c0,0.12-0.07,0.21-0.5,0.21c-0.59,0-0.85-0.07-1.87-0.07
	c-0.82,0-1.39,0.07-1.89,0.07c-0.1,0-0.28-0.05-0.28-0.21c0-0.47,1.35,0.07,1.35-1.86v-8.31c0-2.08-1.42-1.02-1.42-1.65
	c0-0.14,0.09-0.26,0.23-0.26c0.16,0,0.76,0.07,1.77,0.07c0.87,0,1.15-0.07,1.98-0.07c2.2,0,4.65,0.76,4.65,3.35
	c0,0.69-0.52,3.33-4.21,3.33c-0.17,0-1.18-0.09-1.18-0.4c0-0.12,0.09-0.16,0.17-0.16c0.14,0,0.5,0.1,1.13,0.1
	c1.77,0,2.81-0.85,2.81-2.41c0-2.1-1.61-3.21-3.61-3.21c-0.56,0-0.94,0-0.94,0.52V37.54z"/>
<path class="st6" d="M73.55,37.8c0,1.02-0.14,1.44,1.32,1.44c4.01,0,4.6-1.79,4.82-1.79c0.12,0,0.14,0.17,0.14,0.21
	c0,0.63-0.45,1.23-0.87,1.68c-0.56,0.63-0.94,0.59-1.7,0.59c-1.32,0-2.64-0.1-3.96-0.07c-0.69,0.02-1.42,0.07-2.12,0.07
	c-0.16,0-0.26-0.03-0.26-0.17c0.03-0.21,0.21-0.17,0.76-0.45c0.45-0.21,0.49-0.69,0.49-1.51V29c0-0.9-1.46-0.78-1.46-1.13
	c0-0.19,0.12-0.23,0.35-0.23c0.36,0,0.9,0.07,1.75,0.07c0.99,0,1.41-0.07,1.67-0.07c0.22,0,0.33,0.03,0.33,0.24
	c0,0.4-1.27-0.03-1.27,1.47V37.8z"/>
<path class="st6" d="M93.98,32.7c0,0.59-0.04,0.59,0.66,0.59h1.87c1.8,0,1.34-1.39,1.75-1.39c0.14,0,0.19,0.19,0.19,0.33
	c0,0.61-0.03,1.2-0.03,1.75c0,0.45,0.03,0.9,0.03,1.37c0,0.16-0.07,0.23-0.19,0.23c-0.54,0,0.05-1.53-1.41-1.53h-2.57
	c-0.36,0-0.31,0.29-0.31,0.56v3.19c0,1.02-0.14,1.44,1.32,1.44c4.01,0,4.6-1.79,4.82-1.79c0.12,0,0.14,0.17,0.14,0.21
	c0,0.63-0.45,1.23-0.87,1.68c-0.55,0.62-0.94,0.59-1.7,0.59c-1.32,0-2.64-0.1-3.95-0.07c-0.69,0.02-1.42,0.07-2.12,0.07
	c-0.16,0-0.26-0.03-0.26-0.17c0.04-0.21,0.21-0.17,0.76-0.45c0.45-0.21,0.49-0.69,0.49-1.51v-7.91c0-0.78,0-1.61-0.94-1.75
	c-0.14-0.03-0.52-0.07-0.52-0.28c0-0.14,0.1-0.21,0.61-0.21c3.28,0,4.18,0.07,4.91,0.07c0.35,0,1.94-0.07,2.48-0.07
	c0.14,0,0.17,0.17,0.17,0.38c0,1.93-0.24,2.06-0.35,2.06c-0.42,0-0.14-0.83-0.42-1.23c-0.45-0.59-2.26-0.49-2.95-0.49
	c-1.66,0-1.63-0.07-1.63,1.09V32.7z"/>
<path class="st6" d="M121.97,27.27c-0.7,0-1.6,0.22-2.26,0.8c-1.24,1.08-2.07,2.9-2.55,4.06c-0.15,0.39-0.3,0.51-0.39,0.51
	c-0.1,0-0.21-0.1-0.35-0.31l-1.85-2.99c-0.1-0.16-0.31-0.43-0.31-0.71c0-0.5,0.82-0.52,0.82-0.82c0-0.16-0.21-0.17-0.33-0.17
	c-0.17,0-0.64,0.07-1.21,0.07c-1.18,0-1.51-0.07-1.98-0.07c-0.12,0-0.23,0.14-0.23,0.26c0,0.29,0.85,0.09,1.3,0.83l2.9,4.63
	c0.14,0.21,0.4,0.56,0.4,0.89v4.2c0,1.23-1.34,0.78-1.34,1.27c0,0.19,0.1,0.21,0.26,0.21c0.16,0,0.78-0.07,1.56-0.07
	c0.64,0,1.65,0.07,1.91,0.07c0.24,0,0.4-0.02,0.4-0.17c0-0.54-1.42-0.05-1.42-1.56v-4.15c0.35-1.05,1.08-2.75,2.15-4.1
	c0.85-1.06,1.85-1.89,3.19-2.35c0.1-0.03,0.17-0.08,0.17-0.17C122.82,27.27,121.97,27.27,121.97,27.27"/>
<path class="st6" d="M24.83,40.11c0-0.08-0.11-0.11-0.11-0.11c-1.05-0.19-2.02-0.92-2.76-1.7c-1.21-1.27-2.23-2.88-2.62-3.63
	c-0.12-0.27,0.05-0.3,0.05-0.3l0,0c2.04-0.79,2.38-2.82,2.38-3.38c0-2.58-2.45-3.35-4.65-3.35c-0.83,0-1.11,0.07-1.98,0.07
	c-1.01,0-1.61-0.07-1.77-0.07c-0.14,0-0.23,0.12-0.23,0.26c0,0.62,1.42-0.43,1.42,1.65v8.31c0,1.93-1.35,1.39-1.35,1.86
	c0,0.16,0.17,0.21,0.28,0.21c0.5,0,1.08-0.07,1.89-0.07c1.02,0,1.28,0.07,1.87,0.07c0.43,0,0.5-0.09,0.5-0.21
	c0-0.59-1.82,0.31-1.82-2.19v-8.76c0-0.52,0.38-0.52,0.94-0.52c1.99,0,3.57,1.11,3.61,3.21c0.02,1.42-1.04,2.77-2.81,2.77
	c-0.62,0-0.49-0.04-0.63-0.04c-0.09,0-0.17,0.03-0.17,0.16c0,0.16,0.13,0.24,0.28,0.28c0.19,0.08,0.64,0.16,1.11,0.87l0,0
	c1.18,1.94,2.51,4.84,5.55,4.84C24.94,40.35,24.83,40.22,24.83,40.11"/>
</svg>
