<?xml version="1.0" encoding="utf-8"?>
<!-- Generator: Adobe Illustrator 23.0.2, SVG Export Plug-In . SVG Version: 6.00 Build 0)  -->
<svg version="1.1" id="Capa_1" xmlns="http://www.w3.org/2000/svg" xmlns:xlink="http://www.w3.org/1999/xlink" x="0px" y="0px"
	 viewBox="0 0 42 40" style="enable-background:new 0 0 42 40;" xml:space="preserve">
<style type="text/css">
	.st0{fill:#DD273E;}
	.st1{fill:#5BB7AC;}
	.st2{fill:#35133C;}
	.st3{fill:#FFFFFF;}
</style>
<circle class="st0" cx="23.58" cy="20.83" r="18.08"/>
<circle class="st1" cx="19.05" cy="18.14" r="18.08"/>
<circle class="st2" cx="21.55" cy="19.14" r="18.08"/>
<path class="st3" d="M39.56,8.57c-1.11,0.66-2.33,1.13-3.63,1.39c-1.04-1.11-2.53-1.81-4.18-1.81c-3.16,0-5.72,2.56-5.72,5.72
	c0,0.45,0.05,0.89,0.15,1.3c-4.75-0.24-8.97-2.52-11.79-5.98c-0.49,0.85-0.77,1.83-0.77,2.88c0,1.98,1.01,3.74,2.55,4.76
	c-0.94-0.03-1.82-0.29-2.59-0.72c0,0.02,0,0.05,0,0.07c0,2.77,1.97,5.08,4.59,5.61c-0.48,0.13-0.99,0.2-1.51,0.2
	c-0.37,0-0.73-0.04-1.08-0.1c0.73,2.27,2.84,3.93,5.34,3.97c-1.96,1.53-4.43,2.45-7.11,2.45c-0.46,0-0.92-0.03-1.36-0.08
	c2.53,1.62,5.54,2.57,8.77,2.57c10.52,0,16.28-8.72,16.28-16.28c0-0.25-0.01-0.49-0.02-0.74c1.12-0.81,2.09-1.82,2.85-2.96
	c-1.03,0.46-2.13,0.76-3.29,0.9C38.22,11.03,39.13,9.91,39.56,8.57z"/>
</svg>
