<?xml version="1.0" encoding="utf-8"?>
<!-- Generator: Adobe Illustrator 23.0.2, SVG Export Plug-In . SVG Version: 6.00 Build 0)  -->
<svg version="1.1" id="Capa_1" xmlns="http://www.w3.org/2000/svg" xmlns:xlink="http://www.w3.org/1999/xlink" x="0px" y="0px"
	 viewBox="0 0 69 98" style="enable-background:new 0 0 69 98;" xml:space="preserve">
<style type="text/css">
	.st0{fill:#FFFFFF;}
</style>
<path class="st0" d="M34.5,0.54c-18.8,0-34.08,15.28-34.08,34.08c0,6.36,1.76,12.55,5.11,17.89l26.65,43.62
	c0.45,0.74,1.14,1.19,1.93,1.31c1.08,0.17,2.27-0.28,2.9-1.36l26.73-44.02c3.18-5.22,4.83-11.3,4.83-17.44
	C68.58,15.81,53.3,0.54,34.5,0.54z M34.5,51.65c-9.54,0-17.04-7.72-17.04-17.04c0-9.37,7.67-17.04,17.04-17.04
	s17.04,7.67,17.04,17.04C51.54,43.87,44.15,51.65,34.5,51.65z"/>
</svg>
