<?xml version="1.0" encoding="utf-8"?>
<!-- Generator: Adobe Illustrator 23.0.2, SVG Export Plug-In . SVG Version: 6.00 Build 0)  -->
<svg version="1.1" id="Capa_1" xmlns="http://www.w3.org/2000/svg" xmlns:xlink="http://www.w3.org/1999/xlink" x="0px" y="0px"
	 viewBox="0 0 94 81" style="enable-background:new 0 0 94 81;" xml:space="preserve">
<style type="text/css">
	.st0{fill:#005CA3;}
	.st1{fill:#E1AA3A;}
	.st2{fill:none;}
</style>
<g>
	<g>
		<polygon class="st0" points="41.29,52.49 34.13,52.49 38.6,24.99 45.76,24.99 		"/>
		<path class="st0" d="M28.1,24.99l-6.83,18.92l-0.81-4.07l0,0l-2.41-12.37c0,0-0.29-2.48-3.4-2.48H3.38l-0.13,0.47
			c0,0,3.45,0.72,7.49,3.14l6.22,23.89h7.46l11.39-27.5H28.1z"/>
		<path class="st0" d="M84.43,52.49H91l-5.73-27.5h-5.76c-2.66,0-3.31,2.05-3.31,2.05L65.53,52.49h7.46l1.49-4.09h9.1L84.43,52.49z
			 M76.55,42.76l3.76-10.29l2.12,10.29H76.55z"/>
		<path class="st0" d="M66.09,31.6l1.02-5.91c0,0-3.15-1.2-6.44-1.2c-3.55,0-11.99,1.55-11.99,9.11c0,7.11,9.9,7.19,9.9,10.93
			s-8.88,3.06-11.81,0.71l-1.07,6.17c0,0,3.2,1.55,8.08,1.55c4.89,0,12.26-2.53,12.26-9.42c0-7.15-9.99-7.82-9.99-10.93
			C56.05,29.52,63.02,29.91,66.09,31.6z"/>
	</g>
	<path class="st1" d="M20.47,39.83l-2.41-12.37c0,0-0.29-2.48-3.4-2.48H3.38l-0.13,0.47c0,0,5.42,1.12,10.63,5.34
		C18.85,34.82,20.47,39.83,20.47,39.83z"/>
</g>
<rect x="68.56" y="86" class="st2" width="59.14" height="59.14"/>
</svg>
