<?xml version="1.0" encoding="utf-8"?>
<!-- Generator: Adobe Illustrator 23.0.2, SVG Export Plug-In . SVG Version: 6.00 Build 0)  -->
<svg version="1.1" id="Capa_1" xmlns="http://www.w3.org/2000/svg" xmlns:xlink="http://www.w3.org/1999/xlink" x="0px" y="0px"
	 viewBox="0 0 94 81" style="enable-background:new 0 0 94 81;" xml:space="preserve">
<style type="text/css">
	.st0{fill:#90179F;}
	.st1{fill:#8B149B;}
	.st2{fill:#FEFEFE;}
	.st3{fill:#810E93;}
	.st4{fill:#00E1C5;}
	.st5{fill:#881299;}
	.st6{fill:#871197;}
	.st7{fill:#800D91;}
	.st8{fill:#830F95;}
	.st9{fill:#8F169E;}
	.st10{fill:#8B139B;}
	.st11{fill:#861197;}
	.st12{fill:#78098B;}
	.st13{fill:#891399;}
	.st14{fill:#8A139A;}
	.st15{fill:#841095;}
	.st16{fill:#8F179F;}
	.st17{fill:#9218A1;}
	.st18{fill:#9119A0;}
</style>
<path class="st0" d="M-4.77,69.83c0.04-0.51-0.16-1.04,0.15-1.52C-4.65,68.82-4.46,69.35-4.77,69.83z"/>
<path class="st1" d="M81.03,81.02h-67c-3.85,0-7-3.15-7-7v-67c0-3.85,3.15-7,7-7h67c3.85,0,7,3.15,7,7v67
	C88.03,77.87,84.88,81.02,81.03,81.02z"/>
<path class="st2" d="M50.21,56c-0.48-0.1-0.48,0.28-0.55,0.57c-0.18,0.71-0.5,1.32-1.19,1.67c-1.12,0.04-1.12-0.76-1.17-1.53
	c-0.29-0.38-0.71,0.03-1.03-0.16c-0.31-0.02-0.62-0.02-0.9,0.15c-0.03,0.08-0.08,0.09-0.14,0.02c-0.59,0.11-1.18,0.22-1.76,0.33
	c-0.31,0.29-0.72,0.34-1.11,0.42c-1.6,0.31-3.2,0.65-4.81,0.96c-0.41,0.1-0.82,0.24-1.24,0.26c-1.31,0.07-1.87,0.87-2.09,2.04
	c-0.5,1.31-0.98,2.62-1.65,3.86c-0.16,0.3-0.28,0.64-0.63,0.78c-0.7,1.01-1.36,2.04-2.2,2.94c-0.73,0.78-1.57,1.39-2.52,1.87
	c-1.2,0.31-2.37,0.41-3.42-0.41c-1.01-0.79-1.36-1.86-1.27-3.11c0.02-0.31,0.06-0.62,0.08-0.94c0.38-1.03,0.69-2.09,1.23-3.05
	c0.78-1.18,1.69-2.25,2.73-3.22c1.19-0.84,2.32-1.78,3.63-2.43c0.03,0,0.06-0.01,0.09-0.01c1.58-0.33,2.4-1.34,2.66-2.91
	c0.14-0.86,0.63-1.64,0.72-2.6c-0.53,0.17-0.78,0.59-1.14,0.85c-0.94,0.66-1.94,1.1-3.04,0.46c-1.07-0.62-1.18-1.69-1.11-2.79
	c0.03-0.4,0.08-0.8,0.12-1.2c0.51-1.88,1.06-3.75,1.79-5.55c0.08-0.2,0.07-0.45,0.1-0.67c0.03-0.17,0.06-0.33,0.08-0.5
	c0.06-0.48-0.17-1.08,0.53-1.29c0.67-0.2,1.42,0.18,1.77,0.87c0.06,0.13,0.11,0.26,0.17,0.39c0.21,0.82-0.09,1.57-0.32,2.32
	c-0.36,1.18-0.75,2.35-1,3.57c-0.05,0.25-0.12,0.51-0.09,0.77c0.07,0.63,0.48,0.85,1.02,0.51c0.7-0.44,1.14-1.13,1.49-1.86
	c0.32-0.67,0.62-1.36,0.81-2.09c0.08-0.32,0.12-0.71,0.56-0.78c0.48-0.98,0.75-2.04,1.06-3.07c0.25-0.85,0.65-1.58,1.34-2.14
	c0.28-0.13,0.57-0.26,0.85-0.39c0.4-0.08,0.81-0.19,1.19,0.06c0.36,0.56,0.01,1.09-0.09,1.63c-0.25,1.35-0.93,2.6-0.94,4
	c-0.6,3.07-1.66,6.02-2.43,9.04c-0.36,1.41-0.39,1.41,1,1.16c2.12-0.38,4.24-0.75,6.37-1.06c0.31-0.03,0.62,0,0.91-0.11
	c0.12-0.03,0.25-0.05,0.38-0.07c0.57-0.06,1.13-0.2,1.71-0.23c0.81-0.04,1.19-0.46,1.2-1.25c0-0.23,0.11-0.45,0.01-0.78
	c-1.17,0.3-2.41,0.72-3.23-0.72c-0.47,0.59-0.89,1.13-1.47,1.52c-1.64,0.77-3.36,0.18-3.94-1.5c-0.65-1.85-0.6-3.75,0.07-5.61
	c0.54-1.19,0.87-2.46,1.54-3.6c0.36-0.61,0.73-1.19,1.21-1.71c0.19-0.17,0.38-0.34,0.58-0.51c1.26-1.09,2.2-1.14,3.8-0.22
	c0.21-0.18,0.02-0.52,0.28-0.68c0.23-0.7,0.78-0.65,1.33-0.54c0.6,0.13,1.05,0.44,1.12,1.12c0.05,0.43-0.06,0.85-0.16,1.26
	c-0.47,2.01-0.91,4.04-1.3,6.07c-0.06,0.28-0.08,0.57-0.06,0.86c0.02,0.26-0.1,0.64,0.29,0.71c0.31,0.05,0.52-0.2,0.69-0.44
	c0.21-0.29,0.25-0.64,0.32-0.98c0.33-1.78,0.68-3.56,1.03-5.34c0.23-0.89,0.34-1.81,0.56-2.71c0.16-0.65,0.49-1.11,1.23-1.08
	c0.33,0.07,0.68,0.12,0.98,0.29c0.48,0.28,0.6,0.63,0.24,1.09c0.88-1.11,1.8-2.22,3.49-1.87c0.91,0.27,1.43,0.91,1.68,1.79
	c0.31,1.08,0.45,2.18,0.37,3.31c-0.22,1.41-0.44,2.81-0.91,4.17c-0.42,1.23-0.96,2.38-1.72,3.43c-1.34,1.58-2.69,1.87-4.49,0.89
	c-0.43-0.23-0.56-0.23-0.65,0.29c-0.37,2.13-0.38,2.14,1.78,1.9c1.28-0.14,2.57-0.29,3.85-0.49c0.36-0.02,0.73,0,1.08-0.13
	c0.19-0.04,0.38-0.05,0.58-0.08c0.91-0.1,1.83-0.18,2.74-0.25c0.34-0.03,0.69-0.13,0.98,0.16c0.37,0.03,0.74,0.03,1.1,0.09
	c1.23,0.2,1.61,1.06,0.98,2.17c-0.53,0.32-1.1,0.55-1.74,0.53c-0.26,0.17-0.57,0.13-0.85,0.21c-0.13,0.03-0.25,0.04-0.36-0.05
	c-0.43-0.01-0.85-0.03-1.26,0.14c-0.09,0.13-0.19,0.11-0.3,0.03c-0.48-0.01-0.96-0.03-1.42,0.15c-1.29,0.07-2.56,0.25-3.83,0.5
	c-0.15,0.02-0.3,0.03-0.46,0.05c-0.25,0.15-0.54,0.14-0.82,0.2c-0.08,0.03-0.15,0.02-0.22-0.05c-0.37-0.01-0.75-0.02-1.1,0.15
	c-0.08,0.15-0.17,0.12-0.28,0.04C50.92,55.84,50.55,55.83,50.21,56z"/>
<path class="st3" d="M35.42,44.51c-0.42,0.92-0.6,1.93-1.08,2.84c-0.35,0.67-0.72,1.31-1.27,1.83c-0.39,0.36-0.83,0.73-1.38,0.42
	c-0.51-0.28-0.45-0.82-0.38-1.31c0.13-0.94,0.41-1.85,0.71-2.75c0.37-1.14,0.71-2.29,0.93-3.47c0.05-0.05,0.13-0.38,0.17-0.08
	C33.31,43.37,34.39,43.91,35.42,44.51z"/>
<path class="st4" d="M46.44,13.49c2.82-0.4,5.41,0.21,7.76,1.82c1,0.84,1.87,1.79,2.61,2.87c1.21,2.23,1.57,4.59,1.09,7.08
	c-0.45,1.75-1.32,3.26-2.49,4.62c-0.13,0.66-0.73,0.9-1.18,1.26c-0.64,0.52-1.41,0.83-2.13,1.22c-1.12,0.53-2.33,0.72-3.55,0.86
	c-1.05,0.09-2.07-0.1-3.06-0.37c-0.79-0.22-1.46-0.14-2.1,0.36c-0.38,0.3-0.79,0.58-1.29,0.66c-0.46,0.11-0.85,0.74-1.31,0.45
	c-0.53-0.34-0.19-1-0.21-1.52c-0.01-0.14,0.01-0.29,0.01-0.43c0.38-1.25,0.39-2.33-0.57-3.48c-1.73-2.06-2.09-4.59-1.84-7.21
	c0.48-2.2,1.49-4.11,3.11-5.69c0.04-0.17,0.11-0.34,0.24-0.44c1.32-1.1,2.82-1.82,4.5-2.16C46.17,13.37,46.31,13.42,46.44,13.49z"/>
<path class="st2" d="M66.64,44.97c0.06,0.13,0.12,0.25,0.18,0.38c0.37,0.89,0.1,1.58-0.62,2.18c-0.46,0.38-0.87,0.81-1.3,1.22
	c-1.32,0.76-2.65,1.54-4.28,1.23c-0.83,0.11-1.26-0.43-1.63-1.02c-0.82-1.32-0.77-2.8-0.65-4.27c0.05-0.63,0.17-1.25,0.34-1.86
	c0.56-2.05,1.45-3.93,2.78-5.6c0.23-0.29,0.42-0.64,0.87-0.61c0.75-0.53,1.51-1,2.49-0.99c1.76,0.02,2.69,1.02,2.56,2.78
	c-0.05,0.67-0.35,1.26-0.53,1.89c-0.29,0.29-0.22,0.77-0.57,1.02c-0.07,0.22-0.19,0.39-0.39,0.51c-0.05,0.06-0.1,0.12-0.14,0.17
	c-0.75,1.25-1.98,1.77-3.29,2.16c-0.39,0.12-0.79,0.19-0.92,0.67c-0.17,0.62-0.36,1.27,0.2,1.78c0.58,0.53,1.2,0.21,1.75-0.12
	c0.71-0.43,1.35-0.96,1.9-1.61C65.87,44.29,66.17,44.34,66.64,44.97z"/>
<path class="st5" d="M39.87,38.96c-0.39-0.13-0.8-0.06-1.19-0.06C39.08,38.67,39.49,38.58,39.87,38.96z"/>
<path class="st6" d="M59.41,54.81c0.1-0.01,0.2-0.02,0.3-0.03c0.24,0.02,0.49,0.04,0.73,0.06C60.08,54.96,59.73,55.1,59.41,54.81z"
	/>
<path class="st6" d="M60.96,54.64c0.09-0.01,0.19-0.02,0.28-0.03c0.25-0.08,0.51-0.12,0.75,0.02C61.65,54.9,61.31,54.89,60.96,54.64
	z"/>
<path class="st1" d="M62,54.64c-0.25-0.01-0.5-0.01-0.75-0.02c0.29-0.16,0.61-0.15,0.92-0.14C62.11,54.53,62.05,54.58,62,54.64z"/>
<path class="st7" d="M46.28,56.55c0.86-0.23,0.86-0.23,1.03,0.16C46.96,56.66,46.58,56.84,46.28,56.55z"/>
<path class="st7" d="M45.24,56.71c0.04-0.04,0.09-0.05,0.14-0.02c0.18,0.02,0.37,0.04,0.67,0.06
	C45.67,56.93,45.44,56.93,45.24,56.71z"/>
<path class="st8" d="M51.29,55.85c0.09-0.01,0.19-0.02,0.28-0.04c0.19,0.02,0.37,0.04,0.73,0.08
	C51.83,56.05,51.55,56.09,51.29,55.85z"/>
<path class="st6" d="M52.8,55.65c0.28-0.16,0.59-0.15,0.91-0.13c-0.06,0.05-0.12,0.1-0.17,0.16C53.28,55.79,53.04,55.82,52.8,55.65z
	"/>
<path class="st8" d="M52.8,55.65c0.24,0.01,0.49,0.02,0.73,0.02c-0.29,0.25-0.58,0.25-0.86-0.01C52.71,55.63,52.75,55.62,52.8,55.65
	z"/>
<path class="st9" d="M66.64,44.97c-0.45-0.56-0.82-0.32-1.17,0.12c-0.62,0.77-1.36,1.4-2.26,1.81c-1.32,0.61-2.17,0.01-2.05-1.43
	c0.07-0.81,0.28-1.41,1.3-1.57c1.3-0.2,2.34-1.01,3.3-1.91c0.02,0.02,0.05,0.03,0.07,0.05c-0.9,1.04,0.04,1.57,0.62,2.19
	C66.64,44.46,66.83,44.66,66.64,44.97z"/>
<path class="st9" d="M65.9,41.83c0.13-0.17,0.26-0.34,0.39-0.51C66.44,41.7,66.14,41.75,65.9,41.83z"/>
<path class="st10" d="M55.88,41.52c-0.14,1.89-0.6,3.66-1.5,5.3c-0.44,0.8-1.1,1.35-2.08,1.29c-0.56-0.03-0.9-0.21-0.73-0.93
	c0.4-1.77,0.76-3.54,1.41-5.24c0.27-0.7,0.6-1.37,1.19-1.87c0.79-0.67,1.39-0.47,1.59,0.54C55.83,40.92,55.85,41.24,55.88,41.52z"/>
<path class="st11" d="M41.76,46.55c0.15-1.84,0.62-3.57,1.95-4.92c0.55-0.56,1.27-1.26,2.08-0.81c0.8,0.45,0.23,1.31,0.07,1.96
	c-0.39,1.58-0.84,3.16-1.52,4.65c-0.3,0.66-0.56,1.47-1.51,1.41c-0.63-0.04-1.03-0.83-1.07-1.95
	C41.76,46.78,41.76,46.67,41.76,46.55z"/>
<path class="st12" d="M31.11,59.93c-0.84,2.42-1.88,4.71-3.6,6.63c-0.08,0.09-0.15,0.18-0.25,0.24c-0.53,0.39-1.03,1.15-1.77,0.62
	c-0.66-0.47-0.33-1.23-0.09-1.83C26.51,62.93,28.45,61.07,31.11,59.93z"/>
<path class="st13" d="M48.87,40.12c0.42,0.2,0.46,1.37,1.3,0.51c0.03,0.13,0.06,0.26,0.09,0.39c-0.37,2.03-0.73,4.06-1.12,6.09
	c-0.12,0.61-0.63,0.86-1.15,1.06c-0.33,0.13-0.5-0.08-0.51-0.38c-0.02-0.43-0.05-0.87,0.02-1.29
	C47.85,44.36,48.33,42.23,48.87,40.12z"/>
<path class="st14" d="M56.47,52.21c0.34-0.3,0.74-0.12,1.12-0.15C57.24,52.25,56.85,52.22,56.47,52.21z"/>
<path class="st15" d="M43.86,53.93c0.26-0.26,0.59-0.13,0.9-0.14C44.47,53.94,44.17,53.95,43.86,53.93z"/>
<path class="st16" d="M45.97,28.03c-1.7-0.01-2.82-0.9-3.08-2.43c-0.08-0.48-0.03-0.91,0.52-1c0.52-0.09,0.66,0.31,0.75,0.74
	c0.27,1.3,1.55,1.93,2.78,1.38c0.67-0.3,0.78-1.13,0.22-1.73c-0.37-0.39-0.86-0.57-1.33-0.77c-0.66-0.28-1.35-0.52-1.93-0.96
	c-1.05-0.8-1.07-2.33-0.05-3.13c1.07-0.84,3.2-0.73,4.18,0.22c0.41,0.4,0.62,0.89,0.66,1.46c0.03,0.41-0.08,0.77-0.54,0.85
	c-0.48,0.08-0.64-0.24-0.75-0.64c-0.28-1.07-1.12-1.6-2.1-1.33c-0.47,0.12-0.87,0.34-0.94,0.88c-0.07,0.5,0.22,0.83,0.61,1.04
	c0.43,0.23,0.89,0.39,1.34,0.58c0.24,0.1,0.48,0.19,0.71,0.3c1.46,0.68,2.04,1.55,1.8,2.68C48.57,27.35,47.52,28.03,45.97,28.03z"/>
<path class="st17" d="M54.48,20.18c-0.07,0.15-0.14,0.36-0.25,0.56c-1.18,2.17-2.38,4.34-3.56,6.51c-0.22,0.4-0.45,0.83-0.98,0.58
	c-0.55-0.26-0.34-0.71-0.12-1.11c1.21-2.22,2.43-4.44,3.64-6.66c0.17-0.32,0.37-0.59,0.8-0.51C54.31,19.61,54.43,19.83,54.48,20.18z
	"/>
<path class="st18" d="M62.01,41.78c0.37-1.35,0.89-2.41,1.72-3.3c0.29-0.31,0.66-0.63,1.12-0.32c0.4,0.27,0.32,0.72,0.19,1.1
	C64.56,40.62,63.51,41.33,62.01,41.78z"/>
</svg>
