<?xml version="1.0" encoding="utf-8"?>
<!-- Generator: Adobe Illustrator 23.0.2, SVG Export Plug-In . SVG Version: 6.00 Build 0)  -->
<svg version="1.1" id="Capa_1" xmlns="http://www.w3.org/2000/svg" xmlns:xlink="http://www.w3.org/1999/xlink" x="0px" y="0px"
	 viewBox="0 0 201 91" style="enable-background:new 0 0 201 91;" xml:space="preserve">
<style type="text/css">
	.st0{fill:#CCCCCC;}
	.st1{opacity:0.3;fill:#999999;}
	.st2{fill:#102EBA;}
	.st3{fill:#161530;}
	.st4{fill:#303084;}
	.st5{fill:#072389;}
	.st6{fill:#FFFFFF;}
	.st7{clip-path:url(#SVGID_2_);}
	.st8{fill:#EFB69A;}
	.st9{fill:#FFA539;}
	.st10{fill:#F98E2D;}
	.st11{fill:#FFD0B6;}
	.st12{fill:#101023;}
	.st13{fill:#FFAF1E;}
	.st14{fill:none;stroke:#FFFFFF;stroke-width:0.2628;stroke-linecap:round;stroke-miterlimit:10;}
	.st15{fill:#191216;}
	.st16{fill:#F2F2F2;}
	.st17{fill:#393999;}
</style>
<g>
	<path class="st0" d="M4.47,80.89h190.77c0.84,0,1.52-0.7,1.52-1.56l0,0c0-0.86-0.68-1.56-1.52-1.56H4.47"/>
</g>
<path class="st1" d="M2.88,87.5c0,1.23,43.42,2.22,96.97,2.22s96.97-0.99,96.97-2.22c0-1.23-43.42-2.22-96.97-2.22
	S2.88,86.27,2.88,87.5"/>
<path class="st2" d="M18.77,65.78c0,5.11,4.04,9.24,9.02,9.24h83.58h62.35c3.83,0,6.93-3.18,6.93-7.11v-8.14
	c0-7.25-4.2-13.82-10.69-16.7l-13.61-6.05c-1.04-0.46-1.99-1.12-2.79-1.94l-14.58-14.94c-2.87-2.94-5.95-5.64-9.21-8.07
	c-8.9-6.64-19.66-10.16-30.68-10.16H29.47c-5.91,0-10.7,4.91-10.7,10.97"/>
<path class="st3" d="M18.77,65.78c0,5.11,4.04,9.24,9.02,9.24h83.58h62.35c3.83,0,6.93-3.18,6.93-7.11v-3.38H18.77"/>
<path class="st4" d="M149.06,57.49V35.19h-36v26.89h27.69C143.01,59.84,145.87,58.22,149.06,57.49z"/>
<path class="st5" d="M148.54,35.72h-34.96v25.83h26.96c2.26-2.18,5.01-3.72,8-4.48V35.72"/>
<path class="st4" d="M113.05,35.34V15.94c0-0.69,0.54-1.24,1.21-1.24h15.02c0.32,0,0.63,0.13,0.86,0.37L149,34.47
	c0.76,0.78,0.22,2.12-0.86,2.12h-33.88C113.6,36.59,113.05,36.03,113.05,35.34z"/>
<path class="st6" d="M129.29,15.23h-15.02c-0.38,0-0.69,0.32-0.69,0.71v19.41c0,0.39,0.31,0.71,0.69,0.71h33.88
	c0.43,0,0.6-0.33,0.64-0.44c0.04-0.1,0.15-0.46-0.15-0.77l-18.85-19.41C129.65,15.31,129.47,15.23,129.29,15.23"/>
<g>
	<defs>
		<path id="SVGID_1_" d="M113.05,35.34V15.94c0-0.69,0.54-1.24,1.21-1.24h15.02c0.32,0,0.63,0.13,0.86,0.37L149,34.47
			c0.76,0.78,0.22,2.12-0.86,2.12h-33.88C113.6,36.59,113.05,36.03,113.05,35.34z"/>
	</defs>
	<clipPath id="SVGID_2_">
		<use xlink:href="#SVGID_1_"  style="overflow:visible;"/>
	</clipPath>
	<g class="st7">
		<path class="st8" d="M132.48,32.75c0.07-0.01,0.19,0.04,0.23,0.09c0.05,0.05,0.07,0.12,0.1,0.18c0.03,0.06,0.06,0.13,0.08,0.19
			c0.02,0.05,0.04,0.1,0.05,0.15c0.04,0.19-0.06,0.39-0.15,0.56c-0.22,0.4-0.68,0.36-1.04,0.18c-0.12-0.06-0.24-0.12-0.37-0.14
			c-0.26-0.06-0.51,0.06-0.74,0.17c-1.59,0.72-3.37,1.31-5.11,0.9c-1.43-0.33-1.45-2.37-1.48-3.6c0-0.16,0.39-0.27,0.5-0.32
			c0.23-0.09,0.46-0.16,0.69-0.21c0.22-0.05,0.77-0.21,0.92,0.01c0.1,0.14,0.1,0.32,0.14,0.48c0.07,0.28,0.14,0.56,0.18,0.84
			c0.04,0.28,0.09,0.79,0.05,1.07c1.4-0.43,2.73-0.28,4.58-0.34c0.04,0,0.08,0.02,0.11,0.03c0.07-0.21,0.42-0.33,0.61-0.34
			c-0.02,0.08,0.02,0.16,0.08,0.22c0.06,0.05,0.14,0.07,0.22,0.09c0.05,0.01,0.29,0.04,0.29,0.04s0.02-0.09,0.02-0.11
			C132.47,32.83,132.48,32.77,132.48,32.75z"/>
		<path class="st3" d="M120.73,41.59c-0.12,0.21-0.29,0.24-0.43,0.17c-0.82,0.13-1.7,0.01-2.25-0.78c-0.53-0.76-0.6-1.78-0.7-2.73
			c-0.11-1.06-0.16-2.12-0.17-3.19c-0.02-2.47,0.19-4.93,0.26-7.4c0.07-2.36,0.04-4.73,0.06-7.09c0-0.17,0-0.36,0.08-0.5
			c0.09-0.16,0.25-0.24,0.41-0.25c1.5-0.13,3.41,1.68,3.65,3.42c0.16,1.14-0.25,2.26-0.38,3.37c-0.14,1.16,0.17,1.87,0.69,2.8
			c0.79,1.4,1.1,2.92,1.09,4.47C123.01,36.57,121.99,39.34,120.73,41.59z"/>
		<path class="st9" d="M130.51,37.31c0.05,0.37,0.21,0.83,0.11,1.2c-0.13,0.51-0.92,0.42-1.25,0.45c-0.6,0.05-1.19,0.09-1.79,0.11
			c-1.19,0.04-2.41,0.03-3.59-0.04c-0.46-0.03-0.98-0.1-1.21-0.68c-0.2-0.52-0.11-1.11-0.09-1.66c0.05-1.5,0.08-3.04,0.42-4.48
			c0.47-2,2.2-4.37,4.08-3.23c0.77,0.46,1.27,1.44,1.66,2.43C129.61,33.28,130.21,35.25,130.51,37.31z"/>
		<path class="st10" d="M125.02,37.68c-2.38-1.71-1.91-5.49-0.53-8.14c-0.66,0.7-1.16,1.72-1.38,2.65
			c-0.34,1.44-0.37,2.98-0.42,4.48c-0.02,0.55-0.11,1.14,0.09,1.66c0.23,0.58,0.75,0.65,1.21,0.68c1.18,0.07,2.4,0.08,3.59,0.04
			c0.6-0.02,1.19-0.06,1.79-0.11c0.33-0.03,1.12,0.06,1.25-0.45c0.02-0.07,0.02-0.14,0.02-0.22C129,38.64,126.48,38.73,125.02,37.68
			z"/>
		<polygon class="st10" points="125.18,28.39 125.2,29 127.74,29.76 127.06,28.83 		"/>
		<path class="st11" d="M129.4,21.42c0.15,0.51,0.26,1.03,0.32,1.56c0.03,0.22,0.04,0.44,0.05,0.67c0.08,1.95-0.9,4.06-2.85,4.62
			c-0.01,0-0.01,0-0.02,0.01c-0.01,0.01,0,0.02-0.01,0.02c-0.01,0.11,0.01,0.24,0.01,0.61c0,0.13,0.01,0.24-0.07,0.34
			c-0.15,0.21-0.5,0.3-0.74,0.31c-0.27,0.02-0.53,0-0.77-0.15c-0.21-0.13-0.2-0.48-0.2-0.81c0-0.04,0.02-0.35,0-0.35
			c-1.05-0.18-1.84-0.79-2.34-1.75c-0.45-0.85-0.62-1.85-0.61-2.8c0-0.18,0.15-0.28,0.3-0.28c0.1-0.41,0.38-0.64,0.83-0.84
			c0.03-0.01,0.06-0.02,0.08-0.02c0.17-0.12,0.36-0.23,0.53-0.33c0.53-0.31,1.09-0.6,1.65-0.84c0.85-0.36,2.46-1.14,3.37-0.66
			c0.01,0,0.01,0.01,0.01,0.02c0.11-0.03,0.24,0.01,0.28,0.15C129.3,21.09,129.36,21.25,129.4,21.42z"/>
		<path class="st12" d="M130.24,21.72c-0.05,0.02-0.06,0.03-0.15,0.03c0.06,0.07,0.12,0.41-0.35,0.62c-0.31,0.14-0.7,0.16-1.04,0.14
			c-0.07-0.01-0.52-0.04-0.54-0.13c0.05,0.23,0.01,0.5-0.18,0.68c-0.3,0.29-0.83,0.27-1.21,0.21c-0.78-0.13-1.47-0.28-2.13,0.13
			c-0.16,0.19-0.28,0.42-0.34,0.68c-0.11,0.44-0.2,0.89-0.22,1.34c0,0.06-0.01,0.13-0.05,0.18c-0.05,0.05-0.12,0.05-0.18,0.05
			c-0.03,0-0.06,0-0.08-0.02c-0.03-0.02-0.03-0.06-0.04-0.09c-0.03-0.21-0.05-0.44-0.16-0.62c-0.09-0.14-0.23-0.25-0.39-0.27
			c-0.16-0.03-0.33,0.04-0.43,0.17c-0.22,0.29-0.1,0.68,0.08,0.97c0.21,0.32,0.62,0.49,0.54,0.94c-0.02,0.09-0.11,0.52-0.27,0.4
			c-0.19-0.14-0.35-0.31-0.5-0.49c-0.1,0.16-0.28,0.22-0.51,0.03c-0.37-0.32-0.35-0.78-0.25-1.23c-0.15,0.07-0.33,0.05-0.45-0.12
			c-0.31-0.41-0.05-1.07,0.19-1.45c0.03-0.04,0.07-0.06,0.11-0.05c0.18-0.33,0.43-0.62,0.72-0.86c0.56-0.46,1.25-0.72,1.91-1
			c0.79-0.35,1.6-0.65,2.41-0.95c0.33-0.12,0.66-0.25,0.99-0.36c0.49-0.17,0.85-0.39,1.38-0.3c0.31,0.05,0.61,0.15,0.9,0.26
			c0.27,0.1,0.5,0.31,0.52,0.62C130.53,21.46,130.46,21.64,130.24,21.72z"/>
		<path class="st3" d="M133.75,37.25c-0.05,0.37-0.1,0.74-0.2,1.08c-0.05,0.17-0.11,0.32-0.17,0.44c-0.06,0.13-0.13,0.14-0.05,0.14
			c0.08,0.02-0.02,0.02-0.11-0.1c-0.09-0.11-0.18-0.26-0.26-0.42c-0.15-0.33-0.28-0.69-0.37-1.07c-0.19-0.75-0.27-1.54-0.29-2.33
			c-0.01-0.79,0.04-1.58,0.2-2.34c0.08-0.38,0.19-0.75,0.33-1.08c0.14-0.33,0.33-0.52,0.4-0.39c0.07,0.12,0.13,0.27,0.19,0.43
			c0.11,0.33,0.18,0.7,0.24,1.07c0.12,0.74,0.17,1.52,0.18,2.28C133.86,35.73,133.83,36.5,133.75,37.25z M134.85,32.42
			c-0.1-0.42-0.24-0.83-0.43-1.24c-0.09-0.21-0.21-0.42-0.37-0.63l-0.14-0.16c-0.05-0.05-0.12-0.11-0.18-0.15
			c-0.06-0.05-0.17-0.09-0.25-0.13c-0.09-0.03-0.22-0.05-0.32-0.05c-0.11,0.02-0.23,0.04-0.31,0.08c-0.08,0.04-0.17,0.1-0.23,0.15
			c-0.06,0.05-0.12,0.11-0.16,0.17l-0.11,0.17c-0.13,0.22-0.21,0.44-0.28,0.65c-0.13,0.42-0.19,0.84-0.24,1.26
			c-0.1,0.83-0.13,1.65-0.11,2.47c0.01,0.82,0.07,1.64,0.2,2.46c0.07,0.41,0.15,0.83,0.29,1.25c0.07,0.21,0.16,0.42,0.3,0.64
			l0.12,0.16c0.05,0.06,0.11,0.11,0.17,0.16c0.06,0.05,0.16,0.1,0.24,0.14c0.09,0.04,0.21,0.06,0.32,0.07
			c0.11-0.01,0.23-0.03,0.32-0.06c0.08-0.04,0.18-0.09,0.25-0.14c0.06-0.05,0.13-0.11,0.18-0.16l0.13-0.16
			c0.15-0.22,0.26-0.43,0.35-0.64c0.17-0.42,0.29-0.84,0.38-1.26c0.17-0.84,0.22-1.68,0.21-2.52
			C135.14,34.09,135.05,33.25,134.85,32.42z"/>
		<path class="st11" d="M135.02,33.07c0-0.01,0.01-0.01,0.01-0.02c0.02-0.01,0.04,0.02,0.04,0.04c0.09,0.48,0.18,1.16-0.27,1.5
			c-0.24,0.18-0.56,0.2-0.84,0.15c-0.13-0.03-0.26-0.05-0.39-0.05c-0.27,0.01-0.48,0.19-0.68,0.35c-1.37,1.09-2.96,2.1-4.75,2.15
			c-1.46,0.04-1.97-1.93-2.29-3.13c-0.04-0.16,0.31-0.36,0.41-0.43c0.2-0.14,0.41-0.27,0.62-0.37c0.2-0.1,0.69-0.4,0.9-0.22
			c0.13,0.11,0.18,0.29,0.25,0.43c0.14,0.25,0.27,0.5,0.37,0.77c0.1,0.27,0.27,0.74,0.3,1.03c1.26-0.76,2.58-0.95,4.37-1.47
			c0.04-0.01,0.08,0,0.11,0c0.02-0.22,0.33-0.42,0.51-0.49c0,0.08,0.05,0.16,0.13,0.19c0.07,0.03,0.15,0.04,0.23,0.03
			c0.13,0,0.26-0.02,0.38-0.06C134.7,33.42,134.91,33.28,135.02,33.07z"/>
		<path class="st10" d="M127.2,31.66c-0.04-0.04-0.08-0.08-0.11-0.12c-0.39-0.4-0.94-0.68-1.49-0.44c-0.98,0.43-0.63,1.87-0.38,2.66
			c0.1,0.32,0.2,0.64,0.32,0.96c0.07,0.2,0.25,0.82,0.52,0.81c0.14-0.01,0.25-0.1,0.37-0.16c0.15-0.08,0.3-0.16,0.45-0.23
			c0.4-0.2,0.8-0.38,1.2-0.55c0.26-0.11,0.6-0.28,0.56-0.62c-0.03-0.27-0.23-0.51-0.37-0.73C127.94,32.69,127.62,32.12,127.2,31.66z
			"/>
		<path class="st13" d="M125.35,23.29c0,0,2.93-0.68,5.16-2.58c2.23-1.9-5.48,0.28-5.48,0.28L125.35,23.29z"/>
		<path class="st2" d="M125.81,23.09c-1.19,0.53-2.44,0.94-3.71,1.22c-0.65,0.14-0.87-1.43-0.94-1.89
			c-0.19-1.21-0.03-2.83,2.77-3.98c1.6-0.66,3.23-0.3,4.13,1.25c0.19,0.33,0.67,1.37,0.59,1.53
			C128.44,21.63,126.42,22.83,125.81,23.09z"/>
		<path class="st13" d="M121.81,22.35c-0.53-0.79-0.18-1.83,0.14-2.65c-0.88,0.92-0.91,1.92-0.79,2.73
			c0.07,0.45,0.29,2.03,0.94,1.89c1.27-0.28,2.51-0.69,3.71-1.22c0.6-0.27,2.63-1.46,2.84-1.87c0.02-0.04,0.01-0.13-0.03-0.26
			c-1.1,1.05-2.42,1.67-3.6,2.1C124.03,23.44,122.69,23.65,121.81,22.35z"/>
		<path class="st2" d="M129.7,25.23c-0.02,0.59-0.22,1.16-0.5,1.64c-0.43,0.75-1.1,1.39-1.89,1.35c-0.41-0.02-0.85-0.16-1.19-0.44
			c-0.1-0.08-0.19-0.18-0.27-0.29c-0.25-0.35-0.39-0.79-0.46-1.24c-0.03-0.19-0.07-0.39,0-0.57c0.08-0.23,0.23-0.29,0.43-0.26
			c0.28,0.04,0.57,0.03,0.85,0.03c0.97-0.01,1.95-0.07,2.9-0.35C129.63,25.07,129.7,25.14,129.7,25.23z"/>
		<path class="st14" d="M125.43,25.68c0,0-0.97,0.18-1.84-0.84"/>
		<path class="st14" d="M125.52,26.41c0,0-1.05,0.52-2.02,0.05"/>
		<polygon class="st10" points="125.04,28.72 124.84,29.21 126.93,30.43 126.93,29.16 		"/>
	</g>
</g>
<ellipse class="st15" cx="47.88" cy="75.03" rx="11.72" ry="12.01"/>
<path class="st5" d="M64.56,75.03c0-9.44-7.46-17.09-16.67-17.09c-9.21,0-16.67,7.65-16.67,17.09H64.56z"/>
<ellipse class="st12" cx="47.88" cy="75.03" rx="11.72" ry="12.01"/>
<ellipse class="st3" cx="47.88" cy="75.03" rx="6.86" ry="7.03"/>
<ellipse class="st16" cx="47.88" cy="75.03" rx="5.06" ry="5.19"/>
<ellipse class="st6" cx="47.88" cy="75.03" rx="4.19" ry="4.3"/>
<ellipse class="st15" cx="152.89" cy="75.03" rx="11.72" ry="12.01"/>
<path class="st5" d="M170.18,75.03c0-9.78-7.74-17.72-17.28-17.72c-9.55,0-17.28,7.93-17.28,17.72H170.18z"/>
<ellipse class="st12" cx="152.89" cy="75.03" rx="11.72" ry="12.01"/>
<ellipse class="st3" cx="152.89" cy="75.03" rx="6.86" ry="7.03"/>
<ellipse class="st16" cx="152.89" cy="75.03" rx="5.06" ry="5.19"/>
<ellipse class="st6" cx="152.89" cy="75.03" rx="4.19" ry="4.3"/>
<path class="st4" d="M92.9,6.33H30.77c-4.1,0-7.42,3.41-7.42,7.61v24.31c0,4.2,3.32,7.61,7.42,7.61h61.84c4.25,0,7.7-3.54,7.7-7.9
	V13.94C100.32,9.74,97,6.33,92.9,6.33z"/>
<path class="st5" d="M92.54,6.68H31.13c-4.11,0-7.44,3.33-7.44,7.44v23.89c0,4.11,3.33,7.44,7.44,7.44h61.42
	c4.11,0,7.44-3.33,7.44-7.44V14.12C99.98,10.01,96.65,6.68,92.54,6.68z"/>
<g>
	<path class="st17" d="M120.34,38.47h-4.15c-0.67,0-1.21,0.54-1.21,1.21v0.25c0,0.67,0.54,1.21,1.21,1.21h4.15
		c0.67,0,1.21-0.54,1.21-1.21v-0.25C121.55,39.01,121,38.47,120.34,38.47z"/>
	<path class="st3" d="M120.51,38.82h-4.49c-0.25,0-0.45,0.2-0.45,0.45v0.09c0,0.25,0.2,0.45,0.45,0.45h4.49
		c0.25,0,0.45-0.2,0.45-0.45v-0.09C120.95,39.02,120.75,38.82,120.51,38.82z"/>
</g>
<g>
	<g>
		<path class="st6" d="M39.69,14.65v4.91h-2.08v-1.44h-3.13l-1.21,1.44h-2.6l5.08-6.18c0.49-0.5,1.15-0.75,1.96-0.75
			C39.03,12.62,39.69,13.3,39.69,14.65z M37.61,14.41c0-0.1-0.01-0.14-0.02-0.14c-0.05,0-0.18,0.15-0.4,0.44l-1.35,1.77h1.77V14.41z
			"/>
		<path class="st6" d="M46.81,12.62h2.08v4.91c0,1.35-0.98,2.02-2.92,2.02h-2.83c-1.95,0-2.92-0.83-2.92-2.5v-4.43h2.08v4.43
			c0,0.58,0.28,0.87,0.85,0.87h2.83c0.57,0,0.85-0.29,0.85-0.87V12.62z"/>
		<path class="st6" d="M54.79,14.26v5.3h-2.08v-5.3h-3.3v-1.64h8.68v1.64H54.79z"/>
		<path class="st6" d="M61.09,12.62h2.83c1.95,0,2.92,0.83,2.92,2.5v2.41c0,1.35-0.98,2.02-2.92,2.02h-2.83
			c-1.95,0-2.92-0.83-2.92-2.5v-1.93C58.16,13.46,59.14,12.62,61.09,12.62z M63.92,14.26h-2.83c-0.57,0-0.85,0.29-0.85,0.87v1.93
			c0,0.58,0.28,0.87,0.85,0.87h2.83c0.57,0,0.85-0.29,0.85-0.87v-1.93C64.77,14.55,64.48,14.26,63.92,14.26z"/>
		<path class="st13" d="M70.05,16.91c-1.79,0-2.69-0.67-2.69-2.02v-0.24c0-1.35,0.9-2.02,2.69-2.02h5.99v1.64h-5.99
			c-0.41,0-0.61,0.13-0.61,0.39v0.24c0,0.26,0.2,0.39,0.61,0.39h3.3c1.79,0,2.69,0.67,2.69,2.02v0.24c0,1.35-0.9,2.02-2.69,2.02
			h-5.99l0-1.64h5.99c0.41,0,0.61-0.13,0.61-0.39V17.3c0-0.26-0.2-0.39-0.61-0.39H70.05z"/>
		<path class="st13" d="M83.17,12.62h2.08v4.91c0,1.35-0.98,2.02-2.92,2.02h-2.83c-1.95,0-2.92-0.83-2.92-2.5v-4.43h2.08v4.43
			c0,0.58,0.28,0.87,0.85,0.87h2.83c0.57,0,0.85-0.29,0.85-0.87V12.62z"/>
		<path class="st13" d="M91.76,15.27c0.41,0,0.61-0.13,0.61-0.39v-0.24c0-0.26-0.2-0.39-0.61-0.39h-5.99l0-1.64h5.99
			c1.79,0,2.69,0.67,2.69,2.02v0.24c0,1.35-0.9,2.02-2.69,2.02h-3.91v2.65h-2.08v-4.29H91.76z"/>
	</g>
	<path class="st2" d="M55.56,24.51H31.66c-0.61,0-1.11-0.5-1.11-1.11v-0.09c0-0.61,0.5-1.11,1.11-1.11h23.91
		c0.61,0,1.11,0.5,1.11,1.11v0.09C56.67,24.01,56.17,24.51,55.56,24.51z"/>
	<path class="st13" d="M93.67,24.51H49.64c-0.62,0-1.13-0.51-1.13-1.13v-0.05c0-0.62,0.51-1.13,1.13-1.13h44.03
		c0.62,0,1.13,0.51,1.13,1.13v0.05C94.8,24,94.29,24.51,93.67,24.51z"/>
	<g>
		<path d="M54.52,23.5h-0.28v-0.16h0.28v-0.27h0.16v0.27h0.28v0.16h-0.28v0.27h-0.16V23.5z"/>
		<path d="M56.99,22.71h0.59c0.12,0,0.21,0.03,0.27,0.08c0.06,0.06,0.09,0.14,0.09,0.24c0,0.06-0.01,0.12-0.04,0.16
			c-0.03,0.04-0.06,0.08-0.11,0.1c0.06,0.02,0.11,0.05,0.14,0.09c0.03,0.04,0.05,0.1,0.05,0.18c0,0.12-0.03,0.2-0.09,0.26
			c-0.06,0.06-0.16,0.09-0.28,0.09h-0.61V22.71z M57.55,23.23c0.13,0,0.19-0.06,0.19-0.18c0-0.06-0.02-0.11-0.05-0.14
			c-0.03-0.03-0.09-0.04-0.17-0.04h-0.33v0.36H57.55z M57.56,23.77c0.07,0,0.13-0.02,0.16-0.05s0.05-0.08,0.05-0.16
			c0-0.06-0.02-0.11-0.05-0.14c-0.03-0.03-0.09-0.04-0.18-0.04h-0.34v0.39H57.56z"/>
		<path d="M59.04,22.71h0.23l0.46,1.21h-0.21l-0.12-0.31h-0.49l-0.12,0.31h-0.21L59.04,22.71z M59.37,23.46l-0.21-0.55l-0.21,0.55
			H59.37z"/>
		<path d="M60.57,22.87h-0.39v-0.16h0.98v0.16h-0.39v1.05h-0.21V22.87z"/>
		<path d="M61.89,22.71h0.84v0.16H62.1v0.37h0.57v0.16H62.1v0.37h0.64v0.16h-0.84V22.71z"/>
		<path d="M63.49,22.71h0.56c0.13,0,0.23,0.03,0.29,0.1c0.06,0.07,0.1,0.16,0.1,0.29c0,0.09-0.02,0.16-0.06,0.22
			c-0.04,0.06-0.1,0.1-0.18,0.13c0.02,0.01,0.04,0.03,0.05,0.05c0.01,0.02,0.03,0.04,0.04,0.08l0.15,0.35h-0.21l-0.15-0.34
			c-0.02-0.03-0.03-0.06-0.05-0.07s-0.05-0.02-0.1-0.02h-0.23v0.43h-0.21V22.71z M63.99,23.33c0.16,0,0.24-0.08,0.24-0.23
			c0-0.15-0.07-0.23-0.22-0.23h-0.32v0.46H63.99z"/>
		<path d="M65.2,22.71h0.21v1.21H65.2V22.71z"/>
		<path d="M66.63,22.71h0.23l0.46,1.21h-0.21l-0.12-0.31H66.5l-0.12,0.31h-0.21L66.63,22.71z M66.95,23.46l-0.21-0.55l-0.21,0.55
			H66.95z"/>
		<path d="M67.99,23.88V23.7c0.12,0.04,0.24,0.07,0.36,0.07c0.1,0,0.18-0.01,0.22-0.04c0.05-0.02,0.07-0.07,0.07-0.13
			c0-0.04-0.01-0.07-0.03-0.1c-0.02-0.02-0.05-0.05-0.09-0.06s-0.11-0.04-0.2-0.06c-0.13-0.03-0.22-0.08-0.27-0.13
			c-0.05-0.05-0.08-0.12-0.08-0.21c0-0.11,0.04-0.19,0.12-0.25s0.19-0.09,0.35-0.09c0.07,0,0.13,0,0.19,0.01s0.11,0.02,0.15,0.03
			v0.18c-0.1-0.04-0.2-0.05-0.32-0.05c-0.1,0-0.17,0.01-0.21,0.04c-0.05,0.02-0.07,0.07-0.07,0.13c0,0.04,0.01,0.07,0.03,0.09
			s0.05,0.04,0.09,0.06c0.04,0.02,0.1,0.04,0.18,0.06c0.14,0.04,0.24,0.08,0.29,0.14s0.08,0.13,0.08,0.22
			c0,0.11-0.04,0.19-0.12,0.25c-0.08,0.06-0.2,0.09-0.36,0.09S68.08,23.92,67.99,23.88z"/>
		<path d="M71.29,22.71h0.23l0.46,1.21h-0.21l-0.12-0.31h-0.49l-0.12,0.31h-0.21L71.29,22.71z M71.61,23.46L71.4,22.9l-0.21,0.55
			H71.61z"/>
		<path d="M72.75,23.82c-0.09-0.08-0.14-0.2-0.14-0.35v-0.76h0.21v0.75c0,0.1,0.03,0.18,0.08,0.23c0.06,0.05,0.13,0.08,0.24,0.08
			c0.1,0,0.18-0.03,0.24-0.08c0.06-0.05,0.08-0.13,0.08-0.23v-0.75h0.2v0.76c0,0.15-0.05,0.27-0.14,0.35s-0.22,0.12-0.39,0.12
			C72.97,23.94,72.84,23.9,72.75,23.82z"/>
		<path d="M74.77,22.87h-0.39v-0.16h0.98v0.16h-0.39v1.05h-0.21V22.87z"/>
		<path d="M76.08,23.79c-0.09-0.1-0.14-0.26-0.14-0.47c0-0.22,0.05-0.38,0.14-0.48c0.09-0.1,0.24-0.15,0.43-0.15
			c0.19,0,0.34,0.05,0.43,0.15c0.09,0.1,0.14,0.26,0.14,0.48c0,0.21-0.05,0.37-0.14,0.47c-0.09,0.1-0.24,0.15-0.43,0.15
			S76.18,23.89,76.08,23.79z M76.8,23.67c0.06-0.07,0.09-0.18,0.09-0.34c0-0.16-0.03-0.28-0.09-0.35c-0.06-0.07-0.15-0.1-0.28-0.1
			c-0.13,0-0.22,0.03-0.28,0.1c-0.06,0.07-0.09,0.19-0.09,0.35c0,0.16,0.03,0.27,0.09,0.34c0.06,0.07,0.15,0.11,0.28,0.11
			C76.64,23.77,76.74,23.74,76.8,23.67z"/>
		<path d="M77.79,22.71H78l0.38,0.78l0.38-0.78h0.21v1.21h-0.2v-0.88l-0.33,0.67h-0.12l-0.33-0.67v0.88h-0.2V22.71z"/>
		<path d="M79.81,23.79c-0.09-0.1-0.14-0.26-0.14-0.47c0-0.22,0.05-0.38,0.14-0.48c0.09-0.1,0.24-0.15,0.43-0.15
			c0.19,0,0.34,0.05,0.43,0.15c0.09,0.1,0.14,0.26,0.14,0.48c0,0.21-0.05,0.37-0.14,0.47c-0.09,0.1-0.24,0.15-0.43,0.15
			S79.91,23.89,79.81,23.79z M80.52,23.67c0.06-0.07,0.09-0.18,0.09-0.34c0-0.16-0.03-0.28-0.09-0.35c-0.06-0.07-0.15-0.1-0.28-0.1
			c-0.13,0-0.22,0.03-0.28,0.1c-0.06,0.07-0.09,0.19-0.09,0.35c0,0.16,0.03,0.27,0.09,0.34c0.06,0.07,0.15,0.11,0.28,0.11
			C80.37,23.77,80.46,23.74,80.52,23.67z"/>
		<path d="M81.79,22.87H81.4v-0.16h0.98v0.16H82v1.05h-0.21V22.87z"/>
		<path d="M83.11,22.71h0.56c0.13,0,0.23,0.03,0.29,0.1c0.06,0.07,0.1,0.16,0.1,0.29c0,0.09-0.02,0.16-0.06,0.22
			c-0.04,0.06-0.1,0.1-0.18,0.13c0.02,0.01,0.04,0.03,0.05,0.05c0.01,0.02,0.03,0.04,0.04,0.08l0.15,0.35h-0.21l-0.15-0.34
			c-0.02-0.03-0.03-0.06-0.05-0.07s-0.05-0.02-0.1-0.02h-0.23v0.43h-0.21V22.71z M83.61,23.33c0.16,0,0.24-0.08,0.24-0.23
			c0-0.15-0.07-0.23-0.22-0.23h-0.32v0.46H83.61z"/>
		<path d="M84.82,22.71h0.21v1.21h-0.21V22.71z"/>
		<path d="M85.94,23.78c-0.1-0.11-0.16-0.25-0.16-0.44c0-0.2,0.05-0.36,0.15-0.47c0.1-0.11,0.25-0.17,0.45-0.17
			c0.13,0,0.24,0.02,0.35,0.06v0.18c-0.11-0.04-0.22-0.06-0.34-0.06c-0.15,0-0.25,0.04-0.32,0.12s-0.1,0.19-0.1,0.35
			c0,0.14,0.03,0.25,0.1,0.32c0.07,0.07,0.17,0.11,0.31,0.11c0.12,0,0.24-0.02,0.34-0.06v0.18c-0.11,0.03-0.23,0.05-0.35,0.05
			C86.2,23.94,86.05,23.89,85.94,23.78z"/>
		<path d="M87.51,22.71h0.84v0.16h-0.64v0.37h0.57v0.16h-0.57v0.37h0.64v0.16h-0.84V22.71z"/>
		<path d="M89.1,23.88V23.7c0.12,0.04,0.24,0.07,0.36,0.07c0.1,0,0.18-0.01,0.22-0.04c0.05-0.02,0.07-0.07,0.07-0.13
			c0-0.04-0.01-0.07-0.03-0.1c-0.02-0.02-0.05-0.05-0.09-0.06s-0.11-0.04-0.2-0.06c-0.13-0.03-0.22-0.08-0.27-0.13
			c-0.05-0.05-0.08-0.12-0.08-0.21c0-0.11,0.04-0.19,0.12-0.25s0.19-0.09,0.35-0.09c0.07,0,0.13,0,0.19,0.01s0.11,0.02,0.15,0.03
			v0.18c-0.1-0.04-0.2-0.05-0.32-0.05c-0.1,0-0.17,0.01-0.21,0.04c-0.05,0.02-0.07,0.07-0.07,0.13c0,0.04,0.01,0.07,0.03,0.09
			s0.05,0.04,0.09,0.06c0.04,0.02,0.1,0.04,0.18,0.06c0.14,0.04,0.24,0.08,0.29,0.14s0.08,0.13,0.08,0.22
			c0,0.11-0.04,0.19-0.12,0.25c-0.08,0.06-0.2,0.09-0.36,0.09S89.19,23.92,89.1,23.88z"/>
		<path d="M91.94,23.34h0.72v0.16h-0.72V23.34z"/>
	</g>
</g>
<g>
	<path class="st13" d="M44.9,33.59l0.46-1.26h4.42c1.5,0,2.01,0.64,1.55,1.92l-0.67,1.85c-0.38,1.04-1.31,1.55-2.81,1.55h-4.42
		l1.13-3.11h1.59l-0.67,1.85h2.83c0.43,0,0.73-0.22,0.89-0.67l0.54-1.48c0.16-0.44,0.03-0.67-0.41-0.67H44.9z"/>
	<path class="st13" d="M52.82,35.63l-0.04,0.11c-0.16,0.44-0.02,0.67,0.41,0.67h3.7l-0.46,1.26h-3.7c-1.5,0-2.01-0.64-1.55-1.92
		l0.54-1.48c0.47-1.28,1.45-1.92,2.95-1.92h3.7l-0.45,1.26h-3.7c-0.43,0-0.73,0.22-0.89,0.67l-0.04,0.11h4.35l-0.46,1.26H52.82z"/>
	<path class="st13" d="M59.13,35.74c-0.16,0.44-0.02,0.67,0.41,0.67h3.7l-0.46,1.26h-3.7c-1.5,0-2.01-0.64-1.55-1.92l1.24-3.4h1.59
		L59.13,35.74z"/>
	<path class="st13" d="M65.12,32.33h1.59l-1.94,5.33h-1.59L65.12,32.33z"/>
	<path class="st13" d="M68.69,37.66h-0.36c-0.51,0-0.8-0.26-0.87-0.78l-0.57-4.55h1.79l0.45,3.61l3.08-3.61H74l-3.88,4.55
		C69.68,37.4,69.2,37.66,68.69,37.66z"/>
	<path class="st13" d="M74.09,35.63l-0.04,0.11c-0.16,0.44-0.02,0.67,0.41,0.67h3.7l-0.46,1.26H74c-1.5,0-2.01-0.64-1.55-1.92
		l0.54-1.48c0.47-1.28,1.45-1.92,2.95-1.92h3.7l-0.45,1.26h-3.7c-0.43,0-0.73,0.22-0.89,0.67l-0.04,0.11h4.35l-0.46,1.26H74.09z"/>
	<path class="st13" d="M83.9,34.37c0.31,0,0.51-0.1,0.58-0.3l0.07-0.19c0.07-0.2-0.05-0.3-0.36-0.3h-4.6l0.46-1.26h4.6
		c1.38,0,1.88,0.52,1.5,1.55l-0.07,0.19c-0.33,0.9-0.99,1.41-1.98,1.51l2.05,3.56h-2.01l-2.03-3.51h-1.66l-0.74,2.04H78.1l1.2-3.29
		H83.9z"/>
	<path class="st13" d="M88.6,35.2l-1.97-2.87h2.03l1.16,1.7l2.4-1.7h2.03L90.2,35.2l-0.9,2.46h-1.59L88.6,35.2z"/>
</g>
<path class="st13" d="M41.97,37.72H30.76c-0.3,0-0.55-0.25-0.55-0.55l0,0c0-0.3,0.25-0.55,0.55-0.55h11.21
	c0.3,0,0.55,0.25,0.55,0.55l0,0C42.51,37.47,42.27,37.72,41.97,37.72z"/>
<path class="st13" d="M42.97,35.53h-7.28c-0.3,0-0.55-0.25-0.55-0.55l0,0c0-0.3,0.25-0.55,0.55-0.55h7.28c0.3,0,0.55,0.25,0.55,0.55
	l0,0C43.51,35.29,43.27,35.53,42.97,35.53z"/>
<path class="st13" d="M43.56,33.34h-4.64c-0.3,0-0.55-0.25-0.55-0.55l0,0c0-0.3,0.25-0.55,0.55-0.55h4.64c0.3,0,0.55,0.25,0.55,0.55
	l0,0C44.11,33.1,43.86,33.34,43.56,33.34z"/>
</svg>
