<?xml version="1.0" encoding="utf-8"?>
<!-- Generator: Adobe Illustrator 23.0.2, SVG Export Plug-In . SVG Version: 6.00 Build 0)  -->
<svg version="1.1" id="Capa_1" xmlns="http://www.w3.org/2000/svg" xmlns:xlink="http://www.w3.org/1999/xlink" x="0px" y="0px"
	 viewBox="0 0 112 112" style="enable-background:new 0 0 112 112;" xml:space="preserve">
<style type="text/css">
	.st0{fill:#102EBA;}
	.st1{fill:#FFAF1E;}
	.st2{fill:#FFFFFF;}
</style>
<circle class="st0" cx="56" cy="56" r="56"/>
<g>
	<g>
		<g>
			<path class="st1" d="M50.4,64.45h-2.66v-2.66c0-0.49-0.4-0.89-0.89-0.89c-0.49,0-0.89,0.4-0.89,0.89v2.66H43.3
				c-0.49,0-0.89,0.4-0.89,0.89c0,0.49,0.4,0.89,0.89,0.89h2.66v2.66c0,0.49,0.4,0.89,0.89,0.89c0.49,0,0.89-0.4,0.89-0.89v-2.66
				h2.66c0.49,0,0.89-0.4,0.89-0.89C51.29,64.85,50.89,64.45,50.4,64.45z"/>
		</g>
	</g>
	<g>
		<g>
			<path class="st1" d="M68.15,64.45h-7.1c-0.49,0-0.89,0.4-0.89,0.89c0,0.49,0.4,0.89,0.89,0.89h7.1c0.49,0,0.89-0.4,0.89-0.89
				C69.03,64.85,68.64,64.45,68.15,64.45z"/>
		</g>
	</g>
	<g>
		<g>
			<path class="st2" d="M72.58,43.24v-5.41c0-0.98-0.8-1.77-1.77-1.77h-5.32c-0.98,0-1.77,0.8-1.77,1.77v5.32H47.74v-5.32
				c0-0.98-0.8-1.77-1.77-1.77h-5.32c-0.98,0-1.77,0.8-1.77,1.77v5.42c-2.02,0.41-3.55,2.2-3.55,4.35v24.85
				c0,2.45,1.99,4.44,4.44,4.44H71.7c2.45,0,4.44-1.99,4.44-4.44V47.59C76.13,45.45,74.61,43.66,72.58,43.24z M65.49,37.83l5.32,0
				v5.33h-5.32V37.83z M40.64,37.83l5.32,0v5.33h-5.32V37.83z M74.36,72.44c0,1.47-1.19,2.66-2.66,2.66H39.75
				c-1.47,0-2.66-1.19-2.66-2.66V55.58h37.27V72.44z M74.36,53.8H37.09v-6.21c0-1.47,1.19-2.66,2.66-2.66h7.1H64.6h7.1
				c1.47,0,2.66,1.19,2.66,2.66V53.8z"/>
		</g>
	</g>
</g>
</svg>
