<?xml version="1.0" encoding="utf-8"?>
<!-- Generator: Adobe Illustrator 23.0.2, SVG Export Plug-In . SVG Version: 6.00 Build 0)  -->
<svg version="1.1" id="Capa_1" xmlns="http://www.w3.org/2000/svg" xmlns:xlink="http://www.w3.org/1999/xlink" x="0px" y="0px"
	 viewBox="0 0 112 112" style="enable-background:new 0 0 112 112;" xml:space="preserve">
<style type="text/css">
	.st0{fill:#102EBA;}
	.st1{fill:#FFFFFF;stroke:#102EBA;stroke-width:0.5307;stroke-miterlimit:10;}
	.st2{fill:#FFAF1E;}
</style>
<circle class="st0" cx="56" cy="56" r="56"/>
<path class="st1" d="M79.2,52.63L79.2,52.63c-0.08-0.73-0.46-1.41-1.04-1.86l-2.68-2.09l1.01-3.33c0.21-0.71,0.13-1.48-0.24-2.13
	c-0.37-0.64-1-1.11-1.72-1.28l-3.37-0.79l-0.43-3.44c-0.09-0.74-0.49-1.41-1.09-1.84c-0.6-0.44-1.36-0.61-2.09-0.47l-3.4,0.65
	l-1.79-2.96c-0.71-1.18-2.21-1.63-3.48-1.04c-0.09,0.04-0.18,0.09-0.25,0.14l-2.95,2.06l-2.84-1.98c-0.61-0.42-1.37-0.58-2.1-0.42
	c-0.73,0.15-1.36,0.61-1.75,1.24l-1.79,2.96l-3.4-0.65c-0.73-0.14-1.49,0.03-2.09,0.47c-0.6,0.44-1,1.11-1.09,1.84l-0.43,3.44
	L36.6,42l-0.17,0.05l-0.06,0.03c-1.3,0.57-1.94,1.94-1.54,3.28l1.01,3.33l-2.8,2.18L32.88,51l-0.05,0.05
	c-0.94,1.03-0.98,2.58-0.09,3.61l2.19,2.62l-1.77,3.22l-0.07,0.16l-0.02,0.06c-0.44,1.32,0.16,2.76,1.4,3.34l3.14,1.47l-0.29,3.45
	c-0.06,0.74,0.19,1.48,0.68,2.03c0.5,0.55,1.21,0.88,1.95,0.89l3.46,0.07l1.14,3.27c0.24,0.7,0.77,1.28,1.45,1.58
	c0.68,0.3,1.46,0.31,2.14,0.02l3.19-1.35l2.51,2.67l0.13,0.12l0.05,0.04c0.49,0.37,1.07,0.54,1.65,0.54c0.72,0,1.44-0.29,1.96-0.85
	l2.37-2.53l3.19,1.35c0.68,0.29,1.46,0.28,2.14-0.02c0.68-0.3,1.21-0.88,1.45-1.58l1.14-3.27l3.66-0.07l0.17-0.02l0.06-0.01
	c1.37-0.28,2.31-1.52,2.19-2.88l-0.29-3.45l3.14-1.47c0.67-0.31,1.19-0.9,1.42-1.61c0.23-0.71,0.16-1.48-0.2-2.13l-1.68-3.05
	l2.19-2.62C79.05,54.1,79.28,53.36,79.2,52.63z M73.77,56.1c-0.43,0.51-0.51,1.25-0.18,1.84l2.02,3.66l-3.78,1.78
	c-0.61,0.29-0.99,0.94-0.93,1.61l0.35,4.17l-4.18,0.08c-0.68,0.01-1.28,0.45-1.5,1.09l-1.37,3.95l-3.85-1.62
	c-0.62-0.26-1.36-0.11-1.82,0.39l-2.86,3.05l-2.86-3.05c-0.31-0.33-0.75-0.51-1.19-0.51c-0.21,0-0.43,0.04-0.63,0.13l-3.85,1.62
	l-1.37-3.95c-0.22-0.64-0.83-1.08-1.5-1.09l-4.18-0.08l0.35-4.17c0.06-0.68-0.32-1.32-0.93-1.61l-3.78-1.78l2.02-3.66
	c0.32-0.59,0.25-1.33-0.18-1.84l-2.66-3.18l3.25-2.53c0.53-0.41,0.76-1.12,0.56-1.76l-1.21-4l4.07-0.95
	c0.66-0.15,1.16-0.71,1.24-1.38l0.52-4.15l4.11,0.79c0.67,0.13,1.35-0.18,1.7-0.76l2.16-3.58l3.43,2.39c0.56,0.39,1.3,0.39,1.86,0
	l3.43-2.39l2.16,3.58c0.35,0.58,1.03,0.88,1.7,0.76l4.11-0.79l0.52,4.15c0.08,0.67,0.58,1.23,1.24,1.38l4.07,0.95l-1.21,4
	c-0.2,0.64,0.03,1.35,0.56,1.76l3.25,2.53L73.77,56.1z"/>
<path class="st1" d="M55.81,43.61c-6.47,0-11.73,5.26-11.73,11.73c0,6.47,5.26,11.73,11.73,11.73c6.47,0,11.73-5.26,11.73-11.73
	C67.54,48.88,62.27,43.61,55.81,43.61z M55.81,64.31c-4.95,0-8.97-4.02-8.97-8.97c0-4.95,4.02-8.97,8.97-8.97
	c4.95,0,8.97,4.02,8.97,8.97C64.78,60.29,60.75,64.31,55.81,64.31z"/>
<path class="st2" d="M59.18,51.7l-5.45,5.45l-1.48-1.48c-0.54-0.54-1.41-0.54-1.95,0c-0.54,0.54-0.54,1.41,0,1.95l2.46,2.46
	c0.27,0.27,0.62,0.4,0.98,0.4c0.35,0,0.71-0.13,0.98-0.4l6.43-6.43c0.54-0.54,0.54-1.41,0-1.95C60.59,51.16,59.72,51.16,59.18,51.7z
	"/>
</svg>
