<?xml version="1.0" encoding="utf-8"?>
<!-- Generator: Adobe Illustrator 23.0.2, SVG Export Plug-In . SVG Version: 6.00 Build 0)  -->
<svg version="1.1" id="Capa_1" xmlns="http://www.w3.org/2000/svg" xmlns:xlink="http://www.w3.org/1999/xlink" x="0px" y="0px"
	 viewBox="0 0 112 112" style="enable-background:new 0 0 112 112;" xml:space="preserve">
<style type="text/css">
	.st0{fill:#102EBA;}
	.st1{fill:#FFAF1E;}
	.st2{fill:#FFFFFF;}
</style>
<circle class="st0" cx="56" cy="56" r="56"/>
<g>
	<path class="st1" d="M44.64,58.44c-5.46,0-9.91,4.44-9.91,9.91c0,5.46,4.44,9.91,9.91,9.91c5.46,0,9.91-4.45,9.91-9.91
		C54.55,62.88,50.1,58.44,44.64,58.44L44.64,58.44z M44.64,76.09c-4.27,0-7.75-3.48-7.75-7.75c0-4.27,3.48-7.75,7.75-7.75
		c4.27,0,7.75,3.48,7.75,7.75C52.39,72.62,48.91,76.09,44.64,76.09L44.64,76.09z"/>
	<path class="st1" d="M47.74,67.26h-2.03v-3.39c0-0.6-0.48-1.08-1.08-1.08s-1.08,0.48-1.08,1.08v4.47c0,0.6,0.48,1.08,1.08,1.08h3.1
		c0.6,0,1.08-0.48,1.08-1.08S48.34,67.26,47.74,67.26z"/>
	<path class="st2" d="M71.68,34.62H41.4c-1.75,0-3.18,1.43-3.18,3.18V55.6c-1.29,0.65-2.46,1.49-3.49,2.48h-4.37
		c-0.6,0-1.08,0.48-1.08,1.08s0.48,1.08,1.08,1.08h2.54c-0.53,0.76-0.98,1.58-1.35,2.43h-5.13c-0.6,0-1.08,0.48-1.08,1.08
		s0.48,1.08,1.08,1.08h4.39c-0.2,0.79-0.33,1.6-0.4,2.43h-9.72c-0.6,0-1.08,0.48-1.08,1.08s0.48,1.08,1.08,1.08h9.72
		c0.06,0.83,0.2,1.65,0.4,2.43h-4.39c-0.6,0-1.08,0.48-1.08,1.08s0.48,1.08,1.08,1.08h5.13c0.37,0.86,0.83,1.67,1.35,2.43h-2.54
		c-0.6,0-1.08,0.48-1.08,1.08s0.48,1.08,1.08,1.08h4.37c2.57,2.48,6.07,4.02,9.91,4.02c6.87,0,12.63-4.88,13.98-11.36h13.06
		c1.75,0,3.18-1.43,3.18-3.18V37.8C74.86,36.05,73.43,34.62,71.68,34.62z M52.62,36.78h7.84v9.78l-3.31-2.3
		c-0.37-0.26-0.86-0.26-1.23,0l-3.3,2.3L52.62,36.78L52.62,36.78z M44.64,80.46c-6.68,0-12.12-5.44-12.12-12.12
		c0-6.68,5.44-12.12,12.12-12.12c6.68,0,12.12,5.44,12.12,12.12C56.76,75.02,51.32,80.46,44.64,80.46L44.64,80.46z M72.7,68.08
		c0,0.56-0.46,1.02-1.02,1.02H58.9c0.01-0.25,0.02-0.5,0.02-0.76c0-7.87-6.4-14.27-14.28-14.27c-1.48,0-2.92,0.23-4.26,0.65V37.8
		c0-0.56,0.46-1.02,1.02-1.02h9.06v11.85c0,0.4,0.22,0.77,0.58,0.96c0.36,0.19,0.79,0.16,1.12-0.07l4.38-3.05l4.38,3.05
		c0.18,0.13,0.4,0.19,0.62,0.19c0.17,0,0.34-0.04,0.5-0.12c0.36-0.19,0.58-0.55,0.58-0.96V36.78h9.06c0.56,0,1.02,0.46,1.02,1.02
		L72.7,68.08L72.7,68.08z"/>
	<path class="st2" d="M24.1,60.24h1.84c0.6,0,1.08-0.48,1.08-1.08s-0.48-1.08-1.08-1.08H24.1c-0.6,0-1.08,0.48-1.08,1.08
		S23.51,60.24,24.1,60.24z"/>
	<path class="st2" d="M25.94,76.45H24.1c-0.6,0-1.08,0.48-1.08,1.08s0.48,1.08,1.08,1.08h1.84c0.6,0,1.08-0.48,1.08-1.08
		S26.54,76.45,25.94,76.45z"/>
</g>
</svg>
