<?xml version="1.0" encoding="utf-8"?>
<!-- Generator: Adobe Illustrator 23.0.2, SVG Export Plug-In . SVG Version: 6.00 Build 0)  -->
<svg version="1.1" id="Capa_1" xmlns="http://www.w3.org/2000/svg" xmlns:xlink="http://www.w3.org/1999/xlink" x="0px" y="0px"
	 viewBox="0 0 112 112" style="enable-background:new 0 0 112 112;" xml:space="preserve">
<style type="text/css">
	.st0{fill:#102EBA;}
	.st1{fill:#FFFFFF;stroke:#FFFFFF;stroke-width:0.2653;stroke-miterlimit:10;}
	.st2{fill:#FFAF1E;}
	.st3{font-family:'Kanit-Bold';}
	.st4{font-size:6.6369px;}
</style>
<circle class="st0" cx="56" cy="56" r="56"/>
<path class="st1" d="M74.19,31.05l-30.12-2.01c-0.98-0.07-1.83,0.68-1.9,1.66l-0.24,3.52h-4c-0.98,0-1.78,0.8-1.78,1.78v43.38
	c0,0.98,0.8,1.78,1.78,1.78h23.06c0.2,0,0.4-0.08,0.54-0.22l3.48-3.47c0.04,0.01,0.07,0.01,0.11,0.02l5.94,0.4
	c0.95,0.06,1.84-0.71,1.9-1.66l2.9-43.29C75.92,31.98,75.16,31.12,74.19,31.05L74.19,31.05z M61.75,78.56v-5.31
	c0-0.14,0.11-0.25,0.25-0.25h5.29L61.75,78.56z M71.43,76.14c-0.02,0.15-0.12,0.23-0.27,0.24l-4.72-0.32l3.24-3.22
	c0.14-0.14,0.23-0.34,0.23-0.54V36.01c0-0.98-0.8-1.78-1.78-1.78h-7.95c-0.99,0-0.99,1.53,0,1.53h7.95c0.14,0,0.25,0.11,0.25,0.25
	v35.45h-6.37c-0.98,0-1.78,0.8-1.78,1.78v6.4H37.93c-0.14,0-0.25-0.11-0.25-0.25V36.01c0-0.14,0.11-0.25,0.25-0.25h18.17
	c0.99,0,0.99-1.53,0-1.53H43.46l0.23-3.42c0.02-0.15,0.12-0.23,0.27-0.24l30.12,2.01c0.15,0.02,0.23,0.12,0.24,0.27L71.43,76.14z"/>
<path class="st2" d="M63.45,53.17H42.6c-0.42,0-0.76,0.34-0.76,0.76c0,0.42,0.34,0.76,0.76,0.76h20.86c0.42,0,0.76-0.34,0.76-0.76
	C64.22,53.51,63.87,53.17,63.45,53.17z"/>
<path class="st2" d="M63.45,58.5H42.6c-0.42,0-0.76,0.34-0.76,0.76c0,0.42,0.34,0.76,0.76,0.76h20.86c0.42,0,0.76-0.34,0.76-0.76
	C64.22,58.85,63.87,58.5,63.45,58.5z"/>
<path class="st2" d="M56,73.74c-1.38,0-2.75,0.01-4.13,0.01c-0.46,0-0.92,0-1.39,0c-0.84,0-1.4-0.17-1.59-1.09
	c-0.16-0.78-1.26-0.67-1.47,0c-0.53,1.67-1.4,1.01-1.89-0.11c-0.49-1.12-0.61-2.37-0.83-3.56c-0.16-0.87-1.48-0.63-1.5,0.2
	c-0.03,1.1-0.13,2.18-0.41,3.24c-0.29,1.1-0.72,2.15-1.14,3.2c-0.37,0.91,1.11,1.31,1.47,0.41c0.38-0.93,0.76-1.86,1.04-2.83
	c0.52,1.26,1.61,2.69,3.15,1.85c0.29-0.16,0.56-0.38,0.79-0.64c0.8,0.93,2,0.86,3.12,0.85c1.59,0,3.19-0.01,4.78-0.01
	C56.99,75.27,56.99,73.74,56,73.74L56,73.74z"/>
<circle class="st2" cx="47.7" cy="44.63" r="5.46"/>
<text transform="matrix(1 0 0 1 43.9209 46.6768)" class="st0 st3 st4">S/.</text>
</svg>
