<?xml version="1.0" encoding="utf-8"?>
<!-- Generator: Adobe Illustrator 23.0.2, SVG Export Plug-In . SVG Version: 6.00 Build 0)  -->
<svg version="1.1" id="Capa_1" xmlns="http://www.w3.org/2000/svg" xmlns:xlink="http://www.w3.org/1999/xlink" x="0px" y="0px"
	 viewBox="0 0 54 58" style="enable-background:new 0 0 54 58;" xml:space="preserve">
<style type="text/css">
	.st0{fill:#D1865A;}
	.st1{fill:none;}
	.st2{fill:#3A3A3A;}
</style>
<ellipse class="st0" cx="27" cy="26.88" rx="27" ry="26.88"/>
<rect x="26.61" y="17.31" class="st1" width="18.05" height="1.46"/>
<rect x="26.61" y="22.42" class="st1" width="18.05" height="1.46"/>
<rect x="26.61" y="12.19" class="st1" width="18.05" height="1.46"/>
<g>
	<polygon class="st1" points="28.56,48.37 41.37,45.91 41.43,44.16 28.49,46.64 	"/>
	<polygon class="st1" points="28.67,51.27 41.27,48.86 41.33,47.11 28.61,49.55 	"/>
	<path class="st1" d="M28.72,52.53c0,0.02,0.04,0.06,0.07,0.06h12.29c0.03,0,0.06-0.04,0.06-0.05l0.08-2.48l-12.51,2.4L28.72,52.53z
		"/>
	<polygon class="st1" points="37.15,43.15 37.16,42.75 32.37,42.75 31.04,42.75 28.34,42.75 28.45,45.46 41.46,42.96 41.47,42.75 
		38.49,42.75 38.47,43.15 	"/>
	<path class="st2" d="M34.77,3.98c-10.23,0-18.55,8.28-18.55,18.47c0,6.67,3.57,12.53,8.92,15.78l0.55,13.65
		c0.06,1.57,1.28,2.88,2.8,3.12C29.06,56.7,31.66,58,34.77,58c3.09,0,5.67-1.28,6.27-2.98c1.69-0.09,3.08-1.47,3.14-3.17l0.47-13.79
		c5.21-3.27,8.67-9.05,8.67-15.62C53.32,12.26,44.99,3.98,34.77,3.98z M41.15,52.54c0,0.01-0.03,0.05-0.06,0.05H28.79
		c-0.03,0-0.07-0.04-0.07-0.06l0-0.07l12.51-2.4L41.15,52.54z M41.27,48.86l-12.6,2.42l-0.07-1.72l12.72-2.44L41.27,48.86z
		 M41.37,45.91l-12.81,2.46l-0.07-1.72l12.93-2.48L41.37,45.91z M44.39,24.38l-5.59,9.97l-0.32,8.4h2.99l-0.01,0.22l-13.02,2.5
		l-0.1-2.71h2.7l-0.32-8.4l-5.59-9.97c-0.15-0.26-0.09-0.57,0.11-0.77c0.04-0.04,0.08-0.08,0.13-0.11c0.01,0,0.01-0.01,0.01-0.01
		c0,0,0.01,0,0.01,0c0.1-0.06,0.21-0.11,0.34-0.11h17.88c0.07,0,0.13,0.02,0.18,0.04c0.11,0,0.22,0.02,0.32,0.07
		C44.46,23.66,44.57,24.06,44.39,24.38z"/>
	<path class="st2" d="M37.49,34.14c0-0.1,0.03-0.21,0.08-0.3l3.64-6.5h-0.01l0.42-0.73l1.09-1.94H26.82l1.09,1.94l0,0l0.41,0.71
		h-0.01l3.65,6.51c0.05,0.09,0.08,0.19,0.08,0.3l0.33,8.61h4.79L37.49,34.14z"/>
</g>
</svg>
