<?xml version="1.0" encoding="utf-8"?>
<!-- Generator: Adobe Illustrator 23.0.2, SVG Export Plug-In . SVG Version: 6.00 Build 0)  -->
<svg version="1.1" id="Capa_1" xmlns="http://www.w3.org/2000/svg" xmlns:xlink="http://www.w3.org/1999/xlink" x="0px" y="0px"
	 viewBox="0 0 112 112" style="enable-background:new 0 0 112 112;" xml:space="preserve">
<style type="text/css">
	.st0{fill:#102EBA;}
	.st1{fill:#FFFFFF;stroke:#102EBA;stroke-width:0.398;stroke-miterlimit:10;}
	.st2{fill:#FFAF1E;stroke:#102EBA;stroke-width:0.2653;stroke-miterlimit:10;}
</style>
<path class="st0" d="M0,56C0,25.07,25.07,0,56,0s56,25.07,56,56s-25.07,56-56,56S0,86.93,0,56"/>
<path class="st1" d="M84.31,54.14l-9.6-12.47c-0.36-0.46-1-0.57-1.49-0.26l-6.2,3.94h-8.08c-0.1,0-0.21,0.02-0.31,0.05l-6.27,1.8
	l-6.5-1.78l-6.32-4.02c-0.48-0.31-1.12-0.2-1.48,0.24L27.45,54.8c-0.38,0.47-0.32,1.16,0.14,1.56l5.56,4.79l4.99,6.73
	c-1.46,1.56-1.43,4.01,0.09,5.53c0.67,0.67,1.53,1.05,2.41,1.14c-0.03,0.2-0.05,0.4-0.05,0.61c0,1.06,0.41,2.06,1.16,2.81
	c0.75,0.75,1.75,1.16,2.81,1.16c0.01,0,0.03,0,0.04,0c0,0.03,0,0.05,0,0.08c0,1.06,0.41,2.06,1.16,2.81
	c0.75,0.75,1.75,1.16,2.81,1.16c0.21,0,0.42-0.02,0.62-0.05c0.09,0.88,0.47,1.74,1.14,2.42c0.77,0.77,1.79,1.16,2.81,1.16
	s2.04-0.39,2.81-1.16l0.61-0.61l0.26,0.21c0.77,0.74,1.77,1.12,2.76,1.12c1.02,0,2.04-0.39,2.81-1.16c0.79-0.79,1.18-1.83,1.16-2.87
	c1.04,0.02,2.08-0.37,2.87-1.16c0.79-0.79,1.18-1.83,1.16-2.87c1.08,0.02,2.11-0.4,2.87-1.16c0.79-0.79,1.18-1.83,1.16-2.87
	c1.04,0.02,2.08-0.37,2.87-1.16c1.35-1.35,1.52-3.43,0.52-4.97l3.64-7.63l5.48-4.72C84.61,55.29,84.67,54.61,84.31,54.14z
	 M39.19,43.85l4.54,2.89l-9.88,12.04l-3.96-3.41L39.19,43.85z M39.83,69.37L41.2,68c0.04-0.04,0.09-0.08,0.13-0.12
	c0.27-0.22,0.59-0.35,0.94-0.38c0.01,0,0.02,0,0.03,0c0.05,0,0.1-0.01,0.15-0.01c0.47,0.01,0.91,0.2,1.23,0.54
	c0.64,0.67,0.6,1.77-0.08,2.45l-1.33,1.33c-0.67,0.67-1.77,0.67-2.44,0C39.16,71.14,39.16,70.04,39.83,69.37z M43.36,76.37
	c-0.33-0.33-0.51-0.76-0.51-1.22s0.18-0.89,0.51-1.22l2.66-2.66c0.51-0.51,1.31-0.65,1.96-0.34c0.67,0.32,1.05,1.05,0.95,1.78
	c-0.05,0.39-0.23,0.76-0.51,1.04l-2.62,2.62c-0.33,0.33-0.76,0.51-1.22,0.51C44.11,76.87,43.68,76.69,43.36,76.37z M47.37,80.42
	c-0.33-0.33-0.51-0.76-0.51-1.22s0.18-0.89,0.51-1.22l2.66-2.66c0.54-0.54,1.42-0.66,2.08-0.27c0.61,0.35,0.93,1.05,0.82,1.74
	c-0.06,0.38-0.24,0.74-0.51,1.01l-2.62,2.62c-0.33,0.33-0.76,0.51-1.22,0.51S47.7,80.75,47.37,80.42z M51.94,83.96
	c-0.67-0.67-0.67-1.77,0-2.44l1.37-1.37c0.04-0.04,0.08-0.08,0.13-0.12c0,0,0,0,0,0c0.22-0.18,0.49-0.3,0.77-0.36
	c0.01,0,0.01,0,0.02,0c0.05-0.01,0.1-0.02,0.15-0.02c0.02,0,0.04,0,0.06,0c0.04,0,0.08,0,0.12,0c0.47,0.01,0.91,0.2,1.23,0.54
	c0.04,0.04,0.08,0.09,0.11,0.13c0.52,0.68,0.45,1.68-0.19,2.32l-1.32,1.32C53.71,84.63,52.61,84.63,51.94,83.96z M72.92,71.41
	c-0.67,0.67-1.77,0.67-2.44,0c-0.02-0.02-0.05-0.05-0.08-0.07l-7.23-7.31c-0.44-0.44-1.15-0.44-1.59-0.01
	c-0.44,0.44-0.44,1.15-0.01,1.59L68.88,73c0,0,0,0,0,0c0.67,0.67,0.67,1.77,0,2.44c-0.33,0.33-0.76,0.51-1.22,0.51
	c-0.46,0-0.89-0.18-1.22-0.51l-4.89-4.94c-0.44-0.44-1.15-0.44-1.59-0.01c-0.44,0.44-0.44,1.15-0.01,1.59l4.81,4.86
	c0.02,0.03,0.05,0.06,0.08,0.09c0.67,0.67,0.67,1.77,0,2.44c-0.67,0.67-1.77,0.67-2.44,0l-2.67-2.7c-0.44-0.44-1.15-0.45-1.59-0.01
	c-0.44,0.44-0.44,1.15-0.01,1.59l2.59,2.62c0.02,0.03,0.05,0.06,0.08,0.09c0.67,0.67,0.67,1.77,0,2.44c-0.67,0.67-1.77,0.67-2.44,0
	c-0.08-0.08-0.17-0.14-0.26-0.2c-0.07-0.06-0.09-0.09-0.06-0.18c0.04-0.09,0.09-0.17,0.13-0.26c0.04-0.1,0.07-0.21,0.11-0.31
	c0.17-0.56,0.22-1.15,0.15-1.73c-0.15-1.11-0.76-2.1-1.68-2.74c-0.5-0.34-1.07-0.56-1.67-0.65c0.29-1.28-0.06-2.66-0.96-3.62
	c-0.74-0.79-1.75-1.23-2.83-1.24c-0.04,0-0.08,0-0.12,0c0.02-1.03-0.35-2.06-1.06-2.81c-0.75-0.79-1.75-1.23-2.83-1.24
	c-0.32,0-0.65,0.03-0.96,0.1c-0.13-0.93-0.6-1.79-1.31-2.41c-0.71-0.61-1.6-0.95-2.54-0.96c-1-0.01-1.97,0.35-2.71,1.02l-4.35-5.86
	l10.4-12.67l3.31,0.91l-4.33,7.64c-0.52,0.92-0.66,2-0.37,3.02c0.28,1.02,0.95,1.87,1.87,2.4c0.06,0.03,0.12,0.06,0.17,0.09
	c0,0,0.01,0,0.01,0.01c0.16,0.08,0.31,0.14,0.48,0.2c0.75,0.26,1.57,0.29,2.35,0.07c1.02-0.28,1.87-0.95,2.4-1.87l2.81-4.96
	l5.02,0.36l13.37,13.37C73.59,69.64,73.59,70.74,72.92,71.41z M73.38,66.25L60.84,53.71c-0.02-0.02-0.05-0.05-0.07-0.07
	c-0.18-0.15-0.4-0.24-0.64-0.26l-6.15-0.44c-0.43-0.03-0.85,0.2-1.06,0.57l-3.16,5.58c-0.23,0.4-0.6,0.69-1.04,0.81
	c-0.44,0.12-0.91,0.07-1.31-0.16c-0.4-0.23-0.69-0.6-0.81-1.04c-0.12-0.44-0.07-0.91,0.16-1.31l4.22-7.45l1.71-0.49
	c0.01,0,0.02-0.01,0.03-0.01l6.38-1.84h7.71l9.63,12.24L73.38,66.25z M77.92,58.07l-8.91-11.33l4.54-2.89l8.32,10.81L77.92,58.07z"
	/>
<path class="st2" d="M61.94,43.24c0.29,0,0.58-0.11,0.8-0.33l7.68-7.68c0.44-0.44,0.44-1.15,0-1.59c-0.44-0.44-1.15-0.44-1.59,0
	l-7.68,7.68c-0.44,0.44-0.44,1.15,0,1.59C61.37,43.13,61.65,43.24,61.94,43.24z"/>
<path class="st2" d="M49.01,42.91c0.22,0.22,0.51,0.33,0.8,0.33c0.29,0,0.58-0.11,0.79-0.33c0.44-0.44,0.44-1.15,0-1.59l-7.68-7.68
	c-0.44-0.44-1.15-0.44-1.59,0c-0.44,0.44-0.44,1.15,0,1.59L49.01,42.91z"/>
<path class="st2" d="M55.87,43.24c0.62,0,1.12-0.5,1.12-1.12v-6.36c0-0.62-0.5-1.12-1.12-1.12c-0.62,0-1.12,0.5-1.12,1.12v6.36
	C54.75,42.74,55.25,43.24,55.87,43.24z"/>
<path class="st2" d="M54.84,31.68c0.18,0.43,0.62,0.72,1.09,0.69c0.46-0.02,0.87-0.34,1.01-0.78c0.14-0.44-0.01-0.95-0.39-1.24
	c-0.38-0.29-0.91-0.31-1.31-0.04C54.81,30.61,54.63,31.2,54.84,31.68z"/>
</svg>
