<?xml version="1.0" encoding="utf-8"?>
<!-- Generator: Adobe Illustrator 24.0.1, SVG Export Plug-In . SVG Version: 6.00 Build 0)  -->
<svg version="1.1" id="Capa_1" xmlns="http://www.w3.org/2000/svg" xmlns:xlink="http://www.w3.org/1999/xlink" x="0px" y="0px"
	 viewBox="0 0 54 58" style="enable-background:new 0 0 54 58;" xml:space="preserve">
<style type="text/css">
	.st0{fill:#F27E00;}
	.st1{fill:none;}
	.st2{fill:#3A3A3A;}
</style>
<ellipse class="st0" cx="27" cy="26.9" rx="27" ry="26.9"/>
<rect x="26.6" y="17.3" class="st1" width="18" height="1.5"/>
<rect x="26.6" y="22.4" class="st1" width="18" height="1.5"/>
<rect x="26.6" y="12.2" class="st1" width="18" height="1.5"/>
<g>
	<polygon class="st1" points="28.6,48.4 41.4,45.9 41.4,44.2 28.5,46.6 	"/>
	<polygon class="st1" points="28.7,51.3 41.3,48.9 41.3,47.1 28.6,49.5 	"/>
	<path class="st1" d="M28.7,52.5C28.7,52.5,28.8,52.6,28.7,52.5l12.4,0.1c0,0,0.1,0,0.1,0l0.1-2.5L28.7,52.5L28.7,52.5z"/>
	<polygon class="st1" points="37.2,43.2 37.2,42.8 32.4,42.8 31,42.8 28.3,42.8 28.5,45.5 41.5,43 41.5,42.8 38.5,42.8 38.5,43.2 	
		"/>
	<path class="st2" d="M34.8,4c-10.2,0-18.5,8.3-18.5,18.5c0,6.7,3.6,12.5,8.9,15.8l0.5,13.6c0.1,1.6,1.3,2.9,2.8,3.1
		c0.6,1.7,3.2,3,6.3,3c3.1,0,5.7-1.3,6.3-3c1.7-0.1,3.1-1.5,3.1-3.2l0.5-13.8c5.2-3.3,8.7-9,8.7-15.6C53.3,12.3,45,4,34.8,4z
		 M41.2,52.5C41.2,52.5,41.1,52.6,41.2,52.5l-12.4,0c0,0-0.1,0-0.1-0.1v-0.1l12.5-2.4L41.2,52.5z M41.3,48.9l-12.6,2.4l-0.1-1.7
		l12.7-2.4L41.3,48.9z M41.4,45.9l-12.8,2.5l-0.1-1.7l12.9-2.5L41.4,45.9z M44.4,24.4l-5.6,10l-0.3,8.4h3l0,0.2l-13,2.5l-0.1-2.7H31
		l-0.3-8.4l-5.6-10c-0.1-0.3-0.1-0.6,0.1-0.8c0,0,0.1-0.1,0.1-0.1c0,0,0,0,0,0h0c0.1-0.1,0.2-0.1,0.3-0.1h17.9c0.1,0,0.1,0,0.2,0
		c0.1,0,0.2,0,0.3,0.1C44.5,23.7,44.6,24.1,44.4,24.4z"/>
	<path class="st2" d="M37.5,34.1c0-0.1,0-0.2,0.1-0.3l3.6-6.5h0l0.4-0.7l1.1-1.9H26.8l1.1,1.9l0,0l0.4,0.7h0l3.6,6.5
		c0,0.1,0.1,0.2,0.1,0.3l0.3,8.6h4.8L37.5,34.1z"/>
</g>
</svg>
