<?xml version="1.0" encoding="utf-8"?>
<!-- Generator: Adobe Illustrator 23.0.2, SVG Export Plug-In . SVG Version: 6.00 Build 0)  -->
<svg version="1.1" id="Capa_1" xmlns="http://www.w3.org/2000/svg" xmlns:xlink="http://www.w3.org/1999/xlink" x="0px" y="0px"
	 viewBox="0 0 55 57" style="enable-background:new 0 0 55 57;" xml:space="preserve">
<style type="text/css">
	.st0{fill:#D1865A;}
	.st1{fill:#3A3A3A;}
</style>
<ellipse class="st0" cx="27.15" cy="26.68" rx="27.15" ry="26.68"/>
<g>
	<g>
		<path class="st1" d="M35.2,45.43c-0.08,0.07-0.16,0.14-0.24,0.21c-0.08,0.07-0.16,0.14-0.25,0.2c-0.17,0.14-0.35,0.27-0.53,0.39
			l-3.77,7.61l-0.75-4.38l1.11-1.76c-0.14,0.03-0.27,0.06-0.41,0.08c-0.35,0.06-0.71,0.1-1.07,0.12c-0.2,0.01-0.4,0.02-0.6,0.02
			c-0.77,0-1.52-0.09-2.25-0.26l1.13,1.8l-0.71,4.46l-4.17-8.06c-0.19-0.15-0.38-0.31-0.56-0.47l-0.08,0.07
			c-4.05,3.44-5.12,8.76-5.4,11.55h23.67C39.55,48.83,36.09,46.02,35.2,45.43z"/>
		<path class="st1" d="M28.69,29.64c-4.95,0-8.97,3.96-8.97,8.82c0,4.86,4.03,8.82,8.97,8.82c4.95,0,8.97-3.96,8.97-8.82
			C37.67,33.59,33.64,29.64,28.69,29.64z"/>
		<path class="st1" d="M54.39,51.19c0.05-0.03,0.08-0.09,0.08-0.16c0-0.06-0.04-0.12-0.1-0.14c-0.02-0.01-1.52-0.77-1.92-1.81
			c0.53,0.51,1.15,0.72,1.97,0.87c0.06,0.01,0.13-0.01,0.17-0.06c0.04-0.05,0.05-0.12,0.03-0.18c-0.78-1.87-1.17-4.08-1.54-6.23
			c-0.23-1.31-0.45-2.59-0.76-3.73c-0.1-0.49-0.25-0.97-0.46-1.42c-0.22-0.56-0.48-1.07-0.79-1.5c-0.34-0.47-1.25-1.73-3.32-2.15
			c-0.67-0.21-1.38-0.33-2.12-0.33c-1.49,0-2.78,0.48-3.85,1.29c-1.01,0.63-1.76,1.57-2.32,2.94c-0.36,0.77-0.63,1.61-0.78,2.48
			c-0.04,0.24-0.07,0.48-0.08,0.71c-0.05,0.29-0.1,0.58-0.14,0.89c-0.21,1.44-0.06,3.32,0.23,5.1c1.19,1.86,2.37,4.79,2.79,9.23H55
			c-0.1-1.22-0.41-3.31-1.37-5.39C54.08,51.39,54.36,51.21,54.39,51.19z M50.23,50.13c-0.11,0.13-2.23,1.49-2.23,1.49l1.04,1.4
			l-3.3,2.55l0.01,0.01l-0.01-0.01l-0.01,0.01l0.01-0.01l-3.3-2.55l1.04-1.4c0,0-2.12-1.36-2.23-1.49c-0.19-0.23,0.95-1.3,0.95-1.3
			l3.54,6.73l3.54-6.73C49.29,48.83,50.42,49.9,50.23,50.13z"/>
		<path class="st1" d="M43.87,6.81H19.9c-1.31,0-2.37,1.04-2.37,2.33v12.68c0,1.29,1.06,2.33,2.37,2.33h9.63l-0.32,3.98l3.52-3.98
			h11.13c1.31,0,2.37-1.04,2.37-2.33V9.14C46.24,7.85,45.17,6.81,43.87,6.81z M32.98,18.05H21.02c-0.23,0-0.42-0.18-0.42-0.41
			c0-0.23,0.19-0.41,0.42-0.41h11.97c0.23,0,0.42,0.18,0.42,0.41C33.4,17.87,33.21,18.05,32.98,18.05z M42.46,15.23H21.02
			c-0.23,0-0.42-0.18-0.42-0.41c0-0.22,0.19-0.41,0.42-0.41h21.44c0.23,0,0.42,0.18,0.42,0.41C42.87,15.05,42.69,15.23,42.46,15.23z
			 M42.46,12.41H21.02c-0.23,0-0.42-0.18-0.42-0.41c0-0.23,0.19-0.41,0.42-0.41h21.44c0.23,0,0.42,0.18,0.42,0.41
			C42.87,12.23,42.69,12.41,42.46,12.41z"/>
		<path class="st1" d="M52.76,18.05h-5.45v4.58c0,1.38-1.14,2.51-2.55,2.51h-7.19v3.05c0,0.8,0.66,1.46,1.48,1.46h7.31l2.21,2.49
			l-0.2-2.49h4.39c0.82,0,1.48-0.65,1.48-1.46V19.5C54.24,18.7,53.57,18.05,52.76,18.05z"/>
	</g>
</g>
</svg>
