<?xml version="1.0" encoding="utf-8"?>
<!-- Generator: Adobe Illustrator 24.0.1, SVG Export Plug-In . SVG Version: 6.00 Build 0)  -->
<svg version="1.1" id="Capa_1" xmlns="http://www.w3.org/2000/svg" xmlns:xlink="http://www.w3.org/1999/xlink" x="0px" y="0px"
	 viewBox="0 0 56 57" style="enable-background:new 0 0 56 57;" xml:space="preserve">
<style type="text/css">
	.st0{fill:#F27E00;}
	.st1{fill:#3A3A3A;}
</style>
<ellipse class="st0" cx="26.7" cy="27" rx="26.7" ry="27"/>
<path class="st1" d="M14.6,35c0,1.7,0,3.3,0,5c0,0.2,0.1,0.6-0.3,0.7c-0.3,0.1-0.4-0.2-0.6-0.4c-3.2-4.6-5.7-9.5-5.3-15.3
	c0.4-5.2,3.1-8.9,7.8-11c4.9-2.2,9.4-1.3,13.5,2.1c0.9,0.7,1.5,2.2,2.5,2.2c0.8-0.1,1.6-1.4,2.4-2.1c4.1-3.6,9.8-4.3,14.4-1.8
	c5,2.8,7.7,8.3,6.8,13.8c-0.7,4.5-2.6,8.5-5.2,12.1c-4.4,6.2-10,11.2-15.9,15.9c-1,0.8-2.3,1.1-3.6,0.7c-1.4-0.4-1.5-0.7-0.5-1.7
	c3.3-3.4,6.6-6.7,9.9-10.1c0.3-0.3,0.5-0.5,0.8-0.8c0.7-0.9,0.7-1.8-0.1-2.5c-0.8-0.8-1.7-0.7-2.5,0c-1,1-2,2-3,3
	c-0.5,0.5-0.8,0.8-1.5,0.2c-0.7-0.6-0.4-1.1,0.1-1.6c2-2,4-4,5.9-6c0.2-0.2,0.5-0.5,0.7-0.7c0.9-1,1-2.1,0.2-2.8
	c-0.8-0.8-1.8-0.7-2.8,0.2c-2.2,2.2-4.4,4.5-6.6,6.7c-0.4,0.4-0.7,0.9-1.4,0.3c-0.7-0.6-0.7-1,0-1.7c2.8-2.8,5.5-5.6,8.2-8.4
	c0.3-0.3,0.6-0.6,0.8-1c0.5-0.8,0.4-1.6-0.3-2.3c-0.7-0.6-1.5-0.6-2.2-0.1c-0.5,0.3-0.8,0.7-1.2,1.1c-2.6,2.7-5.3,5.3-7.9,8
	c-0.5,0.5-0.9,0.9-1.5,0.2s-0.3-1.1,0.2-1.6c2-2,4-4,6-6.1c0.3-0.3,0.6-0.6,0.9-0.9c0.7-0.9,0.7-1.7-0.1-2.5c-0.8-0.8-1.7-0.7-2.5,0
	c-1.2,1.2-2.4,2.4-3.6,3.6c-2.6,2.7-5.3,5.3-7.9,8c-0.3,0.3-0.5,0.8-0.9,0.5c-0.4-0.2-0.2-0.7-0.2-1c0-1.8,0-3.7,0-5.5
	c0-1.1-0.6-1.9-1.6-2.1c-1.5-0.4-2-0.1-2,1.5C14.6,32.1,14.7,33.6,14.6,35C14.7,35,14.7,35,14.6,35z"/>
</svg>
