<?xml version="1.0" encoding="utf-8"?>
<!-- Generator: Adobe Illustrator 24.0.1, SVG Export Plug-In . SVG Version: 6.00 Build 0)  -->
<svg version="1.1" id="Capa_1" xmlns="http://www.w3.org/2000/svg" xmlns:xlink="http://www.w3.org/1999/xlink" x="0px" y="0px"
	 viewBox="0 0 55 57" style="enable-background:new 0 0 55 57;" xml:space="preserve">
<style type="text/css">
	.st0{fill:#F27E00;}
	.st1{fill:#3A3A3A;}
</style>
<ellipse class="st0" cx="27.1" cy="26.7" rx="27.1" ry="26.7"/>
<g>
	<g>
		<path class="st1" d="M35.2,45.4c-0.1,0.1-0.2,0.1-0.2,0.2s-0.2,0.1-0.3,0.2c-0.2,0.1-0.3,0.3-0.5,0.4l-3.8,7.6l-0.8-4.4l1.1-1.8
			c-0.1,0-0.3,0.1-0.4,0.1c-0.4,0.1-0.7,0.1-1.1,0.1c-0.2,0-0.4,0-0.6,0c-0.8,0-1.5-0.1-2.3-0.3l1.1,1.8l-0.7,4.5l-4.2-8.1
			c-0.2-0.2-0.4-0.3-0.6-0.5l-0.1,0.1c-4.1,3.4-5.1,8.8-5.4,11.5h23.7C39.5,48.8,36.1,46,35.2,45.4z"/>
		<path class="st1" d="M28.7,29.6c-4.9,0-9,4-9,8.8s4,8.8,9,8.8c5,0,9-4,9-8.8C37.7,33.6,33.6,29.6,28.7,29.6z"/>
		<path class="st1" d="M54.4,51.2c0,0,0.1-0.1,0.1-0.2c0-0.1,0-0.1-0.1-0.1c0,0-1.5-0.8-1.9-1.8c0.5,0.5,1.2,0.7,2,0.9
			c0.1,0,0.1,0,0.2-0.1c0,0,0-0.1,0-0.2c-0.8-1.9-1.2-4.1-1.5-6.2c-0.2-1.3-0.5-2.6-0.8-3.7c-0.1-0.5-0.3-1-0.5-1.4
			c-0.2-0.6-0.5-1.1-0.8-1.5c-0.3-0.5-1.3-1.7-3.3-2.2c-0.7-0.2-1.4-0.3-2.1-0.3c-1.5,0-2.8,0.5-3.8,1.3c-1,0.6-1.8,1.6-2.3,2.9
			c-0.4,0.8-0.6,1.6-0.8,2.5c0,0.2-0.1,0.5-0.1,0.7c0,0.3-0.1,0.6-0.1,0.9c-0.2,1.4-0.1,3.3,0.2,5.1c1.2,1.9,2.4,4.8,2.8,9.2H55
			c-0.1-1.2-0.4-3.3-1.4-5.4C54.1,51.4,54.4,51.2,54.4,51.2z M50.2,50.1c-0.1,0.1-2.2,1.5-2.2,1.5l1,1.4l-3.3,2.5l0,0l0,0l0,0l0,0
			L42.4,53l1-1.4c0,0-2.1-1.4-2.2-1.5c-0.2-0.2,1-1.3,1-1.3l3.5,6.7l3.5-6.7C49.3,48.8,50.4,49.9,50.2,50.1z"/>
		<path class="st1" d="M43.9,6.8h-24c-1.3,0-2.4,1-2.4,2.3v12.7c0,1.3,1.1,2.3,2.4,2.3h9.6l-0.3,4l3.5-4h11.1c1.3,0,2.4-1,2.4-2.3
			V9.1C46.2,7.8,45.2,6.8,43.9,6.8z M33,18H21c-0.2,0-0.4-0.2-0.4-0.4s0.2-0.4,0.4-0.4h12c0.2,0,0.4,0.2,0.4,0.4
			C33.4,17.9,33.2,18,33,18z M42.5,15.2H21c-0.2,0-0.4-0.2-0.4-0.4c0-0.2,0.2-0.4,0.4-0.4h21.4c0.2,0,0.4,0.2,0.4,0.4
			C42.9,15.1,42.7,15.2,42.5,15.2z M42.5,12.4H21c-0.2,0-0.4-0.2-0.4-0.4s0.2-0.4,0.4-0.4h21.4c0.2,0,0.4,0.2,0.4,0.4
			C42.9,12.2,42.7,12.4,42.5,12.4z"/>
		<path class="st1" d="M52.8,18h-5.5v4.6c0,1.4-1.1,2.5-2.5,2.5h-7.2v3c0,0.8,0.7,1.5,1.5,1.5h7.3l2.2,2.5l-0.2-2.5h4.4
			c0.8,0,1.5-0.6,1.5-1.5v-8.7C54.2,18.7,53.6,18,52.8,18z"/>
	</g>
</g>
</svg>
