<?xml version="1.0" encoding="utf-8"?>
<!-- Generator: Adobe Illustrator 24.0.1, SVG Export Plug-In . SVG Version: 6.00 Build 0)  -->
<svg version="1.1" id="Layer_1" xmlns="http://www.w3.org/2000/svg" xmlns:xlink="http://www.w3.org/1999/xlink" x="0px" y="0px"
	 viewBox="0 0 275 300" style="enable-background:new 0 0 275 300;" xml:space="preserve">
<style type="text/css">
	.st0{fill:#E8E8E8;}
	.st1{fill:#D2D2D2;}
	.st2{opacity:0.25;}
	.st3{fill:#D69522;}
	.st4{fill:#E4A92D;}
	.st5{fill:#FFFFFF;}
	.st6{fill:#009CDF;}
</style>
<g>
	<circle class="st0" cx="137.2" cy="137.8" r="134.8"/>
	<circle class="st1" cx="137.7" cy="139.2" r="116.7"/>
	<g>
		<g class="st2">
			<image style="overflow:visible;" width="275" height="301" xlink:href="E8F8A003.png"  transform="matrix(1 0 0 1 3 31)">
			</image>
		</g>
		<g>
			<path class="st3" d="M238.7,169.3c0-55.7-45.1-100.8-100.8-100.8L87.5,169.3l50.4,127.5l21.9-29.1
				C204.9,257.7,238.7,217.5,238.7,169.3z"/>
			<path class="st4" d="M37.1,169.3c0,48.1,33.8,88.4,78.9,98.4l21.9,29.1V68.5C82.2,68.5,37.1,113.7,37.1,169.3z"/>
			<path class="st5" d="M137.9,95.3l-37,74l37,74c40.9,0,74-33.1,74-74S178.8,95.3,137.9,95.3z"/>
			<path class="st5" d="M63.9,169.3c0,40.9,33.1,74,74,74v-148C97,95.3,63.9,128.4,63.9,169.3z"/>
		</g>
	</g>
	<g>
		<circle class="st6" cx="137.2" cy="168.3" r="30.4"/>
		<g>
			<path class="st5" d="M137.1,196.4c-7.2,0.1-13.3-2.5-18.6-7.3c-1.7-1.5-3.1-3.3-4.3-5.3c-0.5-0.8-0.5-1.5-0.1-2.4
				c2.5-5,6.6-8,12-9.2c1.1-0.3,2.1,0,3.1,0.6c5.3,3.4,10.7,3.3,16,0c0.9-0.6,1.8-0.8,2.9-0.6c5.6,1.1,9.6,4.2,12.2,9.3
				c0.4,0.7,0.4,1.4,0,2.1c-4.6,7.2-11.1,11.5-19.6,12.7C139.4,196.3,138.3,196.4,137.1,196.4z"/>
			<path class="st5" d="M137.2,171.4c-7.4,0.1-13.8-6.2-13.7-13.8c0.1-8,6.5-13.2,13-13.5c7.7-0.3,14.1,5.5,14.4,13.3
				C151.1,165,144.9,171.3,137.2,171.4z"/>
		</g>
	</g>
</g>
</svg>
