<?xml version="1.0" encoding="utf-8"?>
<!-- Generator: Adobe Illustrator 23.0.2, SVG Export Plug-In . SVG Version: 6.00 Build 0)  -->
<svg version="1.1" id="Capa_1" xmlns="http://www.w3.org/2000/svg" xmlns:xlink="http://www.w3.org/1999/xlink" x="0px" y="0px"
	 viewBox="0 0 112 112" style="enable-background:new 0 0 112 112;" xml:space="preserve">
<style type="text/css">
	.st0{fill:#102EBA;}
	.st1{fill:#FFAF1E;}
	.st2{fill:#FFFFFF;}
</style>
<circle class="st0" cx="56" cy="56" r="56"/>
<g>
	<g>
		<g>
			<path class="st1" d="M62.87,27.08c-0.57,0-1.03,0.46-1.03,1.03v4.75c0,0.57,0.46,1.03,1.03,1.03c0.57,0,1.03-0.46,1.03-1.03
				v-4.75C63.9,27.54,63.44,27.08,62.87,27.08z"/>
		</g>
	</g>
	<g>
		<g>
			<path class="st2" d="M77.32,57.21c0-2.28-1.85-4.13-4.13-4.13h-7.7c1.19-3.06,1.68-6.65,1.58-9.85
				c-0.02-0.61-0.04-0.96-0.07-1.19c-0.05-2.23-1.88-4.03-4.13-4.03c-2.28,0-4.13,1.85-4.13,4.13v1.03
				c0,6.53-8.38,10.19-14.71,11.77c-0.48-1.09-1.57-1.86-2.84-1.86H30.88c-0.57,0-1.03,0.46-1.03,1.03v24.77
				c0,0.57,0.46,1.03,1.03,1.03H41.2c1.26,0,2.34-0.76,2.83-1.84c0.52,0.13,1.01,0.26,1.46,0.38c3.6,0.94,5.59,1.46,10.42,1.46H67
				c2.28,0,4.13-1.85,4.13-4.13c0-0.85-0.26-1.64-0.7-2.29c1.59-0.56,2.76-2.08,2.76-3.9c0-0.85-0.25-1.64-0.69-2.3
				c1.59-0.56,2.76-2.08,2.76-3.89c0-0.85-0.26-1.64-0.7-2.29C76.15,60.55,77.32,59.03,77.32,57.21z M42.23,76.82
				c0,0.57-0.46,1.03-1.03,1.03h-9.29v-22.7h9.29c0.57,0,1.03,0.46,1.03,1.03V76.82z M73.19,59.27c-2.21,0-2.74,0-5.16,0
				c-0.57,0-1.03,0.46-1.03,1.03c0,0.57,0.46,1.03,1.03,1.03h3.1c1.14,0,2.06,0.93,2.06,2.06c0,1.14-0.92,2.06-2.06,2.06h-5.16
				c-0.57,0-1.03,0.46-1.03,1.03s0.46,1.03,1.03,1.03h3.1c1.12,0,2.06,0.9,2.06,2.06c0,1.14-0.92,2.06-2.06,2.06
				c-2.21,0-2.74,0-5.16,0c-0.57,0-1.03,0.46-1.03,1.03s0.46,1.03,1.03,1.03H67c1.14,0,2.06,0.93,2.06,2.06
				c0,1.14-0.93,2.06-2.06,2.06H55.9c-4.56,0-6.34-0.47-9.89-1.39c-0.52-0.14-1.09-0.28-1.71-0.44V57.01
				c7.47-1.78,16.51-6.12,16.51-13.83v-1.03c0-1.14,0.93-2.06,2.06-2.06c1.14,0,2.06,0.92,2.06,2.06v0c0,0.45,0.56,5.95-1.68,10.94
				h-3.48c-0.57,0-1.03,0.46-1.03,1.03s0.46,1.03,1.03,1.03c0.72,0,12.24,0,13.42,0c1.14,0,2.06,0.93,2.06,2.06
				C75.26,58.35,74.33,59.27,73.19,59.27z"/>
		</g>
	</g>
	<g>
		<g>
			<path class="st1" d="M54.62,40.08h-4.13c-0.57,0-1.03,0.46-1.03,1.03c0,0.57,0.46,1.03,1.03,1.03h4.13
				c0.57,0,1.03-0.46,1.03-1.03C55.65,40.54,55.19,40.08,54.62,40.08z"/>
		</g>
	</g>
	<g>
		<g>
			<path class="st1" d="M75.26,40.08h-4.13c-0.57,0-1.03,0.46-1.03,1.03c0,0.57,0.46,1.03,1.03,1.03h4.13
				c0.57,0,1.03-0.46,1.03-1.03C76.29,40.54,75.83,40.08,75.26,40.08z"/>
		</g>
	</g>
	<g>
		<g>
			<path class="st1" d="M72.36,31.62c-0.4-0.4-1.06-0.4-1.46,0l-2.92,2.92c-0.4,0.4-0.4,1.06,0,1.46c0.4,0.4,1.06,0.4,1.46,0
				l2.92-2.92C72.76,32.68,72.76,32.03,72.36,31.62z"/>
		</g>
	</g>
	<g>
		<g>
			<path class="st1" d="M57.76,34.54l-2.92-2.92c-0.4-0.4-1.06-0.4-1.46,0c-0.4,0.4-0.4,1.06,0,1.46L56.3,36
				c0.4,0.4,1.06,0.4,1.46,0C58.17,35.6,58.17,34.95,57.76,34.54z"/>
		</g>
	</g>
</g>
</svg>
