<?xml version="1.0" encoding="utf-8"?>
<!-- Generator: Adobe Illustrator 23.0.2, SVG Export Plug-In . SVG Version: 6.00 Build 0)  -->
<svg version="1.1" id="Capa_1" xmlns="http://www.w3.org/2000/svg" xmlns:xlink="http://www.w3.org/1999/xlink" x="0px" y="0px"
	 viewBox="0 0 112 112" style="enable-background:new 0 0 112 112;" xml:space="preserve">
<style type="text/css">
	.st0{fill:#102EBA;}
	.st1{fill:#FFFFFF;}
	.st2{fill:#FFAF1E;}
	.st3{fill:#FFB000;}
</style>
<circle class="st0" cx="56" cy="56" r="56"/>
<g>
	<path class="st1" d="M22.89,44.27h9.73c0.51,0,0.92-0.41,0.92-0.92c0-0.51-0.41-0.92-0.92-0.92h-9.73c-0.51,0-0.92,0.41-0.92,0.92
		C21.96,43.86,22.38,44.27,22.89,44.27z"/>
	<path class="st1" d="M32.28,48.72h-3.84c-0.51,0-0.92,0.41-0.92,0.92c0,0.51,0.41,0.92,0.92,0.92h3.84c0.51,0,0.92-0.41,0.92-0.92
		C33.2,49.13,32.79,48.72,32.28,48.72z"/>
	<path class="st1" d="M19.03,55.11h9.41c0.51,0,0.92-0.41,0.92-0.92c0-0.51-0.41-0.92-0.92-0.92h-9.41c-0.51,0-0.92,0.41-0.92,0.92
		C18.11,54.7,18.52,55.11,19.03,55.11z"/>
	<path class="st1" d="M33.54,71.47c0-0.51-0.41-0.92-0.92-0.92h-9.73c-0.51,0-0.92,0.41-0.92,0.92c0,0.51,0.41,0.92,0.92,0.92h9.73
		C33.13,72.39,33.54,71.98,33.54,71.47z"/>
	<path class="st1" d="M32.28,64.26h-3.84c-0.51,0-0.92,0.41-0.92,0.92s0.41,0.92,0.92,0.92h3.84c0.51,0,0.92-0.41,0.92-0.92
		S32.79,64.26,32.28,64.26z"/>
	<path class="st1" d="M29.36,60.63c0-0.51-0.41-0.92-0.92-0.92h-9.41c-0.51,0-0.92,0.41-0.92,0.92c0,0.51,0.41,0.92,0.92,0.92h9.41
		C28.95,61.55,29.36,61.14,29.36,60.63z"/>
	<path class="st2" d="M57.41,46.32c0.51,0,0.92-0.41,0.92-0.92v-1.41c0-0.51-0.41-0.92-0.92-0.92s-0.92,0.41-0.92,0.92v1.41
		C56.49,45.91,56.9,46.32,57.41,46.32z"/>
	<path class="st2" d="M67.55,47.27c-0.36-0.36-0.94-0.36-1.3,0l-1,1c-0.36,0.36-0.36,0.94,0,1.3c0.36,0.36,0.94,0.36,1.3,0l1-1
		C67.91,48.21,67.91,47.63,67.55,47.27z"/>
	<path class="st3" d="M69.42,56.49c-0.51,0-0.92,0.41-0.92,0.92s0.41,0.92,0.92,0.92h1.41c0.51,0,0.92-0.41,0.92-0.92
		s-0.41-0.92-0.92-0.92H69.42z"/>
	<path class="st2" d="M66.55,65.25c-0.36-0.36-0.94-0.36-1.3,0c-0.36,0.36-0.36,0.94,0,1.3l1,1c0.36,0.36,0.94,0.36,1.3,0
		c0.36-0.36,0.36-0.94,0-1.3L66.55,65.25z"/>
	<path class="st2" d="M56.49,69.42v1.41c0,0.51,0.41,0.92,0.92,0.92s0.92-0.41,0.92-0.92v-1.41c0-0.51-0.41-0.92-0.92-0.92
		S56.49,68.91,56.49,69.42z"/>
	<path class="st2" d="M48.26,65.25l-1,1c-0.36,0.36-0.36,0.94,0,1.3c0.36,0.36,0.94,0.36,1.3,0l1-1c0.36-0.36,0.36-0.94,0-1.3
		C49.2,64.89,48.62,64.89,48.26,65.25z"/>
	<path class="st2" d="M43.99,56.49c-0.51,0-0.92,0.41-0.92,0.92s0.41,0.92,0.92,0.92h1.41c0.51,0,0.92-0.41,0.92-0.92
		s-0.41-0.92-0.92-0.92H43.99z"/>
	<path class="st2" d="M49.57,48.26l-1-1c-0.36-0.36-0.94-0.36-1.3,0c-0.36,0.36-0.36,0.94,0,1.3l1,1c0.36,0.36,0.94,0.36,1.3,0
		C49.93,49.21,49.93,48.62,49.57,48.26z"/>
	<path class="st1" d="M62.37,57.41c0-0.51-0.41-0.92-0.92-0.92h-3.12v-6.85c0-0.51-0.41-0.92-0.92-0.92s-0.92,0.41-0.92,0.92v7.77
		c0,0.51,0.41,0.92,0.92,0.92h4.04C61.95,58.33,62.37,57.92,62.37,57.41z"/>
	<path class="st2" d="M74.9,57.26c0.51-0.03,0.9-0.47,0.86-0.98c-0.59-9.68-8.65-17.26-18.36-17.26c-10.14,0-18.39,8.25-18.39,18.39
		c0,10.14,8.25,18.39,18.39,18.39c9.09,0,16.84-6.66,18.19-15.64c0.08-0.5-0.27-0.97-0.78-1.05c-0.5-0.08-0.97,0.27-1.05,0.78
		c-1.21,8.07-8.18,14.07-16.36,14.07c-9.12,0-16.55-7.42-16.55-16.55s7.42-16.55,16.55-16.55c8.73,0,15.99,6.82,16.52,15.53
		C73.95,56.9,74.39,57.29,74.9,57.26L74.9,57.26z"/>
	<path class="st1" d="M57.41,33.74c-3.24,0-6.42,0.67-9.35,1.93H31.78c-0.51,0-0.92,0.41-0.92,0.92s0.41,0.92,0.92,0.92h12.81
		c-1.73,1.11-3.33,2.46-4.73,4.01c-0.34,0.38-0.31,0.96,0.06,1.3c0.38,0.34,0.96,0.31,1.3-0.06c4.13-4.56,10.03-7.18,16.18-7.18
		c12.04,0,21.83,9.79,21.83,21.83c0,12.04-9.79,21.83-21.83,21.83c-12.04,0-21.83-9.79-21.83-21.83c0-4.21,1.2-8.31,3.48-11.83
		c0.28-0.43,0.15-1-0.27-1.28c-0.43-0.28-1-0.15-1.28,0.27c-2.47,3.82-3.78,8.26-3.78,12.83c0,8.34,4.33,15.68,10.86,19.9H31.78
		c-0.51,0-0.92,0.41-0.92,0.92c0,0.51,0.41,0.92,0.92,0.92h16.26c2.87,1.24,6.04,1.93,9.36,1.93c13.05,0,23.67-10.62,23.67-23.67
		S70.46,33.74,57.41,33.74z"/>
</g>
</svg>
