<?xml version="1.0" encoding="utf-8"?>
<!-- Generator: Adobe Illustrator 24.0.1, SVG Export Plug-In . SVG Version: 6.00 Build 0)  -->
<svg version="1.1" id="Layer_1" xmlns="http://www.w3.org/2000/svg" xmlns:xlink="http://www.w3.org/1999/xlink" x="0px" y="0px"
	 viewBox="0 0 300 300" style="enable-background:new 0 0 300 300;" xml:space="preserve">
<style type="text/css">
	.st0{fill:#FFFFFF;}
</style>
<g>
	<g>
		<path class="st0" d="M149.8,70.3c-43.4,0-78.7,35.3-78.7,78.7s35.3,78.7,78.7,78.7s78.7-35.3,78.7-78.7S193.2,70.3,149.8,70.3z
			 M149.8,220.8c-39.6,0-71.8-32.2-71.8-71.8c0-1.3,0-2.6,0.1-3.9l0,0l0,0c0.5-8.4,2.3-16.3,5.4-23.7l0,0l0,0
			c10.9-25.9,36.5-44.1,66.2-44.1c39.6,0,71.8,32.2,71.8,71.8C221.6,188.6,189.4,220.8,149.8,220.8z"/>
	</g>
	<g>
		<path class="st0" d="M180,34l-3.3,33.1c5.4,1.7,10.6,4,15.5,6.8l22.4-24.4C211.2,45.9,199.7,34.6,180,34z"/>
		<path class="st0" d="M150.1,62.9c6.3,0,13.3,0.8,19.8,2.3l5.6-58.4C171.7,5.8,160.9,3,148.9,3c-8.1,0-15.3,1.2-21.3,3.7l4.1,58.2
			C137.8,63.6,143.9,62.9,150.1,62.9z"/>
		<path class="st0" d="M250.9,212.8c3.7-3,15.1-13.8,15.4-33.5l-33.5-4.1c-1.7,5.4-3.9,10.6-6.6,15.5L250.9,212.8z"/>
		<path class="st0" d="M109.7,73.1c4.9-2.7,10.1-5,15.6-6.7l-2.6-33c-5-0.2-21,0.6-35,14.6L109.7,73.1z"/>
		<path class="st0" d="M176.6,230.9L180,264c19.8-0.6,31.3-11.9,34.5-15.6l-22.4-24.4C187.2,226.9,182,229.2,176.6,230.9z"/>
		<path class="st0" d="M150.1,235.1c-6.1,0-12.3-0.7-18.3-2l-4.1,58.2c6,2.4,13.2,3.7,21.3,3.7c12,0,22.8-2.8,26.6-3.8l-5.6-58.4
			C163.4,234.3,156.4,235.1,150.1,235.1z"/>
		<path class="st0" d="M122.7,264.6l2.6-33c-5.4-1.7-10.6-4-15.6-6.7l-21.9,25C101.6,264,117.7,264.8,122.7,264.6z"/>
		<path class="st0" d="M294.4,128.9l-59.6,2.8c1.4,6.5,2.1,13.4,2,19.8c-0.1,6.4-0.7,11.8-2.1,17.4l59.2,6
			C302.9,154.3,296.3,133.9,294.4,128.9z"/>
		<path class="st0" d="M47.7,88c-13.7,14.3-14.1,30.4-13.8,35.3l33,1.8c1.6-5.5,3.7-10.7,6.3-15.7L47.7,88z"/>
		<path class="st0" d="M49.3,212.8L74,190.6c-2.7-5-5-10.2-6.6-15.5l-33.5,4.1C34.2,199,45.6,209.8,49.3,212.8z"/>
		<path class="st0" d="M63.4,151.4c-0.1-6.3,0.6-13.2,2-19.8l-59.6-2.8c-1.9,5-8.5,25.4,0.5,45.9l59.2-6
			C64.2,163.2,63.5,157.9,63.4,151.4z"/>
		<path class="st0" d="M212.8,89.9c0.6,0.6,1.2,1.2,1.7,1.8c3.5,3.5,6.3,6.4,9,10.6l46.9-37.5c-8.1-20.7-26.6-29.1-31.3-30.9
			l-40.4,44.4C203.7,81.4,208.1,85.1,212.8,89.9z"/>
		<path class="st0" d="M198.7,220.7l40.6,45.1c4.4-1.4,21.8-8.2,29.8-28.7L222.4,197c-3.1,5-6.1,8.4-10.2,12.7
			C207.9,214.1,204.1,217.2,198.7,220.7z"/>
		<path class="st0" d="M103.6,76.9L63.5,32.8c-4.9,2.2-24,12-32.1,32.7l46,37.7c3-4.9,6.4-9.1,10.9-13.7C92.6,85,98,80.6,103.6,76.9
			z"/>
		<path class="st0" d="M89.6,209.7c-4.1-4.3-7.1-7.7-10.2-12.7l-46.6,40.1c8,20.6,25.4,27.3,29.8,28.7l40.6-45.1
			C97.8,217.2,94,214.1,89.6,209.7z"/>
		<path class="st0" d="M259.7,96.9c-1.8-2.9-3.9-5.6-6.4-8.2L227,109.4c2.6,5,4.7,10.2,6.3,15.7l33.1-1.8c0.2-1.9,0.3-5.4-0.4-9.9
			C265,107.6,262.9,102,259.7,96.9z"/>
		<g>
			<path class="st0" d="M274.5,99.7c-1.5-3.4-3.4-5.9-4.7-7.4l-1.3-1.5l-5.1,4.6l0.9,1.4c2.9,4.8,4.8,10,5.5,15.7l0.2,1.6l6.8,0.6
				l0.1-2.1C277.2,108.2,276.3,103.9,274.5,99.7z"/>
			<path class="st0" d="M207.7,38.7l1.3,1l5.2-4.5l-1.4-1.5c-3-3.3-6.7-5.7-10.9-7.2c-3.5-1.3-6.6-1.6-8.6-1.7l-2-0.1l-0.2,6.8
				l1.6,0.4C198.1,32.9,203.2,35.3,207.7,38.7z"/>
			<path class="st0" d="M209.1,259.3c-4.5,3.4-9.6,5.7-15.1,6.9l-1.6,0.3l0,6.8l2.1-0.1c4.4-0.1,8.7-1.3,12.7-3.6
				c3.2-1.8,5.5-3.9,6.9-5.4l1.4-1.5l-5-4.6L209.1,259.3z"/>
			<path class="st0" d="M269,191.3c-1,5.5-3.2,10.7-6.4,15.3l-0.9,1.3l4.6,5l1.5-1.4c3.2-3.1,5.5-6.9,6.9-11.2
				c1.1-3.5,1.4-6.6,1.5-8.6l0-2l-6.8,0L269,191.3z"/>
			<path class="st0" d="M30.9,111.5c0.7-5.6,2.6-10.9,5.5-15.7l0.9-1.4l-5.1-4.6l-1.3,1.5c-1.3,1.5-3.2,4-4.7,7.4
				c-1.9,4.2-2.7,8.5-2.4,12.9l0.1,2.1l6.8-0.6L30.9,111.5z"/>
			<path class="st0" d="M101.4,25.8c-4.3,1.4-8.1,3.7-11.2,6.8L88.8,34l5,4.7l1.3-0.9c4.7-3.2,9.9-5.3,15.4-6.3l1.6-0.3l0-6.8l-2,0
				C108.1,24.4,105,24.6,101.4,25.8z"/>
			<path class="st0" d="M109.7,267.6c-5.6-1.2-10.6-3.6-15.1-6.9l-1.3-1l-5,4.6l1.4,1.5c1.4,1.4,3.7,3.5,6.9,5.4
				c4,2.2,8.2,3.4,12.6,3.6l2.1,0.1l0-6.8L109.7,267.6z"/>
			<path class="st0" d="M31.1,191.3l-0.3-1.6l-6.8,0l0,2c0,2,0.3,5.1,1.5,8.6c1.4,4.3,3.7,8.1,6.9,11.2l1.5,1.4l4.6-5l-0.9-1.3
				C34.3,202,32.1,196.8,31.1,191.3z"/>
		</g>
	</g>
	<g>
		<rect x="123.8" y="189.2" class="st0" width="48" height="6.4"/>
		<rect x="123.8" y="177" class="st0" width="48" height="6.4"/>
		<polygon class="st0" points="103.5,135.6 117,145.2 125.9,135.6 		"/>
		<path class="st0" d="M138.2,165.6l21.5,0l-1.4-39.2l51.4-4.9C199,98,175.6,83,149.8,83c-25.7,0-49,15-59.9,38.2l49.3,5.4
			L138.2,165.6z"/>
		<path class="st0" d="M106.1,198.5l1.1-30.9l-23.4-17.6C84.1,168.6,92.2,186.1,106.1,198.5z"/>
		<path class="st0" d="M88.7,125c-0.4,1-1.7,3.8-2,4.8l47,1.3L88.7,125z"/>
		<polygon class="st0" points="194.2,135.6 171.7,135.6 180.6,145.2 		"/>
		<path class="st0" d="M189.1,202c16.6-12.3,26.5-31.7,26.7-52.4l-27.2,19.8L189.1,202z"/>
		<path class="st0" d="M215.5,142.4c-0.5-5.2-2.5-11.8-4.2-16.7l-47,5.5l48-1.3l-32.4,23l-15.3-16.5l1.1,33h-33.3l0.8-33l-15.4,16.6
			l-31.4-22.3c-1.2,4-1.9,8.1-2.3,12.3l29,21.8l-1.2,38.2c11.2,7.9,24.3,12.1,38,12.1c11.8,0,23.4-3.2,33.5-9.2l-0.5-39.4
			L215.5,142.4z M177.6,201.4h-59.6v-30.1h12.6h1.7h33.4h2.2h9.7V201.4z"/>
	</g>
</g>
</svg>
