<?xml version="1.0" encoding="utf-8"?>
<!-- Generator: Adobe Illustrator 24.0.1, SVG Export Plug-In . SVG Version: 6.00 Build 0)  -->
<svg version="1.1" id="Layer_1" xmlns="http://www.w3.org/2000/svg" xmlns:xlink="http://www.w3.org/1999/xlink" x="0px" y="0px"
	 viewBox="0 0 215 29" style="enable-background:new 0 0 215 29;" xml:space="preserve">
<style type="text/css">
	.st0{fill:#FFFFFF;}
</style>
<g>
	<g>
		<path class="st0" d="M-0.2,28.3c0-0.1,0-0.2,0.1-0.3L13.2,0.1c0.2-0.4,0.7-0.4,1.2-0.4s1,0,1.2,0.4l13.3,27.8
			C29,28,29,28.1,29,28.3c0,0.7-1.8,0.8-3.6,0.8c-2,0-4,0-4.3-0.7l-1.5-3.6H9l-1.5,3.6c-0.3,0.7-2.3,0.7-4.3,0.7
			C1.6,29.1-0.2,29.1-0.2,28.3z M11.7,19h5.5l-2.8-6.5L11.7,19z"/>
		<path class="st0" d="M31.6,28.3V0.9c0-0.8,1.8-0.8,3.6-0.8s3.5,0,3.5,0.8v21.1H51c0.9,0,0.9,1.7,0.9,3.4c0,1.7,0,3.4-0.9,3.4H32.2
			C31.9,28.9,31.6,28.6,31.6,28.3z"/>
		<path class="st0" d="M55.3,28.3V0.9c0-0.8,1.8-0.8,3.6-0.8s3.5,0,3.5,0.8v21.1h12.3c0.9,0,0.9,1.7,0.9,3.4c0,1.7,0,3.4-0.9,3.4
			H55.9C55.6,28.9,55.3,28.6,55.3,28.3z"/>
		<path class="st0" d="M79,28.2V0.8c0-0.3,0.2-0.6,0.6-0.6h11.9c4.8,0,9,3.7,9,9.4c0,5.8-4.2,9.4-9,9.4h-5.4v9.1
			c0,0.9-1.8,0.9-3.5,0.9C80.8,29.1,79,29.1,79,28.2z M93,9.7c0-1.4-1.1-2.6-2.6-2.6h-4.3v5.2h4.3C91.8,12.3,93,11.1,93,9.7z"/>
		<path class="st0" d="M96.9,28.3c0-0.1,0-0.2,0.1-0.3l13.3-27.8c0.2-0.4,0.7-0.4,1.2-0.4s1,0,1.2,0.4L126,27.9
			c0.1,0.1,0.1,0.2,0.1,0.3c0,0.7-1.8,0.8-3.6,0.8c-2,0-4,0-4.3-0.7l-1.5-3.6h-10.6l-1.5,3.6c-0.3,0.7-2.3,0.7-4.3,0.7
			C98.7,29.1,96.9,29.1,96.9,28.3z M108.8,19h5.5l-2.8-6.5L108.8,19z"/>
		<path class="st0" d="M136.8,28.2V0.9c0-0.8,1.8-0.8,3.6-0.8c1.8,0,3.5,0,3.5,0.8v27.3c0,0.8-1.8,0.9-3.5,0.9
			C138.6,29.1,136.8,28.9,136.8,28.2z"/>
		<path class="st0" d="M173.1,29.1L157.5,14v14.2c0,0.9-1.8,0.9-3.5,0.9s-3.5,0-3.5-0.8V0.4c0-0.6,0.5-0.6,1-0.6s1,0,1.3,0.3
			l15.6,15.4V0.9c0-0.8,1.8-0.8,3.5-0.8c1.8,0,3.6,0,3.6,0.8v27.8c0,0.6-0.5,0.6-1,0.6C173.9,29.3,173.4,29.3,173.1,29.1z"/>
		<path class="st0" d="M187.6,28.2V7.1H180c-0.8,0-0.8-1.7-0.8-3.5c0-1.7,0-3.4,0.8-3.4h22.3c0.8,0,0.8,1.7,0.8,3.4s0,3.5-0.8,3.5
			h-7.6v21.1c0,0.9-1.8,0.9-3.6,0.9C189.4,29.1,187.6,29.1,187.6,28.2z"/>
		<path class="st0" d="M207.1,28.2V0.9c0-0.8,1.8-0.8,3.6-0.8c1.8,0,3.5,0,3.5,0.8v27.3c0,0.8-1.8,0.9-3.5,0.9
			C208.8,29.1,207.1,28.9,207.1,28.2z"/>
	</g>
</g>
</svg>
