<?xml version="1.0" encoding="utf-8"?>
<!-- Generator: Adobe Illustrator 23.0.2, SVG Export Plug-In . SVG Version: 6.00 Build 0)  -->
<svg version="1.1" id="Capa_1" xmlns="http://www.w3.org/2000/svg" xmlns:xlink="http://www.w3.org/1999/xlink" x="0px" y="0px"
	 viewBox="0 0 141 201" style="enable-background:new 0 0 141 201;" xml:space="preserve">
<style type="text/css">
	.st0{fill:#FFFFFF;}
</style>
<g>
	<g>
		<g>
			<path class="st0" d="M30.2,185.09L17,164.81l-8.56,7.38v12.91H0.05v-42.46h8.39v19.69l21.23-19.69h11.78l-18.74,16.59
				l16.83,25.87H30.2z"/>
			<path class="st0" d="M61.13,186.16c-3.21,0-6.16-0.57-8.83-1.7c-2.68-1.13-4.98-2.71-6.9-4.73c-1.92-2.02-3.42-4.44-4.49-7.26
				s-1.61-5.91-1.61-9.28c0-3.29,0.58-6.27,1.75-8.95c1.17-2.68,2.76-4.97,4.76-6.87s4.34-3.37,7.02-4.4
				c2.68-1.03,5.52-1.55,8.53-1.55c3.13,0,6,0.53,8.59,1.58c2.6,1.05,4.84,2.53,6.72,4.43c1.88,1.9,3.35,4.2,4.4,6.9
				c1.05,2.7,1.58,5.69,1.58,8.98c0,3.21-0.54,6.21-1.63,9.01c-1.09,2.8-2.6,5.21-4.52,7.26c-1.92,2.04-4.2,3.65-6.84,4.82
				S64.18,186.16,61.13,186.16z M61.07,178.67c1.9,0,3.67-0.39,5.29-1.16c1.63-0.77,3.03-1.82,4.22-3.15
				c1.19-1.33,2.12-2.88,2.8-4.67c0.67-1.78,1.01-3.69,1.01-5.71c0-2.18-0.32-4.19-0.95-6.04c-0.63-1.84-1.54-3.43-2.71-4.76
				c-1.17-1.33-2.59-2.36-4.25-3.09c-1.67-0.73-3.53-1.1-5.59-1.1c-1.94,0-3.72,0.38-5.32,1.13c-1.61,0.75-2.99,1.79-4.16,3.09
				c-1.17,1.31-2.07,2.87-2.71,4.67c-0.63,1.8-0.95,3.74-0.95,5.8c0,2.14,0.32,4.12,0.95,5.95c0.63,1.82,1.53,3.41,2.68,4.76
				c1.15,1.35,2.55,2.4,4.19,3.15C57.21,178.29,59.05,178.67,61.07,178.67z"/>
			<path class="st0" d="M118.82,185.09c-0.44-0.59-0.77-1.28-1.01-2.05c-0.24-0.77-0.42-1.99-0.54-3.66
				c-0.08-1.31-0.19-2.62-0.33-3.92c-0.14-1.31-0.44-2.5-0.89-3.57c-0.46-1.07-1.13-1.94-2.02-2.62c-0.89-0.67-2.13-1.01-3.72-1.01
				H96.63v16.83h-8.39v-42.46h21.95c1.94,0,3.88,0.16,5.8,0.48c1.92,0.32,3.63,0.92,5.11,1.81c1.49,0.89,2.7,2.15,3.63,3.78
				s1.4,3.73,1.4,6.3c0,2.54-0.71,4.72-2.14,6.54c-1.43,1.82-3.39,3.05-5.89,3.69c1.55,0.56,2.79,1.31,3.72,2.26
				c0.93,0.95,1.67,2.02,2.23,3.21c0.55,1.19,0.96,2.49,1.22,3.9c0.26,1.41,0.45,2.82,0.56,4.25c0.08,1.15,0.19,2.26,0.33,3.33
				c0.14,1.07,0.58,2.04,1.34,2.91H118.82z M96.63,149.47v12.19h15.23c1.78,0,3.21-0.5,4.28-1.52c1.07-1.01,1.61-2.47,1.61-4.37
				c0-1.19-0.19-2.19-0.56-3c-0.38-0.81-0.88-1.47-1.52-1.96c-0.63-0.5-1.38-0.84-2.23-1.04c-0.85-0.2-1.75-0.3-2.71-0.3H96.63z"/>
			<path class="st0" d="M132.44,185.09v-42.46h8.39v42.46H132.44z"/>
		</g>
	</g>
	<g>
		<path class="st0" d="M2.31,198.26c-0.64-0.34-1.14-0.82-1.5-1.42c-0.36-0.61-0.55-1.29-0.55-2.06s0.18-1.45,0.55-2.06
			s0.86-1.08,1.5-1.42c0.64-0.34,1.35-0.51,2.15-0.51c0.67,0,1.28,0.12,1.82,0.35s1,0.57,1.36,1.02l-1.15,1.06
			c-0.52-0.6-1.17-0.91-1.94-0.91c-0.48,0-0.91,0.11-1.28,0.31c-0.38,0.21-0.67,0.5-0.88,0.88c-0.21,0.38-0.31,0.8-0.31,1.28
			s0.1,0.91,0.31,1.28c0.21,0.38,0.5,0.67,0.88,0.88c0.38,0.21,0.8,0.31,1.28,0.31c0.77,0,1.42-0.3,1.94-0.92l1.15,1.06
			c-0.37,0.45-0.82,0.79-1.37,1.03s-1.15,0.35-1.82,0.35C3.66,198.78,2.95,198.61,2.31,198.26z"/>
		<path class="st0" d="M16.84,198.34c-0.5-0.26-0.89-0.62-1.17-1.09c-0.28-0.46-0.42-0.99-0.42-1.58s0.14-1.12,0.42-1.58
			s0.67-0.83,1.17-1.09c0.5-0.26,1.06-0.39,1.68-0.39c0.63,0,1.19,0.13,1.68,0.39c0.49,0.26,0.88,0.62,1.16,1.09
			s0.42,0.99,0.42,1.58s-0.14,1.12-0.42,1.58c-0.28,0.46-0.67,0.83-1.16,1.09c-0.49,0.26-1.05,0.39-1.68,0.39
			C17.9,198.73,17.34,198.6,16.84,198.34z M19.62,196.87c0.28-0.3,0.43-0.7,0.43-1.2c0-0.5-0.14-0.9-0.43-1.2
			c-0.28-0.3-0.65-0.45-1.09-0.45s-0.81,0.15-1.09,0.45s-0.43,0.7-0.43,1.2c0,0.5,0.14,0.9,0.43,1.2c0.29,0.3,0.65,0.45,1.09,0.45
			S19.33,197.17,19.62,196.87z"/>
		<path class="st0" d="M31.26,198.34c-0.5-0.26-0.89-0.62-1.17-1.09c-0.28-0.46-0.42-0.99-0.42-1.58s0.14-1.12,0.42-1.58
			s0.67-0.83,1.17-1.09c0.5-0.26,1.06-0.39,1.68-0.39c0.63,0,1.19,0.13,1.68,0.39c0.49,0.26,0.88,0.62,1.16,1.09
			s0.42,0.99,0.42,1.58s-0.14,1.12-0.42,1.58c-0.28,0.46-0.67,0.83-1.16,1.09c-0.49,0.26-1.05,0.39-1.68,0.39
			C32.32,198.73,31.76,198.6,31.26,198.34z M34.04,196.87c0.28-0.3,0.43-0.7,0.43-1.2c0-0.5-0.14-0.9-0.43-1.2
			c-0.28-0.3-0.65-0.45-1.09-0.45s-0.81,0.15-1.09,0.45s-0.43,0.7-0.43,1.2c0,0.5,0.14,0.9,0.43,1.2c0.29,0.3,0.65,0.45,1.09,0.45
			S33.75,197.17,34.04,196.87z"/>
		<path class="st0" d="M49.56,193c0.45,0.25,0.81,0.61,1.07,1.07c0.26,0.46,0.39,1,0.39,1.61c0,0.61-0.13,1.15-0.39,1.61
			c-0.26,0.46-0.61,0.82-1.07,1.07s-0.96,0.38-1.51,0.38c-0.76,0-1.35-0.24-1.79-0.72v2.77h-1.72v-8.08h1.65v0.68
			c0.43-0.51,1.05-0.77,1.87-0.77C48.61,192.62,49.11,192.74,49.56,193z M48.84,196.87c0.28-0.3,0.42-0.7,0.42-1.2
			c0-0.5-0.14-0.9-0.42-1.2c-0.28-0.3-0.65-0.45-1.09-0.45c-0.44,0-0.8,0.15-1.09,0.45s-0.43,0.7-0.43,1.2c0,0.5,0.14,0.9,0.43,1.2
			c0.28,0.3,0.65,0.45,1.09,0.45C48.2,197.32,48.56,197.17,48.84,196.87z"/>
		<path class="st0" d="M65.13,196.16h-4.49c0.08,0.37,0.27,0.66,0.57,0.87c0.3,0.21,0.68,0.32,1.13,0.32c0.31,0,0.58-0.05,0.82-0.14
			s0.46-0.24,0.67-0.44l0.92,0.99c-0.56,0.64-1.38,0.96-2.45,0.96c-0.67,0-1.26-0.13-1.78-0.39c-0.52-0.26-0.91-0.62-1.19-1.09
			c-0.28-0.46-0.42-0.99-0.42-1.58c0-0.58,0.14-1.11,0.41-1.57c0.28-0.47,0.65-0.83,1.14-1.09c0.48-0.26,1.02-0.39,1.62-0.39
			c0.58,0,1.11,0.13,1.58,0.38s0.84,0.61,1.11,1.08c0.27,0.47,0.4,1.01,0.4,1.63C65.17,195.72,65.16,195.87,65.13,196.16z
			 M61.1,194.25c-0.27,0.22-0.43,0.52-0.49,0.91h2.93c-0.06-0.38-0.22-0.67-0.49-0.9s-0.59-0.34-0.97-0.34
			C61.7,193.92,61.37,194.03,61.1,194.25z"/>
		<path class="st0" d="M75.98,192.84c0.35-0.15,0.75-0.22,1.21-0.22v1.59c-0.19-0.01-0.32-0.02-0.39-0.02
			c-0.49,0-0.88,0.14-1.16,0.41c-0.28,0.28-0.42,0.69-0.42,1.24v2.8H73.5v-5.94h1.65v0.78C75.35,193.2,75.63,192.99,75.98,192.84z"
			/>
		<path class="st0" d="M89.89,193.27c0.49,0.44,0.74,1.1,0.74,1.98v3.39h-1.61v-0.74c-0.32,0.55-0.93,0.83-1.81,0.83
			c-0.46,0-0.85-0.08-1.19-0.23s-0.59-0.37-0.77-0.64c-0.18-0.27-0.26-0.58-0.26-0.93c0-0.55,0.21-0.99,0.62-1.3
			c0.42-0.32,1.06-0.47,1.93-0.47h1.37c0-0.38-0.11-0.66-0.34-0.87c-0.23-0.2-0.57-0.3-1.03-0.3c-0.32,0-0.63,0.05-0.93,0.15
			c-0.31,0.1-0.56,0.23-0.78,0.4l-0.62-1.2c0.32-0.23,0.71-0.41,1.17-0.53c0.45-0.13,0.92-0.19,1.4-0.19
			C88.69,192.62,89.4,192.84,89.89,193.27z M88.42,197.37c0.23-0.14,0.39-0.34,0.49-0.6v-0.61h-1.18c-0.71,0-1.06,0.23-1.06,0.7
			c0,0.22,0.09,0.4,0.26,0.52c0.17,0.13,0.41,0.19,0.71,0.19C87.93,197.57,88.19,197.51,88.42,197.37z"/>
		<path class="st0" d="M103.2,198.36c-0.17,0.13-0.38,0.22-0.62,0.28s-0.51,0.09-0.78,0.09c-0.71,0-1.25-0.18-1.64-0.54
			c-0.39-0.36-0.58-0.89-0.58-1.59v-2.44h-0.92v-1.33h0.92v-1.45h1.72v1.45h1.48v1.33h-1.48v2.42c0,0.25,0.06,0.44,0.19,0.58
			c0.13,0.14,0.31,0.2,0.55,0.2c0.27,0,0.5-0.07,0.7-0.22L103.2,198.36z"/>
		<path class="st0" d="M111.45,191.6c-0.2-0.18-0.3-0.41-0.3-0.68c0-0.27,0.1-0.5,0.3-0.68c0.2-0.18,0.46-0.28,0.77-0.28
			s0.57,0.09,0.77,0.26c0.2,0.18,0.3,0.4,0.3,0.66c0,0.29-0.1,0.52-0.3,0.71c-0.2,0.19-0.46,0.28-0.77,0.28
			S111.65,191.79,111.45,191.6z M111.36,192.7h1.72v5.94h-1.72V192.7z"/>
		<path class="st0" d="M127.77,192.7l-2.51,5.94h-1.78l-2.5-5.94h1.78l1.65,4.04l1.7-4.04H127.77z"/>
		<path class="st0" d="M139.98,193.27c0.49,0.44,0.74,1.1,0.74,1.98v3.39h-1.61v-0.74c-0.32,0.55-0.93,0.83-1.81,0.83
			c-0.46,0-0.85-0.08-1.19-0.23s-0.59-0.37-0.77-0.64c-0.18-0.27-0.26-0.58-0.26-0.93c0-0.55,0.21-0.99,0.62-1.3
			c0.42-0.32,1.06-0.47,1.93-0.47H139c0-0.38-0.11-0.66-0.34-0.87c-0.23-0.2-0.57-0.3-1.03-0.3c-0.32,0-0.63,0.05-0.93,0.15
			c-0.31,0.1-0.56,0.23-0.78,0.4l-0.62-1.2c0.32-0.23,0.71-0.41,1.17-0.53c0.45-0.13,0.92-0.19,1.4-0.19
			C138.78,192.62,139.49,192.84,139.98,193.27z M138.51,197.37c0.23-0.14,0.39-0.34,0.49-0.6v-0.61h-1.18
			c-0.71,0-1.06,0.23-1.06,0.7c0,0.22,0.09,0.4,0.26,0.52c0.17,0.13,0.41,0.19,0.71,0.19C138.03,197.57,138.29,197.51,138.51,197.37
			z"/>
	</g>
	<g>
		<g>
			<path class="st0" d="M68.01,27.85c-17.63,0-31.98,14.34-31.98,31.98s14.34,31.98,31.98,31.98s31.98-14.34,31.98-31.98
				S85.65,27.85,68.01,27.85z M68.01,89.02c-16.09,0-29.19-13.09-29.19-29.19c0-0.54,0.02-1.07,0.05-1.6l0,0l0,0
				c0.19-3.4,0.95-6.64,2.21-9.63l0,0l0,0c4.41-10.53,14.82-17.95,26.93-17.95c16.09,0,29.19,13.09,29.19,29.19
				C97.2,75.92,84.11,89.02,68.01,89.02z"/>
		</g>
		<g>
			<path class="st0" d="M80.27,13.06l-1.36,13.47c2.18,0.71,4.29,1.64,6.31,2.77l9.1-9.91C92.99,17.9,88.29,13.31,80.27,13.06z"/>
			<path class="st0" d="M68.12,24.82c2.57,0,5.4,0.33,8.05,0.93l2.29-23.73c-1.53-0.44-5.93-1.56-10.81-1.56
				c-3.3,0-6.2,0.5-8.65,1.5l1.66,23.66C63.12,25.1,65.62,24.82,68.12,24.82z"/>
			<path class="st0" d="M109.12,85.76c1.49-1.22,6.12-5.63,6.28-13.64l-13.61-1.69c-0.68,2.18-1.59,4.3-2.7,6.32L109.12,85.76z"/>
			<path class="st0" d="M51.69,28.96c2-1.11,4.13-2.02,6.33-2.72l-1.04-13.41c-2.03-0.06-8.55,0.24-14.22,5.95L51.69,28.96z"/>
			<path class="st0" d="M78.92,93.13l1.36,13.47c8.04-0.25,12.72-4.83,14.05-6.34l-9.1-9.91C83.21,91.49,81.09,92.42,78.92,93.13z"
				/>
			<path class="st0" d="M68.12,94.84c-2.5,0-5-0.27-7.46-0.81L59,117.69c2.45,0.99,5.35,1.5,8.65,1.5c4.88,0,9.27-1.12,10.81-1.56
				L76.16,93.9C73.52,94.51,70.69,94.84,68.12,94.84z"/>
			<path class="st0" d="M56.98,106.83l1.04-13.41c-2.2-0.7-4.33-1.61-6.33-2.72l-8.92,10.18C48.43,106.59,54.95,106.9,56.98,106.83z
				"/>
			<path class="st0" d="M126.81,51.66l-24.23,1.13c0.56,2.65,0.84,5.47,0.79,8.03c-0.04,2.62-0.3,4.78-0.84,7.06l24.07,2.43
				C130.26,61.99,127.58,53.69,126.81,51.66z"/>
			<path class="st0" d="M26.51,35.02c-5.57,5.8-5.72,12.35-5.61,14.35l13.43,0.73c0.65-2.22,1.51-4.37,2.57-6.39L26.51,35.02z"/>
			<path class="st0" d="M27.15,85.76l10.04-9.01c-1.11-2.02-2.01-4.14-2.7-6.32l-13.61,1.69C21.03,80.16,25.66,84.55,27.15,85.76z"
				/>
			<path class="st0" d="M32.89,60.82c-0.04-2.57,0.24-5.38,0.79-8.03L9.46,51.66C8.69,53.69,6.01,62,9.66,70.31l24.07-2.43
				C33.19,65.6,32.94,63.43,32.89,60.82z"/>
			<path class="st0" d="M93.61,35.79c0.25,0.25,0.48,0.49,0.71,0.73c1.41,1.44,2.56,2.61,3.65,4.3l19.07-15.26
				c-3.3-8.42-10.82-11.83-12.73-12.58L87.88,31.01C89.92,32.34,91.72,33.84,93.61,35.79z"/>
			<path class="st0" d="M87.87,88.98l16.5,18.35c1.79-0.58,8.86-3.32,12.12-11.68L97.53,79.33c-1.27,2.03-2.48,3.43-4.17,5.17
				C91.61,86.3,90.06,87.57,87.87,88.98z"/>
			<path class="st0" d="M49.22,30.53l-16.3-17.95c-1.98,0.9-9.76,4.86-13.07,13.31l18.71,15.33c1.24-1.99,2.59-3.7,4.41-5.58
				C44.76,33.8,46.96,32.01,49.22,30.53z"/>
			<path class="st0" d="M43.55,84.49c-1.68-1.74-2.9-3.13-4.17-5.17L20.42,95.64c3.26,8.36,10.33,11.1,12.12,11.68l16.5-18.35
				C46.85,87.57,45.31,86.3,43.55,84.49z"/>
			<path class="st0" d="M112.67,38.64c-0.73-1.17-1.61-2.28-2.6-3.32l-10.69,8.39c1.06,2.02,1.92,4.16,2.56,6.38l13.46-0.73
				c0.07-0.76,0.12-2.2-0.18-4.02C114.83,42.98,113.97,40.73,112.67,38.64z"/>
			<g>
				<path class="st0" d="M118.69,39.8c-0.62-1.37-1.38-2.39-1.91-3l-0.54-0.62l-2.06,1.86l0.35,0.57c1.19,1.94,1.95,4.08,2.25,6.38
					l0.08,0.64l2.77,0.26l0.05-0.84C119.78,43.25,119.45,41.49,118.69,39.8z"/>
				<path class="st0" d="M91.55,14.98l0.52,0.39l2.11-1.81l-0.57-0.62c-1.22-1.33-2.72-2.32-4.44-2.95
					c-1.42-0.51-2.69-0.67-3.51-0.71l-0.82-0.04l-0.09,2.77l0.66,0.14C87.63,12.65,89.7,13.6,91.55,14.98z"/>
				<path class="st0" d="M92.12,104.65c-1.82,1.36-3.89,2.31-6.15,2.81l-0.63,0.14l-0.01,2.78l0.84-0.03
					c1.81-0.06,3.54-0.54,5.15-1.45c1.31-0.74,2.25-1.59,2.81-2.18l0.57-0.6l-2.04-1.88L92.12,104.65z"/>
				<path class="st0" d="M116.46,77.03c-0.42,2.24-1.3,4.33-2.62,6.23l-0.37,0.53l1.88,2.05l0.6-0.59c1.28-1.26,2.23-2.79,2.8-4.55
					c0.46-1.43,0.58-2.7,0.6-3.51l0.02-0.83l-2.77-0.01L116.46,77.03z"/>
				<path class="st0" d="M19.65,44.58c0.3-2.29,1.05-4.44,2.25-6.38l0.35-0.57l-2.06-1.86l-0.54,0.62c-0.53,0.61-1.3,1.63-1.91,3
					c-0.76,1.69-1.09,3.46-0.99,5.25l0.05,0.84l2.77-0.26L19.65,44.58z"/>
				<path class="st0" d="M48.35,9.73c-1.75,0.56-3.29,1.49-4.56,2.77l-0.59,0.59l2.03,1.89l0.54-0.37c1.91-1.31,4.01-2.17,6.25-2.57
					l0.66-0.12l0.02-2.77l-0.82,0.01C51.06,9.17,49.78,9.27,48.35,9.73z"/>
				<path class="st0" d="M51.69,108.05c-2.26-0.5-4.33-1.45-6.15-2.81l-0.54-0.4l-2.04,1.88l0.57,0.6c0.56,0.59,1.51,1.44,2.81,2.18
					c1.61,0.91,3.34,1.4,5.14,1.45l0.84,0.03l-0.01-2.78L51.69,108.05z"/>
				<path class="st0" d="M19.74,77.03l-0.12-0.66l-2.77,0.01l0.02,0.83c0.02,0.81,0.13,2.08,0.6,3.51c0.57,1.76,1.51,3.29,2.8,4.55
					l0.6,0.59l1.88-2.05l-0.37-0.53C21.04,81.36,20.16,79.26,19.74,77.03z"/>
			</g>
		</g>
		<g>
			<rect x="57.45" y="76.18" class="st0" width="19.53" height="2.61"/>
			<rect x="57.45" y="71.23" class="st0" width="19.53" height="2.6"/>
			<polygon class="st0" points="49.17,54.38 54.67,58.29 58.3,54.38 			"/>
			<path class="st0" d="M63.3,66.58l8.76-0.01l-0.55-15.94l20.89-1.99c-4.38-9.53-13.89-15.65-24.39-15.65
				c-10.45,0-19.94,6.08-24.34,15.55l20.03,2.18L63.3,66.58z"/>
			<path class="st0" d="M50.26,79.94l0.43-12.58l-9.51-7.15C41.29,67.79,44.57,74.91,50.26,79.94z"/>
			<path class="st0" d="M43.16,50.09c-0.14,0.4-0.7,1.54-0.82,1.95l19.12,0.55L43.16,50.09z"/>
			<polygon class="st0" points="86.05,54.38 76.93,54.38 80.55,58.29 			"/>
			<path class="st0" d="M84,81.37c6.75-5.02,10.78-12.91,10.85-21.3L83.81,68.1L84,81.37z"/>
			<path class="st0" d="M94.71,57.14c-0.21-2.13-1-4.8-1.7-6.79l-19.12,2.23l19.52-0.55l-13.18,9.35L74,54.68l0.46,13.4H60.92
				l0.34-13.43L55,61.39l-12.75-9.05c-0.47,1.63-0.79,3.31-0.95,5.02l11.78,8.85l-0.49,15.55c4.54,3.21,9.87,4.9,15.43,4.9
				c4.8,0,9.51-1.29,13.63-3.73l-0.2-16.02L94.71,57.14z M79.33,81.14H55.1V68.89h5.11h0.69h13.59h0.91h3.93V81.14z"/>
		</g>
	</g>
</g>
</svg>
