<?xml version="1.0" encoding="utf-8"?>
<!-- Generator: Adobe Illustrator 23.0.2, SVG Export Plug-In . SVG Version: 6.00 Build 0)  -->
<svg version="1.1" id="Capa_1" xmlns="http://www.w3.org/2000/svg" xmlns:xlink="http://www.w3.org/1999/xlink" x="0px" y="0px"
	 viewBox="0 0 252 53" style="enable-background:new 0 0 252 53;" xml:space="preserve">
<style type="text/css">
	.st0{fill:#FFFFFF;}
	.st1{fill:#102EBA;}
	.st2{fill:#FFAF1E;}
</style>
<g>
	<g>
		<path class="st0" d="M34.61,11.11v18.84h-7.96V24.4H14.63l-4.65,5.54H0L19.5,6.23c1.89-1.92,4.4-2.88,7.51-2.88
			C32.07,3.35,34.61,5.93,34.61,11.11z M26.65,10.18c0-0.37-0.03-0.55-0.09-0.55c-0.18,0-0.69,0.57-1.52,1.7l-5.17,6.8h6.78V10.18z"
			/>
		<path class="st0" d="M62.94,3.35h7.96v18.84c0,5.17-3.74,7.76-11.22,7.76H48.83c-7.48,0-11.22-3.2-11.22-9.6V3.35h7.96v16.99
			c0,2.22,1.09,3.32,3.26,3.32h10.85c2.17,0,3.26-1.11,3.26-3.32V3.35z"/>
		<path class="st0" d="M94.54,9.63v20.32h-7.96V9.63H73.91V3.35h33.29v6.28H94.54z"/>
	</g>
	<path class="st1" d="M94.96,50.93H5.44c-2.94,0-5.34-2.4-5.34-5.34l0-0.15c0-2.94,2.4-5.34,5.34-5.34h89.52
		c2.94,0,5.34,2.4,5.34,5.34v0.15C100.3,48.53,97.9,50.93,94.96,50.93z"/>
	<path class="st2" d="M246.66,50.93H79.84c-2.94,0-5.34-2.4-5.34-5.34v-0.15c0-2.94,2.4-5.34,5.34-5.34h166.83
		c2.94,0,5.34,2.4,5.34,5.34v0.15C252,48.53,249.6,50.93,246.66,50.93z"/>
	<g>
		<path d="M96.57,43.69h2.25c0.45,0,0.79,0.11,1.02,0.32c0.23,0.21,0.34,0.52,0.34,0.92c0,0.25-0.05,0.45-0.15,0.62
			c-0.1,0.17-0.23,0.3-0.41,0.39c0.24,0.07,0.42,0.18,0.54,0.35c0.13,0.17,0.19,0.4,0.19,0.7c0,0.45-0.12,0.78-0.36,1.01
			c-0.24,0.22-0.6,0.34-1.07,0.34h-2.35V43.69z M98.71,45.68c0.49,0,0.74-0.23,0.74-0.68c0-0.25-0.06-0.43-0.18-0.54
			c-0.12-0.11-0.33-0.17-0.64-0.17h-1.27v1.39H98.71z M98.75,47.76c0.28,0,0.49-0.06,0.62-0.18c0.13-0.12,0.19-0.32,0.19-0.61
			c0-0.25-0.07-0.43-0.2-0.54c-0.13-0.12-0.36-0.17-0.69-0.17h-1.32v1.51H98.75z"/>
		<path d="M104.81,43.69h0.88l1.76,4.64h-0.81l-0.46-1.2h-1.87l-0.46,1.2h-0.81L104.81,43.69z M106.05,46.53l-0.81-2.13l-0.81,2.13
			H106.05z"/>
		<path d="M111.04,44.31h-1.48v-0.61h3.75v0.61h-1.48v4.03h-0.79V44.31z"/>
		<path d="M116.45,43.69h3.24v0.61h-2.45v1.41h2.18v0.61h-2.18v1.41h2.45v0.61h-3.24V43.69z"/>
		<path d="M122.94,43.69h2.13c0.5,0,0.88,0.13,1.12,0.39c0.24,0.26,0.37,0.62,0.37,1.1c0,0.33-0.08,0.61-0.25,0.84
			c-0.17,0.23-0.4,0.39-0.7,0.48c0.08,0.06,0.15,0.12,0.19,0.19c0.05,0.07,0.1,0.17,0.15,0.3l0.58,1.35h-0.81l-0.57-1.3
			c-0.06-0.13-0.13-0.22-0.2-0.27c-0.08-0.05-0.2-0.08-0.37-0.08h-0.87v1.64h-0.79V43.69z M124.86,46.06c0.61,0,0.92-0.29,0.92-0.88
			c0-0.58-0.28-0.87-0.84-0.87h-1.21v1.75H124.86z"/>
		<path d="M129.86,43.69h0.79v4.64h-0.79V43.69z M130.45,42.1h0.69l-0.61,1.28h-0.63L130.45,42.1z"/>
		<path d="M135.72,43.69h0.88l1.76,4.64h-0.81l-0.46-1.2h-1.87l-0.46,1.2h-0.81L135.72,43.69z M136.96,46.53l-0.81-2.13l-0.81,2.13
			H136.96z"/>
		<path d="M141.28,48.18v-0.69c0.45,0.17,0.91,0.26,1.38,0.26c0.39,0,0.67-0.05,0.85-0.14c0.18-0.09,0.26-0.26,0.26-0.51
			c0-0.16-0.04-0.28-0.11-0.38c-0.07-0.09-0.2-0.17-0.36-0.24c-0.17-0.07-0.42-0.14-0.76-0.23c-0.5-0.13-0.85-0.29-1.05-0.49
			c-0.2-0.2-0.3-0.47-0.3-0.83c0-0.41,0.15-0.73,0.45-0.96c0.3-0.23,0.75-0.34,1.33-0.34c0.25,0,0.5,0.02,0.74,0.05
			s0.43,0.08,0.58,0.13v0.69c-0.37-0.14-0.77-0.21-1.21-0.21c-0.37,0-0.64,0.05-0.82,0.14c-0.18,0.1-0.27,0.26-0.27,0.49
			c0,0.14,0.03,0.25,0.1,0.34c0.07,0.08,0.18,0.16,0.34,0.22c0.16,0.06,0.39,0.14,0.7,0.21c0.54,0.14,0.92,0.32,1.13,0.54
			c0.21,0.22,0.32,0.51,0.32,0.86c0,0.41-0.15,0.74-0.46,0.97c-0.31,0.23-0.77,0.35-1.37,0.35S141.65,48.33,141.28,48.18z"/>
		<path d="M154.68,43.69h0.88l1.76,4.64h-0.81l-0.46-1.2h-1.87l-0.46,1.2h-0.81L154.68,43.69z M155.91,46.53l-0.81-2.13l-0.81,2.13
			H155.91z"/>
		<path d="M160.63,47.95c-0.35-0.31-0.53-0.75-0.53-1.33v-2.92h0.79v2.89c0,0.38,0.11,0.67,0.32,0.87c0.21,0.19,0.52,0.29,0.92,0.29
			c0.39,0,0.7-0.1,0.91-0.29c0.21-0.19,0.32-0.48,0.32-0.87v-2.89h0.78v2.92c0,0.58-0.17,1.03-0.52,1.33
			c-0.35,0.31-0.84,0.46-1.48,0.46C161.48,48.41,160.98,48.25,160.63,47.95z"/>
		<path d="M168.72,44.31h-1.48v-0.61h3.75v0.61h-1.48v4.03h-0.79V44.31z"/>
		<path d="M174.14,47.83c-0.36-0.39-0.54-0.99-0.54-1.8c0-0.84,0.18-1.45,0.54-1.83c0.36-0.38,0.91-0.58,1.66-0.58
			c0.74,0,1.3,0.19,1.66,0.58c0.36,0.38,0.54,0.99,0.54,1.83c0,0.81-0.18,1.41-0.54,1.8c-0.36,0.39-0.91,0.58-1.65,0.58
			C175.05,48.41,174.5,48.21,174.14,47.83z M176.87,47.34c0.23-0.27,0.34-0.71,0.34-1.31c0-0.63-0.11-1.08-0.34-1.34
			c-0.22-0.26-0.58-0.4-1.08-0.4c-0.49,0-0.85,0.13-1.07,0.4c-0.22,0.26-0.34,0.71-0.34,1.34c0,0.6,0.11,1.04,0.34,1.31
			c0.23,0.27,0.58,0.41,1.07,0.41C176.28,47.74,176.64,47.61,176.87,47.34z"/>
		<path d="M181.03,43.69h0.81l1.47,3.01l1.46-3.01h0.81v4.64h-0.78v-3.37l-1.25,2.57h-0.48l-1.26-2.57v3.37h-0.78V43.69z"/>
		<path d="M189.16,47.83c-0.36-0.39-0.54-0.99-0.54-1.8c0-0.84,0.18-1.45,0.54-1.83c0.36-0.38,0.91-0.58,1.66-0.58
			c0.74,0,1.3,0.19,1.66,0.58c0.36,0.38,0.54,0.99,0.54,1.83c0,0.81-0.18,1.41-0.54,1.8c-0.36,0.39-0.91,0.58-1.65,0.58
			C190.07,48.41,189.52,48.21,189.16,47.83z M191.89,47.34c0.23-0.27,0.34-0.71,0.34-1.31c0-0.63-0.11-1.08-0.34-1.34
			c-0.22-0.26-0.58-0.4-1.08-0.4c-0.49,0-0.85,0.13-1.07,0.4c-0.22,0.26-0.34,0.71-0.34,1.34c0,0.6,0.11,1.04,0.34,1.31
			c0.23,0.27,0.58,0.41,1.07,0.41C191.3,47.74,191.66,47.61,191.89,47.34z"/>
		<path d="M197.11,44.31h-1.48v-0.61h3.75v0.61h-1.48v4.03h-0.79V44.31z"/>
		<path d="M202.53,43.69h2.13c0.5,0,0.88,0.13,1.12,0.39c0.25,0.26,0.37,0.62,0.37,1.1c0,0.33-0.08,0.61-0.25,0.84
			c-0.17,0.23-0.4,0.39-0.7,0.48c0.08,0.06,0.15,0.12,0.19,0.19c0.05,0.07,0.1,0.17,0.15,0.3l0.58,1.35h-0.81l-0.57-1.3
			c-0.06-0.13-0.13-0.22-0.2-0.27s-0.2-0.08-0.37-0.08h-0.87v1.64h-0.79V43.69z M204.45,46.06c0.61,0,0.92-0.29,0.92-0.88
			c0-0.58-0.28-0.87-0.84-0.87h-1.21v1.75H204.45z"/>
		<path d="M209.44,43.69h0.79v4.64h-0.79V43.69z"/>
		<path d="M214.11,47.79c-0.4-0.41-0.6-0.98-0.6-1.7c0-0.78,0.19-1.39,0.58-1.82c0.38-0.43,0.96-0.65,1.74-0.65
			c0.49,0,0.94,0.07,1.36,0.22v0.68c-0.41-0.16-0.84-0.24-1.3-0.24c-0.56,0-0.97,0.15-1.21,0.45c-0.24,0.3-0.37,0.75-0.37,1.35
			c0,0.55,0.13,0.96,0.39,1.24c0.26,0.28,0.66,0.42,1.2,0.42c0.48,0,0.91-0.07,1.3-0.22v0.69c-0.41,0.13-0.87,0.19-1.36,0.19
			C215.09,48.41,214.51,48.2,214.11,47.79z"/>
		<path d="M220.49,43.69h3.24v0.61h-2.45v1.41h2.18v0.61h-2.18v1.41h2.45v0.61h-3.24V43.69z"/>
		<path d="M226.93,48.18v-0.69c0.45,0.17,0.91,0.26,1.38,0.26c0.39,0,0.67-0.05,0.85-0.14c0.18-0.09,0.26-0.26,0.26-0.51
			c0-0.16-0.04-0.28-0.11-0.38c-0.07-0.09-0.2-0.17-0.36-0.24c-0.17-0.07-0.42-0.14-0.76-0.23c-0.5-0.13-0.85-0.29-1.05-0.49
			c-0.2-0.2-0.3-0.47-0.3-0.83c0-0.41,0.15-0.73,0.45-0.96c0.3-0.23,0.75-0.34,1.33-0.34c0.25,0,0.5,0.02,0.74,0.05
			c0.24,0.04,0.43,0.08,0.58,0.13v0.69c-0.37-0.14-0.77-0.21-1.21-0.21c-0.37,0-0.64,0.05-0.82,0.14c-0.18,0.1-0.27,0.26-0.27,0.49
			c0,0.14,0.03,0.25,0.1,0.34c0.07,0.08,0.18,0.16,0.34,0.22c0.16,0.06,0.39,0.14,0.7,0.21c0.54,0.14,0.92,0.32,1.13,0.54
			c0.21,0.22,0.32,0.51,0.32,0.86c0,0.41-0.15,0.74-0.46,0.97c-0.31,0.23-0.77,0.35-1.37,0.35
			C227.78,48.41,227.29,48.33,226.93,48.18z"/>
	</g>
	<g>
		<path class="st0" d="M120.77,3.35h10.85c7.48,0,11.22,3.2,11.22,9.6v9.23c0,5.17-3.74,7.76-11.22,7.76h-10.85
			c-7.48,0-11.22-3.2-11.22-9.6v-7.39C109.55,6.55,113.29,3.35,120.77,3.35z M131.62,9.63h-10.85c-2.17,0-3.26,1.11-3.26,3.32v7.39
			c0,2.22,1.09,3.32,3.26,3.32h10.85c2.17,0,3.26-1.11,3.26-3.32v-7.39C134.88,10.74,133.79,9.63,131.62,9.63z"/>
		<path class="st2" d="M156.16,19.79c-6.87,0-10.31-2.59-10.31-7.76v-0.92c0-5.17,3.44-7.76,10.31-7.76h22.97v6.28h-22.97
			c-1.57,0-2.35,0.49-2.35,1.48v0.92c0,0.99,0.78,1.48,2.35,1.48h12.66c6.87,0,10.31,2.59,10.31,7.76v0.92
			c0,5.17-3.44,7.76-10.31,7.76h-22.96l-0.02-6.28h22.97c1.57,0,2.35-0.49,2.35-1.48v-0.92c0-0.99-0.78-1.48-2.35-1.48H156.16z"/>
		<path class="st2" d="M207.47,3.35h7.96v18.84c0,5.17-3.74,7.76-11.22,7.76h-10.85c-7.48,0-11.22-3.2-11.22-9.6V3.35h7.96v16.99
			c0,2.22,1.09,3.32,3.26,3.32h10.85c2.17,0,3.26-1.11,3.26-3.32V3.35z"/>
		<path class="st2" d="M241.41,13.51c1.57,0,2.35-0.49,2.35-1.48v-0.92c0-0.99-0.78-1.48-2.35-1.48h-22.97l0.02-6.28h22.96
			c6.87,0,10.31,2.59,10.31,7.76v0.92c0,5.17-3.44,7.76-10.31,7.76H226.4v10.16h-7.96V13.51H241.41z"/>
	</g>
	<g>
		<path d="M87.93,46.15h-1.06v-0.61h1.06v-1.05h0.63v1.05h1.06v0.61h-1.06v1.02h-0.63V46.15z"/>
	</g>
	<g>
		<path d="M236.53,45.54h2.75v0.61h-2.75V45.54z"/>
	</g>
</g>
</svg>
