<?xml version="1.0" encoding="utf-8"?>
<!-- Generator: Adobe Illustrator 23.0.2, SVG Export Plug-In . SVG Version: 6.00 Build 0)  -->
<svg version="1.1" id="Capa_1" xmlns="http://www.w3.org/2000/svg" xmlns:xlink="http://www.w3.org/1999/xlink" x="0px" y="0px"
	 viewBox="0 0 252 53" style="enable-background:new 0 0 252 53;" xml:space="preserve">
<style type="text/css">
	.st0{fill:#FFFFFF;}
	.st1{fill:#FFAF1E;}
</style>
<g>
	<path class="st0" d="M35.16,10.44v18.7h-7.9v-5.5H15.33l-4.62,5.5H0.8L20.16,5.6c1.88-1.91,4.36-2.86,7.45-2.86
		C32.65,2.74,35.16,5.31,35.16,10.44z M27.26,9.53c0-0.37-0.03-0.55-0.09-0.55c-0.18,0-0.68,0.56-1.51,1.69l-5.14,6.75h6.74V9.53z"
		/>
	<path class="st0" d="M63.3,2.74h7.9v18.7c0,5.13-3.71,7.7-11.14,7.7H49.29c-7.42,0-11.14-3.18-11.14-9.54V2.74h7.9v16.87
		c0,2.2,1.08,3.3,3.23,3.3h10.78c2.16,0,3.23-1.1,3.23-3.3V2.74z"/>
	<path class="st0" d="M94.66,8.98v20.17h-7.9V8.98H74.19V2.74h33.05v6.23H94.66z"/>
</g>
<path class="st0" d="M95.98,49.98H5.31c-2.42,0-4.41-1.98-4.41-4.41v-1.94c0-2.42,1.98-4.41,4.41-4.41h90.67
	c2.42,0,4.41,1.98,4.41,4.41v1.94C100.39,48,98.4,49.98,95.98,49.98z"/>
<path class="st1" d="M246.59,49.98H79.17c-2.42,0-4.41-1.98-4.41-4.41v-1.94c0-2.42,1.98-4.41,4.41-4.41h167.42
	c2.42,0,4.41,1.98,4.41,4.41v1.94C251,48,249.02,49.98,246.59,49.98z"/>
<g>
	<path d="M96.68,42.8h2.23c0.45,0,0.78,0.11,1.01,0.32c0.22,0.21,0.34,0.52,0.34,0.91c0,0.24-0.05,0.45-0.15,0.62
		c-0.1,0.17-0.23,0.3-0.4,0.39c0.23,0.07,0.41,0.18,0.54,0.35c0.13,0.16,0.19,0.39,0.19,0.69c0,0.44-0.12,0.78-0.36,1
		c-0.24,0.22-0.6,0.33-1.06,0.33h-2.33V42.8z M98.81,44.76c0.49,0,0.73-0.22,0.73-0.67c0-0.25-0.06-0.43-0.18-0.54
		c-0.12-0.11-0.33-0.17-0.64-0.17h-1.26v1.38H98.81z M98.85,46.83c0.28,0,0.49-0.06,0.61-0.18c0.13-0.12,0.19-0.32,0.19-0.61
		c0-0.24-0.07-0.42-0.2-0.54c-0.13-0.11-0.36-0.17-0.68-0.17h-1.31v1.5H98.85z"/>
	<path d="M104.86,42.8h0.87l1.75,4.61h-0.8l-0.46-1.19h-1.85l-0.46,1.19h-0.81L104.86,42.8z M106.09,45.61l-0.8-2.11l-0.8,2.11
		H106.09z"/>
	<path d="M111.05,43.4h-1.47V42.8h3.72v0.61h-1.47v4h-0.78V43.4z"/>
	<path d="M116.42,42.8h3.21v0.61h-2.43v1.4h2.17v0.6h-2.17v1.4h2.43v0.6h-3.21V42.8z"/>
	<path d="M122.86,42.8h2.12c0.5,0,0.87,0.13,1.12,0.39c0.24,0.26,0.37,0.62,0.37,1.09c0,0.33-0.08,0.61-0.25,0.83
		c-0.16,0.23-0.4,0.39-0.7,0.48c0.08,0.06,0.15,0.12,0.19,0.19c0.05,0.07,0.1,0.17,0.15,0.3l0.58,1.34h-0.8l-0.56-1.29
		c-0.06-0.13-0.12-0.22-0.2-0.27c-0.08-0.05-0.2-0.08-0.37-0.08h-0.87v1.63h-0.78V42.8z M124.77,45.14c0.61,0,0.91-0.29,0.91-0.87
		c0-0.58-0.28-0.87-0.84-0.87h-1.2v1.74H124.77z"/>
	<path d="M129.73,42.8h0.78v4.61h-0.78V42.8z M130.32,41.21h0.69l-0.6,1.27h-0.62L130.32,41.21z"/>
	<path d="M135.55,42.8h0.87l1.75,4.61h-0.8l-0.46-1.19h-1.85l-0.46,1.19h-0.81L135.55,42.8z M136.78,45.61l-0.8-2.11l-0.8,2.11
		H136.78z"/>
	<path d="M141.08,47.25v-0.69c0.44,0.17,0.9,0.26,1.37,0.26c0.39,0,0.67-0.05,0.84-0.14c0.17-0.09,0.26-0.26,0.26-0.51
		c0-0.16-0.04-0.28-0.11-0.38c-0.07-0.09-0.19-0.17-0.36-0.24c-0.17-0.07-0.42-0.14-0.75-0.23c-0.5-0.13-0.84-0.29-1.04-0.49
		c-0.2-0.2-0.3-0.47-0.3-0.82c0-0.41,0.15-0.73,0.45-0.96c0.3-0.23,0.74-0.34,1.32-0.34c0.25,0,0.5,0.02,0.73,0.05
		c0.24,0.04,0.43,0.08,0.58,0.13v0.69c-0.36-0.14-0.76-0.21-1.2-0.21c-0.36,0-0.63,0.05-0.82,0.14c-0.18,0.1-0.27,0.26-0.27,0.49
		c0,0.14,0.03,0.25,0.1,0.33c0.07,0.08,0.18,0.16,0.33,0.22c0.15,0.06,0.39,0.13,0.7,0.21c0.54,0.14,0.91,0.32,1.12,0.54
		c0.21,0.22,0.32,0.5,0.32,0.85c0,0.41-0.15,0.73-0.46,0.96s-0.76,0.34-1.36,0.34S141.44,47.4,141.08,47.25z"/>
	<path d="M154.37,42.8h0.87l1.75,4.61h-0.8l-0.46-1.19h-1.85l-0.46,1.19h-0.81L154.37,42.8z M155.6,45.61l-0.8-2.11l-0.8,2.11H155.6
		z"/>
	<path d="M160.28,47.02c-0.35-0.31-0.52-0.75-0.52-1.32v-2.9h0.78v2.87c0,0.38,0.11,0.67,0.31,0.86c0.21,0.19,0.51,0.29,0.91,0.29
		c0.39,0,0.69-0.1,0.9-0.29c0.21-0.19,0.32-0.48,0.32-0.86V42.8h0.77v2.9c0,0.58-0.17,1.02-0.52,1.32
		c-0.35,0.31-0.84,0.46-1.47,0.46C161.12,47.48,160.63,47.32,160.28,47.02z"/>
	<path d="M168.32,43.4h-1.47V42.8h3.72v0.61h-1.47v4h-0.78V43.4z"/>
	<path d="M173.7,46.9c-0.36-0.38-0.54-0.98-0.54-1.79c0-0.83,0.18-1.44,0.54-1.82c0.36-0.38,0.91-0.57,1.65-0.57
		c0.74,0,1.29,0.19,1.65,0.57c0.36,0.38,0.54,0.99,0.54,1.82c0,0.81-0.18,1.4-0.54,1.79c-0.36,0.38-0.91,0.58-1.64,0.58
		C174.6,47.48,174.06,47.28,173.7,46.9z M176.4,46.42c0.22-0.27,0.34-0.7,0.34-1.3c0-0.62-0.11-1.07-0.33-1.33
		c-0.22-0.26-0.58-0.39-1.07-0.39c-0.49,0-0.84,0.13-1.06,0.39c-0.22,0.26-0.33,0.71-0.33,1.33c0,0.6,0.11,1.03,0.34,1.3
		c0.22,0.27,0.58,0.4,1.06,0.4C175.82,46.82,176.18,46.68,176.4,46.42z"/>
	<path d="M180.54,42.8h0.8l1.46,2.98l1.45-2.98h0.8v4.61h-0.77v-3.34l-1.24,2.55h-0.47l-1.25-2.55v3.34h-0.77V42.8z"/>
	<path d="M188.61,46.9c-0.36-0.38-0.54-0.98-0.54-1.79c0-0.83,0.18-1.44,0.54-1.82c0.36-0.38,0.91-0.57,1.65-0.57
		c0.74,0,1.29,0.19,1.65,0.57c0.36,0.38,0.54,0.99,0.54,1.82c0,0.81-0.18,1.4-0.54,1.79c-0.36,0.38-0.91,0.58-1.64,0.58
		C189.52,47.48,188.97,47.28,188.61,46.9z M191.32,46.42c0.22-0.27,0.34-0.7,0.34-1.3c0-0.62-0.11-1.07-0.33-1.33
		c-0.22-0.26-0.58-0.39-1.07-0.39c-0.49,0-0.84,0.13-1.06,0.39c-0.22,0.26-0.33,0.71-0.33,1.33c0,0.6,0.11,1.03,0.34,1.3
		c0.22,0.27,0.58,0.4,1.06,0.4C190.74,46.82,191.09,46.68,191.32,46.42z"/>
	<path d="M196.51,43.4h-1.47V42.8h3.72v0.61h-1.47v4h-0.78V43.4z"/>
	<path d="M201.88,42.8H204c0.5,0,0.87,0.13,1.12,0.39c0.24,0.26,0.37,0.62,0.37,1.09c0,0.33-0.08,0.61-0.25,0.83
		c-0.17,0.23-0.4,0.39-0.7,0.48c0.08,0.06,0.15,0.12,0.19,0.19c0.05,0.07,0.1,0.17,0.15,0.3l0.58,1.34h-0.8l-0.57-1.29
		c-0.06-0.13-0.12-0.22-0.2-0.27s-0.2-0.08-0.37-0.08h-0.87v1.63h-0.78V42.8z M203.79,45.14c0.61,0,0.91-0.29,0.91-0.87
		c0-0.58-0.28-0.87-0.84-0.87h-1.2v1.74H203.79z"/>
	<path d="M208.75,42.8h0.78v4.61h-0.78V42.8z"/>
	<path d="M213.39,46.86c-0.4-0.41-0.59-0.97-0.59-1.69c0-0.78,0.19-1.38,0.57-1.81c0.38-0.43,0.96-0.64,1.72-0.64
		c0.48,0,0.93,0.07,1.35,0.22v0.68c-0.41-0.16-0.84-0.24-1.29-0.24c-0.56,0-0.96,0.15-1.2,0.44c-0.24,0.3-0.37,0.74-0.37,1.34
		c0,0.54,0.13,0.95,0.39,1.23c0.26,0.28,0.66,0.41,1.19,0.41c0.47,0,0.9-0.07,1.29-0.22v0.69c-0.41,0.13-0.86,0.19-1.35,0.19
		C214.35,47.48,213.78,47.27,213.39,46.86z"/>
	<path d="M219.71,42.8h3.21v0.61h-2.43v1.4h2.17v0.6h-2.17v1.4h2.43v0.6h-3.21V42.8z"/>
	<path d="M226.11,47.25v-0.69c0.44,0.17,0.9,0.26,1.37,0.26c0.39,0,0.67-0.05,0.84-0.14c0.17-0.09,0.26-0.26,0.26-0.51
		c0-0.16-0.04-0.28-0.11-0.38c-0.07-0.09-0.19-0.17-0.36-0.24c-0.17-0.07-0.42-0.14-0.75-0.23c-0.5-0.13-0.84-0.29-1.04-0.49
		c-0.2-0.2-0.3-0.47-0.3-0.82c0-0.41,0.15-0.73,0.45-0.96c0.3-0.23,0.74-0.34,1.32-0.34c0.25,0,0.5,0.02,0.73,0.05
		c0.24,0.04,0.43,0.08,0.58,0.13v0.69c-0.36-0.14-0.76-0.21-1.2-0.21c-0.36,0-0.63,0.05-0.82,0.14c-0.18,0.1-0.27,0.26-0.27,0.49
		c0,0.14,0.03,0.25,0.1,0.33c0.07,0.08,0.18,0.16,0.33,0.22c0.15,0.06,0.39,0.13,0.7,0.21c0.54,0.14,0.91,0.32,1.12,0.54
		c0.21,0.22,0.32,0.5,0.32,0.85c0,0.41-0.15,0.73-0.46,0.96s-0.76,0.34-1.36,0.34S226.47,47.4,226.11,47.25z"/>
</g>
<g>
	<path class="st0" d="M120.71,2.74h10.78c7.42,0,11.14,3.18,11.14,9.54v9.17c0,5.13-3.71,7.7-11.14,7.7h-10.78
		c-7.42,0-11.14-3.18-11.14-9.54v-7.34C109.57,5.92,113.28,2.74,120.71,2.74z M131.48,8.98h-10.78c-2.16,0-3.23,1.1-3.23,3.3v7.34
		c0,2.2,1.08,3.3,3.23,3.3h10.78c2.16,0,3.23-1.1,3.23-3.3v-7.34C134.71,10.08,133.64,8.98,131.48,8.98z"/>
	<path class="st1" d="M155.84,19.06c-6.82,0-10.24-2.57-10.24-7.7v-0.92c0-5.13,3.41-7.7,10.24-7.7h22.81v6.23h-22.81
		c-1.56,0-2.33,0.49-2.33,1.47v0.92c0,0.98,0.78,1.47,2.33,1.47h12.57c6.82,0,10.24,2.57,10.24,7.7v0.92c0,5.13-3.41,7.7-10.24,7.7
		h-22.79l-0.02-6.23h22.81c1.56,0,2.33-0.49,2.33-1.47v-0.92c0-0.98-0.78-1.47-2.33-1.47H155.84z"/>
	<path class="st1" d="M206.79,2.74h7.9v18.7c0,5.13-3.71,7.7-11.13,7.7h-10.78c-7.42,0-11.14-3.18-11.14-9.54V2.74h7.9v16.87
		c0,2.2,1.08,3.3,3.23,3.3h10.78c2.15,0,3.23-1.1,3.23-3.3V2.74z"/>
	<path class="st1" d="M240.49,12.83c1.56,0,2.33-0.49,2.33-1.47v-0.92c0-0.98-0.78-1.47-2.33-1.47h-22.81l0.02-6.23h22.79
		c6.82,0,10.24,2.57,10.24,7.7v0.92c0,5.13-3.41,7.7-10.24,7.7h-14.91v10.09h-7.9V12.83H240.49z"/>
</g>
<g>
	<path d="M88.1,45.24h-1.05v-0.61h1.05v-1.04h0.62v1.04h1.05v0.61h-1.05v1.01H88.1V45.24z"/>
</g>
<g>
	<path d="M235.64,44.63h2.73v0.61h-2.73V44.63z"/>
</g>
</svg>
