<?xml version="1.0" encoding="utf-8"?>
<!-- Generator: Adobe Illustrator 23.0.2, SVG Export Plug-In . SVG Version: 6.00 Build 0)  -->
<svg version="1.1" id="Capa_1" xmlns="http://www.w3.org/2000/svg" xmlns:xlink="http://www.w3.org/1999/xlink" x="0px" y="0px"
	 viewBox="0 0 244 102" style="enable-background:new 0 0 244 102;" xml:space="preserve">
<style type="text/css">
	.st0{fill:#009CDF;}
	.st1{fill:#858584;stroke:#858584;stroke-width:0.25;stroke-miterlimit:10;}
	.st2{fill:#E4A92D;}
</style>
<g>
	<g>
		<g>
			<path class="st0" d="M148.09,63.34l-11.2-17.2l-7.26,6.25v10.95h-7.11V27.33h7.11v16.7l18.01-16.7h9.99L141.74,41.4l14.28,21.94
				H148.09z"/>
			<path class="st0" d="M174.33,64.25c-2.72,0-5.22-0.48-7.49-1.44c-2.27-0.96-4.22-2.3-5.85-4.01c-1.63-1.72-2.9-3.77-3.81-6.15
				c-0.91-2.39-1.36-5.01-1.36-7.87c0-2.79,0.5-5.32,1.49-7.59c0.99-2.27,2.34-4.21,4.04-5.83c1.7-1.61,3.68-2.86,5.95-3.73
				c2.27-0.87,4.68-1.31,7.24-1.31c2.66,0,5.09,0.45,7.29,1.34c2.2,0.89,4.1,2.14,5.7,3.76c1.6,1.61,2.84,3.56,3.73,5.85
				c0.89,2.29,1.34,4.83,1.34,7.62c0,2.72-0.46,5.27-1.39,7.64c-0.93,2.37-2.2,4.42-3.83,6.15c-1.63,1.73-3.56,3.09-5.8,4.09
				C179.33,63.75,176.92,64.25,174.33,64.25z M174.28,57.89c1.61,0,3.11-0.33,4.49-0.98c1.38-0.66,2.57-1.55,3.58-2.67
				c1.01-1.13,1.8-2.45,2.37-3.96c0.57-1.51,0.86-3.13,0.86-4.84c0-1.85-0.27-3.56-0.81-5.12c-0.54-1.56-1.3-2.91-2.3-4.04
				c-0.99-1.13-2.19-2-3.61-2.62c-1.41-0.62-2.99-0.93-4.74-0.93c-1.65,0-3.15,0.32-4.51,0.96c-1.36,0.64-2.54,1.51-3.53,2.62
				c-0.99,1.11-1.76,2.43-2.3,3.96c-0.54,1.53-0.81,3.17-0.81,4.92c0,1.82,0.27,3.5,0.81,5.04c0.54,1.55,1.29,2.89,2.27,4.04
				c0.97,1.14,2.16,2.03,3.56,2.67C171,57.57,172.56,57.89,174.28,57.89z"/>
			<path class="st0" d="M223.26,63.34c-0.37-0.5-0.66-1.08-0.86-1.74c-0.2-0.66-0.35-1.69-0.45-3.1c-0.07-1.11-0.16-2.22-0.28-3.33
				c-0.12-1.11-0.37-2.12-0.76-3.03c-0.39-0.91-0.96-1.65-1.72-2.22c-0.76-0.57-1.81-0.86-3.15-0.86h-11.6v14.28h-7.11V27.33h18.61
				c1.65,0,3.29,0.14,4.92,0.4c1.63,0.27,3.08,0.78,4.34,1.54c1.26,0.76,2.29,1.82,3.08,3.2c0.79,1.38,1.19,3.16,1.19,5.35
				c0,2.15-0.61,4-1.82,5.55c-1.21,1.55-2.88,2.59-4.99,3.13c1.31,0.47,2.36,1.11,3.15,1.92s1.42,1.72,1.89,2.72
				c0.47,1.01,0.82,2.11,1.03,3.3c0.22,1.19,0.38,2.4,0.48,3.61c0.07,0.98,0.16,1.92,0.28,2.83c0.12,0.91,0.5,1.73,1.13,2.47H223.26
				z M204.44,33.13v10.34h12.91c1.51,0,2.72-0.43,3.63-1.29c0.91-0.86,1.36-2.09,1.36-3.71c0-1.01-0.16-1.86-0.48-2.55
				c-0.32-0.69-0.75-1.24-1.29-1.66c-0.54-0.42-1.17-0.71-1.89-0.88c-0.72-0.17-1.49-0.25-2.3-0.25H204.44z"/>
			<path class="st0" d="M234.81,63.34V27.33h7.11v36.02H234.81z"/>
		</g>
	</g>
	<g>
		<path class="st1" d="M124.45,76.44c-0.54-0.29-0.97-0.69-1.28-1.21c-0.31-0.52-0.46-1.1-0.46-1.75c0-0.65,0.15-1.23,0.46-1.75
			c0.31-0.52,0.73-0.92,1.28-1.21c0.54-0.29,1.15-0.44,1.82-0.44c0.57,0,1.08,0.1,1.54,0.3c0.46,0.2,0.85,0.49,1.16,0.86l-0.98,0.9
			c-0.44-0.51-0.99-0.77-1.65-0.77c-0.41,0-0.77,0.09-1.09,0.27c-0.32,0.18-0.57,0.43-0.75,0.75c-0.18,0.32-0.27,0.68-0.27,1.09
			c0,0.41,0.09,0.77,0.27,1.09c0.18,0.32,0.43,0.57,0.75,0.75c0.32,0.18,0.68,0.27,1.09,0.27c0.66,0,1.21-0.26,1.65-0.78l0.98,0.9
			c-0.31,0.38-0.7,0.67-1.16,0.87c-0.46,0.2-0.98,0.3-1.55,0.3C125.59,76.88,124.99,76.73,124.45,76.44z"/>
		<path class="st1" d="M136.79,76.51c-0.42-0.22-0.75-0.53-0.99-0.92c-0.24-0.39-0.36-0.84-0.36-1.34c0-0.5,0.12-0.95,0.36-1.34
			c0.24-0.39,0.57-0.7,0.99-0.92c0.42-0.22,0.9-0.33,1.43-0.33c0.53,0,1.01,0.11,1.43,0.33c0.42,0.22,0.75,0.53,0.98,0.92
			c0.24,0.39,0.36,0.84,0.36,1.34c0,0.5-0.12,0.95-0.36,1.34c-0.24,0.39-0.57,0.7-0.98,0.92c-0.42,0.22-0.89,0.33-1.43,0.33
			C137.68,76.84,137.21,76.73,136.79,76.51z M139.14,75.26c0.24-0.25,0.36-0.59,0.36-1.02c0-0.42-0.12-0.76-0.36-1.02
			c-0.24-0.25-0.55-0.38-0.92-0.38s-0.68,0.13-0.93,0.38c-0.24,0.25-0.37,0.59-0.37,1.02c0,0.43,0.12,0.76,0.37,1.02
			c0.24,0.25,0.55,0.38,0.93,0.38S138.9,75.51,139.14,75.26z"/>
		<path class="st1" d="M149.03,76.51c-0.42-0.22-0.75-0.53-0.99-0.92c-0.24-0.39-0.36-0.84-0.36-1.34c0-0.5,0.12-0.95,0.36-1.34
			c0.24-0.39,0.57-0.7,0.99-0.92c0.42-0.22,0.9-0.33,1.43-0.33c0.53,0,1.01,0.11,1.43,0.33c0.42,0.22,0.75,0.53,0.98,0.92
			c0.24,0.39,0.36,0.84,0.36,1.34c0,0.5-0.12,0.95-0.36,1.34c-0.24,0.39-0.57,0.7-0.98,0.92c-0.42,0.22-0.89,0.33-1.43,0.33
			C149.93,76.84,149.46,76.73,149.03,76.51z M151.39,75.26c0.24-0.25,0.36-0.59,0.36-1.02c0-0.42-0.12-0.76-0.36-1.02
			c-0.24-0.25-0.55-0.38-0.92-0.38s-0.68,0.13-0.93,0.38c-0.24,0.25-0.37,0.59-0.37,1.02c0,0.43,0.12,0.76,0.37,1.02
			c0.24,0.25,0.55,0.38,0.93,0.38S151.15,75.51,151.39,75.26z"/>
		<path class="st1" d="M164.57,71.97c0.38,0.22,0.69,0.52,0.9,0.91c0.22,0.39,0.33,0.85,0.33,1.36c0,0.52-0.11,0.97-0.33,1.37
			c-0.22,0.39-0.52,0.69-0.9,0.91c-0.38,0.22-0.81,0.32-1.28,0.32c-0.64,0-1.15-0.2-1.52-0.61v2.35h-1.46v-6.86h1.4v0.58
			c0.36-0.44,0.89-0.66,1.58-0.66C163.76,71.65,164.19,71.75,164.57,71.97z M163.96,75.26c0.24-0.25,0.36-0.59,0.36-1.02
			c0-0.42-0.12-0.76-0.36-1.02s-0.55-0.38-0.92-0.38c-0.38,0-0.68,0.13-0.92,0.38s-0.36,0.59-0.36,1.02c0,0.43,0.12,0.76,0.36,1.02
			s0.55,0.38,0.92,0.38C163.41,75.64,163.72,75.51,163.96,75.26z"/>
		<path class="st1" d="M177.8,74.66h-3.82c0.07,0.31,0.23,0.56,0.49,0.74c0.26,0.18,0.58,0.27,0.96,0.27c0.26,0,0.5-0.04,0.7-0.12
			c0.2-0.08,0.39-0.2,0.57-0.37l0.78,0.84c-0.48,0.54-1.17,0.82-2.08,0.82c-0.57,0-1.07-0.11-1.51-0.33
			c-0.44-0.22-0.78-0.53-1.01-0.92c-0.24-0.39-0.36-0.84-0.36-1.34c0-0.49,0.12-0.94,0.35-1.34s0.56-0.71,0.97-0.93
			c0.41-0.22,0.87-0.33,1.37-0.33c0.49,0,0.94,0.11,1.34,0.32c0.4,0.21,0.71,0.52,0.94,0.91c0.23,0.4,0.34,0.86,0.34,1.38
			C177.83,74.28,177.82,74.41,177.8,74.66z M174.38,73.03c-0.23,0.19-0.36,0.44-0.41,0.77h2.49c-0.05-0.32-0.19-0.57-0.41-0.76
			c-0.23-0.19-0.5-0.29-0.83-0.29C174.88,72.75,174.6,72.85,174.38,73.03z"/>
		<path class="st1" d="M187.01,71.83c0.3-0.13,0.64-0.19,1.03-0.19V73c-0.16-0.01-0.27-0.02-0.33-0.02c-0.42,0-0.75,0.12-0.98,0.35
			c-0.24,0.23-0.36,0.59-0.36,1.05v2.38h-1.46v-5.05h1.4v0.67C186.48,72.14,186.72,71.96,187.01,71.83z"/>
		<path class="st1" d="M198.82,72.2c0.42,0.37,0.63,0.93,0.63,1.68v2.88h-1.37v-0.63c-0.28,0.47-0.79,0.7-1.54,0.7
			c-0.39,0-0.72-0.07-1.01-0.2c-0.28-0.13-0.5-0.31-0.65-0.54c-0.15-0.23-0.22-0.49-0.22-0.79c0-0.47,0.18-0.84,0.53-1.11
			c0.35-0.27,0.9-0.4,1.64-0.4h1.16c0-0.32-0.1-0.56-0.29-0.74c-0.19-0.17-0.48-0.26-0.87-0.26c-0.27,0-0.53,0.04-0.79,0.13
			c-0.26,0.08-0.48,0.2-0.66,0.34l-0.53-1.02c0.27-0.19,0.6-0.34,0.99-0.45c0.38-0.11,0.78-0.16,1.19-0.16
			C197.81,71.65,198.41,71.83,198.82,72.2z M197.58,75.68c0.19-0.12,0.33-0.29,0.41-0.51v-0.52h-1c-0.6,0-0.9,0.2-0.9,0.59
			c0,0.19,0.07,0.34,0.22,0.45c0.15,0.11,0.35,0.16,0.6,0.16C197.16,75.86,197.38,75.8,197.58,75.68z"/>
		<path class="st1" d="M210.13,76.52c-0.14,0.11-0.32,0.19-0.53,0.24c-0.21,0.05-0.43,0.08-0.66,0.08c-0.6,0-1.06-0.15-1.39-0.46
			c-0.33-0.31-0.49-0.76-0.49-1.35v-2.07h-0.78v-1.12h0.78v-1.23h1.46v1.23h1.26v1.12h-1.26v2.05c0,0.21,0.05,0.38,0.16,0.49
			c0.11,0.12,0.26,0.17,0.46,0.17c0.23,0,0.43-0.06,0.59-0.19L210.13,76.52z"/>
		<path class="st1" d="M217.14,70.78c-0.17-0.16-0.25-0.35-0.25-0.58s0.08-0.42,0.25-0.58c0.17-0.16,0.39-0.23,0.66-0.23
			c0.27,0,0.49,0.07,0.66,0.22c0.17,0.15,0.25,0.34,0.25,0.56c0,0.24-0.08,0.45-0.25,0.6c-0.17,0.16-0.39,0.24-0.66,0.24
			C217.53,71.02,217.31,70.94,217.14,70.78z M217.06,71.72h1.46v5.05h-1.46V71.72z"/>
		<path class="st1" d="M231,71.72l-2.13,5.05h-1.51l-2.12-5.05h1.51l1.4,3.43l1.44-3.43H231z"/>
		<path class="st1" d="M241.37,72.2c0.42,0.37,0.63,0.93,0.63,1.68v2.88h-1.37v-0.63c-0.28,0.47-0.79,0.7-1.54,0.7
			c-0.39,0-0.72-0.07-1.01-0.2c-0.28-0.13-0.5-0.31-0.65-0.54c-0.15-0.23-0.22-0.49-0.22-0.79c0-0.47,0.18-0.84,0.53-1.11
			c0.35-0.27,0.9-0.4,1.64-0.4h1.16c0-0.32-0.1-0.56-0.29-0.74c-0.19-0.17-0.48-0.26-0.87-0.26c-0.27,0-0.53,0.04-0.79,0.13
			c-0.26,0.08-0.48,0.2-0.66,0.34l-0.53-1.02c0.27-0.19,0.6-0.34,0.99-0.45c0.38-0.11,0.78-0.16,1.19-0.16
			C240.35,71.65,240.95,71.83,241.37,72.2z M240.12,75.68c0.19-0.12,0.33-0.29,0.41-0.51v-0.52h-1c-0.6,0-0.9,0.2-0.9,0.59
			c0,0.19,0.07,0.34,0.22,0.45c0.15,0.11,0.35,0.16,0.6,0.16C239.71,75.86,239.93,75.8,240.12,75.68z"/>
	</g>
	<g>
		<g>
			<g>
				<path class="st2" d="M53.42,24.22c-14.95,0-27.12,12.17-27.12,27.12s12.17,27.12,27.12,27.12S80.54,66.3,80.54,51.35
					S68.37,24.22,53.42,24.22z M53.42,76.1C39.77,76.1,28.66,65,28.66,51.35c0-0.46,0.01-0.91,0.04-1.36l0,0l0,0
					c0.16-2.88,0.81-5.63,1.87-8.17l0,0l0,0c3.74-8.93,12.57-15.22,22.84-15.22c13.65,0,24.76,11.11,24.76,24.76
					C78.17,65,67.07,76.1,53.42,76.1z"/>
			</g>
			<g>
				<path class="st2" d="M63.82,11.68L62.66,23.1c1.85,0.6,3.64,1.39,5.35,2.35l7.71-8.4C74.6,15.78,70.61,11.89,63.82,11.68z"/>
				<path class="st2" d="M53.51,21.65c2.18,0,4.58,0.28,6.82,0.79l1.94-20.13C60.97,1.95,57.24,1,53.11,1
					c-2.8,0-5.26,0.43-7.34,1.27l1.41,20.07C49.26,21.88,51.39,21.65,53.51,21.65z"/>
				<path class="st2" d="M88.28,73.34c1.27-1.03,5.19-4.77,5.32-11.57l-11.55-1.43c-0.58,1.85-1.35,3.64-2.29,5.36L88.28,73.34z"/>
				<path class="st2" d="M39.57,25.16c1.7-0.94,3.5-1.71,5.37-2.31l-0.88-11.38c-1.72-0.05-7.25,0.2-12.06,5.04L39.57,25.16z"/>
				<path class="st2" d="M62.66,79.59l1.15,11.43c6.82-0.21,10.79-4.1,11.91-5.37l-7.72-8.4C66.3,78.2,64.51,78.99,62.66,79.59z"/>
				<path class="st2" d="M53.51,81.04c-2.12,0-4.24-0.23-6.33-0.69l-1.41,20.07c2.08,0.84,4.54,1.27,7.34,1.27
					c4.14,0,7.87-0.95,9.17-1.32l-1.94-20.13C58.08,80.76,55.69,81.04,53.51,81.04z"/>
				<path class="st2" d="M44.06,91.21l0.88-11.38c-1.87-0.59-3.67-1.37-5.37-2.31L32,86.17C36.8,91.01,42.34,91.26,44.06,91.21z"/>
				<path class="st2" d="M103.28,44.41l-20.55,0.96c0.47,2.25,0.71,4.64,0.67,6.81c-0.04,2.22-0.25,4.05-0.71,5.99l20.41,2.06
					C106.21,53.17,103.93,46.14,103.28,44.41z"/>
				<path class="st2" d="M18.21,30.3c-4.73,4.92-4.85,10.48-4.76,12.17l11.39,0.62c0.55-1.88,1.28-3.7,2.18-5.42L18.21,30.3z"/>
				<path class="st2" d="M18.75,73.34l8.51-7.64c-0.94-1.71-1.71-3.51-2.29-5.36l-11.55,1.43C13.56,68.59,17.49,72.31,18.75,73.34z"
					/>
				<path class="st2" d="M23.63,52.18c-0.04-2.18,0.2-4.57,0.67-6.81L3.75,44.41c-0.65,1.73-2.92,8.78,0.17,15.82l20.41-2.06
					C23.88,56.24,23.66,54.4,23.63,52.18z"/>
				<path class="st2" d="M75.12,30.95c0.21,0.21,0.41,0.42,0.6,0.62c1.19,1.22,2.17,2.21,3.1,3.65L95,22.27
					c-2.8-7.15-9.18-10.04-10.79-10.67L70.26,26.9C72,28.03,73.52,29.3,75.12,30.95z"/>
				<path class="st2" d="M70.26,76.07l14,15.56c1.52-0.49,7.51-2.82,10.28-9.91L78.45,67.88c-1.08,1.72-2.11,2.91-3.53,4.38
					C73.43,73.8,72.12,74.87,70.26,76.07z"/>
				<path class="st2" d="M37.48,26.49L23.65,11.27c-1.68,0.76-8.28,4.13-11.08,11.29l15.87,13c1.05-1.69,2.2-3.14,3.74-4.73
					C33.7,29.27,35.56,27.75,37.48,26.49z"/>
				<path class="st2" d="M32.67,72.26c-1.43-1.47-2.46-2.66-3.53-4.38L13.05,81.72c2.77,7.09,8.76,9.42,10.28,9.91l14-15.56
					C35.47,74.87,34.16,73.8,32.67,72.26z"/>
				<path class="st2" d="M91.29,33.37c-0.62-0.99-1.36-1.94-2.2-2.81l-9.07,7.12c0.9,1.72,1.63,3.53,2.17,5.41l11.41-0.62
					c0.06-0.64,0.1-1.87-0.15-3.41C93.13,37.06,92.4,35.14,91.29,33.37z"/>
				<g>
					<path class="st2" d="M96.4,34.35c-0.52-1.16-1.17-2.02-1.62-2.54l-0.46-0.53l-1.74,1.58l0.3,0.49c1.01,1.64,1.65,3.46,1.9,5.41
						l0.07,0.55l2.35,0.22l0.04-0.71C97.33,37.28,97.04,35.79,96.4,34.35z"/>
					<path class="st2" d="M73.38,13.3l0.44,0.33l1.79-1.54l-0.48-0.52c-1.04-1.13-2.3-1.97-3.77-2.5c-1.2-0.44-2.28-0.57-2.97-0.6
						l-0.7-0.03l-0.08,2.35l0.56,0.12C70.06,11.33,71.81,12.13,73.38,13.3z"/>
					<path class="st2" d="M73.86,89.36c-1.55,1.16-3.3,1.96-5.22,2.38l-0.54,0.12l-0.01,2.36l0.71-0.02c1.53-0.05,3-0.46,4.37-1.23
						c1.11-0.63,1.91-1.35,2.38-1.85l0.48-0.51l-1.73-1.6L73.86,89.36z"/>
					<path class="st2" d="M94.51,65.93c-0.35,1.9-1.1,3.68-2.22,5.29l-0.31,0.45l1.59,1.74l0.51-0.5c1.09-1.07,1.89-2.37,2.37-3.86
						c0.39-1.21,0.49-2.29,0.51-2.97l0.01-0.7l-2.35,0L94.51,65.93z"/>
					<path class="st2" d="M12.4,38.41c0.25-1.95,0.89-3.77,1.9-5.41l0.3-0.49l-1.74-1.58l-0.46,0.53c-0.45,0.52-1.1,1.38-1.62,2.54
						c-0.64,1.43-0.93,2.93-0.84,4.45l0.04,0.71l2.35-0.22L12.4,38.41z"/>
					<path class="st2" d="M36.73,8.85c-1.49,0.47-2.79,1.26-3.87,2.35l-0.5,0.5l1.73,1.61L34.54,13c1.62-1.11,3.4-1.84,5.3-2.18
						l0.56-0.1l0.01-2.35l-0.7,0.01C39.03,8.37,37.95,8.46,36.73,8.85z"/>
					<path class="st2" d="M39.57,92.24c-1.92-0.43-3.67-1.23-5.22-2.38l-0.46-0.34l-1.73,1.6l0.48,0.51
						c0.48,0.5,1.28,1.22,2.39,1.84c1.37,0.77,2.84,1.19,4.36,1.23l0.71,0.02l-0.01-2.36L39.57,92.24z"/>
					<path class="st2" d="M12.47,65.93l-0.11-0.56l-2.35,0l0.01,0.7c0.01,0.69,0.11,1.76,0.51,2.97c0.49,1.49,1.28,2.79,2.37,3.86
						l0.51,0.5l1.59-1.74l-0.31-0.45C13.57,69.61,12.82,67.83,12.47,65.93z"/>
				</g>
			</g>
			<g>
				<rect x="44.45" y="65.22" class="st2" width="16.57" height="2.21"/>
				<rect x="44.45" y="61.02" class="st2" width="16.57" height="2.21"/>
				<polygon class="st2" points="37.44,46.73 42.1,50.04 45.17,46.73 				"/>
				<path class="st2" d="M49.42,57.07l7.43-0.01l-0.47-13.52l17.72-1.69c-3.72-8.08-11.78-13.27-20.68-13.27
					c-8.86,0-16.91,5.16-20.64,13.19l16.99,1.85L49.42,57.07z"/>
				<path class="st2" d="M38.36,68.4l0.36-10.67l-8.06-6.06C30.75,58.1,33.53,64.14,38.36,68.4z"/>
				<path class="st2" d="M32.33,43.08c-0.12,0.34-0.59,1.3-0.7,1.65l16.22,0.46L32.33,43.08z"/>
				<polygon class="st2" points="68.71,46.73 60.98,46.73 64.05,50.04 				"/>
				<path class="st2" d="M66.97,69.61c5.72-4.26,9.14-10.95,9.2-18.07l-9.37,6.81L66.97,69.61z"/>
				<path class="st2" d="M76.06,49.07c-0.18-1.8-0.85-4.07-1.44-5.76L58.4,45.2l16.56-0.46l-11.18,7.93l-5.28-5.7l0.39,11.37H47.4
					l0.28-11.39l-5.31,5.72L31.56,45c-0.4,1.38-0.67,2.81-0.8,4.26l9.99,7.51l-0.42,13.19c3.85,2.72,8.38,4.16,13.09,4.16
					c4.07,0,8.07-1.09,11.56-3.16l-0.17-13.59L76.06,49.07z M63.01,69.42H42.46V59.03h4.34h0.58h11.53h0.77h3.33V69.42z"/>
			</g>
		</g>
	</g>
</g>
</svg>
